<svg xmlns="http://www.w3.org/2000/svg" viewBox="0 0 436.59 464.22"><defs><style>.cls-1{fill:#e0e0e0;}.cls-2{fill:#fafafa;}.cls-3{fill:#ebebeb;}.cls-4{fill:#fff;}.cls-5{fill:#263238;}.cls-6{fill:#455a64;}.cls-7{fill:#bd8c83;}.cls-8{fill:#896360;}.cls-9{fill:#9fcddd;}.cls-10{opacity:0.3;}.cls-11{fill:#ffbe9d;}.cls-12{opacity:0.6;}.cls-13{fill:#eb996e;}.cls-14{fill:#f5f5f5;}</style></defs><title>Recurso 1</title><g id="Capa_2" data-name="Capa 2"><g id="Background_Complete" data-name="Background Complete"><path class="cls-1" d="M26,391.62A24.63,24.63,0,0,0,15.45,388a7,7,0,0,0-5,.92,1,1,0,0,0-.52.91,1.11,1.11,0,0,0,.49.62A15.11,15.11,0,0,0,26,391.62"/><path class="cls-1" d="M25.75,391.32a52.1,52.1,0,0,1-6.83-6,17.27,17.27,0,0,1-4.28-7.92,3.21,3.21,0,0,1,.34-2.65c5.44,4.25,9.72,9.75,10.77,16.58"/><path class="cls-1" d="M26,391.58a24.8,24.8,0,0,1,.13-9,12.11,12.11,0,0,1,4.78-7.4c.94,2.2.53,4.73-.13,7a34.21,34.21,0,0,1-4.73,10"/><path class="cls-1" d="M31.3,401.14a15.6,15.6,0,0,0-8.48,4.29A16,16,0,0,0,18,413.75c3.18-.19,5.87-2.43,7.83-4.95s3.31-5.26,5.46-7.61"/><path class="cls-1" d="M32.46,402.67a21,21,0,0,1,2.41-19.79,25.19,25.19,0,0,1-2.41,19.79"/><path class="cls-1" d="M39.51,411.06a15.14,15.14,0,0,0-14.46,8.32c-.18.36-.34.82-.1,1.14a1.09,1.09,0,0,0,1,.28c2.85-.18,5.38-1.9,7.46-3.85s3.9-4.21,6.2-5.9"/><path class="cls-1" d="M39.29,410.6a26.81,26.81,0,0,1-.27-15c.53-1.94,1.42-4,3.21-4.88a.62.62,0,0,1,.49-.09A.69.69,0,0,1,43,391a9.1,9.1,0,0,1,.76,4.32,28.35,28.35,0,0,1-.68,4.37c-.56,2.67-.86,5.54-2.33,7.84a16.82,16.82,0,0,0-.93,1.72c-.28.59-.28.79-.53,1.26"/><path class="cls-1" d="M58,413.39a19.39,19.39,0,0,1,3.4-15.95c.24-.32.57-.66,1-.62.61.05.77.87.75,1.48A28.9,28.9,0,0,1,58,413.39"/><path class="cls-1" d="M59.63,414.54a23.22,23.22,0,0,0,19-3.88,15.45,15.45,0,0,0-10.31-1.26,14.7,14.7,0,0,0-8.73,5.14"/><path class="cls-1" d="M61.05,411a22,22,0,0,1,17.28-10,10.66,10.66,0,0,1-5.65,6.25,31.22,31.22,0,0,1-8.3,2.43c-1.1.21-2.61.45-3.33,1.31"/><path class="cls-1" d="M58.3,394a49.71,49.71,0,0,0,2.21-10.12,16.82,16.82,0,0,0-2-10,22.07,22.07,0,0,0-.3,20.48"/><path class="cls-1" d="M69.56,388.35c3.91-7.1,11.88-12.78,20-13.57-3.12,7.75-11.61,13.74-20,13.57"/><path class="cls-1" d="M67.1,389.74c5.83.89,10.8,4.62,16.25,6.87a7.23,7.23,0,0,0,3.67.71,2.88,2.88,0,0,0,1.8-5.09,7.75,7.75,0,0,0-2.67-1.62c-5.93-2.47-12.3-2.53-18.55-1"/><path class="cls-1" d="M63.73,393.83c1.32.38,1.77,1.06,2.81,1.95a30.38,30.38,0,0,0,12.32,6.33c.47.12,1.09.17,1.32-.26s-.05-.82-.32-1.15a16.94,16.94,0,0,0-7.43-5.05c-2.85-1.06-5.31-2.34-8.7-2.06"/><path class="cls-1" d="M59.92,369.14a23.35,23.35,0,0,0,17.87,6.08,1.23,1.23,0,0,0,.82-.3c.45-.48-.09-1.24-.62-1.65-5.25-4.1-11.62-5.79-18.07-4.13"/><path class="cls-1" d="M64.43,367.48a24.94,24.94,0,0,1,22.31-3.68,17.72,17.72,0,0,1-10.63,4.67,33.62,33.62,0,0,1-11.68-1"/><path class="cls-1" d="M62.64,356.13c-.52-5.24-.18-9.38-.55-14.65,0-.42-.12-.93-.51-1.08-.55-.21-1,.46-1.19,1A16.83,16.83,0,0,0,62.63,356"/><path class="cls-1" d="M62.26,356.71A30.76,30.76,0,0,0,71,348.27c1.72-2.35,3.16-5.16,2.77-8a8.29,8.29,0,0,0-6.26,3.11,17.51,17.51,0,0,0-3.2,6.43c-.7,2.3-1.18,4.68-2,6.94"/><path class="cls-1" d="M70.8,354.34a70,70,0,0,0,21.38-12.61c-2.55-1-5.48-.41-8,.62a25.33,25.33,0,0,0-13.46,11.93"/><path class="cls-1" d="M64.66,359.58a43.37,43.37,0,0,0,11.88.06A50.58,50.58,0,0,0,87.62,356a1.33,1.33,0,0,0,.75-.57.87.87,0,0,0-.27-.95,2.28,2.28,0,0,0-.94-.45,20.54,20.54,0,0,0-12,.72,56.07,56.07,0,0,0-10.52,4.87"/><path class="cls-1" d="M42.12,369.31a21,21,0,0,1-.19-17.38c1.64,2.5,1.84,5.67,1.54,8.64s-1.21,6-1.26,9"/><path class="cls-1" d="M31.36,363.89a24.21,24.21,0,0,0-18,7.67,16.81,16.81,0,0,0,9.86-1.83,50.69,50.69,0,0,0,8.46-5.65"/><path class="cls-1" d="M24.13,361.47c-3.29-.27-6.46-.67-9.62.29A11.54,11.54,0,0,0,7.18,368a17.33,17.33,0,0,0,9-1.7,52.2,52.2,0,0,0,7.93-4.81"/><path class="cls-1" d="M34.84,361.58c-3-1.94-6-3.91-9.44-4.72s-7.44-.21-9.85,2.39c2.79,1.64,6.18,1.83,9.41,1.83s7.2,0,10.25,1"/><path class="cls-1" d="M34.86,361.74c-5.06-5-7-13.9-4.94-20.69a31.6,31.6,0,0,1,4.94,20.69"/><path class="cls-1" d="M48.77,347.66c.95-2.22,1.62-4.55,2.48-6.8a19.49,19.49,0,0,1,3.54-6.28,9.29,9.29,0,0,1,6.26-3.24A25.26,25.26,0,0,1,48.89,347.7"/><path class="cls-1" d="M46.25,350.59c-1.58-2.17-3.4-5.12-5.54-6.74a9.28,9.28,0,0,0-7.55-2,17.55,17.55,0,0,0,13.09,8.72"/><path class="cls-1" d="M46.75,347.84a37.94,37.94,0,0,1-2.49-8.08,12.59,12.59,0,0,1,1.26-8.22c2.78,5.25,3.67,10.89,1.38,16.36"/><path class="cls-1" d="M48.79,331.54c1.58-5.2,6.34-9,11.49-10.79a4.34,4.34,0,0,1,2-.31,1.75,1.75,0,0,1,1.48,1.24c.19.89-.54,1.68-1.23,2.27a38.83,38.83,0,0,1-13.75,7.59"/><path class="cls-1" d="M48.85,327.28a37.3,37.3,0,0,1,1.5-9.93c1.09-3.18,3.2-6.17,6.26-7.56.52,3.39-1,6.76-2.78,9.68s-4,5.67-5.06,8.92"/><path class="cls-1" d="M48.77,329.59c-1.3-3.79-1.44-8.61-3.71-11.91-1.59-2.31-4.13-3.88-5.5-6.33a9.68,9.68,0,0,0,.32,7.19,20.85,20.85,0,0,0,4.21,6c1.68,1.8,3.12,3.15,4.68,5"/><path class="cls-1" d="M48.79,441.28c-.1,0-.19-25.3-.19-56.5s.07-56.51.17-56.51.19,25.3.19,56.51S48.89,441.28,48.79,441.28Z"/><path class="cls-1" d="M70.9,365.5a5.37,5.37,0,0,1-1,.35l-2.62.89c-2.2.75-5.24,1.84-8.53,3.19s-6.33,2.53-8.08,4.05a5.8,5.8,0,0,0-1.62,2.14c-.25.6-.3,1-.33,1a.82.82,0,0,1,0-.27,4.24,4.24,0,0,1,.18-.74,5.86,5.86,0,0,1,1.59-2.29,14.29,14.29,0,0,1,3.51-2.18c1.4-.65,2.95-1.33,4.6-2,3.31-1.35,6.36-2.41,8.59-3.1,1.12-.35,2-.6,2.66-.77A4.48,4.48,0,0,1,70.9,365.5Z"/><path class="cls-1" d="M78.15,347.7s-.08.1-.27.28l-.81.76-3,2.76-10.09,9c-3.94,3.5-7.34,6.85-9.7,9.37-1.18,1.26-2.11,2.31-2.74,3l-.73.84c-.17.19-.27.29-.28.28a1.61,1.61,0,0,1,.22-.32c.15-.21.37-.51.68-.89.6-.75,1.5-1.83,2.66-3.11a128.2,128.2,0,0,1,9.65-9.47c3.95-3.5,7.55-6.64,10.16-8.91L77,348.64l.85-.71A1.47,1.47,0,0,1,78.15,347.7Z"/><path class="cls-1" d="M59.7,364c-.1,0,.72-1.94,1.54-4.35s1.22-4.42,1.32-4.41a14.82,14.82,0,0,1-1,4.53,28.14,28.14,0,0,1-1.23,3A4.58,4.58,0,0,1,59.7,364Z"/><path class="cls-1" d="M48.82,379.36a4.8,4.8,0,0,1-.61-.71c-.41-.53-.93-1.2-1.56-2-1.3-1.69-3.11-4-5.13-6.57s-3.88-4.84-5.23-6.49l-1.59-2a4.14,4.14,0,0,1-.55-.75,5.3,5.3,0,0,1,.66.66c.4.44,1,1.09,1.68,1.89,1.4,1.62,3.29,3.88,5.32,6.43s3.8,4.91,5,6.64c.63.87,1.13,1.57,1.46,2.07A4.3,4.3,0,0,1,48.82,379.36Z"/><path class="cls-1" d="M44,373.13a8.89,8.89,0,0,1-2-3.8,10.88,10.88,0,0,1-.46-3.83h.16c-.07.29-.13.45-.16.44a1.15,1.15,0,0,1,0-.47l.16,0a17.36,17.36,0,0,0,.65,3.73A27.61,27.61,0,0,0,44,373.13Z"/><path class="cls-1" d="M37.71,365.26a6.59,6.59,0,0,0-1.42-.82,9.45,9.45,0,0,0-3.93-.32,25.54,25.54,0,0,0-4,.64,10.09,10.09,0,0,1-1.63.39,6,6,0,0,1,1.56-.64,18.54,18.54,0,0,1,4-.75,8.45,8.45,0,0,1,4.06.44A2.54,2.54,0,0,1,37.71,365.26Z"/><path class="cls-1" d="M36.23,363.35c0,.06-.83-.33-2.18-.79a22.44,22.44,0,0,0-5.42-1.12,22,22,0,0,0-5.52.29c-1.4.25-2.25.51-2.27.45s.2-.11.58-.25a13.05,13.05,0,0,1,1.64-.46,19.55,19.55,0,0,1,5.6-.39,19.36,19.36,0,0,1,5.48,1.24,13.93,13.93,0,0,1,1.55.7A2.16,2.16,0,0,1,36.23,363.35Z"/><path class="cls-1" d="M48.77,355.28a44.26,44.26,0,0,1-1.59-5.5A48.57,48.57,0,0,1,46,344.19a44.26,44.26,0,0,1,1.59,5.5A46.15,46.15,0,0,1,48.77,355.28Z"/><path class="cls-1" d="M48.87,355.28A27.5,27.5,0,0,0,47.11,352a15.07,15.07,0,0,0-2.58-2.67,2.33,2.33,0,0,1,1,.52,7.94,7.94,0,0,1,1.88,1.94A7.27,7.27,0,0,1,48.87,355.28Z"/><path class="cls-1" d="M48.79,427.8s-.11-.61-.4-1.69a23.74,23.74,0,0,0-1.69-4.38,60.25,60.25,0,0,0-9-12.63c-2-2.29-3.94-4.45-5.59-6.52a45.48,45.48,0,0,1-4-5.77,27.54,27.54,0,0,1-2-4.28c-.19-.53-.32-.94-.4-1.22a2.16,2.16,0,0,1-.1-.44s.21.58.63,1.61a32.58,32.58,0,0,0,2.11,4.2,47.72,47.72,0,0,0,4,5.69c1.66,2.05,3.6,4.19,5.61,6.48a57.89,57.89,0,0,1,8.93,12.77,22.08,22.08,0,0,1,1.59,4.46,12.33,12.33,0,0,1,.23,1.27A1.7,1.7,0,0,1,48.79,427.8Z"/><path class="cls-1" d="M68.77,405.23a9,9,0,0,1-1,.59A22.66,22.66,0,0,0,65,407.61a32.37,32.37,0,0,0-3.57,3.26c-1.25,1.32-2.54,2.85-3.86,4.5-2.63,3.3-5.09,6.22-6.56,8.56-.75,1.15-1.29,2.13-1.65,2.81a9.06,9.06,0,0,1-.58,1.06,1.38,1.38,0,0,1,.1-.3c.08-.19.18-.47.35-.82a25.66,25.66,0,0,1,1.56-2.89,93.69,93.69,0,0,1,6.5-8.65c1.32-1.65,2.62-3.19,3.9-4.51a28.46,28.46,0,0,1,3.65-3.22,19.22,19.22,0,0,1,2.81-1.72c.35-.17.63-.28.82-.36A1,1,0,0,1,68.77,405.23Z"/><path class="cls-1" d="M69.16,412.55a14.7,14.7,0,0,1-2.21.32,29.7,29.7,0,0,0-5.25,1,15.61,15.61,0,0,0-4.7,2.46c-1.08.84-1.59,1.53-1.64,1.49a1.79,1.79,0,0,1,.32-.51,8.82,8.82,0,0,1,1.16-1.18,14.15,14.15,0,0,1,4.75-2.61,24,24,0,0,1,5.33-.95A11.67,11.67,0,0,1,69.16,412.55Z"/><path class="cls-1" d="M56,417.06c-.11-.07.88-1.59,1.66-3.64s.89-3.88,1-3.86a3.36,3.36,0,0,1,0,1.19,12.62,12.62,0,0,1-.65,2.79,13.3,13.3,0,0,1-1.28,2.57A3.79,3.79,0,0,1,56,417.06Z"/><path class="cls-1" d="M75.24,385.58a1.88,1.88,0,0,1-.35.18l-1,.48c-.46.19-1,.44-1.63.77s-1.36.65-2.12,1.11l-1.21.69c-.41.24-.83.52-1.27.8-.89.54-1.78,1.2-2.73,1.88a53.05,53.05,0,0,0-5.71,5,51.15,51.15,0,0,0-4.82,5.88c-.65,1-1.28,1.88-1.79,2.79-.26.45-.53.88-.76,1.3l-.64,1.23c-.43.78-.74,1.52-1,2.15s-.54,1.2-.72,1.66-.32.78-.43,1.06a2.32,2.32,0,0,1-.18.36,2,2,0,0,1,.11-.39c.1-.28.22-.64.37-1.08s.37-1,.66-1.69.58-1.4,1-2.18l.62-1.25c.23-.43.49-.86.75-1.32.5-.92,1.13-1.85,1.77-2.84a49.88,49.88,0,0,1,4.84-5.93,48.91,48.91,0,0,1,5.77-5c1-.67,1.87-1.33,2.77-1.87.45-.27.87-.55,1.29-.79l1.23-.67c.77-.44,1.51-.76,2.15-1.07a17.44,17.44,0,0,1,1.66-.71l1.07-.41C75.11,385.61,75.24,385.56,75.24,385.58Z"/><path class="cls-1" d="M59.43,396.17a2.49,2.49,0,0,1,.87-1.29,5.49,5.49,0,0,1,3.5-1.35,9.61,9.61,0,0,1,3.69.72,5.2,5.2,0,0,1,1.39.68,9.11,9.11,0,0,1-1.48-.43,10.88,10.88,0,0,0-3.59-.6,5.72,5.72,0,0,0-3.34,1.17A10,10,0,0,0,59.43,396.17Z"/><path class="cls-1" d="M57.07,398.61a13.13,13.13,0,0,0,1-3.24,12.9,12.9,0,0,0-.22-3.38,2.21,2.21,0,0,1,.41.95,6.75,6.75,0,0,1-.57,4.85A2.27,2.27,0,0,1,57.07,398.61Z"/><path class="cls-1" d="M31.32,431.42c.54,9.67,3.46,19.5,7.94,29.44H58.75c4.27-9.84,7-19.66,7.47-29.44Z"/><path class="cls-2" d="M63.06,447.07c0,.1-6.42.18-14.33.18s-14.33-.08-14.33-.18,6.41-.19,14.33-.19S63.06,447,63.06,447.07Z"/><path class="cls-2" d="M62.62,450.57c0,.1-6,.18-13.43.18s-13.44-.08-13.44-.18,6-.18,13.44-.18S62.62,450.47,62.62,450.57Z"/><path class="cls-2" d="M39.57,437.77a53.15,53.15,0,0,1,0,9,56.09,56.09,0,0,1,0-9Z"/><path class="cls-2" d="M50,437.77a60.15,60.15,0,0,1,0,9.3,57,57,0,0,1,0-9.3Z"/><path class="cls-2" d="M59.82,437.69a62.5,62.5,0,0,1,0,9.48,62.5,62.5,0,0,1,0-9.48Z"/><path class="cls-2" d="M65.6,437.77c0,.1-7.53.18-16.81.18S32,437.87,32,437.77s7.53-.18,16.81-.18S65.6,437.67,65.6,437.77Z"/><path class="cls-1" d="M410.52,379.78c-.08.1-.79-.32-1.57-.94s-1.34-1.22-1.26-1.33.79.32,1.57.95S410.6,379.67,410.52,379.78Z"/><path class="cls-3" d="M431.84,347.91a24.64,24.64,0,0,0-.73-8.86c-.94-2.82-3.12-5.43-6-6-3.33-.69-6.74,1.41-8.61,4.26s-2.5,6.29-3,9.65A340.29,340.29,0,0,0,409.23,417l13.63,1.91C428.84,394.45,430.75,373.07,431.84,347.91Z"/><path class="cls-1" d="M423.18,332.92s0,.07-.06.21l-.22.62c-.23.58-.53,1.36-.91,2.35-.19.52-.45,1.07-.65,1.71s-.42,1.32-.66,2.06-.49,1.54-.76,2.37-.46,1.76-.71,2.7a118.06,118.06,0,0,0-2.63,13.49c-.74,5.13-1.22,10.81-1.6,16.77-.7,11.94-.81,22.78-1.11,30.62-.15,3.92-.28,7.09-.43,9.28-.08,1.06-.13,1.9-.18,2.52,0,.26,0,.48-.05.65a.89.89,0,0,1,0,.23.82.82,0,0,1,0-.23c0-.18,0-.39,0-.66,0-.61,0-1.46.08-2.52.09-2.19.17-5.36.27-9.28.22-7.84.27-18.68,1-30.64.38-6,.88-11.66,1.65-16.8a110.3,110.3,0,0,1,2.74-13.51c.26-.95.51-1.85.74-2.71l.8-2.36c.25-.74.49-1.43.7-2.06s.49-1.18.69-1.69c.42-1,.75-1.76,1-2.33q.15-.36.27-.6C423.14,333,423.17,332.91,423.18,332.92Z"/><path class="cls-1" d="M424.45,332.92a9.88,9.88,0,0,1,1.66,2.82,20.74,20.74,0,0,1,1.24,8.82c-.36,7.53-1,17.91-1.93,29.37s-1.9,21.81-2.7,29.3c-.41,3.75-.75,6.77-1,8.86-.13,1-.23,1.82-.31,2.41l-.09.62a.91.91,0,0,1-.05.21s0-.07,0-.21,0-.38,0-.63c.06-.6.13-1.4.22-2.42.21-2.14.5-5.16.85-8.87.72-7.5,1.66-17.86,2.56-29.31s1.63-21.84,2.08-29.34a21.26,21.26,0,0,0-1.08-8.74A19.28,19.28,0,0,0,424.45,332.92Z"/><path class="cls-1" d="M433.89,368.2a7.85,7.85,0,0,1-2.58-.67,7.55,7.55,0,0,1-2.42-1.13,7.88,7.88,0,0,1,2.59.67A7.3,7.3,0,0,1,433.89,368.2Z"/><path class="cls-1" d="M435.54,354.31a8.52,8.52,0,0,1-2.46,1.36,7.77,7.77,0,0,1-2.66.92,8.52,8.52,0,0,1,2.46-1.36A8,8,0,0,1,435.54,354.31Z"/><path class="cls-1" d="M434.69,343a4.48,4.48,0,0,1-2,.1,4.29,4.29,0,0,1-2-.38,8.63,8.63,0,0,1,4,.28Z"/><path class="cls-1" d="M420.62,335.71c-.11.07-.71-.68-1.33-1.66s-1-1.85-.92-1.93.71.68,1.33,1.67A4.79,4.79,0,0,1,420.62,335.71Z"/><path class="cls-1" d="M416,342.56a4,4,0,0,1-1.93.2,4.12,4.12,0,0,1-1.93-.28c0-.14.87-.23,1.94-.2A4.06,4.06,0,0,1,416,342.56Z"/><path class="cls-1" d="M412.64,356.28a4.88,4.88,0,0,1-2-.56c-1.08-.44-1.91-.89-1.86-1a4.54,4.54,0,0,1,2,.56C411.86,355.7,412.69,356.15,412.64,356.28Z"/><path class="cls-1" d="M412.28,367.81c0,.13-.75.41-1.73.61s-1.81.27-1.84.14.75-.41,1.74-.61S412.25,367.68,412.28,367.81Z"/><path class="cls-1" d="M410.71,386.68c0,.13-.8.39-1.84.58a4.14,4.14,0,0,1-1.93.1c0-.14.8-.4,1.84-.58A4,4,0,0,1,410.71,386.68Z"/><path class="cls-1" d="M409.67,397.1c.06.11-.63.6-1.54,1.08s-1.7.78-1.76.66.62-.61,1.53-1.09S409.6,397,409.67,397.1Z"/><path class="cls-1" d="M418.17,408.92a5.8,5.8,0,0,1-1.34-1.85,5.41,5.41,0,0,1-.91-2.09,5.8,5.8,0,0,1,1.34,1.85A5.41,5.41,0,0,1,418.17,408.92Z"/><path class="cls-1" d="M420.63,389.27c.09.1-.58.9-1.49,1.8s-1.74,1.55-1.84,1.46.58-.9,1.49-1.8S420.53,389.18,420.63,389.27Z"/><path class="cls-1" d="M420.08,379c-.1.1-.71-.41-1.38-1.13s-1.12-1.37-1-1.46.72.41,1.39,1.13S420.18,378.87,420.08,379Z"/><path class="cls-1" d="M421.77,365.79c.1.09-.46.88-1.24,1.75s-1.51,1.52-1.61,1.43.46-.87,1.24-1.75S421.67,365.7,421.77,365.79Z"/><path class="cls-1" d="M422.72,356.24c-.09.09-.87-.52-1.73-1.37s-1.49-1.61-1.4-1.71.87.52,1.74,1.37S422.81,356.14,422.72,356.24Z"/><path class="cls-1" d="M424.59,343.31a5,5,0,0,1-.87,1.94c-.6,1-1.18,1.75-1.29,1.68s.27-.93.87-1.93S424.47,343.25,424.59,343.31Z"/><path class="cls-1" d="M428.1,331.34a4.86,4.86,0,0,1-.77,1.94c-.55,1-1.08,1.77-1.2,1.7s.22-.93.77-1.93S428,331.28,428.1,331.34Z"/><path class="cls-1" d="M432.08,336.78c.06.12-.49.5-1.22.85s-1.37.54-1.43.41.49-.5,1.22-.85S432,336.66,432.08,336.78Z"/><path class="cls-1" d="M432.17,379.78a5.44,5.44,0,0,1-2.66-.64,5.52,5.52,0,0,1-2.31-1.48,13.12,13.12,0,0,1,2.5,1A13.25,13.25,0,0,1,432.17,379.78Z"/><path class="cls-1" d="M430.55,388.89c0,.13-.8.4-1.84.6s-1.9.26-1.92.12.79-.4,1.83-.6A4,4,0,0,1,430.55,388.89Z"/><path class="cls-1" d="M428.55,404.51a5.38,5.38,0,0,1-2.08-1.83,5.22,5.22,0,0,1-1.3-2.43,15.4,15.4,0,0,1,1.68,2.13A16.24,16.24,0,0,1,428.55,404.51Z"/><path class="cls-1" d="M406.64,411.65c-.09-.1.46-.72,1.23-1.38s1.47-1.11,1.56-1-.47.72-1.24,1.38S406.73,411.75,406.64,411.65Z"/><path class="cls-3" d="M400.34,377.56c-.89-2.77-2.55-6-5.46-6a4.84,4.84,0,0,0-4.09,2.74,10.1,10.1,0,0,0-1.1,5,130.39,130.39,0,0,0,6.25,36.31h10.64A126.62,126.62,0,0,0,400.34,377.56Z"/><path class="cls-3" d="M381.1,360.13c-1.49-5.95-5.93-9.17-11.08-9.46-4.71.82-6.53,5.45-7.09,10.19s.91,9.47,2.37,14l14,43.81,13.23-1.45C388.35,397.68,386,379.54,381.1,360.13Z"/><path class="cls-1" d="M394.88,371.52A11.63,11.63,0,0,0,394,373a10,10,0,0,0-.5,4.7c.21,2,.44,4.46.78,7.13s.83,5.6,1.42,8.66c1.21,6.11,2.56,11.6,3.42,15.6.44,2,.77,3.62,1,4.74.08.52.16.95.22,1.3a1.6,1.6,0,0,1,0,.46,2.57,2.57,0,0,1-.14-.44c-.08-.35-.19-.77-.31-1.28l-1.12-4.71c-.95-4-2.36-9.45-3.56-15.58-.6-3.06-1.07-6-1.4-8.69-.17-1.35-.28-2.63-.39-3.83s-.23-2.31-.28-3.33a9.51,9.51,0,0,1,.67-4.81A4.16,4.16,0,0,1,394.88,371.52Z"/><path class="cls-1" d="M370.21,350.29a16.28,16.28,0,0,0-1.6,2.15,15.18,15.18,0,0,0-2,6.93A32.14,32.14,0,0,0,368.23,370L372,382.83l6.78,23.29c.83,2.94,1.51,5.35,2,7.07.21.8.38,1.44.52,1.93a3.16,3.16,0,0,1,.14.68,5.71,5.71,0,0,1-.24-.65c-.15-.48-.35-1.12-.61-1.91-.52-1.71-1.25-4.1-2.15-7-1.78-6-4.21-14.19-6.91-23.25-1.32-4.54-2.59-8.87-3.74-12.81a31.86,31.86,0,0,1-1.55-10.81,14.78,14.78,0,0,1,2.2-7A8.21,8.21,0,0,1,370.21,350.29Z"/><path class="cls-1" d="M389.66,415.83a3.87,3.87,0,0,1-.3-.64c-.18-.42-.46-1-.76-1.86-.63-1.63-1.44-4-2.27-7s-1.67-6.63-2.47-10.68-1.61-8.5-2.49-13.17-1.95-9.07-3.14-13a72.66,72.66,0,0,0-3.86-10.2,52.58,52.58,0,0,0-3.57-6.43c-.45-.74-.87-1.28-1.11-1.67a3,3,0,0,1-.37-.59,3.64,3.64,0,0,1,.45.53c.27.37.71.89,1.19,1.62a48.44,48.44,0,0,1,3.72,6.39,69.42,69.42,0,0,1,4,10.22,132.59,132.59,0,0,1,3.19,13c.87,4.67,1.69,9.12,2.45,13.18s1.56,7.66,2.36,10.67,1.55,5.41,2.12,7.06c.27.82.53,1.45.67,1.89A4.69,4.69,0,0,1,389.66,415.83Z"/><path class="cls-1" d="M365.54,372.69c0,.13-.69.42-1.61.64s-1.69.3-1.73.17.69-.42,1.61-.64S365.5,372.56,365.54,372.69Z"/><path class="cls-1" d="M364.13,363.65a6.3,6.3,0,0,1-2.23.25,6.88,6.88,0,0,1-2.25-.07,4.69,4.69,0,0,1,2.23-.42A4.63,4.63,0,0,1,364.13,363.65Z"/><path class="cls-1" d="M365.62,355.4c-.08.1-.8-.36-1.6-1s-1.38-1.31-1.29-1.42.8.37,1.6,1.05S365.71,355.3,365.62,355.4Z"/><path class="cls-1" d="M369.66,347.76c.14,0,.1.68.08,1.45s0,1.43-.16,1.45-.35-.63-.33-1.46S369.53,347.73,369.66,347.76Z"/><path class="cls-1" d="M377.92,351.36c.11.08-.22.73-.73,1.46s-1,1.25-1.12,1.18.21-.73.72-1.46S377.8,351.28,377.92,351.36Z"/><path class="cls-1" d="M383.27,360.67c.05.12-.63.52-1.53.88s-1.66.56-1.72.44.64-.52,1.54-.89S383.22,360.54,383.27,360.67Z"/><path class="cls-1" d="M386.52,370.24a4,4,0,0,1-2.1.91,4,4,0,0,1-2.29.08,8.65,8.65,0,0,1,2.18-.55A8.44,8.44,0,0,1,386.52,370.24Z"/><path class="cls-1" d="M371.6,367.52c-.13,0,0-.7.21-1.48s.54-1.37.67-1.33,0,.7-.21,1.48S371.73,367.56,371.6,367.52Z"/><path class="cls-1" d="M373.68,379.54a4.68,4.68,0,0,1,.6-2c.46-1.05.92-1.85,1.05-1.8a4.71,4.71,0,0,1-.6,2C374.28,378.79,373.81,379.59,373.68,379.54Z"/><path class="cls-1" d="M368.54,382.83a5.05,5.05,0,0,1-1.9-.42c-1-.32-1.84-.61-1.81-.74a3.6,3.6,0,0,1,1.95.27C367.82,382.27,368.59,382.7,368.54,382.83Z"/><path class="cls-1" d="M371.51,392.63c.07.1-.49.64-1.27,1.2s-1.47.91-1.55.8.49-.64,1.27-1.2S371.43,392.52,371.51,392.63Z"/><path class="cls-1" d="M373.88,402.39c0,.14-.67.42-1.56.64s-1.65.29-1.69.15.67-.41,1.57-.63S373.85,402.26,373.88,402.39Z"/><path class="cls-1" d="M386.78,378.4c.07.11-.53.59-1.4.92s-1.64.37-1.67.24.66-.38,1.49-.7S386.71,378.28,386.78,378.4Z"/><path class="cls-1" d="M388.62,393.6c-.05.12-.77-.1-1.59-.48s-1.45-.81-1.39-.93.77.1,1.6.49S388.68,393.48,388.62,393.6Z"/><path class="cls-1" d="M391.88,404.47a4.84,4.84,0,0,1-2.11-.56c-1.12-.44-2-.89-1.93-1a5.16,5.16,0,0,1,2.11.57A5.1,5.1,0,0,1,391.88,404.47Z"/><path class="cls-1" d="M374.4,413c-.06-.12.81-.7,1.81-1.49s1.78-1.5,1.88-1.4-.54,1-1.58,1.78A4.29,4.29,0,0,1,374.4,413Z"/><path class="cls-1" d="M383,407.46c-.13,0-.32-.71-.65-1.56s-.68-1.52-.57-1.6.67.51,1,1.42S383.13,407.45,383,407.46Z"/><path class="cls-1" d="M380.72,394.38c-.07.11-.63-.15-1.24-.59s-1-.87-1-1,.63.15,1.24.59S380.8,394.27,380.72,394.38Z"/><path class="cls-1" d="M400.77,373.89c.08.1-.46.64-1.21,1.19s-1.42.91-1.5.8.47-.64,1.21-1.19S400.69,373.78,400.77,373.89Z"/><path class="cls-1" d="M403.79,382.14c0,.13-.83.31-1.88.2s-1.84-.47-1.8-.59.85,0,1.85.1A5.58,5.58,0,0,1,403.79,382.14Z"/><path class="cls-1" d="M390.81,384a3,3,0,0,1-1.77.47c-1,.07-1.83-.1-1.82-.23s.81-.19,1.78-.25S390.78,383.86,390.81,384Z"/><path class="cls-1" d="M391.92,376.19c0,.13-.8.15-1.67-.25s-1.37-1-1.28-1.11.69.31,1.48.66S391.94,376.05,391.92,376.19Z"/><path class="cls-1" d="M404.91,391c-.08.11-.89-.27-1.82-.85s-1.62-1.15-1.55-1.27.88.27,1.81.86S405,390.9,404.91,391Z"/><rect class="cls-1" x="367.31" y="414.19" width="69.28" height="12.28"/><polygon class="cls-1" points="372.48 424.03 380.91 460.73 422.2 460.73 431.42 424.03 372.48 424.03"/><path class="cls-3" d="M436.55,426.48c0,.14-15.62.25-34.9.25s-34.9-.11-34.9-.25,15.62-.24,34.9-.24S436.55,426.35,436.55,426.48Z"/><path class="cls-1" d="M398,384.26c-.11.08-.58-.48-1-1.23s-.76-1.42-.65-1.49.59.48,1.06,1.23S398.14,384.19,398,384.26Z"/><path class="cls-1" d="M398.05,394.14c-.13,0,0-.87.36-1.86s.7-1.75.83-1.71a4,4,0,0,1-.37,1.86C398.55,393.42,398.18,394.19,398.05,394.14Z"/><path class="cls-1" d="M401.43,404.52a9.7,9.7,0,0,1-1.87-3.92c.12-.06.64.77,1.15,1.85A5.05,5.05,0,0,1,401.43,404.52Z"/><path class="cls-1" d="M394.11,412.86c-.1-.09.32-.73.93-1.43s1.19-1.21,1.29-1.12-.31.73-.93,1.44S394.21,413,394.11,412.86Z"/><path class="cls-1" d="M392.58,397.71c0,.13-.69.13-1.49,0s-1.43-.36-1.41-.49.69-.13,1.49,0S392.6,397.58,392.58,397.71Z"/><rect class="cls-1" x="361.63" y="66.82" width="15.61" height="41.94" transform="translate(-9.17 116.93) rotate(-17.77)"/><rect class="cls-3" x="357.62" y="68.1" width="15.61" height="41.94" transform="translate(-9.75 115.77) rotate(-17.77)"/><path class="cls-4" d="M365.09,77.82a3.52,3.52,0,1,1-4.43-2.28A3.53,3.53,0,0,1,365.09,77.82Z"/><path class="cls-3" d="M372.37,71.45a14,14,0,0,1-.83,3.6,13.32,13.32,0,0,1-1.33,3.44A12.92,12.92,0,0,1,371,74.9,12.9,12.9,0,0,1,372.37,71.45Z"/><path class="cls-3" d="M373.78,75.87a13,13,0,0,1-.83,3.6,13.53,13.53,0,0,1-1.32,3.44,13,13,0,0,1,.83-3.6A13.1,13.1,0,0,1,373.78,75.87Z"/><path class="cls-3" d="M375.2,80.29a13.36,13.36,0,0,1-.83,3.59A13.3,13.3,0,0,1,373,87.33a14,14,0,0,1,.83-3.6A13.32,13.32,0,0,1,375.2,80.29Z"/><path class="cls-3" d="M376.61,84.71a13.1,13.1,0,0,1-.82,3.59,13.3,13.3,0,0,1-1.33,3.45,13,13,0,0,1,.83-3.6A13.33,13.33,0,0,1,376.61,84.71Z"/><path class="cls-3" d="M378,89.12a12.87,12.87,0,0,1-.83,3.6,12.9,12.9,0,0,1-1.33,3.45,13.87,13.87,0,0,1,.83-3.6A13.49,13.49,0,0,1,378,89.12Z"/><path class="cls-3" d="M379.45,93.54a13.78,13.78,0,0,1-.83,3.6,13.3,13.3,0,0,1-1.33,3.45,12.87,12.87,0,0,1,.83-3.6A12.9,12.9,0,0,1,379.45,93.54Z"/><path class="cls-3" d="M380.86,98a13,13,0,0,1-.83,3.6,13.33,13.33,0,0,1-1.32,3.44,12.92,12.92,0,0,1,.83-3.59A13.09,13.09,0,0,1,380.86,98Z"/><path class="cls-3" d="M371.08,67.57a13.84,13.84,0,0,1-.83,3.59,13.3,13.3,0,0,1-1.33,3.45,13,13,0,0,1,.83-3.6A12.73,12.73,0,0,1,371.08,67.57Z"/><path class="cls-3" d="M368.89,65.94a5,5,0,0,1-.39,2.16c-.36,1.15-.75,2.05-.89,2A4.79,4.79,0,0,1,368,68C368.35,66.8,368.75,65.9,368.89,65.94Z"/><path class="cls-1" d="M389.77,99.84,379.26,64.28s7.37-4,10.95-17c2.37-8.55-1.74-15.49-1.84-18.88-.06-2.07,4.53-3.12,6.56-3.52s5.33-.33,7.56,2.19c4.14,4.68,5,18.78,5,18.78s-.61,3.12,3.11,1.93l13.25-4.24a7.58,7.58,0,0,1,5.25.17,5.63,5.63,0,0,1,3.44,4.06c1.22,5.17-.71,8.28-.37,9.34s2.39,2.45,2.31,5.85-.83,3.34-.37,4.79a24.89,24.89,0,0,1,1.19,7.82,11.12,11.12,0,0,1-.93,4s2.12,4.68,1.5,7.86c-.81,4.18-8.81,9.33-12.95,8.84-1.94-.24-10.42.41-14.44.67S392.8,97,389.77,99.84Z"/><path class="cls-3" d="M385.15,101.76l-11.44-35.7s7.37-4,11-17a62.65,62.65,0,0,0,2.53-18.32,4.25,4.25,0,0,1,3.37-4.34,6.5,6.5,0,0,1,6.63,2.16c4.13,4.68,4.72,19.07,4.72,19.07s-.61,3.12,3.1,1.93l13.26-4.24a7.59,7.59,0,0,1,5.25.17A5.63,5.63,0,0,1,427,49.58c1.22,5.17-.71,8.28-.37,9.34s2.39,2.45,2.31,5.84-.83,3.34-.37,4.8a24.84,24.84,0,0,1,1.19,7.82,11.4,11.4,0,0,1-.93,4s1.93,4.65,1.5,7.86-5.54,6.46-7.4,7.06-16,2.19-20,2.45S388.18,98.88,385.15,101.76Z"/><path class="cls-3" d="M406.41,38.36a18,18,0,0,1-1.86,4.49A18.23,18.23,0,0,1,402,47a31.65,31.65,0,0,1,2.11-4.37A32,32,0,0,1,406.41,38.36Z"/><path class="cls-3" d="M405.59,33.36a12.06,12.06,0,0,1-1.84,4A21.12,21.12,0,0,1,401.21,41a17.82,17.82,0,0,1,2.09-3.89C404.58,35.06,405.46,33.3,405.59,33.36Z"/><path class="cls-3" d="M403.85,29.17a7.37,7.37,0,0,1-1.55,3.27,19.56,19.56,0,0,1-2.22,2.83,9.31,9.31,0,0,1,1.79-3.13C403,30.56,403.7,29.11,403.85,29.17Z"/><path class="cls-3" d="M401.24,26.05a7.07,7.07,0,0,1-1.16,2.38c-.77,1.24-1.48,2.18-1.61,2.1a7,7,0,0,1,1.17-2.38C400.4,26.92,401.12,26,401.24,26.05Z"/><path class="cls-3" d="M397.87,24.79c.11.1-.23.71-.77,1.38s-1.06,1.13-1.17,1,.23-.7.77-1.37S397.76,24.7,397.87,24.79Z"/><path class="cls-3" d="M407.39,45a7.72,7.72,0,0,1-1.24,2.52,8,8,0,0,1-1.68,2.24,7.48,7.48,0,0,1,1.24-2.52A8,8,0,0,1,407.39,45Z"/><path class="cls-3" d="M433,50.52a26.72,26.72,0,0,1-3,4.24,25.36,25.36,0,0,1-3.38,3.92,26.2,26.2,0,0,1,3-4.24A25.05,25.05,0,0,1,433,50.52Z"/><path class="cls-3" d="M430.8,44.53a9.52,9.52,0,0,1-1.68,2.6A9.09,9.09,0,0,1,427,49.41a9.52,9.52,0,0,1,1.68-2.6A9.54,9.54,0,0,1,430.8,44.53Z"/><path class="cls-3" d="M433.7,59.83a21,21,0,0,1-2.27,3.06,20.25,20.25,0,0,1-2.42,3,10.93,10.93,0,0,1,2-3.27A10.81,10.81,0,0,1,433.7,59.83Z"/><path class="cls-3" d="M434,67.33a14.35,14.35,0,0,1-2,3.23,13.7,13.7,0,0,1-2.4,2.93,14.35,14.35,0,0,1,2-3.23A13.42,13.42,0,0,1,434,67.33Z"/><path class="cls-3" d="M435,76a14.14,14.14,0,0,1-2.27,3.79,14.09,14.09,0,0,1-3,3.27,29.12,29.12,0,0,1,2.56-3.58A27.55,27.55,0,0,1,435,76Z"/><path class="cls-3" d="M435.52,83.35a18.47,18.47,0,0,1-2.7,4.38,18.52,18.52,0,0,1-3.41,3.86,39.59,39.59,0,0,1,3-4.17A39.65,39.65,0,0,1,435.52,83.35Z"/><rect class="cls-1" x="36.67" y="105.54" width="34.76" height="12.93" transform="translate(-70.2 106.48) rotate(-61.69)"/><rect class="cls-3" x="39.75" y="107.2" width="34.76" height="12.93" transform="translate(-70.04 110.06) rotate(-61.69)"/><path class="cls-4" d="M59.1,104.55a2.92,2.92,0,1,0,3.95-1.19A2.92,2.92,0,0,0,59.1,104.55Z"/><path class="cls-3" d="M54.14,98.26a9.19,9.19,0,0,1,.6,3,8.86,8.86,0,0,1,.08,3.06,9.28,9.28,0,0,1-.6-3A8.84,8.84,0,0,1,54.14,98.26Z"/><path class="cls-3" d="M52.31,101.64a9.28,9.28,0,0,1,.6,3,9.08,9.08,0,0,1,.09,3.07,9.38,9.38,0,0,1-.6-3A9.34,9.34,0,0,1,52.31,101.64Z"/><path class="cls-3" d="M50.49,105a9.19,9.19,0,0,1,.6,3,9.34,9.34,0,0,1,.09,3.06,8.83,8.83,0,0,1-.61-3A9.14,9.14,0,0,1,50.49,105Z"/><path class="cls-3" d="M48.67,108.41a9.36,9.36,0,0,1,.6,3,8.92,8.92,0,0,1,.08,3.07,9.38,9.38,0,0,1-.6-3A8.86,8.86,0,0,1,48.67,108.41Z"/><path class="cls-3" d="M46.84,111.8a9.28,9.28,0,0,1,.6,3,9.32,9.32,0,0,1,.09,3.06,9.28,9.28,0,0,1-.6-3A9.32,9.32,0,0,1,46.84,111.8Z"/><path class="cls-3" d="M45,115.18a9.38,9.38,0,0,1,.6,3,9.34,9.34,0,0,1,.09,3.06,8.93,8.93,0,0,1-.61-3A9.17,9.17,0,0,1,45,115.18Z"/><path class="cls-3" d="M43.19,118.57a8.83,8.83,0,0,1,.61,3,8.84,8.84,0,0,1,.08,3.06,9.19,9.19,0,0,1-.6-3A9.33,9.33,0,0,1,43.19,118.57Z"/><path class="cls-3" d="M55.77,95.29a8.75,8.75,0,0,1,.61,3,8.86,8.86,0,0,1,.08,3.06,9.28,9.28,0,0,1-.6-3A9.32,9.32,0,0,1,55.77,95.29Z"/><path class="cls-3" d="M57.81,94.29c.14,0,.35.78.46,1.77s.09,1.81-.06,1.82-.35-.77-.46-1.76S57.66,94.31,57.81,94.29Z"/><path class="cls-1" d="M35.65,118.74l14-27.37S44.21,87,43.25,75.88c-.63-7.32,3.77-12.36,4.37-15.1.36-1.68-3.22-3.23-4.82-3.87a6.71,6.71,0,0,0-6.49.64c-4.08,3.19-6.89,14.56-6.89,14.56s0,2.63-2.83,1.1L16.44,67.74a6.26,6.26,0,0,0-4.3-.65,4.63,4.63,0,0,0-3.42,2.78c-1.78,4-.68,6.86-1.12,7.67S5.28,79.17,4.84,82s.17,2.85-.43,4A20.59,20.59,0,0,0,2.25,92.1a9.3,9.3,0,0,0,.16,3.36S0,99,0,101.64c0,3.52,5.76,8.94,9.21,9.16,1.61.1,8.43,1.92,11.66,2.74S33.62,115.94,35.65,118.74Z"/><path class="cls-3" d="M39.13,121,53.86,93.66s-5.4-4.41-6.35-15.48a51.5,51.5,0,0,1,.72-15.31,3.54,3.54,0,0,0-2.1-4,5.38,5.38,0,0,0-5.72.75c-4.08,3.19-6.74,14.83-6.74,14.83s0,2.63-2.82,1.1L20.69,70a6.25,6.25,0,0,0-4.3-.65A4.66,4.66,0,0,0,13,72.16c-1.78,4-.67,6.86-1.11,7.67s-2.33,1.63-2.77,4.41.17,2.85-.43,4a20.71,20.71,0,0,0-2.15,6.18,9.48,9.48,0,0,0,.15,3.36s-2.27,3.5-2.41,6.18,3.54,6.1,5,6.87,12.69,4.21,15.92,5S37.09,118.21,39.13,121Z"/><path class="cls-3" d="M31.41,66.14a19,19,0,0,1,1.3,3.8,20,20,0,0,1,1,3.89,13.05,13.05,0,0,1-1.51-3.74A13.4,13.4,0,0,1,31.41,66.14Z"/><path class="cls-3" d="M32.84,62.18a25.17,25.17,0,0,1,1.34,3.4,12.48,12.48,0,0,1,1.07,3.5,14,14,0,0,1-1.56-3.32A8.94,8.94,0,0,1,32.84,62.18Z"/><path class="cls-3" d="M34.89,59a21.08,21.08,0,0,1,1.2,2.7A6.76,6.76,0,0,1,37,64.58,12.31,12.31,0,0,1,35.62,62,5.52,5.52,0,0,1,34.89,59Z"/><path class="cls-3" d="M37.49,56.89c.13,0,.6.82,1,1.94A4.86,4.86,0,0,1,39.07,61c-.14,0-.6-.82-1-1.94A4.86,4.86,0,0,1,37.49,56.89Z"/><path class="cls-3" d="M40.43,56.38c.12-.08.49.37.83,1s.51,1.19.38,1.25-.5-.39-.83-1S40.3,56.45,40.43,56.38Z"/><path class="cls-3" d="M29.61,71.38a5.56,5.56,0,0,1,1.07,2.07,5.25,5.25,0,0,1,.59,2.25,5.45,5.45,0,0,1-1.07-2.07A5.25,5.25,0,0,1,29.61,71.38Z"/><path class="cls-3" d="M8,72a17.38,17.38,0,0,1,2.19,3.68,17.39,17.39,0,0,1,1.73,3.93,18.51,18.51,0,0,1-2.19-3.69A18,18,0,0,1,8,72Z"/><path class="cls-3" d="M10.6,67.47A6.34,6.34,0,0,1,12,69.62,6.68,6.68,0,0,1,12.94,72a6.34,6.34,0,0,1-1.4-2.15A6.91,6.91,0,0,1,10.6,67.47Z"/><path class="cls-3" d="M5.93,79.49a8,8,0,0,1,1.8,2.62,7.89,7.89,0,0,1,1.1,3,13.29,13.29,0,0,1-1.56-2.75A13,13,0,0,1,5.93,79.49Z"/><path class="cls-3" d="M4.57,85.56a9.46,9.46,0,0,1,1.55,2.73A9.57,9.57,0,0,1,7.2,91.24a9.46,9.46,0,0,1-1.55-2.73A9.57,9.57,0,0,1,4.57,85.56Z"/><path class="cls-3" d="M2.4,92.43a18.75,18.75,0,0,1,1.7,3.23A19.08,19.08,0,0,1,5.6,99a10.24,10.24,0,0,1-2-3.09A10.06,10.06,0,0,1,2.4,92.43Z"/><path class="cls-3" d="M.88,98.38a26,26,0,0,1,2,3.77A26.18,26.18,0,0,1,4.61,106a13.38,13.38,0,0,1-2.24-3.64A13.24,13.24,0,0,1,.88,98.38Z"/></g><g id="Good"><path class="cls-5" d="M217.93,158.81l1.52-66.65s14.85-2.88,28.07-23c8.75-13.35,5.52-27.49,7.21-33.36,1-3.58,9.47-2.86,13.17-2.43,3.51.41,9.31,2.36,11.74,7.91,4.52,10.29-1.8,34.89-1.8,34.89s-2.76,5,4.26,5h25a13.6,13.6,0,0,1,8.9,3.18,10.12,10.12,0,0,1,3.66,8.84c-.75,9.53-5.76,13.79-5.76,15.79s2.75,5.51.75,11.28-3.26,5.26-3.26,8-.5,9.77-2.26,14a20.35,20.35,0,0,1-3.75,6.26s.75,9-1.76,14.29-13,8-16.54,8-28.56-5-35.58-6.77S224.7,155.56,217.93,158.81Z"/><path class="cls-6" d="M209,159.57V92.16s14.84-2.88,28.07-23c8.75-13.35,12.69-24.13,14.38-30a7.64,7.64,0,0,1,8.16-5.58c3.5.41,7.72,1.79,10.16,7.33,4.51,10.29-2.38,35.25-2.38,35.25s-2.76,5,4.26,5h25a13.59,13.59,0,0,1,8.9,3.18,10.1,10.1,0,0,1,3.67,8.84c-.75,9.53-5.77,13.79-5.77,15.79s2.76,5.51.76,11.28-3.26,5.26-3.26,8-.5,9.77-2.26,14a20.23,20.23,0,0,1-3.76,6.26s.76,9-1.75,14.29-13,8-16.54,8-28.57-5-35.58-6.77S215.74,156.31,209,159.57Z"/><path class="cls-5" d="M238.6,34.3A47.15,47.15,0,0,1,233,30.15a44.79,44.79,0,0,1-5.24-4.55,47.15,47.15,0,0,1,5.56,4.15A44.79,44.79,0,0,1,238.6,34.3Z"/><path class="cls-5" d="M249.27,26.72a17.52,17.52,0,0,1-2-2.5c-1.15-1.6-2.66-3.84-4.22-6.39s-2.88-4.92-3.79-6.66A17.8,17.8,0,0,1,238,8.29a20.75,20.75,0,0,1,1.67,2.7c1,1.69,2.34,4,3.9,6.56s3,4.82,4.08,6.46A22.13,22.13,0,0,1,249.27,26.72Z"/><path class="cls-5" d="M259.05,0a92.31,92.31,0,0,1,.26,9.73,92.2,92.2,0,0,1-.26,9.72,92.2,92.2,0,0,1-.26-9.72A92.31,92.31,0,0,1,259.05,0Z"/><path class="cls-5" d="M281.6,15.22a37.2,37.2,0,0,1-4.32,4.7,39.66,39.66,0,0,1-4.7,4.33,38.77,38.77,0,0,1,4.33-4.7A40.07,40.07,0,0,1,281.6,15.22Z"/><path class="cls-5" d="M288.65,27.06a25,25,0,0,1-3.48,3.85,24.89,24.89,0,0,1-3.85,3.48,26.47,26.47,0,0,1,3.48-3.84A26.56,26.56,0,0,1,288.65,27.06Z"/><path class="cls-6" d="M280.17,62.67a11.13,11.13,0,0,1-1.58,2c-1,1.2-2.51,2.8-4.22,4.51s-3.31,3.18-4.51,4.22a12.44,12.44,0,0,1-2,1.58,13.16,13.16,0,0,1,1.76-1.85L274,68.82c1.62-1.65,3.09-3.13,4.32-4.39A13.85,13.85,0,0,1,280.17,62.67Z"/><path class="cls-6" d="M281.52,53.65a8.67,8.67,0,0,1-1.45,1.83,49.57,49.57,0,0,1-4.06,3.9c-1.66,1.43-3.21,2.68-4.32,3.58a11.55,11.55,0,0,1-1.87,1.39A51.88,51.88,0,0,1,275.67,59c1.65-1.43,3.1-2.76,4.13-3.76A12.57,12.57,0,0,1,281.52,53.65Z"/><path class="cls-6" d="M280.84,45.52A6.42,6.42,0,0,1,279.68,47a23.28,23.28,0,0,1-3.42,3.07c-2.92,2.07-5.13,3.9-5.22,3.8a23.71,23.71,0,0,1,4.9-4.21C278.8,47.59,280.71,45.41,280.84,45.52Z"/><path class="cls-6" d="M278.08,38.74A21.71,21.71,0,0,1,274.65,42a21.93,21.93,0,0,1-3.77,2.88,21.91,21.91,0,0,1,3.43-3.27A22.33,22.33,0,0,1,278.08,38.74Z"/><path class="cls-6" d="M273,34.75a7.91,7.91,0,0,1-2.19,1.75,7.61,7.61,0,0,1-2.47,1.32,7.61,7.61,0,0,1,2.18-1.75A7.35,7.35,0,0,1,273,34.75Z"/><path class="cls-6" d="M278.22,74.55A24.69,24.69,0,0,1,274.58,78a24.16,24.16,0,0,1-4,3.07,25,25,0,0,1,3.64-3.47A24.7,24.7,0,0,1,278.22,74.55Z"/><path class="cls-6" d="M319,98.05a81.61,81.61,0,0,1-7.52,5.47,81.76,81.76,0,0,1-7.81,5,84.52,84.52,0,0,1,7.52-5.46A83.19,83.19,0,0,1,319,98.05Z"/><path class="cls-6" d="M318.56,86.62A30.14,30.14,0,0,1,314.14,90a29.71,29.71,0,0,1-4.71,2.92,29.85,29.85,0,0,1,4.42-3.35A29.36,29.36,0,0,1,318.56,86.62Z"/><path class="cls-6" d="M315.12,114.41c.08.13-2.56,1.69-5.68,3.83s-5.54,4-5.63,3.89a6.92,6.92,0,0,1,1.45-1.4c1-.8,2.32-1.85,3.89-2.92s3.05-2,4.14-2.55A7.25,7.25,0,0,1,315.12,114.41Z"/><path class="cls-6" d="M312.21,126.84a48.93,48.93,0,0,1-5.65,4.56,50.69,50.69,0,0,1-6,4.15,50.2,50.2,0,0,1,5.65-4.56A50.24,50.24,0,0,1,312.21,126.84Z"/><path class="cls-6" d="M308.55,142.76a9.64,9.64,0,0,1-1.67,1.62c-1.08,1-2.63,2.19-4.41,3.47s-3.46,2.34-4.7,3.07A9.14,9.14,0,0,1,295.7,152a11.28,11.28,0,0,1,1.88-1.37c1.18-.8,2.81-1.91,4.59-3.18s3.34-2.47,4.48-3.33A10.81,10.81,0,0,1,308.55,142.76Z"/><path class="cls-6" d="M305.34,155.68a12.16,12.16,0,0,1-2,1.86c-1.28,1.08-3.1,2.51-5.17,4s-4,2.76-5.45,3.62a12.16,12.16,0,0,1-2.39,1.28,17.8,17.8,0,0,1,2.19-1.59c1.38-.94,3.27-2.25,5.34-3.73s3.92-2.86,5.25-3.87A17.78,17.78,0,0,1,305.34,155.68Z"/><path class="cls-5" d="M299.17,48.77a26.64,26.64,0,0,1-5.21-.26,52.33,52.33,0,0,1,10.42,0A26.64,26.64,0,0,1,299.17,48.77Z"/></g><g id="Character_1" data-name="Character 1"><path class="cls-5" d="M82.47,103.23a78.28,78.28,0,0,1-4-13A27.53,27.53,0,0,1,79,76.76c.21-.65,2.07-5.06,2.76-5,.49,0-.6,4.11-.33,4.53a23.34,23.34,0,0,1,3.19,13.49,61,61,0,0,1-2.16,13.47"/><path class="cls-7" d="M108.9,127.3c-.1-3.2-.17-5.73-.14-5.73S119.7,120,120,109.08c.13-5.28-.5-16.16-1.17-26a20.36,20.36,0,0,0-20.07-19H97.66C86.29,64.65,80.39,74.6,81.24,86l1.69,39.81L91,134.63a10.28,10.28,0,0,0,17.86-7.33Z"/><path class="cls-8" d="M108.82,121.57a26.42,26.42,0,0,1-14.17-4.37s3.26,8.36,14.17,7.5Z"/><path class="cls-5" d="M116,92a1.56,1.56,0,0,1-1.53,1.55,1.49,1.49,0,0,1-1.59-1.42,1.56,1.56,0,0,1,1.52-1.56A1.5,1.5,0,0,1,116,92Z"/><path class="cls-5" d="M116.46,87.58c-.19.2-1.37-.69-3-.71s-2.92.81-3.1.61.11-.46.65-.84a4.27,4.27,0,0,1,2.48-.74,4.16,4.16,0,0,1,2.43.81C116.39,87.12,116.56,87.49,116.46,87.58Z"/><path class="cls-5" d="M100.38,92.2a1.55,1.55,0,0,1-1.52,1.55,1.49,1.49,0,0,1-1.59-1.42,1.57,1.57,0,0,1,1.52-1.56A1.49,1.49,0,0,1,100.38,92.2Z"/><path class="cls-5" d="M100,88.06c-.19.21-1.37-.68-3-.7s-2.92.81-3.1.61.11-.46.65-.85A4.31,4.31,0,0,1,97,86.39a4.13,4.13,0,0,1,2.42.81C99.94,87.61,100.11,88,100,88.06Z"/><path class="cls-5" d="M105.88,101a11.81,11.81,0,0,1,2.74-.46c.42,0,.83-.12.91-.41a2.22,2.22,0,0,0-.27-1.27c-.4-1-.8-2.14-1.23-3.28-1.71-4.67-2.94-8.5-2.75-8.57s1.72,3.66,3.43,8.33l1.18,3.29a2.57,2.57,0,0,1,.2,1.69,1.08,1.08,0,0,1-.71.62,3,3,0,0,1-.73.09A10.76,10.76,0,0,1,105.88,101Z"/><path class="cls-5" d="M100.48,82.4c-.17.45-1.85.22-3.82.44s-3.57.74-3.83.33c-.11-.2.17-.63.82-1.06a6.64,6.64,0,0,1,5.82-.59C100.19,81.82,100.55,82.18,100.48,82.4Z"/><path class="cls-5" d="M115.85,81.93c-.29.38-1.45,0-2.84,0s-2.57.29-2.84-.11c-.12-.19.06-.57.57-.94a3.88,3.88,0,0,1,2.3-.65,4,4,0,0,1,2.28.74C115.81,81.35,116,81.74,115.85,81.93Z"/><path class="cls-7" d="M82.1,94.05c-.19-.08-7.48-2.31-7.33,5.16s7.62,5.78,7.63,5.56S82.1,94.05,82.1,94.05Z"/><path class="cls-8" d="M80.06,102s-.13.09-.35.2a1.3,1.3,0,0,1-1,0,3.24,3.24,0,0,1-1.55-2.86,4.33,4.33,0,0,1,.33-1.87,1.51,1.51,0,0,1,1-1,.65.65,0,0,1,.77.34c.11.21.06.36.1.37s.16-.13.09-.43a.8.8,0,0,0-.3-.47,1,1,0,0,0-.72-.17,1.82,1.82,0,0,0-1.34,1.18,4.57,4.57,0,0,0-.41,2.09c.08,1.51.88,2.9,2,3.19a1.38,1.38,0,0,0,1.18-.22C80.05,102.17,80.09,102,80.06,102Z"/><path class="cls-5" d="M113.66,70.84c1.19-.7-2.56-4.51-5.56-5.77-4.55-1.91-11.44-3-15.55-1.67-4.94,1.56-9,4.16-11.38,8.77a29.34,29.34,0,0,0-2.86,15.09,8.84,8.84,0,0,0,1.19,4.53c1.09,1.63,3.12,2.61,3.1,4.89a3.1,3.1,0,0,0,.84,2.25c1.41,1.42,3,0,3.77-1.39,1.55-3,1.64-6.47,1.68-9.82a21.61,21.61,0,0,0-.68-7.09c-.4-1.24-1-2.4-1.35-3.65a3.8,3.8,0,0,1,1-4.38,7.79,7.79,0,0,1,7.68-1.69c4.25,1.36,11.5,3.38,13.33,1.9a11.68,11.68,0,0,0,3.25-3.49Z"/><path class="cls-5" d="M108.17,106.23c0,.12-.27.39-.89.57a4.47,4.47,0,0,1-4.52-1.57c-.38-.53-.46-.93-.34-1s1.14,1,2.71,1.47S108.06,106,108.17,106.23Z"/><path class="cls-9" d="M115,420.78l-4.17,22.36s21.32,11.76,20.95,16l-43.65-6.54,5.08-35.11Z"/><g class="cls-10"><path d="M115,420.78l-4.17,22.36s21.32,11.76,20.95,16l-43.65-6.54,5.08-35.11Z"/></g><path class="cls-1" d="M97.59,439.23a1.78,1.78,0,0,0-1.53,1.84,1.71,1.71,0,0,0,1.81,1.54,1.88,1.88,0,0,0,1.62-2,1.79,1.79,0,0,0-2.07-1.39"/><path class="cls-5" d="M88.11,452.56l.65-3.52,41.61,7.59s1.82,1.14,1.39,2.47Z"/><path class="cls-5" d="M111.55,443c0,.22-1.12.15-2.27.68s-1.85,1.34-2,1.23.32-1.3,1.72-1.91S111.62,442.84,111.55,443Z"/><path class="cls-5" d="M115.84,445.6c0,.22-1,.44-1.82,1.23s-1.21,1.72-1.42,1.68-.17-1.27.92-2.23S115.87,445.4,115.84,445.6Z"/><path class="cls-5" d="M117.62,451.47c-.2,0-.34-1.09.38-2.18s1.79-1.4,1.86-1.2-.65.72-1.23,1.62S117.83,451.48,117.62,451.47Z"/><path class="cls-5" d="M111.93,437.82c-.12.18-1.05-.26-2.27-.36s-2.21.14-2.29-.06.93-.82,2.36-.68S112.06,437.67,111.93,437.82Z"/><path class="cls-9" d="M100.73,426.13l-.4,22.74s23,8.05,23.32,12.26l-44.13.8-.83-35.46Z"/><path class="cls-1" d="M86.65,447.21a1.81,1.81,0,0,0-1.21,2.08,1.73,1.73,0,0,0,2,1.21,1.88,1.88,0,0,0,1.27-2.2,1.79,1.79,0,0,0-2.27-1"/><path class="cls-5" d="M79.52,461.93l.06-3.57,42.29.56s2,.82,1.78,2.21Z"/><path class="cls-5" d="M101,448.63c0,.22-1.08.34-2.12,1.05s-1.6,1.63-1.8,1.55.1-1.34,1.38-2.18S101.08,448.44,101,448.63Z"/><path class="cls-5" d="M105.71,450.46c.05.21-.88.6-1.59,1.52s-.91,1.89-1.13,1.89-.37-1.22.54-2.36S105.7,450.26,105.71,450.46Z"/><path class="cls-5" d="M108.43,456c-.19,0-.51-1,0-2.22s1.53-1.67,1.63-1.5-.52.82-.94,1.81S108.65,455.93,108.43,456Z"/><path class="cls-5" d="M100.56,443.44c-.09.2-1.08-.08-2.3,0s-2.16.51-2.27.33.78-1,2.21-1.07S100.66,443.27,100.56,443.44Z"/><path class="cls-5" d="M69.61,249.54l.58,22.5,6.65,69.85s-2.12,34-3.47,53.24c-1.16,16.69,2.21,45.6,2.21,45.6l28.08-.73,7.53-96.92,4.67-60.44,9.48-31.6Z"/><path class="cls-5" d="M139,254.65,140.78,346a38.31,38.31,0,0,1-2.24,13.67l-24.13,67.21-1.19,4.44-16.88-3.62,8.2-178.17Z"/><path class="cls-6" d="M115.47,270.79a2.5,2.5,0,0,1,0,.44c0,.32,0,.75,0,1.29,0,1.16,0,2.82,0,5,0,4.3-.12,10.51-.33,18.19-.44,15.36-1.47,36.57-3.33,59.92s-4,44.46-5.51,59.73c-.8,7.61-1.45,13.77-1.9,18.07-.23,2.11-.41,3.76-.54,4.91-.06.54-.11,1-.15,1.28a3.15,3.15,0,0,1-.07.43,2.91,2.91,0,0,1,0-.44c0-.31.06-.74.1-1.28.1-1.16.25-2.81.44-4.92.41-4.31,1-10.48,1.73-18.1,1.47-15.27,3.54-36.37,5.36-59.73s2.94-44.53,3.48-59.88c.26-7.68.44-13.89.5-18.19,0-2.12.08-3.78.11-4.94,0-.55,0-1,0-1.29S115.47,270.79,115.47,270.79Z"/><path class="cls-6" d="M91,255.31a3,3,0,0,1-.09,1,15.4,15.4,0,0,1-.72,2.74,18,18,0,0,1-13.7,11.6,15.23,15.23,0,0,1-2.81.26,3.46,3.46,0,0,1-1-.08c0-.1,1.48,0,3.78-.55A18.6,18.6,0,0,0,89.8,258.94C90.68,256.76,90.87,255.29,91,255.31Z"/><path class="cls-6" d="M116.94,258.89a1.44,1.44,0,1,1-1.48-1.41A1.43,1.43,0,0,1,116.94,258.89Z"/><path class="cls-6" d="M139.73,269.69a9.34,9.34,0,0,1-2-1.81,22,22,0,0,1-3.67-5.43,22.56,22.56,0,0,1-1.94-6.27,8.82,8.82,0,0,1-.13-2.71c.08,0,.17,1,.5,2.64a26.05,26.05,0,0,0,2,6.11,26.68,26.68,0,0,0,3.48,5.42A26.39,26.39,0,0,1,139.73,269.69Z"/><polygon class="cls-6" points="44.36 295.25 96.8 275.23 114.9 316.23 59.48 335.54 44.36 295.25"/><path class="cls-7" d="M82.84,296.56c-2.08-1.91-4.83-4.52-4.86-5s-.75-3.65-1.39-6.42a2.62,2.62,0,0,1,2.94-3.31l3.55-1.36a22.85,22.85,0,0,0-3.23-4.85c-1.7-1.73-6.46-4.21-6.46-4.21l-.54-6.2-14.18,2.84,2,14.24s3.52,13.37,5.09,14.65,6,1.89,6,1.89c1.77,2,5.36,1.17,5.36,1.17,4,2.35,3.81-.6,3.81-.6a.81.81,0,0,0,.42.22C83.06,300,84.09,297.71,82.84,296.56Z"/><path class="cls-8" d="M72.49,286.66a8.1,8.1,0,0,0,.06,2.43,12.52,12.52,0,0,0,1.75,5.6,11.3,11.3,0,0,0,4.5,3.66,7.77,7.77,0,0,0,2.23.88A11.43,11.43,0,0,0,79,298a12.54,12.54,0,0,1-4.2-3.63A14.17,14.17,0,0,1,73,289,10.8,10.8,0,0,0,72.49,286.66Z"/><path class="cls-8" d="M69.45,288.29a4.54,4.54,0,0,0-.07,2.23,15.92,15.92,0,0,0,.46,2.36,7.32,7.32,0,0,0,1.26,2.72,12.77,12.77,0,0,0,2.21,1.93l1.91,1.36A7.44,7.44,0,0,0,77.08,300a7.46,7.46,0,0,0-1.59-1.49c-.51-.43-1.13-.93-1.83-1.47a13.37,13.37,0,0,1-2.08-1.87,7.49,7.49,0,0,1-1.2-2.48,22.78,22.78,0,0,1-.57-2.27C69.54,289.12,69.53,288.29,69.45,288.29Z"/><path class="cls-8" d="M66.08,290.45c-.25.05.37,2.45,1.3,5.26a2.42,2.42,0,0,0,.68,1,7.89,7.89,0,0,0,.78.68,8.91,8.91,0,0,0,1.45.95c.88.47,1.5.57,1.52.49s-.51-.33-1.29-.87a16.57,16.57,0,0,1-1.32-1,8.67,8.67,0,0,1-.7-.67,2,2,0,0,1-.53-.76c-.46-1.44-.92-2.69-1.27-3.61A6.34,6.34,0,0,0,66.08,290.45Z"/><path class="cls-9" d="M120.64,139.37s12.28,6.15,17.1,13.11,13.14,19.58,13.14,19.58L162,143.24l16.64,7.38s-9.5,34.42-11.26,38.19c-2.43,5.22-8.22,9.89-17.29,9.34s-6.17-.31-12.13-5.89l-8-9.38Z"/><g class="cls-10"><path d="M128.27,166.22a89.82,89.82,0,0,0,10.29,26.58,63.74,63.74,0,0,1-5.24-5.92C132,185.27,130,183,130,183c-.53-5.65-1.74-16.8-1.74-16.8"/></g><path class="cls-5" d="M152.84,185.29a8.09,8.09,0,0,1-.52-2c-.24-1.26-.52-3-.76-5s-.38-3.7-.45-5a8.38,8.38,0,0,1,0-2.08,69,69,0,0,1,1,7C152.55,182.13,153,185.26,152.84,185.29Z"/><path class="cls-9" d="M81.16,127.49l-.62-5.95a2,2,0,0,1,2.34-1.9c7.1,1.52,27.88,6,28.12,7.12.15.65,0,5-.06,8.63l-29.78-7.9"/><path class="cls-9" d="M55.8,143.24s-7.36,5.22-8.62,19.29c-.78,8.64-1.85,64.67-1.85,64.67l12,46.66L76.38,269l-6.77-49.16.66-42.7Z"/><path class="cls-5" d="M57.3,273.86a1,1,0,0,1,.33-.11l1-.28,3.79-1,13.93-3.62-.16.23c-1.43-9.84-3.33-22.88-5.41-37.16-.49-3.39-1-6.72-1.42-9.91v0c.24-13.41.44-25.2.59-33.69.1-4.2.18-7.57.23-9.94,0-1.14.07-2,.09-2.68l0-.69a.72.72,0,0,1,0-.23.6.6,0,0,1,0,.23c0,.19,0,.41,0,.69,0,.65,0,1.55,0,2.68,0,2.37,0,5.75-.07,9.94-.1,8.49-.24,20.29-.4,33.7v0l1.43,9.9c2,14.29,3.88,27.34,5.28,37.18l0,.19-.18.05-14,3.43-3.82.91-1,.22Z"/><path class="cls-9" d="M82.38,125.94s-22,10.86-26.58,17.3c-5.59,7.8,9.86,32.75,11,38.94.57,3,4.25,25.31,2.52,42.93A302,302,0,0,0,68,260.37l71-5.72c0-12.38-3.2-21.93-5.33-37.65l-5.33-51.27-7.71-26.36-11-4.63Z"/><path class="cls-5" d="M127.05,157.07a2.15,2.15,0,0,1,.12.54c.07.42.15.94.25,1.57.21,1.36.48,3.33.8,5.77.64,4.88,1.45,11.63,2.24,19.1s1.39,14.24,1.77,19.15c.19,2.45.34,4.43.42,5.81l.08,1.58a2.26,2.26,0,0,1,0,.56,2.3,2.3,0,0,1-.1-.55c-.05-.42-.11-.94-.19-1.57-.15-1.45-.35-3.41-.59-5.8-.5-5-1.18-11.69-1.94-19.12S128.37,170,127.83,165c-.26-2.39-.47-4.34-.62-5.79l-.15-1.58A1.85,1.85,0,0,1,127.05,157.07Z"/><path class="cls-5" d="M73.59,162.29c-.1,0,0-1.47-.49-3.76A18.47,18.47,0,0,0,62,145c-2.16-.91-3.62-1.12-3.6-1.23a3.6,3.6,0,0,1,1,.1,15.76,15.76,0,0,1,2.71.76,17.78,17.78,0,0,1,11.31,13.81,15.23,15.23,0,0,1,.21,2.81A3,3,0,0,1,73.59,162.29Z"/><path class="cls-5" d="M121.35,221.94a8.09,8.09,0,0,1-1.39-.2,31.35,31.35,0,0,1-3.7-.93,42.42,42.42,0,0,1-5.31-2,47.22,47.22,0,0,1-6.08-3.35,49,49,0,0,1-5.5-4.25,42.82,42.82,0,0,1-3.94-4.07,33.78,33.78,0,0,1-2.33-3,6.68,6.68,0,0,1-.73-1.19c.09-.06,1.21,1.58,3.35,4a49.94,49.94,0,0,0,4,4,53.73,53.73,0,0,0,5.46,4.17,52.73,52.73,0,0,0,6,3.35,50.44,50.44,0,0,0,5.21,2.09C119.41,221.45,121.37,221.83,121.35,221.94Z"/><g class="cls-10"><path d="M70.27,177.17C65.7,204.38,68,233.12,75,259.8l1.82-.14C78.33,232.12,75.61,204.23,70.27,177.17Z"/></g><g class="cls-10"><path d="M102,223.63a63,63,0,0,0,23.43,4.76c-1.22,1.84-3.53,2.31-5.73,2.44a18.18,18.18,0,0,1-6.45-.62c-4-1.24-8.8-3.13-11.25-6.58"/></g><path class="cls-5" d="M110.74,135.22a4.63,4.63,0,0,1-1.22.22,18.37,18.37,0,0,1-3.38,0,42.66,42.66,0,0,1-10.77-2.78c-4.07-1.47-7.83-2.68-10.4-3.94A16.69,16.69,0,0,1,82.05,127a5.33,5.33,0,0,1-.69-.61c-.15-.16-.22-.24-.2-.25s.35.27,1,.69a20.43,20.43,0,0,0,3,1.55c2.58,1.16,6.34,2.31,10.42,3.78a47.37,47.37,0,0,0,10.63,2.9A36.58,36.58,0,0,0,110.74,135.22Z"/><path class="cls-5" d="M85.22,120.22a23.28,23.28,0,0,1,0,4.19,24.91,24.91,0,0,1-.23,4.18,13.31,13.31,0,0,1-.29-4.2A13.4,13.4,0,0,1,85.22,120.22Z"/><path class="cls-5" d="M95.67,122.54a32.33,32.33,0,0,1,.31,4.94,32,32,0,0,1,0,5,19.42,19.42,0,0,1-.55-4.94A19.27,19.27,0,0,1,95.67,122.54Z"/><path class="cls-5" d="M108.27,125.68a16.18,16.18,0,0,1,.43,4.86,15.56,15.56,0,0,1-.57,4.85,43,43,0,0,1,.05-4.86A41,41,0,0,1,108.27,125.68Z"/><g class="cls-10"><path d="M82.26,126.89c1.53,2.3,3.91,3.44,6.38,4.68a47.6,47.6,0,0,0,10.06,4,19,19,0,0,0,10.71-.26c-4.71-.09-9.29-1.49-13.7-3.14s-9.08-3.58-13.4-5.29"/></g><path class="cls-7" d="M180.65,129.44l-6.24.88-.72-8.45-1.12-7.44.48-13L166.71,109a5.83,5.83,0,0,0-.94,2.73l-.64,22.88-.11,9.78,11.09,7-.24-11.64,2.58-2.76C181,134.18,180.65,129.44,180.65,129.44Z"/><rect class="cls-5" x="179.3" y="90.64" width="25.76" height="69.22"/><rect class="cls-6" x="172.34" y="90.64" width="25.76" height="69.22"/><path class="cls-4" d="M190.37,107.4a5.82,5.82,0,1,1-5.81-5.81A5.81,5.81,0,0,1,190.37,107.4Z"/><path class="cls-6" d="M205,101.05a35.53,35.53,0,0,1-3.26,5.14,35.37,35.37,0,0,1-3.68,4.85,35.09,35.09,0,0,1,3.26-5.14A35.37,35.37,0,0,1,205,101.05Z"/><path class="cls-6" d="M205,108.71a35.53,35.53,0,0,1-3.26,5.14,35.37,35.37,0,0,1-3.68,4.85,34.5,34.5,0,0,1,3.26-5.14A35.37,35.37,0,0,1,205,108.71Z"/><path class="cls-6" d="M205,116.37a36.15,36.15,0,0,1-3.26,5.14,34.13,34.13,0,0,1-3.68,4.84,35.71,35.71,0,0,1,3.26-5.14A35.62,35.62,0,0,1,205,116.37Z"/><path class="cls-6" d="M205,124a36.81,36.81,0,0,1-3.26,5.14,34.86,34.86,0,0,1-3.68,4.84,35.71,35.71,0,0,1,3.26-5.14A35.62,35.62,0,0,1,205,124Z"/><path class="cls-6" d="M205,131.69a36.81,36.81,0,0,1-3.26,5.14,34.86,34.86,0,0,1-3.68,4.84,35.71,35.71,0,0,1,3.26-5.14A34.86,34.86,0,0,1,205,131.69Z"/><path class="cls-6" d="M205,139.35a36.81,36.81,0,0,1-3.26,5.14,35.62,35.62,0,0,1-3.68,4.84,35.71,35.71,0,0,1,3.26-5.14A34.13,34.13,0,0,1,205,139.35Z"/><path class="cls-6" d="M205,147a35.53,35.53,0,0,1-3.26,5.14,35.37,35.37,0,0,1-3.68,4.85,35.09,35.09,0,0,1,3.26-5.14A35.37,35.37,0,0,1,205,147Z"/><path class="cls-6" d="M205,94.3a36.81,36.81,0,0,1-3.26,5.14,34.13,34.13,0,0,1-3.68,4.84,36.13,36.13,0,0,1,3.25-5.14A36.13,36.13,0,0,1,205,94.3Z"/><path class="cls-6" d="M202.32,90.64a12.39,12.39,0,0,1-1.84,3.1,12.79,12.79,0,0,1-2.26,2.81,12.53,12.53,0,0,1,1.83-3.1A13,13,0,0,1,202.32,90.64Z"/><path class="cls-7" d="M167.09,119.29a48,48,0,0,1,5-7.18,6.68,6.68,0,0,1,2.13-1.87,2.53,2.53,0,0,1,2.7.2,2.64,2.64,0,0,1,.44,3,9.93,9.93,0,0,1-1.94,2.59,5.37,5.37,0,0,0-1.52,2.82,9.18,9.18,0,0,0,.55,3A9.81,9.81,0,0,1,171.9,131"/><path class="cls-8" d="M171.9,131s.33-.41.86-1.17a10.27,10.27,0,0,0,1.53-3.59,9.66,9.66,0,0,0,.19-2.68,13.39,13.39,0,0,0-.65-3,4.79,4.79,0,0,1-.18-1.79,4.31,4.31,0,0,1,.68-1.76c.69-1.07,1.69-1.89,2.37-2.91a3.67,3.67,0,0,0,.64-1.63,2,2,0,0,0-3.21-1.87,8.72,8.72,0,0,0-2.22,2.1c-.63.76-1.2,1.48-1.71,2.15-1,1.34-1.76,2.47-2.28,3.26a8,8,0,0,1-.83,1.2,6.81,6.81,0,0,1,.65-1.32,38.08,38.08,0,0,1,2.15-3.37c.49-.69,1-1.43,1.67-2.21a8.91,8.91,0,0,1,2.32-2.25,3.22,3.22,0,0,1,1.77-.45,2.27,2.27,0,0,1,1.75.87,3.35,3.35,0,0,1-.24,3.83c-.75,1.11-1.74,1.92-2.37,2.9a3.65,3.65,0,0,0-.61,1.53,4.08,4.08,0,0,0,.14,1.59,13.32,13.32,0,0,1,.62,3.14,9.8,9.8,0,0,1-2,6.42,5.9,5.9,0,0,1-.73.81C172,131,171.91,131,171.9,131Z"/></g><g id="Character_3" data-name="Character 3"><path class="cls-9" d="M336.13,222.47c-1.44.8-14.85,1-14.85,1l.54,10.76,26.63,2.6Z"/><path class="cls-5" d="M264.44,214.07a4.51,4.51,0,0,0-.92,2.09c0,.85,23.33,18,28.12,21.45a3.25,3.25,0,0,0,1.91.62l32.05,0,.17-2.55s-29.27-20.82-29.83-20.76S264.44,214.07,264.44,214.07Z"/><path class="cls-2" d="M295.88,216c-.44,0-28.29-.39-28.29-.39s21.16,15.91,24.89,18.63a2.54,2.54,0,0,0,1.48.48l29.58.57Z"/><path class="cls-11" d="M321.33,225h-2.24s-8.12-6-9-6.16c-.37-.08-6.63-.93-6.63-.93l-7,2.7s-.37,1.58,2.43,1.87a13.94,13.94,0,0,0,6-1.2s6.25,6.18,8.9,7.66,7.82,3.8,7.82,3.8Z"/><g class="cls-10"><path d="M336.13,222.47c-1.44.8-14.85,1-14.85,1l.54,10.76,26.63,2.6Z"/></g><path class="cls-9" d="M362.37,361.55l12.79,31-38.48,16.12c-1.32-3.77,15.5-19.49,15.5-19.49l-9-19.52Z"/><g class="cls-12"><path class="cls-4" d="M363.38,382.53a1.7,1.7,0,0,1,1.84,1.34,1.64,1.64,0,0,1-1.31,1.83,1.8,1.8,0,0,1-1.94-1.43,1.7,1.7,0,0,1,1.58-1.75"/></g><path class="cls-4" d="M375.16,392.55l-1.29-3.13-36.49,16.66s-1.4,1.47-.7,2.59Z"/><path class="cls-5" d="M351.48,389.25c.08.18,1.06-.13,2.23.09s2,.8,2.15.65-.6-1.11-2-1.35S351.36,389.09,351.48,389.25Z"/><path class="cls-5" d="M348.14,392.61c0,.2,1,.18,1.95.7s1.51,1.29,1.69,1.21-.14-1.2-1.36-1.84S348.07,392.43,348.14,392.61Z"/><path class="cls-5" d="M347.87,398.4c.19,0,.05-1.08-.86-1.91s-2-.87-2-.68.76.51,1.5,1.2S347.67,398.46,347.87,398.4Z"/><path class="cls-5" d="M349.92,384.57c.15.14.9-.48,2-.86s2.06-.38,2.09-.58-1-.54-2.32-.08S349.76,384.46,349.92,384.57Z"/><path class="cls-5" d="M348.92,379.62a3.93,3.93,0,0,0,1.92-.82,9.17,9.17,0,0,0,1.76-1.46,10,10,0,0,0,.86-1,2.68,2.68,0,0,0,.39-.7.89.89,0,0,0-.33-1,1.12,1.12,0,0,0-1-.08,2.54,2.54,0,0,0-.68.4,7,7,0,0,0-1,.91,7.38,7.38,0,0,0-1.29,1.91,3.48,3.48,0,0,0-.48,2c.11,0,.3-.74.93-1.8a8.15,8.15,0,0,1,1.31-1.69,8.54,8.54,0,0,1,1-.81c.37-.27.71-.42.89-.28s.08.07.05.23a2,2,0,0,1-.29.51c-.25.36-.51.7-.77,1a11.77,11.77,0,0,1-1.57,1.49C349.58,379.16,348.87,379.52,348.92,379.62Z"/><path class="cls-5" d="M349.28,379.79a3.33,3.33,0,0,0-.27-2.08,6.94,6.94,0,0,0-1.15-2,6.87,6.87,0,0,0-1-1,1.73,1.73,0,0,0-1.64-.46,1,1,0,0,0-.58.87,2.66,2.66,0,0,0,.1.79,4.74,4.74,0,0,0,.54,1.3A4.91,4.91,0,0,0,347,378.9c1.17.68,2.05.58,2,.5a14.58,14.58,0,0,1-1.76-.92,4.71,4.71,0,0,1-1.37-1.56,4.14,4.14,0,0,1-.43-1.13c-.12-.43-.1-.82.07-.85a1.22,1.22,0,0,1,.94.35,6.18,6.18,0,0,1,.91.85,7.12,7.12,0,0,1,1.18,1.76C349.07,379,349.16,379.8,349.28,379.79Z"/><path class="cls-9" d="M319.64,374.15l11.27,31.59L291.69,420c-1.13-3.83,16.43-18.72,16.43-18.72l-8.05-19.94Z"/><g class="cls-12"><path class="cls-4" d="M319.63,395.15a1.73,1.73,0,0,1,1.78,1.43,1.65,1.65,0,0,1-1.4,1.77,1.8,1.8,0,0,1-1.87-1.52c0-.84.83-1.8,1.66-1.68"/></g><path class="cls-4" d="M330.91,405.74l-1.14-3.19-37.26,14.86s-1.47,1.4-.82,2.56Z"/><path class="cls-5" d="M307.41,401.28c.08.19,1.07-.07,2.23.21s2,.89,2.11.75-.53-1.14-1.95-1.45S307.31,401.12,307.41,401.28Z"/><path class="cls-5" d="M303.92,404.48c0,.2,1,.22,1.91.8s1.45,1.36,1.63,1.28-.08-1.2-1.27-1.89S303.85,404.29,303.92,404.48Z"/><path class="cls-5" d="M303.37,410.25c.19,0,.1-1.08-.77-1.95s-1.92-1-1.94-.77.73.55,1.44,1.27S303.17,410.3,303.37,410.25Z"/><path class="cls-5" d="M306.08,396.54c.15.14.93-.44,2-.76s2.08-.29,2.12-.49-1-.59-2.32-.19S305.93,396.42,306.08,396.54Z"/><path class="cls-5" d="M305.33,391.54a3.83,3.83,0,0,0,2-.72,9.63,9.63,0,0,0,1.83-1.38,9,9,0,0,0,.91-1,2.34,2.34,0,0,0,.42-.67.88.88,0,0,0-.28-1.05,1.14,1.14,0,0,0-1-.14,3,3,0,0,0-.7.37,8.56,8.56,0,0,0-1.07.86,7.91,7.91,0,0,0-1.38,1.85,3.47,3.47,0,0,0-.57,2c.11,0,.33-.72,1-1.76a8.19,8.19,0,0,1,1.39-1.62,7.9,7.9,0,0,1,1-.75c.38-.26.73-.4.9-.25s.08.08,0,.24a2.41,2.41,0,0,1-.31.49A11.76,11.76,0,0,1,307,390.4,15.15,15.15,0,0,0,305.33,391.54Z"/><path class="cls-5" d="M305.68,391.73a3.33,3.33,0,0,0-.17-2.09,6.77,6.77,0,0,0-1.05-2.05,6.26,6.26,0,0,0-.93-1,1.71,1.71,0,0,0-1.62-.54,1,1,0,0,0-.62.84,3.3,3.3,0,0,0,.06.8,4.92,4.92,0,0,0,.48,1.32,4.87,4.87,0,0,0,1.58,1.73,2.71,2.71,0,0,0,2,.6,14.47,14.47,0,0,1-1.72-1,4.81,4.81,0,0,1-1.29-1.62,4.3,4.3,0,0,1-.37-1.15c-.09-.44-.06-.83.11-.84s.64.12.92.39a6.62,6.62,0,0,1,.87.89,7.54,7.54,0,0,1,1.1,1.82C305.51,390.94,305.56,391.73,305.68,391.73Z"/><path class="cls-5" d="M335.36,105.14c-1.51,1.29-1.89,3.49-1.73,5.48s.76,3.92.8,5.91c.08,3.86-1.94,7.52-1.87,11.38s2.25,7.43,2.61,11.29c.35,3.65,4.57,6.38,3.67,9.93s-6.92,8.35-5.14,11.55a3,3,0,0,0,1.44,1.45,3.6,3.6,0,0,0,2,0l9.21-1.74a5.91,5.91,0,0,0,3.16-1.27,5.47,5.47,0,0,0,1.28-3.53c.75-7.73-1-15.45-2-23.15a110.28,110.28,0,0,1-.08-27.11"/><path class="cls-11" d="M347.87,157.19Z"/><path class="cls-11" d="M336.11,115a17.89,17.89,0,0,1,16.82-17.7,17.38,17.38,0,0,1,18.41,16.95l-.42,39.16a3.41,3.41,0,0,1-.74,2.08,16,16,0,0,1-10.6,5.77,16.79,16.79,0,0,1-10.13-2.86,3.33,3.33,0,0,1-1.48-3l.45-8.74a.06.06,0,0,0-.05-.06,12.49,12.49,0,0,1-2.45-.24c-2.27-.73-8-3.4-9.36-12.18C336.11,131.29,336,123.12,336.11,115Z"/><path class="cls-5" d="M348,128.64a10.17,10.17,0,0,0-2.51-.45c-.39,0-.77-.11-.83-.38a2,2,0,0,1,.27-1.15l1.18-3c1.65-4.21,2.85-7.67,2.67-7.73s-1.64,3.29-3.29,7.5l-1.14,3a2.21,2.21,0,0,0-.21,1.52,1,1,0,0,0,.64.57,2.53,2.53,0,0,0,.67.09A9.89,9.89,0,0,0,348,128.64Z"/><path class="cls-5" d="M338.5,121.65a1.4,1.4,0,0,0,1.37,1.43,1.38,1.38,0,0,0,1.49-1.27,1.41,1.41,0,0,0-1.37-1.43A1.37,1.37,0,0,0,338.5,121.65Z"/><path class="cls-5" d="M338.87,118.19c.16.24,1.34-.65,2.88-.53s2.59,1.14,2.77.92,0-.52-.49-1a3.42,3.42,0,0,0-4.52-.31C339,117.69,338.8,118.09,338.87,118.19Z"/><path class="cls-5" d="M353.14,121.83a1.4,1.4,0,0,0,1.37,1.43A1.38,1.38,0,0,0,356,122a1.41,1.41,0,0,0-1.37-1.43A1.37,1.37,0,0,0,353.14,121.83Z"/><path class="cls-5" d="M353.71,118.74c.2.21,1.33-.84,3-.94s2.93.76,3.1.52-.12-.5-.68-.9a3.88,3.88,0,0,0-4.87.32C353.77,118.22,353.61,118.64,353.71,118.74Z"/><path class="cls-13" d="M348.42,146.62s6,.48,13.47-3.92c0,0-2.41,7.75-13.61,6.71Z"/><path class="cls-13" d="M348.66,132.3a2.82,2.82,0,0,1,2.51-1,2.57,2.57,0,0,1,1.75.92A1.59,1.59,0,0,1,353,134a1.92,1.92,0,0,1-2,.5,6,6,0,0,1-2-1.16,1.57,1.57,0,0,1-.44-.45.51.51,0,0,1,0-.57"/><path class="cls-5" d="M352.58,129.69c-.26,0-.27,1.64-1.71,2.81s-3.23,1-3.25,1.22.4.32,1.16.34a4.24,4.24,0,0,0,2.7-.93,3.56,3.56,0,0,0,1.33-2.35C352.87,130.09,352.69,129.68,352.58,129.69Z"/><path class="cls-5" d="M353.14,113.35c.15.41,1.69.24,3.5.48s3.27.75,3.52.39c.11-.18-.14-.57-.72-1a6.21,6.21,0,0,0-5.35-.66C353.42,112.83,353.08,113.15,353.14,113.35Z"/><path class="cls-5" d="M339,113.31c.29.33,1.33-.09,2.61-.19s2.37.09,2.6-.28c.1-.19-.09-.52-.58-.82a3.61,3.61,0,0,0-2.15-.43,3.66,3.66,0,0,0-2.05.81C339,112.79,338.9,113.15,339,113.31Z"/><path class="cls-5" d="M351.69,95.24a5.29,5.29,0,0,1,4.14-2c6.9-.55,14.24,4.1,17.66,10.12s3,14.61-.22,20.73l-2.6.27c-5.31-.7-13.24-16.2-20.14-24.94C349.67,98.37,350.91,96.38,351.69,95.24Z"/><path class="cls-5" d="M338.3,98.8c3.09-3,8-6.69,13.78-4,.76,1.72-1.15,3.75-2.71,4.91-2.28,1.69-4.25,2.81-5.75,4-3.05,2.47-6.89,6.63-7.52,11.51,0,.31-.27.33-.58.26s-1.17-2.15-1.46-4.84C333.46,104.92,335.22,101.85,338.3,98.8Z"/><path class="cls-11" d="M369.2,121.15c.16-.07,6.65-2.13,6.58,4.54s-6.74,5.22-6.75,5S369.2,121.15,369.2,121.15Z"/><path class="cls-13" d="M371.09,128.22s.11.08.31.17a1.19,1.19,0,0,0,.87,0,2.88,2.88,0,0,0,1.35-2.57,3.87,3.87,0,0,0-.31-1.66,1.33,1.33,0,0,0-.86-.9.58.58,0,0,0-.69.31c-.09.18-.05.32-.09.33s-.14-.11-.08-.39a.75.75,0,0,1,.26-.41.89.89,0,0,1,.65-.17,1.63,1.63,0,0,1,1.2,1.05,3.88,3.88,0,0,1,.38,1.86,3,3,0,0,1-1.72,2.86,1.23,1.23,0,0,1-1.06-.19C371.1,128.38,371.06,128.23,371.09,128.22Z"/><path class="cls-11" d="M287.81,154.13l-9.8,5.06-3.93-6.61a31.11,31.11,0,0,1-5.16-3.71l-3.5-4a3.62,3.62,0,0,1-.87-3.17,1,1,0,0,1,.3-.61l1-1.71s-.53-2.43-.68-4,1.14-4.34,1.14-4.34l-3.66-7.84a2,2,0,0,1,.29-2.22.86.86,0,0,1,1.21-.17c1.25.85,4.9,7.18,4.9,7.18l1.35,1.31,1.72.28s-.51-2.44.55-3l5,3.6,4.12,5.77s.82,8.35,1.91,10.57S287.81,154.13,287.81,154.13Z"/><path class="cls-13" d="M269,137.3a9.85,9.85,0,0,1-1.76-2.93,10.14,10.14,0,0,1-1-3.28c.09,0,.5,1.44,1.25,3.15S269.05,137.25,269,137.3Z"/><path class="cls-13" d="M266.61,141.28a3.94,3.94,0,0,1-.79-1.72,5,5,0,0,1-.34-1.85,6.44,6.44,0,0,1,.65,1.76A11.84,11.84,0,0,1,266.61,141.28Z"/><path class="cls-13" d="M268.17,126.64a16.94,16.94,0,0,1,1.16,1.58c.7,1,1.68,2.32,2.82,3.76.57.72,1.12,1.4,1.63,2a6.32,6.32,0,0,0,1.5,1.42,3.29,3.29,0,0,0,1.82.49,1.17,1.17,0,0,1-.53.1,3,3,0,0,1-1.4-.39,6.16,6.16,0,0,1-1.61-1.43c-.53-.6-1.09-1.28-1.66-2-1.14-1.45-2.11-2.82-2.76-3.83A9.53,9.53,0,0,1,268.17,126.64Z"/><path class="cls-13" d="M275.93,135.27c-.05,0-.14-.48-.45-1.19a6.93,6.93,0,0,0-1.74-2.43,9,9,0,0,1-1.27-1.17,2.45,2.45,0,0,1-.54-1.33,2.68,2.68,0,0,1,.07-1.29c.06,0,0,.5.15,1.25a2.4,2.4,0,0,0,.54,1.19,11.15,11.15,0,0,0,1.26,1.11A6.28,6.28,0,0,1,275.7,134,2.76,2.76,0,0,1,275.93,135.27Z"/><path class="cls-9" d="M383.74,231.24V213.92s1.86-27,1.86-35.31-9.8-26.74-9.8-26.74l-16.05.48-11.82.26c-.12,0-19.52,18.8-19.52,18.8a55.28,55.28,0,0,0-3.3,24.32,44.48,44.48,0,0,0,1.36,6.78l4.17,16.32s2.34,10.88,3.15,14.66c.63,3,33.63,1.54,48,1.27C385.2,234.7,383.74,231.24,383.74,231.24Z"/><path class="cls-9" d="M285.27,146.66s20.59,29.44,21.3,29.44,24.78-16.95,24.78-16.95,10.53-7.82,16.91-6.4-1.8,29.58-1.8,29.58-33,18.77-44.08,19.71-25.45-43.49-25.45-43.49L275,156Z"/><path class="cls-5" d="M342.77,184.24a2.86,2.86,0,0,1-.53.33l-1.56.88-5.8,3.14-4,2.14c-.73.38-1.44.8-2.26,1.18a12.56,12.56,0,0,0-2.33,1.21,2.49,2.49,0,0,0-1.1,2.23,15.4,15.4,0,0,0,.41,2.86c.4,1.95,1,3.92,1.49,6,1.73,8.3,3.85,15.7,5.17,21.11.67,2.7,1.17,4.9,1.49,6.42.14.72.26,1.3.35,1.76a2.61,2.61,0,0,1,.08.62,4,4,0,0,1-.19-.6c-.11-.45-.26-1-.44-1.73-.41-1.57-1-3.74-1.65-6.38-1.41-5.38-3.58-12.77-5.32-21.1-.45-2.05-1.08-4-1.48-6a15,15,0,0,1-.4-3,2.92,2.92,0,0,1,.31-1.5,3.33,3.33,0,0,1,1-1.11l8.73-4.48,5.87-3,1.61-.79A2.66,2.66,0,0,1,342.77,184.24Z"/><path class="cls-5" d="M305.81,187a12.84,12.84,0,0,1-.59-5.53,12.62,12.62,0,0,1,1.32-5.41c.15,0-.61,2.41-.8,5.44S306,187,305.81,187Z"/><path class="cls-5" d="M301.25,185.29a10.27,10.27,0,0,1,1.65-5.18,11.13,11.13,0,0,1,3.67-4,45.79,45.79,0,0,0-3.22,4.28A33.94,33.94,0,0,0,301.25,185.29Z"/><path class="cls-5" d="M348.92,176.53c-.09,0,.21-1.22.38-3.2a23.85,23.85,0,0,0-.61-7.65,24.15,24.15,0,0,0-3-7.05c-1.06-1.66-1.9-2.58-1.82-2.64s.25.18.64.59a16,16,0,0,1,1.49,1.85,21.5,21.5,0,0,1,3.23,7.13,21.72,21.72,0,0,1,.47,7.81,15.31,15.31,0,0,1-.46,2.33A3.4,3.4,0,0,1,348.92,176.53Z"/><g class="cls-10"><path d="M380.78,163.26c-.94-1.65-2-3.38-1.93-5.28l-20.11,4.52c-.89,2.15,0,4.71,1.62,6.4a17.61,17.61,0,0,0,5.88,3.66c2.62,1.18,5.45,2.37,8.26,1.81a12.13,12.13,0,0,0,5.12-2.81,6.72,6.72,0,0,0,2.34-2.9C382.57,166.86,381.72,164.91,380.78,163.26Z"/></g><g class="cls-10"><path d="M326.3,192.68l-.73.86A17.37,17.37,0,0,0,346.1,181C339.41,185.9,334,189.65,326.3,192.68Z"/></g><g class="cls-10"><path d="M306.57,176.1c-4.15,1.59-8.27,6-8.73,10.4a2.51,2.51,0,0,0,.1,1.22,1,1,0,0,0,.95.67c.62-.06.9-.79,1.06-1.4a27,27,0,0,1,6.62-10.89Z"/></g><path class="cls-5" d="M391.92,156.16a10.36,10.36,0,0,1-5-10.56c.43-2.43,1.74-4.61,2.5-7s.88-5.2-.79-7c-1-1.1-2.49-1.64-3.68-2.54a9.43,9.43,0,0,1-3.16-5c-.1-1.92,0-3.89,0-5.81A24.25,24.25,0,0,0,361.6,95.26L351.11,99a26.88,26.88,0,0,0,6,13,56.56,56.56,0,0,1,4.68,5.49c1.31,2,2.07,4.59,1.25,6.85-.72,2-2.55,3.45-3.25,5.46-1.37,4,2.12,8.16,1.47,12.3a8.79,8.79,0,0,1-1.44,3.41,19.62,19.62,0,0,1-2.7.84,19.73,19.73,0,0,0-5.4,1.8,5.35,5.35,0,0,0-2.85,4.62,85.13,85.13,0,0,1,13.36.06c-3,4-5.3,11.28-4.41,12.17,1.17,1.17,9.58,3.18,11.24,3.31,7,.53,5.52-4.09,12.44-5a3.57,3.57,0,0,0,2.07-.72,3.45,3.45,0,0,0,.66-3c-.24-2-.77-4-1.16-6A10.63,10.63,0,0,0,391.92,156.16Z"/><path class="cls-6" d="M360.6,162.38s0,0-.06-.17a4,4,0,0,1-.1-.52,6.08,6.08,0,0,1,.12-2,10.42,10.42,0,0,1,1.23-3,37.33,37.33,0,0,1,2.45-3.48,15.62,15.62,0,0,0,2.46-4.41,6.4,6.4,0,0,0,.25-2.73,7.23,7.23,0,0,0-1.11-2.7c-.55-.87-1.19-1.72-1.75-2.68a6,6,0,0,1-.9-3.3,7.9,7.9,0,0,1,1-3.37c.55-1.05,1.2-2.05,1.77-3.09a9.73,9.73,0,0,0,1.2-3.23,9.85,9.85,0,0,0-.07-3.34,16.2,16.2,0,0,0-2.48-5.88c-1.13-1.72-2.4-3.23-3.56-4.68a41.63,41.63,0,0,1-3-4.16,14.82,14.82,0,0,1-2.43-7,9.05,9.05,0,0,1,.14-2,3.68,3.68,0,0,1,.18-.68,14.74,14.74,0,0,0-.12,2.7,15.14,15.14,0,0,0,2.54,6.85,42.44,42.44,0,0,0,3.08,4.08,57.49,57.49,0,0,1,3.62,4.69,16.48,16.48,0,0,1,2.58,6,9.54,9.54,0,0,1-1.17,6.91c-1.15,2.11-2.67,4-2.76,6.23a5.5,5.5,0,0,0,.83,3c.52.93,1.16,1.78,1.72,2.68A7.53,7.53,0,0,1,367.4,146a6.62,6.62,0,0,1-.29,2.92,15.62,15.62,0,0,1-2.58,4.5,40.47,40.47,0,0,0-2.49,3.41,10.94,10.94,0,0,0-1.29,2.88A7.64,7.64,0,0,0,360.6,162.38Z"/><path class="cls-6" d="M334.14,243l-4.34-.28c-1.75,2.11-2.83,4.72-4.62,6.8a17,17,0,0,1-7.35,4.73,50.48,50.48,0,0,1-8.61,2,9.92,9.92,0,0,0,.37,2.72,3.36,3.36,0,0,0,1.71,2.06,4.68,4.68,0,0,0,2.52.16A47.25,47.25,0,0,0,327,257.54c2.27-1,4.56-2.27,5.93-4.35C334.81,250.29,334.51,246.51,334.14,243Z"/><path class="cls-5" d="M307.79,298.87c.76.9,36.81,83.2,36.81,83.2s24.41-10.25,23.81-11.15-29.12-74.25-29.12-74.25Z"/><path class="cls-5" d="M383,234.62l-48.62-.3-.65,10.73c-2.7,6.15-5.31,9.29-8.92,10.46-14.76,4.8-52.48,17.19-57.93,20.4-6.8,4-5.81,14.53-6.61,21.73s39.5,96.44,39.5,96.44l27.89-11.91-22.77-72.65-1.6-9.2,77.15-1.12s14.71-3.68,14.31-24.08S383,234.62,383,234.62Z"/><path class="cls-9" d="M370.7,270.07a6.09,6.09,0,0,1,.34,1.42,21.64,21.64,0,0,1,.31,4,24.52,24.52,0,0,1-13,21.48,23,23,0,0,1-3.64,1.58,6.77,6.77,0,0,1-1.41.36,47.79,47.79,0,0,0,4.87-2.26A25.1,25.1,0,0,0,371,275.44,44.29,44.29,0,0,0,370.7,270.07Z"/><path class="cls-6" d="M334.53,235.86c-1-.91-4-.55-5,.31a3.89,3.89,0,0,0-1.29,3.7,5.48,5.48,0,0,0,2.21,3.35c1.21.89,2.95,1.33,4.17.47a3.29,3.29,0,0,0,1.23-2.26,10.09,10.09,0,0,0-.11-2.63,5.91,5.91,0,0,0-.69-2.39,2,2,0,0,0-2.11-1"/><path class="cls-6" d="M384.91,233.9c3.13,7.68,6.27,15.4,8.29,23.44s2.87,16.51,1.39,24.67c-1,5.67-2.43,12.3-7.32,15.36,0,0-1.81,1.87-6,2.09-9.08.48-25.41.19-34.49-.13-4.39-.16-10,.41-14.4.25,13.25-11.56,21.05-31,18.12-48.33-.45-2.67-1.25-5.52-3.44-7.12-1.94-1.43-4.52-1.51-6.93-1.65s-3,.46-5.22.46c-3.33,0-2.86-8-.52-8.62Z"/><path class="cls-5" d="M375.14,269.69a8.32,8.32,0,0,1-.39,1.37c-.28.88-.75,2.12-1.38,3.64a65.89,65.89,0,0,1-14.22,21.2c-1.16,1.16-2.14,2.06-2.84,2.65a8.42,8.42,0,0,1-1.12.89,6.88,6.88,0,0,1,1-1c.66-.63,1.6-1.57,2.72-2.75A75.41,75.41,0,0,0,373,274.55c.67-1.49,1.18-2.71,1.52-3.56A6.84,6.84,0,0,1,375.14,269.69Z"/><path class="cls-5" d="M379.5,283a3.5,3.5,0,0,1-.54.86c-.36.53-.94,1.28-1.68,2.17a50.55,50.55,0,0,1-6.41,6.41,49.31,49.31,0,0,1-7.45,5.17c-1,.57-1.84,1-2.43,1.27a3.93,3.93,0,0,1-.94.37c0-.07,1.22-.75,3.19-2a64.79,64.79,0,0,0,7.3-5.25,62.71,62.71,0,0,0,6.46-6.25C378.55,284,379.43,282.91,379.5,283Z"/><path class="cls-5" d="M389.56,299.34c0,.14-12.22.26-27.3.26s-27.3-.12-27.3-.26,12.22-.26,27.3-.26S389.56,299.2,389.56,299.34Z"/><path class="cls-5" d="M363.08,250.45c-.06.07-1.23-1-3.33-2.38a32.56,32.56,0,0,0-3.85-2.19,36.42,36.42,0,0,0-5-2,37.05,37.05,0,0,0-5.3-1.12,34.94,34.94,0,0,0-4.42-.27c-2.52,0-4.08.27-4.09.17a4.15,4.15,0,0,1,1.08-.24,23.53,23.53,0,0,1,3-.3,29.77,29.77,0,0,1,4.48.17,33.31,33.31,0,0,1,5.39,1.1,33,33,0,0,1,5.11,2,29,29,0,0,1,3.84,2.31,23.28,23.28,0,0,1,2.36,1.89C362.83,250.14,363.11,250.42,363.08,250.45Z"/><path class="cls-5" d="M370.25,247.25a9.85,9.85,0,0,1-2.35-.31c-1.44-.28-3.42-.72-5.58-1.32s-4.08-1.23-5.46-1.74a9.6,9.6,0,0,1-2.18-.94,12,12,0,0,1,2.3.59c1.4.42,3.33,1,5.48,1.59s4.1,1.09,5.52,1.46A11.65,11.65,0,0,1,370.25,247.25Z"/><path class="cls-5" d="M335.12,243.2a2.7,2.7,0,0,1-1.55-.67,5,5,0,0,1-.78-7.41c.71-.8,1.35-1,1.37-1s-.5.41-1.08,1.21a5.22,5.22,0,0,0-1,3.59,5.27,5.27,0,0,0,1.74,3.3C334.55,242.9,335.15,243.12,335.12,243.2Z"/><path class="cls-5" d="M332.25,239.8c0,.15-.85.11-1.73.51s-1.45,1-1.57.91.3-.94,1.36-1.39S332.3,239.66,332.25,239.8Z"/><path class="cls-5" d="M335.15,243.45s0,.27-.4.56a2.71,2.71,0,0,1-1.77.51,5.34,5.34,0,0,1-2.61-.85,4.94,4.94,0,0,1-2.09-2.63,4.71,4.71,0,0,1,.16-3.36,4,4,0,0,1,1.94-1.94,3.55,3.55,0,0,1,1.81-.35c.44,0,.66.14.65.17a5,5,0,0,0-2.29.51,3.72,3.72,0,0,0-1.67,1.81,4.27,4.27,0,0,0-.1,3,4.63,4.63,0,0,0,1.85,2.39,5.33,5.33,0,0,0,2.37.88,2.7,2.7,0,0,0,1.64-.31C335,243.64,335.11,243.42,335.15,243.45Z"/><g class="cls-10"><path d="M366.77,254.41v0a8,8,0,0,0-2.44-3.3c-6.1-5.57-15.73-9.56-23.35-8.54,4.56.18,11.77,2.7,15.34,5.55a54.23,54.23,0,0,1,7.58,7.79A1.65,1.65,0,0,0,366.77,254.41Z"/></g><g class="cls-10"><path d="M379,283.68c-4.68,6.32-11.82,11.75-18.76,15.42,4.09-.75,9.24-1.76,12.63-4.16C376.47,292.41,379.47,288,379,283.68Z"/></g></g><g id="Character_2" data-name="Character 2"><polygon class="cls-6" points="153.26 461.33 159.2 461.24 172.32 346.02 166.47 345.35 153.26 461.33"/><polygon class="cls-6" points="188.08 461.33 194.02 461.24 207.14 346.02 201.29 345.35 188.08 461.33"/><polygon class="cls-6" points="293.03 461.55 287.09 461.46 273.97 347.29 279.82 346.62 293.03 461.55"/><polygon class="cls-6" points="254.74 461.55 248.8 461.46 235.68 347.29 241.53 346.62 254.74 461.55"/><rect class="cls-6" x="162.51" y="352.69" width="119.84" height="12.42" transform="translate(444.86 717.8) rotate(180)"/><polygon class="cls-6" points="239.39 214.26 163.47 215.2 162.51 352.69 249.69 353.88 239.39 214.26"/><path class="cls-9" d="M273.39,268.06c-.4-2.65-8.34-11.44-8.34-11.44s-4-16-5.16-20.65a15.75,15.75,0,0,0-1.73-3.85,31.07,31.07,0,0,0-11.6-11.19l-11-6.18-2.63-5.85-28.26-5-5.7,6.55s-21.33,8.1-24.13,10.55c-3.43,3,6,53.34,6,53.34s-7.28,30.54-8.81,36.86.67,15.19.67,15.19l14.46-13.81c4-5.06,11.18-11.16,17.53-11.07l54.25.24-2.16-15.19,43.86,8.53s7.55-14.72,8.15-15S273.39,268.06,273.39,268.06Z"/><path class="cls-4" d="M205.08,211.65c-.38-.39,3.38,12.53,7.7,24.38a58.35,58.35,0,0,1,3.5,20v42.91l26-1.76L238.4,268.9s-3.17-18.24-4.06-25.18c-.81-6.35-3.61-25.68-3.61-25.68S216,222.74,205.08,211.65Z"/><path class="cls-5" d="M263.11,278.73a1.62,1.62,0,0,1,0-.66,8.78,8.78,0,0,1,.34-1.74,11.72,11.72,0,0,1,8-8,9.84,9.84,0,0,1,1.75-.35,1.64,1.64,0,0,1,.66,0c0,.08-.92.18-2.31.66a13,13,0,0,0-4.81,3,12.85,12.85,0,0,0-3,4.82C263.29,277.82,263.19,278.74,263.11,278.73Z"/><path class="cls-5" d="M264.45,268.43a10.39,10.39,0,0,1,8.08-.66c0,.14-1.84-.21-4.07,0S264.5,268.57,264.45,268.43Z"/><g class="cls-10"><path d="M178.18,291.85l-2.26,2.56a18.26,18.26,0,0,0,9.17,6.06,46.46,46.46,0,0,0,11,1,15.93,15.93,0,0,0,4.47-.42c1.47-.43,2.85-1.26,4.38-1.36a11.21,11.21,0,0,1,3,.44,6,6,0,0,0,3,.05,2.42,2.42,0,0,0,1.77-2.25A160.51,160.51,0,0,0,178.18,291.85Z"/></g><path class="cls-11" d="M252.43,295.13l-6.38-6.78L232.92,285s-12,3.61-12.32,3.6-10.47-2.79-10.47-2.79l-3.56,13.06,18.34,1.25,20.94-.84s1.09-1,.45-1.71,3.5,1.18,4,1.2,1.44.4,2.09-.38C252.81,297.88,253.41,296.17,252.43,295.13Z"/><path class="cls-13" d="M246.3,297.6a10.82,10.82,0,0,1-2.09-.59c-1.27-.4-3-.94-5-1.45s-3.78-.88-5.09-1.14a10.89,10.89,0,0,1-2.11-.49,8.79,8.79,0,0,1,2.17.16,48,48,0,0,1,5.14,1,46.45,46.45,0,0,1,5,1.59A9.59,9.59,0,0,1,246.3,297.6Z"/><path class="cls-13" d="M252.43,295.13a25.44,25.44,0,0,1-2.91-.94c-1.79-.6-4.29-1.34-7.06-2.11a37,37,0,0,0-7.12-1.76,16.73,16.73,0,0,0-3,.12,2.23,2.23,0,0,1,.78-.27,8.68,8.68,0,0,1,2.26-.18,30.65,30.65,0,0,1,7.22,1.63c2.78.78,5.28,1.57,7,2.26.89.34,1.59.64,2.07.86A2.82,2.82,0,0,1,252.43,295.13Z"/><path class="cls-9" d="M174.85,221s-4.66,3.06-7,12.54-12.28,48.17-10.23,54,41.84,11.47,41.84,11.47L204.22,279,184,273.51s.25-18.43.51-26.06S174.85,221,174.85,221Z"/><polygon class="cls-4" points="203.95 282.01 210.46 283.61 206.54 298.63 200.15 297.6 203.95 282.01"/><path class="cls-5" d="M157.51,285.42a8.8,8.8,0,0,0,.1.93,4.35,4.35,0,0,0,1.39,2.26c1.72,1.61,5,2.95,9.22,3.71h0c1.91.62,4.09,1.12,6.42,1.65s4.84,1.06,7.49,1.6c5.29,1.08,11.15,2.22,17.36,3.38l-.27.17c.45-1.84.92-3.79,1.41-5.77,1.11-4.57,2.19-9,3.22-13.18l.16.27-18-5.12h0a17.81,17.81,0,0,0-7.84-1.37,17.25,17.25,0,0,0-5.91,1.38,20,20,0,0,0-3.39,1.89l-.83.6a1.31,1.31,0,0,1-.29.19,1.67,1.67,0,0,1,.26-.24c.18-.14.43-.37.79-.64a18.64,18.64,0,0,1,3.38-2,17.25,17.25,0,0,1,6-1.49,17.86,17.86,0,0,1,8,1.33h0l18,5,.21.06-.05.22c-1,4.19-2.09,8.61-3.21,13.18-.48,2-1,3.93-1.41,5.78l0,.21-.22,0c-6.21-1.17-12.06-2.32-17.35-3.43-2.65-.55-5.16-1.1-7.49-1.64s-4.51-1.06-6.45-1.72h0c-4.23-.8-7.54-2.2-9.29-3.89a4.43,4.43,0,0,1-1.35-2.37A2.74,2.74,0,0,1,157.51,285.42Z"/><path class="cls-5" d="M185.1,274.83c-.06.06-.73-.56-1.95-1.37a19,19,0,0,0-5.13-2.4,19.25,19.25,0,0,0-5.63-.74c-1.46,0-2.36.2-2.37.12a7.09,7.09,0,0,1,2.36-.45,16.5,16.5,0,0,1,11,3.2A7.6,7.6,0,0,1,185.1,274.83Z"/><path class="cls-5" d="M187.75,242.42a6.65,6.65,0,0,1,0,1.21c0,.78-.08,1.91-.19,3.3-.22,2.78-.64,6.61-1.36,10.81a77.16,77.16,0,0,1-2.51,10.62c-.23.66-.45,1.25-.65,1.77s-.41.92-.58,1.3a5.17,5.17,0,0,1-.62,1.05,6.14,6.14,0,0,1,.46-1.12l.49-1.32c.17-.53.38-1.12.58-1.79a94.07,94.07,0,0,0,2.36-10.59c.73-4.18,1.19-8,1.5-10.76.13-1.32.25-2.42.34-3.28A6.1,6.1,0,0,1,187.75,242.42Z"/><path class="cls-5" d="M210.83,232.22s-.1-.23-.32-.62a3.77,3.77,0,0,0-1.36-1.37,3.62,3.62,0,0,0-5.43,2.2l-.12.59-.28-.55a56.5,56.5,0,0,1-2.77-6.45,31.38,31.38,0,0,1-2-11.39,18.23,18.23,0,0,1,.16-2c.11-.59.19-1.09.28-1.49a6,6,0,0,1,.41-1.24,26,26,0,0,0-.52,4.73A33.56,33.56,0,0,0,201,225.89a59.67,59.67,0,0,0,2.71,6.42l-.41,0a4,4,0,0,1,2.8-2.83,3.94,3.94,0,0,1,3.2.51,3.59,3.59,0,0,1,1.33,1.52,2.83,2.83,0,0,1,.18.49C210.83,232.16,210.84,232.22,210.83,232.22Z"/><path class="cls-5" d="M232.9,234.19a6.87,6.87,0,0,1-.21-1.08,11.68,11.68,0,0,1-.19-3,6.32,6.32,0,0,1,2.19-4,4.16,4.16,0,0,1,2.63-.95,3.6,3.6,0,0,1,2.77,1.24l-.4.23c-.28-.69-.57-1.42-.86-2.16-1.69-4.27-3.19-8.14-4.26-11l-1.24-3.34a6.07,6.07,0,0,1-.39-1.24,6.94,6.94,0,0,1,.56,1.18c.36.86.83,2,1.38,3.28,1.15,2.78,2.7,6.64,4.39,10.9l.86,2.17.55,1.4-1-1.17a3.17,3.17,0,0,0-2.42-1.09,3.76,3.76,0,0,0-2.37.82,6.16,6.16,0,0,0-2.13,3.73,12.65,12.65,0,0,0,.05,3A4.18,4.18,0,0,1,232.9,234.19Z"/><path class="cls-5" d="M249.7,236.44c.13,0,2.17,13.74,4.57,30.74s4.23,30.8,4.1,30.81-2.18-13.74-4.57-30.74S249.57,236.45,249.7,236.44Z"/><g class="cls-10"><path d="M200.83,225.58a28.48,28.48,0,0,0,2.25,10.23c1-1.22,2.08-2.51,3.58-2.87,1.87-.44,3.76.71,5.12,2.12a9.25,9.25,0,0,0-1.64-3.91,4.61,4.61,0,0,0-3.59-1.88,3.18,3.18,0,0,0-3,2.47l-2.59-6.1"/></g><path class="cls-5" d="M185.54,235.53c-.09,0-.06-.95-.33-2.43a14.69,14.69,0,0,0-2.21-5.38,15.61,15.61,0,0,0-2.07-2.46,13.92,13.92,0,0,0-2.07-1.62c-1.27-.8-2.17-1.11-2.14-1.19a2,2,0,0,1,.65.16,4.63,4.63,0,0,1,.73.28,7.39,7.39,0,0,1,.93.47,12.25,12.25,0,0,1,2.2,1.58,14.78,14.78,0,0,1,2.17,2.52,13.49,13.49,0,0,1,2.13,5.59,8.84,8.84,0,0,1,.09,1.82A1.86,1.86,0,0,1,185.54,235.53Z"/><path class="cls-11" d="M232.5,166.09a19.39,19.39,0,0,0-21.69-14.89l-1,.14c-10.64,2.17-14.73,12.41-12.27,23l7.53,37.33,1.45,3.88a19.67,19.67,0,0,0,24.2,2.51l.23-2.19-2.25-12s10.07-3.09,8.72-13.41C236.77,185.43,234.58,175.27,232.5,166.09Z"/><path class="cls-13" d="M228.78,203.8a25.21,25.21,0,0,1-14.07-2s4.24,7,14.4,4.55Z"/><path class="cls-5" d="M230.84,174a1.49,1.49,0,0,1-1.21,1.69,1.43,1.43,0,0,1-1.71-1.11,1.5,1.5,0,0,1,1.21-1.69A1.43,1.43,0,0,1,230.84,174Z"/><path class="cls-5" d="M215.34,175.9a1.48,1.48,0,0,1-1.2,1.69,1.42,1.42,0,0,1-1.71-1.11,1.49,1.49,0,0,1,1.2-1.69A1.42,1.42,0,0,1,215.34,175.9Z"/><path class="cls-5" d="M214.86,173.36c-.16.22-1.43-.43-3.06-.18s-2.71,1.21-2.92,1,0-.44.51-.89a4.37,4.37,0,0,1,2.31-1.07,4.16,4.16,0,0,1,2.47.39C214.72,172.94,214.94,173.26,214.86,173.36Z"/><path class="cls-5" d="M230.11,171.35c-.16.22-1.43-.43-3.07-.19s-2.73,1.22-2.93,1.05,0-.44.51-.89a4.37,4.37,0,0,1,2.31-1.07,4.2,4.2,0,0,1,2.49.38C230,170.93,230.19,171.25,230.11,171.35Z"/><path class="cls-5" d="M222.37,185a10.49,10.49,0,0,1,2.5-.83c.4-.1.77-.24.8-.52a2,2,0,0,0-.44-1.16l-1.64-2.91c-2.29-4.15-4-7.58-3.85-7.67s2.17,3.2,4.46,7.34c.55,1,1.09,2,1.59,2.94a2.33,2.33,0,0,1,.44,1.55,1,1,0,0,1-.58.69,2.66,2.66,0,0,1-.67.19A10.3,10.3,0,0,1,222.37,185Z"/><path class="cls-5" d="M214,167.23c-.13.44-1.74.35-3.59.7s-3.34,1-3.62.6c-.12-.18.11-.6.7-1.07a6.35,6.35,0,0,1,5.49-1C213.66,166.7,214,167,214,167.23Z"/><path class="cls-5" d="M229.77,165.73c-.31.4-1.72.2-3.36.39s-3,.63-3.36.3c-.17-.17,0-.56.57-1a5.44,5.44,0,0,1,2.65-.94,5.33,5.33,0,0,1,2.76.38C229.66,165.18,229.9,165.53,229.77,165.73Z"/><path class="cls-5" d="M234.44,156.59a2,2,0,0,0-2.26-1.34,4.21,4.21,0,0,0,1.34-.9,1.43,1.43,0,0,0,.32-1.5c-.36-.77-1.41-.81-2.24-.95a5.29,5.29,0,0,1-2.91-1.48c-1.13-1.12-1.7-2.69-2.71-3.93a6.91,6.91,0,0,0-10.79.08,7.21,7.21,0,0,0-11.3,3.11,8.41,8.41,0,0,0-10.35,10.48l6.91,3.19a3.49,3.49,0,0,1,3.88-3.52c2,.33,3.52,2.43,5.56,2.35,1.58-.07,2.78-1.44,4.25-2,1.79-.71,3.83-.2,5.6.54a22,22,0,0,0,5.41,2,10.73,10.73,0,0,0,6.47-1.55,7,7,0,0,0,2.25-1.79A3.07,3.07,0,0,0,234.44,156.59Z"/><path class="cls-5" d="M201.21,160.18l29.47-3.65a13.62,13.62,0,0,0-5-4.36,23.18,23.18,0,0,0-14-2.84c-4.8.61-13.7,7.87-16.69,11.69-2.39,3-2,5.33-2,5.33.12,3.87,2.88,7.89,4.28,11.51.72,1.86,2.41,7.57,2.41,7.57h0c1.61-.24,2-1.61,1.55-3.18L199.93,176a9.59,9.59,0,0,0,1.27-11.5C200.7,164,199.43,161.53,201.21,160.18Z"/><path class="cls-5" d="M199.42,175.65c-2.12-5-4.16-10.48-3.18-15.86l-.88.07-.33.31a4.16,4.16,0,0,0-3.89,6.9,3.6,3.6,0,0,0-3.21,3.55,6.62,6.62,0,0,0,1.36,3.33,8.13,8.13,0,0,1,1.52,3.28,2.59,2.59,0,0,1-1.65,2.89,3,3,0,0,0,3.53,1.23,5.85,5.85,0,0,1-1.72,2.79c2.07,1.08,4.66.33,6.63-.94a5.68,5.68,0,0,0,2.63-3.09C200.63,178.62,200,177.07,199.42,175.65Z"/><path class="cls-11" d="M199.65,181.8c-.18-.06-7.38-1.08-6.14,5.94s8,4.32,8,4.11S199.65,181.8,199.65,181.8Z"/><path class="cls-13" d="M199.52,189.49s-.11.1-.3.23a1.19,1.19,0,0,1-.91.18,3.06,3.06,0,0,1-1.88-2.46,4.06,4.06,0,0,1,0-1.81,1.42,1.42,0,0,1,.75-1.1.62.62,0,0,1,.78.21c.13.18.11.32.15.33s.13-.15,0-.43a.79.79,0,0,0-.35-.39,1,1,0,0,0-.71-.06,1.76,1.76,0,0,0-1.08,1.32,4.17,4.17,0,0,0-.08,2c.29,1.4,1.25,2.6,2.32,2.71a1.34,1.34,0,0,0,1.08-.38C199.54,189.66,199.55,189.49,199.52,189.49Z"/><path class="cls-6" d="M191.63,176.8s-.23-.24-.23-.8a2.66,2.66,0,0,1,1.11-2,8.06,8.06,0,0,1,3.14-1.16,4,4,0,0,0,3-2,5.88,5.88,0,0,0,.11-3.77c-.3-1.17-.74-2.21-1-3.12a5.39,5.39,0,0,1-.31-3,14,14,0,0,0,.68,2.91c.31.88.78,1.88,1.14,3.11a6.19,6.19,0,0,1-.11,4.13,3.52,3.52,0,0,1-1.51,1.63,7.14,7.14,0,0,1-1.9.65,8.55,8.55,0,0,0-3,1,2.58,2.58,0,0,0-1.11,1.69A6.23,6.23,0,0,0,191.63,176.8Z"/><path class="cls-6" d="M189.56,173.92s-.18-.18-.29-.61a3.09,3.09,0,0,1,.13-1.86,3.31,3.31,0,0,1,.72-1.1,3.65,3.65,0,0,1,1.29-.8,3.74,3.74,0,0,0,1.27-.71,1.62,1.62,0,0,0,.38-1.35c0-.54-.19-1.1-.24-1.67a8,8,0,0,1,0-1.62,7.76,7.76,0,0,1,.71-2.65,2,2,0,0,1,1.45-1.18c.47-.05.69.14.67.16s-.25-.05-.63.06a1.8,1.8,0,0,0-1.13,1.13,8,8,0,0,0-.56,2.52,7.81,7.81,0,0,0,0,1.52c0,.52.2,1.07.25,1.68a2.19,2.19,0,0,1-.54,1.79,4.47,4.47,0,0,1-1.47.8,2.88,2.88,0,0,0-1.83,1.58A4,4,0,0,0,189.56,173.92Z"/><path class="cls-6" d="M228.69,150.43c.05,0-.48.45-1.46.12a4.15,4.15,0,0,1-1.47-1,5.72,5.72,0,0,0-1.81-1.26,4.94,4.94,0,0,0-5.28,1c-.8.74-1.47,1.71-2.4,2.57a4.61,4.61,0,0,1-1.67,1,3.89,3.89,0,0,1-2,.05c-1.33-.31-2.43-1-3.57-1.24a8.92,8.92,0,0,0-3.39-.21,8.82,8.82,0,0,0-5.13,2.47,9.82,9.82,0,0,0-2.18,3.26c-.34.87-.44,1.39-.49,1.38s0-.14,0-.38a5.7,5.7,0,0,1,.26-1.07,9.13,9.13,0,0,1,7.44-6.16,9.34,9.34,0,0,1,3.59.18c1.23.29,2.35,1,3.55,1.22a3.24,3.24,0,0,0,1.75,0,4,4,0,0,0,1.47-.9c.87-.79,1.56-1.77,2.42-2.54a5.15,5.15,0,0,1,3-1.39,5.4,5.4,0,0,1,2.82.42,5.72,5.72,0,0,1,1.87,1.4,4.52,4.52,0,0,0,1.33,1A2.07,2.07,0,0,0,228.69,150.43Z"/><path class="cls-5" d="M218.66,187.3c.22-.08.65,1.4,2.23,2.08s3.1.06,3.17.26-.27.39-.93.6a3.76,3.76,0,0,1-2.62-.13,3.32,3.32,0,0,1-1.77-1.77C218.5,187.73,218.56,187.32,218.66,187.3Z"/><path class="cls-9" d="M310.87,341a13.9,13.9,0,0,0-10-3.31l-6.12,19.45c4.48.2,9,2.51,13.29,1.33a9.49,9.49,0,0,0,6.59-7.79A11.23,11.23,0,0,0,310.87,341Z"/><path class="cls-14" d="M301,337.19c0-.16.66-.28,1.85-.27a15.15,15.15,0,0,1,5,.94,13.69,13.69,0,0,1,6.1,4.74,12.63,12.63,0,0,1,2,4.22,11.08,11.08,0,0,1,.15,5.1,10.24,10.24,0,0,1-2.22,4.64A9.83,9.83,0,0,1,310,359.3a14.17,14.17,0,0,1-7.7.5,24.38,24.38,0,0,1-4.79-1.49c-1.08-.47-1.65-.81-1.6-1s.71-.12,1.85.08,2.79.53,4.78.71a13.79,13.79,0,0,0,6.65-.85,8,8,0,0,0,3-2.21,8.37,8.37,0,0,0,1.68-3.64,10,10,0,0,0-1.65-7.6,13.16,13.16,0,0,0-5-4.45,22.7,22.7,0,0,0-4.46-1.56C301.59,337.54,301,337.35,301,337.19Z"/><path class="cls-9" d="M244.27,410.13,231,447.42l46.32,16.8c1.33-4.52-19.41-22.09-19.41-22.09l9.51-23.55Z"/><g class="cls-12"><path class="cls-4" d="M244.28,434.92a2,2,0,0,0-2.09,1.69,1.93,1.93,0,0,0,1.65,2.09,2.13,2.13,0,0,0,2.2-1.8c0-1-1-2.12-2-2"/></g><path class="cls-4" d="M231,447.42l1.35-3.76,44,17.55s1.74,1.64,1,3Z"/><path class="cls-5" d="M258.71,442.16c-.09.23-1.26-.08-2.64.24s-2.31,1.06-2.49.9.64-1.35,2.31-1.72S258.83,442,258.71,442.16Z"/><path class="cls-5" d="M262.84,445.93c0,.24-1.15.27-2.26.95s-1.71,1.61-1.93,1.52.1-1.43,1.5-2.24S262.91,445.72,262.84,445.93Z"/><path class="cls-5" d="M263.49,452.75c-.23,0-.13-1.27.9-2.3s2.27-1.14,2.29-.91-.86.64-1.7,1.5S263.72,452.81,263.49,452.75Z"/><path class="cls-5" d="M260.28,436.56c-.17.17-1.09-.52-2.4-.9s-2.46-.33-2.5-.57,1.2-.69,2.74-.23S260.46,436.42,260.28,436.56Z"/><path class="cls-5" d="M261.17,430.66a4.58,4.58,0,0,1-2.32-.85,11.29,11.29,0,0,1-2.15-1.63,11.44,11.44,0,0,1-1.08-1.19,3.07,3.07,0,0,1-.5-.8,1,1,0,0,1,.33-1.24,1.34,1.34,0,0,1,1.18-.16,3.55,3.55,0,0,1,.83.44,8.77,8.77,0,0,1,2.89,3.2,4.17,4.17,0,0,1,.68,2.38c-.13,0-.39-.86-1.19-2.08a9.91,9.91,0,0,0-1.65-1.92,9.1,9.1,0,0,0-1.18-.89c-.44-.31-.86-.46-1.06-.29s-.1.1,0,.28a2.5,2.5,0,0,0,.37.58,12.77,12.77,0,0,0,2.91,2.82C260.37,430.16,261.22,430.54,261.17,430.66Z"/><path class="cls-5" d="M260.76,430.88a3.85,3.85,0,0,1,.2-2.46A7.88,7.88,0,0,1,262.2,426a7.61,7.61,0,0,1,1.1-1.19,2.05,2.05,0,0,1,1.9-.64,1.16,1.16,0,0,1,.74,1,3.46,3.46,0,0,1-.07.94,5.78,5.78,0,0,1-.57,1.56,5.64,5.64,0,0,1-1.86,2c-1.34.87-2.38.8-2.37.71a20.79,20.79,0,0,0,2-1.19,5.7,5.7,0,0,0,1.53-1.91,5.42,5.42,0,0,0,.44-1.36c.1-.52.06-1-.14-1s-.75.14-1.09.47a8.34,8.34,0,0,0-2.31,3.2C261,430,260.89,430.89,260.76,430.88Z"/><path class="cls-5" d="M199.4,310.52c-7,.16-13.69,1.15-18.53,6.25-6.42,6.76-14.36,16.39-14.81,23.06-.67,10,5.35,12.95,9.75,15.38a12.21,12.21,0,0,0,6.38,1.48l81.2-.62,2.55-13.75-52.52-12.95,2.18-19.76Z"/><path class="cls-5" d="M215.6,309.61l25.55-1.18s44.13,2.45,53.54,11.08,8.24,18.43,5.1,27.85S269,417,269,417s2.24,3.83,1,7.65a10.08,10.08,0,0,1-7.21,6.87l-24.56-9s-3.33-1.17-1-4.31,3.92-3.73,3.92-3.73v-6.27s8.63-15.69,9.42-17.85,9.05-34.08,9.05-34.08l5.5-9.44s-13.29-6.25-24.81-10.78l-26.89-6.63Z"/><path class="cls-6" d="M257,421.33c-.05.06-.83-.56-2.16-1.42a30.24,30.24,0,0,0-5.5-2.79,29.62,29.62,0,0,0-6-1.56c-1.56-.25-2.55-.3-2.54-.38a9.53,9.53,0,0,1,2.59,0,24.45,24.45,0,0,1,11.61,4.42A9.72,9.72,0,0,1,257,421.33Z"/><path class="cls-6" d="M269.31,417a8.45,8.45,0,0,1-1.43-1.51c-.83-1-1.93-2.35-3.08-3.92s-2.15-3-2.83-4.11a8.7,8.7,0,0,1-1-1.81,8.94,8.94,0,0,1,1.29,1.62c.85,1.18,1.84,2.53,2.93,4l3,4A9.43,9.43,0,0,1,269.31,417Z"/><path class="cls-6" d="M278.31,338.15a22.61,22.61,0,0,1-2.33.75,25.39,25.39,0,0,0-5.29,2.48,25,25,0,0,0-4.54,3.66,23.91,23.91,0,0,1-1.7,1.76,8.83,8.83,0,0,1,1.45-2,21.14,21.14,0,0,1,4.55-3.83,20.79,20.79,0,0,1,5.43-2.4A8.58,8.58,0,0,1,278.31,338.15Z"/><path class="cls-6" d="M253.19,380.79a2,2,0,0,1,.1-.53c.1-.4.22-.89.38-1.5.36-1.36.86-3.21,1.47-5.48l5-18c1-3.52,1.9-6.87,2.88-9.91a20.61,20.61,0,0,1,4.62-7,25.94,25.94,0,0,1,4.39-3.62c.57-.36,1-.64,1.33-.8a2.74,2.74,0,0,1,.48-.24s-.61.42-1.7,1.19a29.26,29.26,0,0,0-4.26,3.7,20.78,20.78,0,0,0-4.45,7c-.95,3-1.82,6.39-2.83,9.89-2,7-3.83,13.33-5.16,18l-1.62,5.44-.46,1.47A3,3,0,0,1,253.19,380.79Z"/><path class="cls-6" d="M230.59,334.8c-.13,0-.66-4.77-1.2-10.67s-.86-10.7-.73-10.71.67,4.76,1.2,10.67S230.72,334.78,230.59,334.8Z"/><path class="cls-6" d="M188.08,347.55c-.08,0-.47-.74-1.27-1.87a18.41,18.41,0,0,0-8.39-6.56c-1.29-.5-2.14-.69-2.12-.77a6.86,6.86,0,0,1,2.23.46,16,16,0,0,1,4.86,2.6,16.14,16.14,0,0,1,3.7,4.08A7.35,7.35,0,0,1,188.08,347.55Z"/><path class="cls-6" d="M203.73,330.21c0,.07-1.13-.62-3-1.48a29.1,29.1,0,0,0-7.69-2.24,28.42,28.42,0,0,0-8,0c-2,.29-3.27.65-3.3.57a4,4,0,0,1,.85-.32,17.68,17.68,0,0,1,2.4-.58,25.74,25.74,0,0,1,15.89,2.28,17.64,17.64,0,0,1,2.14,1.23A3.53,3.53,0,0,1,203.73,330.21Z"/><path class="cls-6" d="M264.89,342.3a3,3,0,0,1-.63-.1l-1.81-.39-6.62-1.49c-5.58-1.25-13.32-2.93-21.89-4.63s-16.36-3.09-22-4.06l-6.68-1.15-1.82-.32a3,3,0,0,1-.63-.15,2.88,2.88,0,0,1,.65.05l1.83.24c1.58.21,3.88.55,6.71,1,5.66.89,13.46,2.23,22,3.93s16.31,3.43,21.88,4.76c2.79.67,5,1.23,6.59,1.64l1.78.48A3.45,3.45,0,0,1,264.89,342.3Z"/><path class="cls-6" d="M213.42,331.7c-.09,0-.28-1.07-1.12-2.59a11.39,11.39,0,0,0-1.86-2.4,29.94,29.94,0,0,0-2.84-2.46,43.62,43.62,0,0,0-5.82-3.62,19.87,19.87,0,0,1-2.49-1.41,16.33,16.33,0,0,1,2.64,1.12,34,34,0,0,1,5.95,3.53,26.1,26.1,0,0,1,2.87,2.53,10.79,10.79,0,0,1,1.84,2.55,9.09,9.09,0,0,1,.73,2A2.29,2.29,0,0,1,213.42,331.7Z"/><path class="cls-5" d="M303.87,344c.1.1-1.26,1.48-2.32,3.56s-1.4,4-1.54,4a8.22,8.22,0,0,1,1.12-4.17A8.41,8.41,0,0,1,303.87,344Z"/><g class="cls-10"><path d="M250.45,242.07,256.26,283l.29.65A87.92,87.92,0,0,0,250.45,242.07Z"/></g><path class="cls-1" d="M281.75,265.6l-18.9,33.06-46.57,1-.12,2.11,45.1-.33,1.43-.05,47.61.09,9.63-16.59,12.29-17.62a1.73,1.73,0,0,0-1.43-2.73l-47.54.18A1.75,1.75,0,0,0,281.75,265.6Z"/><path class="cls-11" d="M319.93,284.9s2.44,2.24,2.06,4.15-.26,3.32-2.06,3.45a2.74,2.74,0,0,1-2.45,2.83s.55,3-2.93,3.5c0,0-1.06,3.2-3.25,2.42a19.42,19.42,0,0,1-3.61-1.67l-.64-1.16s-3.23-1.21-2.43-3c.48-1.11,2.15-1.4,2.15-1.4a3.12,3.12,0,0,1,.2-2.83c.78-1,3.3-.18,3.3-.18a3.55,3.55,0,0,1,.79-2.46c.86-1,4.87,1.74,4.87,1.74l2.19-2.61Z"/><path class="cls-13" d="M314.55,298.83a22.71,22.71,0,0,1-4-2.22,22.08,22.08,0,0,1-3.77-2.62,23,23,0,0,1,4,2.22A22.4,22.4,0,0,1,314.55,298.83Z"/><path class="cls-13" d="M317.48,295.33a37,37,0,0,1-7.21-4.35,19.32,19.32,0,0,1,3.72,2A18.64,18.64,0,0,1,317.48,295.33Z"/><path class="cls-13" d="M313.49,288.77a12.8,12.8,0,0,1,3.31,1.76,30.4,30.4,0,0,1,3.11,2.06c-.07.16-1.62-.55-3.36-1.66A18.31,18.31,0,0,1,313.49,288.77Z"/><path class="cls-5" d="M332.23,265.8a.6.6,0,0,1-.23,0l-.67,0-2.57,0-9.46.08-31.2.07h-2.27a1.88,1.88,0,0,0-1.73.81c-.71,1.3-1.42,2.57-2.11,3.82-1.4,2.51-2.74,4.94-4,7.25l-6.82,12.25-4.63,8.24-1.28,2.23c-.14.23-.26.42-.35.58s-.12.19-.13.18,0-.07.09-.21l.3-.59,1.21-2.28c1.08-2,2.61-4.83,4.5-8.31l6.73-12.31,4-7.26,2.13-3.84a2.33,2.33,0,0,1,2.12-1h2.27l31.2.07,9.46.08,2.57,0,.67,0A.6.6,0,0,1,332.23,265.8Z"/><path class="cls-4" d="M298.72,282.42a2,2,0,1,0,3-.36A2.15,2.15,0,0,0,298.72,282.42Z"/><path class="cls-6" d="M283.21,385.72s0-.08.06-.22.14-.35.24-.6l.95-2.3c.87-2,2.09-4.94,3.62-8.53,3.13-7.27,7.47-17.36,12.41-28.82l0,0a39.94,39.94,0,0,0,1.18-8.86,22.73,22.73,0,0,0-2-10.27,18.52,18.52,0,0,0-2.84-4.12,19.33,19.33,0,0,0-3.45-3.33,20,20,0,0,0-4.1-2c-1.39-.55-2.75-1.06-4.09-1.49-2.67-.88-5.21-1.56-7.54-2.11-4.66-1.1-8.5-1.68-11.15-2.06l-3.06-.41-.8-.11a1,1,0,0,1-.27-.06h.28l.8.05c.7.06,1.74.15,3.07.31a111.2,111.2,0,0,1,11.21,1.91c2.35.53,4.9,1.19,7.59,2.06,1.35.43,2.73.92,4.13,1.47a20.22,20.22,0,0,1,4.21,2.06,25.07,25.07,0,0,1,6.47,7.61,23.21,23.21,0,0,1,2.1,10.5,40.19,40.19,0,0,1-1.2,9v0L288.39,374.2c-1.59,3.57-2.86,6.45-3.76,8.47l-1,2.27-.28.58A1.35,1.35,0,0,1,283.21,385.72Z"/></g><g id="Speech_Bubble" data-name="Speech Bubble"><path class="cls-4" d="M133.8,90.79l9.82-5.57a26.3,26.3,0,1,0-7-6.3h0Z"/><path class="cls-5" d="M133.8,90.79c.16-.69,1-4.38,2.7-11.9a.1.1,0,0,1,.12-.08l0,0h0l-.14.14a26.24,26.24,0,0,1-5.33-12.62A23.67,23.67,0,0,1,131,62.2c0-.72.06-1.44.12-2.18s.22-1.47.34-2.22a26.51,26.51,0,0,1,20.71-20.89,26.78,26.78,0,0,1,11.7.31,25.85,25.85,0,0,1,10.82,5.64A26.37,26.37,0,0,1,181.92,53a26.81,26.81,0,0,1,1.81,11.79,25.93,25.93,0,0,1-3.2,10.82,26.7,26.7,0,0,1-15.37,12.48,28.31,28.31,0,0,1-8.55,1.14,26.13,26.13,0,0,1-13-3.93h.1l-9.87,5.49,9.77-5.65a.09.09,0,0,1,.1,0,26.15,26.15,0,0,0,13,3.82,28.32,28.32,0,0,0,8.45-1.16,26.51,26.51,0,0,0,15.14-12.36,25.63,25.63,0,0,0,3.14-10.68,26.51,26.51,0,0,0-1.8-11.62,25.92,25.92,0,0,0-7.13-10,25.58,25.58,0,0,0-10.65-5.56,26.51,26.51,0,0,0-11.54-.31,26,26,0,0,0-10,4.36,26.24,26.24,0,0,0-10.45,16.21c-.12.74-.23,1.47-.34,2.19s-.09,1.45-.13,2.16a24.23,24.23,0,0,0,.19,4.12,26.2,26.2,0,0,0,5.21,12.53.11.11,0,0,1,0,.14.11.11,0,0,1-.12,0h0l.15-.06C134.86,86.43,134,90.11,133.8,90.79Z"/><polygon class="cls-9" points="142.57 64.15 146.34 60.38 153.62 66.85 167.91 53.1 171.41 56.87 153.08 74.13 142.57 64.15"/></g><g id="Table"><polygon class="cls-1" points="88.25 461.08 83.87 461.08 81.39 310.79 90.74 310.79 88.25 461.08"/><path class="cls-5" d="M88.25,461.08s0-.27,0-.79,0-1.28,0-2.27c0-2,.06-4.94.11-8.72.1-7.58.26-18.52.45-32.08.42-27.11,1-64.64,1.66-106.44l.26.27H81.38l.27-.27c1.21,73.49,2.14,134.67,2.28,150.3l-.06-.06,3.29,0,1.09,0-1.06,0-3.32,0h-.05v-.06c-.38-15.63-1.48-76.8-2.7-150.29v-.26H91v.26c-.74,41.87-1.4,79.47-1.88,106.62-.25,13.54-.46,24.46-.61,32-.07,3.75-.14,6.67-.18,8.66,0,1,0,1.72,0,2.24Z"/><polygon class="cls-1" points="373.71 461.08 369.34 461.08 367.95 311.21 377.3 311.21 373.71 461.08"/><path class="cls-5" d="M373.71,461.08v-.79c0-.52,0-1.28,0-2.26,0-2,.1-4.93.17-8.7.16-7.55.4-18.47.69-32,.62-27,1.47-64.45,2.43-106.13l.26.26H368l.26-.26c.68,73.27,1.16,134.27,1.19,149.87l-.06-.06,3.29,0,1.08,0-1,0-3.32,0h-.06v-.06c-.26-15.6-.91-76.59-1.59-149.86V311h9.88v.27c-1,41.75-2,79.25-2.65,106.32-.36,13.49-.64,24.39-.84,31.92-.11,3.75-.19,6.65-.25,8.64,0,1-.05,1.71-.07,2.23S373.71,461.08,373.71,461.08Z"/><rect class="cls-1" x="60.35" y="299.34" width="349.11" height="12.4"/><path class="cls-5" d="M60.35,299.34l1.77,0,5.24,0,20.19,0,74.49-.08,247.42-.11h.26V312h-.26l-349.11-.2h-.06v-.06c0-4.26,0-7.36,0-9.41s0-3,0-3c0,.44,0,4,.07,12.4l-.07-.07,349.11-.19-.26.26v-12.4l.26.26-247.22-.11-74.56-.07-20.25,0-5.27,0Z"/><path class="cls-4" d="M134.31,299.52a.61.61,0,0,1-.11.14l-.37.37a7.5,7.5,0,0,1-1.75,1.14,11.29,11.29,0,0,1-3.38.92,29.07,29.07,0,0,1-4.7.17,55.26,55.26,0,0,1-5.66-.53,59.83,59.83,0,0,0-6.45-.62,47.91,47.91,0,0,0-14.52,2.28c-5,1.45-9.63,3.09-14.08,4.09a47.38,47.38,0,0,1-6.43,1,33.91,33.91,0,0,1-5.71,0,22.51,22.51,0,0,1-7.82-2A11.86,11.86,0,0,1,60.91,305l.16.09.47.28a18.8,18.8,0,0,0,1.87,1,23.19,23.19,0,0,0,7.78,1.9,33.31,33.31,0,0,0,5.64,0,47,47,0,0,0,6.35-1.06c4.41-1,9-2.66,14-4.11a48.3,48.3,0,0,1,14.67-2.28,64.85,64.85,0,0,1,6.5.66A55.85,55.85,0,0,0,124,302a29.07,29.07,0,0,0,4.66-.11,11.56,11.56,0,0,0,3.33-.85A8.22,8.22,0,0,0,134.31,299.52Z"/><path class="cls-4" d="M96.12,299.71a7.78,7.78,0,0,1-1.06.73,23.46,23.46,0,0,1-3.18,1.67,31.46,31.46,0,0,1-5.21,1.72,35,35,0,0,1-6.81.87,31.25,31.25,0,0,1-12.17-2,7.69,7.69,0,0,1-2.93-2,3.16,3.16,0,0,1-.48-.75c-.07-.18-.11-.28-.09-.28a8,8,0,0,0,.7.95,8.23,8.23,0,0,0,2.94,1.81,32.45,32.45,0,0,0,12,1.91,35.88,35.88,0,0,0,6.71-.83,33.24,33.24,0,0,0,5.18-1.63A31.09,31.09,0,0,0,95,300.33,10.07,10.07,0,0,1,96.12,299.71Z"/><path class="cls-4" d="M178,307.57l.54.16a13.23,13.23,0,0,0,1.61.35,11.56,11.56,0,0,0,6.11-.78l0,.16a16.58,16.58,0,0,0-7.58-2.4,17.43,17.43,0,0,0-9.85,2.08c-.37.22-.73.48-.76.8s.25.62.65.8a4.78,4.78,0,0,0,1.36.39l1.48.27c2,.36,4.06.72,6.2,1a46,46,0,0,0,6.59.36,29.4,29.4,0,0,0,3.38-.26c.57-.08,1.13-.17,1.69-.29a9.76,9.76,0,0,0,1.63-.43,5.37,5.37,0,0,0,2.11-1.24,1.66,1.66,0,0,0,.41-1.9,3.57,3.57,0,0,0-1.66-1.51,14.75,14.75,0,0,0-2.32-.92,38.4,38.4,0,0,0-9.69-1.63,48.68,48.68,0,0,0-16.56,2.08,44.8,44.8,0,0,0-10,4.42c-1.06.67-1.88,1.2-2.41,1.59l-.61.42a1.86,1.86,0,0,1-.22.14l.19-.16.58-.45c.51-.41,1.31-1,2.37-1.65a43.31,43.31,0,0,1,10-4.54,48.35,48.35,0,0,1,16.68-2.17,38.42,38.42,0,0,1,9.83,1.63,15.86,15.86,0,0,1,2.39.95A3.94,3.94,0,0,1,194,306.5a2,2,0,0,1-.47,2.23,5.74,5.74,0,0,1-2.28,1.35,10.15,10.15,0,0,1-1.7.45c-.57.12-1.14.21-1.71.29a31,31,0,0,1-3.45.27,45.43,45.43,0,0,1-6.66-.38c-2.15-.26-4.23-.62-6.23-1l-1.48-.28a6.19,6.19,0,0,1-1.47-.42,2,2,0,0,1-.61-.44.8.8,0,0,1-.22-.67c.07-.49.54-.79.92-1a17.83,17.83,0,0,1,10.1-2.08,16.66,16.66,0,0,1,7.7,2.5l.14.09-.16.07a11.4,11.4,0,0,1-6.24.7A7.94,7.94,0,0,1,178,307.57Z"/><path class="cls-4" d="M223,299.85a1.57,1.57,0,0,1,.34.62,3.85,3.85,0,0,1,.23,1.86c-.11,1.6-1.32,3.7-3.4,5.41a16.51,16.51,0,0,1-3.17,2.19,15.4,15.4,0,0,1-3.07,1.21,17,17,0,0,1-2.22.45,4.28,4.28,0,0,1-.83.06c0-.06,1.17-.2,2.95-.74a16.39,16.39,0,0,0,3-1.25,16.74,16.74,0,0,0,3.08-2.16,9,9,0,0,0,3.41-5.19A5.54,5.54,0,0,0,223,299.85Z"/><path class="cls-4" d="M285.65,311.09a17.18,17.18,0,0,0-1.6-1.27,12.8,12.8,0,0,0-5.46-2,14.68,14.68,0,0,0-4.16.1,22.18,22.18,0,0,1-4.87.36,10.73,10.73,0,0,1-4.85-1.93,17.81,17.81,0,0,0-4.88-2.35,21.71,21.71,0,0,0-10.82-.13,28.17,28.17,0,0,0-8,3.29,43.47,43.47,0,0,0-4.64,3.22l-1.19.95a2.12,2.12,0,0,1-.43.32,3.25,3.25,0,0,1,.37-.37c.25-.23.63-.57,1.13-1a38.43,38.43,0,0,1,4.58-3.32,28,28,0,0,1,8.08-3.4,22,22,0,0,1,11.08.11,18,18,0,0,1,5,2.41,10.44,10.44,0,0,0,4.65,1.88,21.12,21.12,0,0,0,4.76-.33,15.35,15.35,0,0,1,4.27-.05,12.28,12.28,0,0,1,5.52,2.14A6.37,6.37,0,0,1,285.65,311.09Z"/><path class="cls-4" d="M341.62,299.46a3.14,3.14,0,0,1-.38.42,15.18,15.18,0,0,1-1.19,1.16,31.51,31.51,0,0,1-5.1,3.67,44,44,0,0,1-8.84,4,41.57,41.57,0,0,1-5.7,1.48,36.46,36.46,0,0,1-6.38.67,37.74,37.74,0,0,1-12.1-2,43.67,43.67,0,0,1-8.8-4.05,32.6,32.6,0,0,1-5.06-3.71c-.56-.47-.92-.89-1.19-1.15a2.92,2.92,0,0,1-.39-.42,2.77,2.77,0,0,1,.45.38c.29.24.68.65,1.25,1.1a36.32,36.32,0,0,0,5.12,3.6,44.33,44.33,0,0,0,8.77,3.95,37.88,37.88,0,0,0,11.94,2,36.41,36.41,0,0,0,6.29-.65,42.34,42.34,0,0,0,5.65-1.45,45,45,0,0,0,8.81-3.88,34.68,34.68,0,0,0,5.16-3.57c.58-.45.95-.85,1.24-1.1A3.42,3.42,0,0,1,341.62,299.46Z"/><path class="cls-4" d="M333.63,299.34a1.74,1.74,0,0,1-.3.2c-.21.11-.5.29-.91.49a36.2,36.2,0,0,1-3.49,1.61,42.59,42.59,0,0,1-5.53,1.83,29.46,29.46,0,0,1-7.21,1,35.11,35.11,0,0,1-12.79-2.63,31.06,31.06,0,0,1-3.47-1.65,9.91,9.91,0,0,1-.88-.53c-.2-.12-.3-.19-.29-.2a13.29,13.29,0,0,1,1.26.61,38.12,38.12,0,0,0,3.51,1.55,36.45,36.45,0,0,0,12.66,2.5,29.93,29.93,0,0,0,7.1-1,46.59,46.59,0,0,0,5.51-1.74c1.52-.59,2.72-1.12,3.54-1.5A14.08,14.08,0,0,1,333.63,299.34Z"/><path class="cls-4" d="M369.12,300.61h-.4l-1.14-.06-.83-.05h-1c-.71,0-1.51,0-2.39,0l-1.39.06-1.5.14c-1,.08-2.13.27-3.29.43a59.55,59.55,0,0,0-7.29,1.77,55.65,55.65,0,0,0-6.84,2.73c-1,.52-1.95,1-2.78,1.49l-1.22.71-1.09.71c-.7.44-1.28.89-1.8,1.28l-.73.53-.58.48-.81.66a1.27,1.27,0,0,1-.3.22s.07-.1.24-.26.45-.43.75-.71l.55-.5.71-.57c.51-.4,1.08-.86,1.78-1.32l1.07-.73,1.22-.74c.83-.53,1.8-1,2.78-1.53a54.21,54.21,0,0,1,6.89-2.78,55.45,55.45,0,0,1,7.38-1.75c1.16-.15,2.27-.34,3.32-.41l1.51-.12,1.4,0c.9,0,1.71,0,2.42,0l1,0,.83.08,1.14.12Z"/><path class="cls-4" d="M291.92,310.84A14.21,14.21,0,0,0,290,309a19.24,19.24,0,0,0-7-3.19,44.91,44.91,0,0,0-5.49-1c-2-.26-4.16-.46-6.42-.78a63.87,63.87,0,0,1-7-1.42,53.82,53.82,0,0,0-7.44-1.46,37.68,37.68,0,0,0-14.49,1.63,58.9,58.9,0,0,0-5.89,2.15c-1.8.75-3.46,1.49-5,2.18-3,1.38-5.4,2.55-7.05,3.37l-1.89.94-.5.25-.18.07.15-.1.48-.27c.42-.24,1-.58,1.85-1,1.63-.86,4-2.07,7-3.48,1.49-.7,3.14-1.46,5-2.22a58.15,58.15,0,0,1,5.92-2.2,37.7,37.7,0,0,1,14.68-1.66,53.53,53.53,0,0,1,7.5,1.47,64.11,64.11,0,0,0,6.92,1.43c2.24.33,4.39.54,6.4.81a45.14,45.14,0,0,1,5.53,1,18.61,18.61,0,0,1,7.06,3.33A7.43,7.43,0,0,1,291.92,310.84Z"/><path class="cls-4" d="M213.29,299.52a2.44,2.44,0,0,1,0,.8,8.19,8.19,0,0,1-.68,2.09,12.7,12.7,0,0,1-5.37,5.57,40.24,40.24,0,0,1-7.95,3c-1.07.28-1.94.49-2.54.62a5,5,0,0,1-1,.16,4.29,4.29,0,0,1,.91-.29l2.49-.73a45.23,45.23,0,0,0,7.81-3,13.15,13.15,0,0,0,5.32-5.37A14.48,14.48,0,0,0,213.29,299.52Z"/><path class="cls-4" d="M132.25,311.74a5.06,5.06,0,0,1,.85-.67c.56-.41,1.41-1,2.48-1.65a78.34,78.34,0,0,1,8.9-4.66c3.63-1.61,7-2.91,9.48-3.83,1.23-.46,2.23-.82,2.93-1.06a8.31,8.31,0,0,1,1.1-.35,6,6,0,0,1-1,.47l-2.87,1.17c-2.42,1-5.78,2.3-9.4,3.91a92.16,92.16,0,0,0-8.93,4.55c-1.09.64-2,1.18-2.56,1.56A5.73,5.73,0,0,1,132.25,311.74Z"/><path class="cls-4" d="M148.69,300s-.8-.08-2.25,0a18.65,18.65,0,0,0-5.82,1.44,54.49,54.49,0,0,0-7.57,4.12,42.91,42.91,0,0,1-4.55,2.4,29.92,29.92,0,0,1-5.45,1.7,62.25,62.25,0,0,1-11.16,1.09c-3.45.08-6.55,0-9.15.11a53.11,53.11,0,0,0-6.12.49c-.71.1-1.26.19-1.64.26a4,4,0,0,1-.57.09,2.78,2.78,0,0,1,.55-.16c.37-.09.92-.2,1.63-.33a49,49,0,0,1,6.14-.6c2.61-.12,5.72-.09,9.15-.18a63.75,63.75,0,0,0,11.06-1.11,28.94,28.94,0,0,0,5.36-1.67,41.55,41.55,0,0,0,4.52-2.35,53.48,53.48,0,0,1,7.66-4.09,18.36,18.36,0,0,1,6-1.35,13.31,13.31,0,0,1,1.69.05A3.35,3.35,0,0,1,148.69,300Z"/><path class="cls-4" d="M377.32,311.74a5.69,5.69,0,0,1,.85-.67c.57-.41,1.41-1,2.49-1.65a78.34,78.34,0,0,1,8.9-4.66c3.63-1.61,7-2.91,9.48-3.83,1.23-.46,2.23-.82,2.93-1.06a7.81,7.81,0,0,1,1.1-.35,6,6,0,0,1-1,.47l-2.87,1.17c-2.42,1-5.79,2.3-9.4,3.91a92.16,92.16,0,0,0-8.93,4.55c-1.09.64-2,1.18-2.56,1.56A6,6,0,0,1,377.32,311.74Z"/><path class="cls-4" d="M393.77,300s-.81-.08-2.25,0a18.7,18.7,0,0,0-5.83,1.44,55,55,0,0,0-7.56,4.12,42.14,42.14,0,0,1-4.56,2.4,29.67,29.67,0,0,1-5.45,1.7A62.15,62.15,0,0,1,357,310.79c-3.45.08-6.55,0-9.15.11a52.91,52.91,0,0,0-6.12.49c-.71.1-1.27.19-1.64.26a3.76,3.76,0,0,1-.58.09,3.5,3.5,0,0,1,.56-.16c.37-.09.92-.2,1.63-.33a49,49,0,0,1,6.14-.6c2.61-.12,5.71-.09,9.15-.18A63.85,63.85,0,0,0,368,309.36a28.94,28.94,0,0,0,5.36-1.67,41.55,41.55,0,0,0,4.52-2.35,53.48,53.48,0,0,1,7.66-4.09,18.36,18.36,0,0,1,5.95-1.35,13.07,13.07,0,0,1,1.68.05A3.93,3.93,0,0,1,393.77,300Z"/><path class="cls-5" d="M366.42,299.29c0,.1-14.59.18-32.58.18s-32.59-.08-32.59-.18,14.59-.17,32.59-.17S366.42,299.2,366.42,299.29Z"/></g></g></svg>