<svg xmlns="http://www.w3.org/2000/svg" viewBox="0 0 444.33 328.92"><defs><style>.cls-1,.cls-12,.cls-8{fill:#fff;}.cls-1,.cls-11,.cls-14,.cls-2,.cls-3,.cls-4{stroke:#2647a3;}.cls-1,.cls-10,.cls-11,.cls-14,.cls-2,.cls-20,.cls-3,.cls-4,.cls-8,.cls-9{stroke-linecap:round;}.cls-1,.cls-10,.cls-11,.cls-14,.cls-19,.cls-2,.cls-20,.cls-3,.cls-4,.cls-8,.cls-9{stroke-linejoin:round;}.cls-2{fill:#edf7ff;}.cls-13,.cls-3{fill:#7cc4e5;}.cls-11,.cls-18,.cls-19,.cls-20,.cls-4{fill:none;}.cls-5{fill:#d4e7f7;}.cls-10,.cls-14,.cls-6{fill:#84d5dc;}.cls-7{fill:#2647a3;}.cls-10,.cls-8,.cls-9{stroke:#213d8c;}.cls-9{fill:#e1edf7;}.cls-11{stroke-width:0.5px;}.cls-15{fill:#9ccdf7;}.cls-16{fill:#ffd373;}.cls-17{fill:#ff879f;}.cls-18{stroke:#ff879f;stroke-miterlimit:10;}.cls-19,.cls-20{stroke:#2e7efb;}</style></defs><title>Recurso 2</title><g id="Capa_2" data-name="Capa 2"><g id="OBJECTS"><path class="cls-1" d="M240.88,277.41c-6.09,0-5.93,5.49-11.15,5.48s-6.63-3.86-6.63-9.19V257.11a5.21,5.21,0,0,0-5.21-5.22l-15.46,0c-5.33,0-9.19-1.41-9.19-6.63s5.48-5.06,5.48-11.15c0-5.71-3.37-9.29-11-9.29s-11,3.6-11,9.3c0,6.09,5.49,5.92,5.49,11.15s-3.85,6.63-9.18,6.63H151.8a5.22,5.22,0,0,0-5.22,5.22l0,66.09a5.22,5.22,0,0,0,5.22,5.22l66.09,0a5.22,5.22,0,0,0,5.22-5.21V303.06c0-5.33,1.42-9.19,6.64-9.18s5.05,5.49,11.14,5.49c5.71,0,9.29-3.37,9.3-11S246.59,277.41,240.88,277.41Z"/><path class="cls-2" d="M299.56,323.2l0-66.09a5.22,5.22,0,0,0-5.21-5.22H276.91c-5.33,0-9.19-1.41-9.18-6.63s5.49-5.06,5.49-11.15c0-5.7-3.37-9.29-11-9.3s-11,3.59-11,9.3c0,6.08,5.49,5.92,5.48,11.14s-3.86,6.63-9.19,6.63H228.29a5.22,5.22,0,0,0-5.22,5.22v16.64c0,5.33,1.41,9.19,6.63,9.19s5.06-5.48,11.14-5.48c5.71,0,9.3,3.37,9.29,11s-3.59,11-9.3,11c-6.08,0-5.92-5.49-11.14-5.49s-6.63,3.85-6.64,9.18v20.09a5.22,5.22,0,0,0,5.22,5.22l66.09,0A5.22,5.22,0,0,0,299.56,323.2Z"/><path class="cls-2" d="M294.38,99.71l-66.09,0a5.22,5.22,0,0,0-5.22,5.22v17.47c0,5.33-1.42,9.19-6.64,9.18s-5-5.49-11.14-5.49c-5.71,0-9.3,3.37-9.3,11s3.58,11,9.29,11c6.09,0,5.93-5.49,11.14-5.49s6.63,3.87,6.63,9.2V171a5.22,5.22,0,0,0,5.22,5.22H244.9c5.32,0,9.19-1.41,9.19-6.63s-5.49-5.06-5.49-11.15c0-5.7,3.38-9.29,11-9.28s11,3.59,11,9.29c0,6.09-5.49,5.93-5.49,11.15s3.85,6.63,9.18,6.64h20.09a5.22,5.22,0,0,0,5.22-5.21l0-66.09A5.22,5.22,0,0,0,294.38,99.71Z"/><path class="cls-3" d="M173.11,251.78c5.33,0,9.19-1.41,9.19-6.63s-5.49-5.06-5.48-11.14c0-5.71,3.37-9.3,11-9.29s11,3.59,11,9.3c0,6.09-5.49,5.92-5.49,11.14s3.85,6.63,9.18,6.64h15.39a5.22,5.22,0,0,0,5.22-5.22V226.43c0-5.32,1.42-9.18,6.64-9.18s5.05,5.49,11.14,5.5c5.71,0,9.29-3.37,9.3-11s-3.58-11-9.29-11c-6.09,0-5.93,5.49-11.15,5.49s-6.63-3.86-6.63-9.19V180.49a5.21,5.21,0,0,0-5.21-5.22H201.25c-5.33,0-9.19,1.41-9.19,6.63s5.49,5.06,5.48,11.15c0,5.7-3.37,9.29-11,9.29s-11-3.6-11-9.3c0-6.09,5.5-5.93,5.5-11.15s-3.86-6.63-9.19-6.63H151.8a5.22,5.22,0,0,0-5.22,5.22l0,66.08a5.23,5.23,0,0,0,5.22,5.23Z"/><line class="cls-4" x1="0.5" y1="328.42" x2="443.83" y2="328.42"/><g id="_Grupo_" data-name="&lt;Grupo&gt;"><path class="cls-5" d="M303.1,206.14a22,22,0,0,0,2.9-3.73,4,4,0,0,1,1.95-1.5,28.23,28.23,0,0,0,3-1.84c-.21.06-3.58,1-4.4,1.3a25.82,25.82,0,0,1-4.27,1.46c-1.83.33-2.57-.82-2.13-1a26,26,0,0,0,3.75-1.73,14,14,0,0,1,2.44-1.31l2.14-.81a19.61,19.61,0,0,0-2.29-.17c-.43,0-1.47.42-3.14.75s-2.36.06-2.69-1.12c1.9-.23,5.21-1.82,5.58-1.82s2.19-.29,3.42-.41a12.26,12.26,0,0,1,2.95-.2c.19.11,3.59,2.34,9.4,5.53,9.44,0,26.94-7.69,31.92-8.44l13.21-21.93,12.54,10.45c-6.53,8.05-18.62,21.63-19.66,22.25s-31.55,3.86-36.78,4.27c-2.75,1.25-4.75.92-6.18.07s-3.92-2.63-3.92-2.63a11.75,11.75,0,0,0-2.39,1.48,17,17,0,0,0-.82,2.21,2.78,2.78,0,0,1-2.05,1.5s.32-2,.43-2.33a5.3,5.3,0,0,1,.75-2c.28-.36,1-1.39,1.59-2.26a8.79,8.79,0,0,0-1.84,1c-.63.45-.71,1.05-1.67,2.21A3.12,3.12,0,0,1,303.1,206.14Z"/><path class="cls-4" d="M311.31,195.94l-2.8,1.06-2.14.81a14,14,0,0,0-2.44,1.31,26,26,0,0,1-3.75,1.73c-.44.16.3,1.31,2.13,1a25.82,25.82,0,0,0,4.27-1.46c.82-.26,4.19-1.24,4.4-1.3"/><path class="cls-4" d="M312.12,198.29l-1.13.78h0a28.23,28.23,0,0,1-3,1.84,4,4,0,0,0-1.95,1.5,22,22,0,0,1-2.9,3.73,3.12,3.12,0,0,0,3.77-.79c1-1.16,1-1.76,1.67-2.21a8.79,8.79,0,0,1,1.84-1h0"/><path class="cls-4" d="M311.31,200.81s-.42.62-.93,1.35-1.31,1.9-1.59,2.26a5.3,5.3,0,0,0-.75,2c-.11.37-.43,2.33-.43,2.33a2.78,2.78,0,0,0,2.05-1.5,17,17,0,0,1,.82-2.21,11.75,11.75,0,0,1,2.39-1.48s2.48,1.77,3.92,2.63,3.43,1.18,6.18-.07c5.23-.41,35.73-3.65,36.78-4.27s13.13-14.2,19.66-22.25l-12.54-10.45-13.21,21.93c-5,.75-22.48,8.44-31.92,8.44-5.81-3.19-9.21-5.42-9.4-5.53a12.26,12.26,0,0,0-2.95.2c-1.23.12-3,.41-3.42.41s-3.68,1.59-5.58,1.82c.33,1.18,1,1.45,2.69,1.12s2.71-.74,3.14-.75a19.61,19.61,0,0,1,2.29.17"/></g><path class="cls-6" d="M379,160.56s-6.41.15-10.34,2.49c-5.49,6.61-12.63,19.84-12.63,19.84s7.29,7.5,13.54,11c0,0,9-7.92,14.83-14.08Z"/><path class="cls-7" d="M377.38,186l6.88-6.34a.16.16,0,0,1,.22.23l-6.39,6.82a.5.5,0,0,1-.74-.68Z"/><path class="cls-7" d="M377.6,185.9l9.13-2a.15.15,0,0,1,.19.11.16.16,0,0,1-.1.19l-9,2.71a.49.49,0,0,1-.62-.33.5.5,0,0,1,.32-.63Z"/><path class="cls-4" d="M368.63,163.05c-5.49,6.61-12.63,19.84-12.63,19.84s7.29,7.5,13.54,11c0,0,3.88-3.41,8.19-7.5"/><path class="cls-7" d="M379,160.74s-.66,0-1.65.17c-.5.05-1.07.16-1.69.26s-1.25.26-1.9.4l-1,.27c-.31.09-.62.16-.91.27-.57.23-1.11.42-1.56.61l-1.42.76-.07,0a.5.5,0,0,1-.67-.21.51.51,0,0,1,.2-.68h0l1.58-.73c.49-.18,1.06-.35,1.67-.54.31-.1.63-.16,1-.24l1-.22c.67-.1,1.34-.22,2-.29s1.22-.14,1.72-.16c1-.08,1.69-.07,1.69-.07h0a.18.18,0,0,1,.19.19A.18.18,0,0,1,379,160.74Z"/><polygon class="cls-8" points="344.78 304.6 345.59 316.63 355.76 317.76 354.57 299.77 344.78 304.6"/><rect class="cls-9" x="322.09" y="325.79" width="35.3" height="2.64"/><path class="cls-10" d="M330.59,320.82a3.42,3.42,0,0,1,1.57-2.59c1.44-.74,10-5.55,11.1-6.2s1.62-1.53,2.54-1.34a2.41,2.41,0,0,1,.51,4.21c-2.17,1.71-14.47,7.58-14.47,7.58Z"/><path class="cls-8" d="M333.45,322.47c-.33-1.07-.51-1.54.74-2.56s8.18-4.25,9.8-5.31,2.36-1.11,4.35.23,3.29,1,5.51,1.32,2.45-.14,2.91,1.11.63,5.89.63,8.53H332.16Z"/><path class="cls-8" d="M322.09,325.79a4.24,4.24,0,0,1,1.89-3,54.6,54.6,0,0,1,6.57-2.78c1.29-.5,3.37,2.27,4,5.81Z"/><path class="cls-8" d="M337.16,319.52a.92.92,0,0,1-.3,1.27h0a.92.92,0,0,1-1.27-.29l-2.11-3.4a.92.92,0,0,1,.3-1.27h0a.92.92,0,0,1,1.27.3Z"/><path class="cls-8" d="M341.11,317.15a.92.92,0,0,1-.3,1.27h0a.93.93,0,0,1-1.27-.3l-2.11-3.39a.93.93,0,0,1,.3-1.28h0a.93.93,0,0,1,1.28.3Z"/><path class="cls-8" d="M345,315.27a.92.92,0,0,1-.37,1.25h0a.92.92,0,0,1-1.25-.37l-1.91-3.51a.91.91,0,0,1,.37-1.25h0a.91.91,0,0,1,1.25.37Z"/><polygon class="cls-8" points="406.12 304.32 414.79 312.69 423.09 306.71 410.13 294.17 406.12 304.32"/><path class="cls-10" d="M406.48,325.86a3.42,3.42,0,0,1-.57-3c.57-1.52,3.68-10.82,4.07-12s.17-2.22,1-2.7a2.41,2.41,0,0,1,3.21,2.77c-.47,2.73-5.64,15.34-5.64,15.34Z"/><path class="cls-8" d="M409.71,325.17c-1-.57-1.41-.8-1.17-2.39s3.22-8.64,3.7-10.52,1-2.4,3.38-2.75,3.11-1.47,5-2.72,1.72-1.75,2.9-1.13,4.42,3.95,6.19,5.9l-16.26,15.78Z"/><path class="cls-8" d="M399.24,325.85a4.25,4.25,0,0,1,1.9-3,43.37,43.37,0,0,1,5.5-2.62c1.29-.5,3.68,2.13,4,5.65Z"/><path class="cls-8" d="M411.66,316.61a.92.92,0,0,1,.63,1.14h0a.91.91,0,0,1-1.14.63l-3.84-1.1a.92.92,0,0,1-.63-1.14h0a.92.92,0,0,1,1.14-.64Z"/><path class="cls-8" d="M413.43,312.24a.93.93,0,0,1,.57,1.18h0a.92.92,0,0,1-1.18.56l-3.77-1.32a.92.92,0,0,1-.57-1.17h0a.92.92,0,0,1,1.18-.57Z"/><polygon class="cls-9" points="413.97 325.79 429.68 311.56 431.45 313.52 414.99 328.42 399.24 328.42 399.24 325.79 413.97 325.79"/><path class="cls-2" d="M369.07,235.32s-6.88,37.1-7.47,39.77a10.86,10.86,0,0,0,3.81,10.39c3.76,2.94,44.54,24.36,44.54,24.36a36.49,36.49,0,0,0,6.62-11.3c-13.19-11.35-33.35-26.44-33.35-26.44s18.68-39.11,20.2-42.88,2.2-11.35.47-16Z"/><polyline class="cls-11" points="384.26 231.29 377.29 275.27 414.44 303.31"/><path class="cls-11" d="M408.33,308.85s5.05-6.63,6.33-12"/><path class="cls-1" d="M362.75,222.56s-29.08,24-31.25,25.69a10.85,10.85,0,0,0-3.75,10.42c1,4.67,15.58,47.67,15.58,47.67a36.56,36.56,0,0,0,12.34-4.42c-2.84-17.17-5.67-42.08-5.67-42.08s39.42-18,43-19.92,9-7.29,10.67-12Z"/><polyline class="cls-11" points="376.98 229.21 343.42 258.46 350.97 304.22"/><path class="cls-11" d="M342.73,304.55s8.13-1.85,12.53-5.12"/><path class="cls-12" d="M358.21,151.26s3.92,3.75,5.17,6.2a46.91,46.91,0,0,1,1.25,7.63l16.29-11.46-6-5.56L367.67,143Z"/><path class="cls-5" d="M367.67,143l-9.46,8.3s3.92,3.75,5.17,6.2c.37,1.5.64,2.91.83,4.1,4.91-5.31,7.05-12.37,7.81-15.55Z"/><path class="cls-4" d="M358.21,151.26s3.92,3.75,5.17,6.2a46.91,46.91,0,0,1,1.25,7.63l16.29-11.46-6-5.56L367.67,143Z"/><g id="_Grupo_2" data-name="&lt;Grupo&gt;"><path class="cls-12" d="M370.84,144.18l0,0a5.38,5.38,0,0,1-1.29.7c-3.21,8.13-13.75,10.17-15.27,10.17s-1.44-1.25-1.68-2.83-1.34-1.46-1.84-2a4.55,4.55,0,0,1-.64-2,2.84,2.84,0,0,1-2.09-.5v-.92a1,1,0,0,0-1-1,2.79,2.79,0,0,1-2.1-1.14c-.38-.71.09-1.06,1.5-3.43s-.31-2.47.15-10.44a14.61,14.61,0,0,1,13-13.72c7.65-1,13.68,1.67,16.5,10.22C378.66,135.43,374.46,141.91,370.84,144.18Z"/><path class="cls-7" d="M350.94,137.75c.18.78-.09,1.51-.61,1.63s-1.08-.42-1.26-1.2.09-1.52.6-1.64S350.75,137,350.94,137.75Z"/><path class="cls-4" d="M369.5,144.92c-3.21,8.13-13.75,10.17-15.27,10.17s-1.44-1.25-1.68-2.83-1.34-1.46-1.84-2a4.55,4.55,0,0,1-.64-2,2.84,2.84,0,0,1-2.09-.5v-.92a1,1,0,0,0-1-1,2.79,2.79,0,0,1-2.1-1.14c-.38-.71.09-1.06,1.5-3.43s-.31-2.47.15-10.44a14.61,14.61,0,0,1,13-13.72c7.65-1,13.68,1.67,16.5,10.22,2.68,8.12-1.52,14.6-5.14,16.87"/><path class="cls-7" d="M349.87,147.8l.21-.08.52-.23a11.08,11.08,0,0,0,1.53-.91,9.12,9.12,0,0,0,.74-.59,7,7,0,0,0,.61-.57l.54-.61,0,0a.22.22,0,0,1,.3,0,.2.2,0,0,1,0,.28l-.5.7a6.42,6.42,0,0,1-.57.68,9.86,9.86,0,0,1-.73.71,12,12,0,0,1-1.53,1.15l-.56.32-.22.11a.5.5,0,0,1-.46-.89l.05,0Z"/></g><g id="_Grupo_3" data-name="&lt;Grupo&gt;"><path class="cls-13" d="M366.67,140.72l-.79-4.19-2.54-.9-.68-3.3h0a5.23,5.23,0,0,1-1.45-1.06,11,11,0,0,1,.21,2,7.43,7.43,0,0,1-3.15-6.51,10.45,10.45,0,0,1-4.07,4.8c-.11-.75-.2-1.75-.26-2.63-1.56,3.25-7.47,6.17-7.47,6.17a10.17,10.17,0,0,1-2.14-8.36,3.19,3.19,0,0,1-3.45-.6,136.26,136.26,0,0,1,10.58-9.54c6-4.92,15.09-4.46,19.79-.84h.11a5.35,5.35,0,0,1,.52-2.61c1.21,3,5.33,4.58,4.12,9,3.34,1.21,4.21,5.33,4.17,7.83s-.91,5,.05,6.67l-.09.37a5.37,5.37,0,0,1-2.49-1.38c.26,6.83-3.8,6.93-2.68,12.49a7,7,0,0,1-5.46-3.15,5.38,5.38,0,0,0,1.29-.7l0,0c2.78-2.11,4-7,1.86-9.37-1.91-2.1-4.94.31-4.69,2.72v2.52Z"/><path class="cls-7" d="M353.44,128.94s0-.29,0-.72c0-.23,0-.51,0-.8s.08-.58.12-.88a17,17,0,0,1,.62-2.27.21.21,0,0,1,.28-.12.2.2,0,0,1,.13.25h0a16.25,16.25,0,0,0-.32,2.23,11.13,11.13,0,0,0,0,1.48c.07.43.12.71.12.71a.5.5,0,0,1-.4.58.48.48,0,0,1-.58-.4A.13.13,0,0,1,353.44,128.94Z"/><path class="cls-4" d="M358.27,126.71a10.45,10.45,0,0,1-4.07,4.8c-.11-.75-.2-1.75-.26-2.63"/><path class="cls-7" d="M359.44,122.64a4.26,4.26,0,0,1,0,.67c0,.2,0,.44-.05.69s-.08.52-.12.79a12,12,0,0,1-.34,1.45l-.18.66a.51.51,0,0,1-.62.36.5.5,0,0,1-.35-.62.19.19,0,0,1,0-.07l0-.06.25-.58a9,9,0,0,0,.51-1.31c.08-.24.15-.49.22-.72s.11-.45.15-.64a4.37,4.37,0,0,0,.11-.64.2.2,0,0,1,.21-.18.19.19,0,0,1,.18.18Z"/><path class="cls-4" d="M344.33,126.69a3.19,3.19,0,0,1-3.45-.6,136.26,136.26,0,0,1,10.58-9.54c6-4.92,15.09-4.46,19.79-.84"/><path class="cls-7" d="M348,124.61l-.48.46-.49.47a6.6,6.6,0,0,1-.63.5,5.43,5.43,0,0,1-.68.46l-.61.36-.62.3a.5.5,0,0,1-.67-.23.51.51,0,0,1,.23-.68l.07,0h0l.61-.18.61-.23a6.68,6.68,0,0,0,.67-.31c.22-.13.46-.22.66-.36l.57-.38.54-.38a.15.15,0,0,1,.21,0A.15.15,0,0,1,348,124.61Z"/><path class="cls-4" d="M353.94,128.88c-1.56,3.25-7.47,6.17-7.47,6.17a10.17,10.17,0,0,1-2.14-8.36"/><path class="cls-4" d="M371.36,115.7a5.35,5.35,0,0,1,.52-2.61c1.21,3,5.33,4.58,4.12,9,3.34,1.21,4.21,5.33,4.17,7.83s-.91,5,.05,6.67a2.13,2.13,0,0,0,.16.25"/><path class="cls-7" d="M372.34,119.85a5.05,5.05,0,0,1-.37-.58,8.61,8.61,0,0,1-.63-1.38,5.88,5.88,0,0,1-.25-.78c0-.26-.13-.49-.15-.7-.05-.43-.08-.71-.08-.71a.5.5,0,1,1,1-.12.13.13,0,0,1,0,.06v.06s0,.25,0,.62a7.07,7.07,0,0,0,.16,1.38,7.48,7.48,0,0,0,.41,1.35c.14.36.26.59.26.59a.2.2,0,0,1-.08.27.2.2,0,0,1-.26-.06Z"/><path class="cls-7" d="M377.27,135.92l-.14-.17c-.08-.1-.21-.28-.36-.5a8,8,0,0,1-.44-.74,8.79,8.79,0,0,1-.42-.87,8.25,8.25,0,0,1-.34-.9c-.11-.29-.15-.58-.22-.81s-.06-.45-.08-.6,0-.22,0-.22a.19.19,0,0,1,.17-.22.19.19,0,0,1,.22.15v0s0,.07.05.2a3.54,3.54,0,0,0,.14.53,6.29,6.29,0,0,0,.28.73,7.69,7.69,0,0,0,.42.8,8.18,8.18,0,0,0,.48.76,7.33,7.33,0,0,0,.47.61,5,5,0,0,0,.36.39l.15.15h0a.5.5,0,0,1,0,.71.5.5,0,0,1-.71,0Z"/><path class="cls-4" d="M380.38,137l-.25,0a5.37,5.37,0,0,1-2.49-1.38"/><path class="cls-4" d="M377.64,135.58c.26,6.83-3.8,6.93-2.68,12.49a7,7,0,0,1-5.46-3.15,5.38,5.38,0,0,0,1.29-.7l0,0c2.78-2.11,4-7,1.86-9.37-1.91-2.1-4.94.31-4.69,2.72v2.52l-1.34.67-.79-4.19-2.54-.9-.68-3.3"/><path class="cls-7" d="M362.86,131.87l.4.2.47.23c.17.08.37.13.58.21a5.47,5.47,0,0,0,.71.21l.82.17c.29,0,.6,0,.91.06a4.15,4.15,0,0,0,.93,0,5.77,5.77,0,0,0,.93-.12l.88-.23a4.07,4.07,0,0,0,.8-.33l.7-.32c.79-.54,1.31-.92,1.31-.92h0a.11.11,0,1,1,.13.17s-.5.42-1.28,1l-.71.4a4.7,4.7,0,0,1-.81.4l-.92.32a6.3,6.3,0,0,1-1,.2,4.24,4.24,0,0,1-1,.1c-.34,0-.67,0-1,0l-.92-.11a5.17,5.17,0,0,1-.82-.18,6.3,6.3,0,0,1-.68-.2l-.48-.19-.42-.16a.52.52,0,0,1-.28-.66.51.51,0,0,1,.66-.27Z"/><path class="cls-4" d="M358.27,126.69v0a7.43,7.43,0,0,0,3.15,6.51,11,11,0,0,0-.21-2,5.23,5.23,0,0,0,1.45,1.06h0"/><path class="cls-7" d="M364.38,129.57s.1.07.22.13a4.21,4.21,0,0,0,.59.28c.12.05.28.08.43.13a2,2,0,0,0,.49.12l.55.09a2.7,2.7,0,0,0,.57,0h.58l.55-.1a3.92,3.92,0,0,0,1-.23l.93-.33h0a.15.15,0,0,1,.18.09.14.14,0,0,1-.07.18l-.93.44a4,4,0,0,1-1,.36l-.58.17-.63.08c-.21,0-.42.06-.63.05l-.62,0a3.68,3.68,0,0,1-.58-.07c-.18,0-.36-.06-.51-.11a5.23,5.23,0,0,1-.77-.26l-.28-.13,0,0a.5.5,0,1,1,.52-.85Z"/><path class="cls-7" d="M365.54,128a4,4,0,0,0,.59.08l.58.06h.69a3.8,3.8,0,0,0,.69,0l.6-.11.59-.11h0a.15.15,0,0,1,.17.12.14.14,0,0,1-.09.17l-.58.22-.61.23a4,4,0,0,1-.72.18l-.73.14-.67.06a4.9,4.9,0,0,1-.63,0h-.05a.5.5,0,1,1,.06-1Z"/></g><path class="cls-14" d="M380.38,149.34s-9.21,5.94-13.65,10.94a54.37,54.37,0,0,0-4.88,9.06c.69,2.94,1.44,3.31,1.44,3.31s2.25,22.5,3.19,36.06c-2.44,7.25-5.69,14.69-5.69,14.69s4.19,5.88,18.38,8.44a64.87,64.87,0,0,0,27.06-1.31,50.05,50.05,0,0,0-.88-7.32c-.18-11.68-3.77-40.87-10.35-57.37a48.36,48.36,0,0,0-12.54-13.25C381.66,151.22,380.38,149.34,380.38,149.34Z"/><path class="cls-11" d="M382.46,152.59s-13.53,6.55-20.24,18.07"/><path class="cls-11" d="M370.79,160.56a108.33,108.33,0,0,1,7.63,21,134.8,134.8,0,0,1,3.25,24.83s-2.58,14.33-7.92,24.16"/><path class="cls-7" d="M366.16,208.33s.62-.49,1.61-1.17c.49-.34,1.05-.75,1.67-1.16l2-1.24,1-.62a11.13,11.13,0,0,1,1-.57l1.78-1,1.74-.94a.11.11,0,0,1,.15.05.11.11,0,0,1,0,.15h0l-1.67,1L373.65,204c-.31.2-.64.38-.95.61l-.95.69-1.87,1.34c-.59.44-1.11.88-1.57,1.24-.93.71-1.52,1.24-1.52,1.24a.49.49,0,0,1-.7,0,.5.5,0,0,1,0-.71l0,0Z"/><path class="cls-6" d="M405.35,223.21a37.06,37.06,0,0,0-7.81-1.31"/><path class="cls-7" d="M405.2,223.69a30.22,30.22,0,0,0-3.77-1q-1.94-.39-3.9-.63a.15.15,0,0,1-.13-.17.16.16,0,0,1,.15-.13c1.33.05,2.66.14,4,.29a31,31,0,0,1,4,.7.5.5,0,1,1-.25,1h-.06Z"/><path class="cls-1" d="M272.36,236.62c5.11,1.53,9.21,1.29,10.72-3.71s-3.8-6.42-2.05-12.25c1.64-5.46,5.9-7.93,13.19-5.74s9.48,6.6,7.84,12.07c-1.75,5.83-7,4.09-8.47,9.09s1.79,7.46,6.89,9l16.69,5a5.23,5.23,0,0,0,6.51-3.49l19-63.29a5.22,5.22,0,0,0-3.5-6.5l-16.73-5c-5.1-1.54-8.38-4-6.88-9s6.71-3.26,8.47-9.1c1.64-5.46-.55-9.87-7.84-12.06s-11.55.27-13.2,5.74c-1.75,5.83,3.56,7.26,2,12.25s-5.6,5.24-10.71,3.71l-18.45-5.55a5.21,5.21,0,0,0-6.5,3.49l-4.79,15.94c-1.54,5.1-1.3,9.21,3.7,10.71s6.42-3.8,12.26-2c5.46,1.65,7.93,5.91,5.73,13.2s-6.6,9.48-12.06,7.83c-5.83-1.75-4.09-7-9.09-8.46s-7.47,1.78-9,6.88l-5.79,19.24a5.22,5.22,0,0,0,3.49,6.5Z"/><g id="_Grupo_4" data-name="&lt;Grupo&gt;"><path class="cls-12" d="M307.65,208.92a22,22,0,0,0,2.9-3.73,4,4,0,0,1,1.95-1.5,28.23,28.23,0,0,0,3-1.84c-.21.06-3.58,1-4.4,1.3a25.82,25.82,0,0,1-4.27,1.46c-1.83.33-2.57-.82-2.13-1a26,26,0,0,0,3.75-1.73,14,14,0,0,1,2.44-1.31l2.14-.81a19.61,19.61,0,0,0-2.29-.17c-.43,0-1.47.42-3.14.75s-2.36.06-2.69-1.12c1.9-.23,5.21-1.82,5.58-1.82s2.19-.29,3.42-.41a12.26,12.26,0,0,1,2.95-.2c.19.11,3.59,2.34,9.4,5.53,9.44,0,26.94-7.69,31.92-8.44L371.42,172,384,182.42c-6.53,8.05-18.62,21.63-19.66,22.25s-31.55,3.86-36.78,4.27c-2.75,1.25-4.75.92-6.18.07s-3.92-2.63-3.92-2.63a11.75,11.75,0,0,0-2.39,1.48,17,17,0,0,0-.82,2.21,2.78,2.78,0,0,1-2,1.5s.32-2,.43-2.33a5.3,5.3,0,0,1,.75-2c.28-.36,1-1.39,1.59-2.26a8.79,8.79,0,0,0-1.84,1c-.63.45-.71,1.05-1.67,2.21A3.12,3.12,0,0,1,307.65,208.92Z"/><path class="cls-5" d="M369.6,199.09C374,194.26,380,187.32,384,182.42L371.42,172l-12.67,21A59.49,59.49,0,0,0,369.6,199.09Z"/><path class="cls-4" d="M315.86,198.72l-2.8,1.06-2.14.81a14,14,0,0,0-2.44,1.31,26,26,0,0,1-3.75,1.73c-.44.16.3,1.31,2.13,1a25.82,25.82,0,0,0,4.27-1.46c.82-.26,4.19-1.24,4.4-1.3"/><path class="cls-4" d="M316.67,201.07l-1.13.78h0a28.23,28.23,0,0,1-3,1.84,4,4,0,0,0-1.95,1.5,22,22,0,0,1-2.9,3.73,3.12,3.12,0,0,0,3.77-.79c1-1.16,1-1.76,1.67-2.21a8.79,8.79,0,0,1,1.84-1h0"/><path class="cls-4" d="M315.86,203.59s-.42.62-.93,1.35-1.31,1.9-1.59,2.26a5.3,5.3,0,0,0-.75,2c-.11.37-.43,2.33-.43,2.33a2.78,2.78,0,0,0,2-1.5,17,17,0,0,1,.82-2.21,11.75,11.75,0,0,1,2.39-1.48s2.48,1.77,3.92,2.63,3.43,1.18,6.18-.07c5.23-.41,35.73-3.65,36.78-4.27s13.13-14.2,19.66-22.25L371.42,172,358.21,193.9c-5,.75-22.48,8.44-31.92,8.44-5.81-3.19-9.21-5.42-9.4-5.53a12.26,12.26,0,0,0-2.95.2c-1.23.12-3,.41-3.42.41s-3.68,1.59-5.58,1.82c.33,1.18,1,1.45,2.69,1.12s2.71-.74,3.14-.75a19.61,19.61,0,0,1,2.29.17"/></g><path class="cls-6" d="M383.51,163.34s-6.4.16-10.33,2.49c-5.49,6.61-12.63,19.84-12.63,19.84s7.28,7.5,13.53,11c0,0,9-7.91,14.84-14.08Z"/><path class="cls-7" d="M381.92,188.82l6.88-6.34a.17.17,0,0,1,.23,0,.16.16,0,0,1,0,.22l-6.4,6.82a.5.5,0,1,1-.73-.67Z"/><path class="cls-7" d="M382.15,188.69l9.13-2.05a.16.16,0,0,1,.19.12.16.16,0,0,1-.11.19l-8.95,2.7a.49.49,0,0,1-.63-.33.5.5,0,0,1,.33-.62Z"/><path class="cls-4" d="M373.18,165.83c-5.49,6.61-12.63,19.84-12.63,19.84s7.28,7.5,13.53,11c0,0,3.88-3.41,8.2-7.5"/><path class="cls-7" d="M383.52,163.53s-.67,0-1.66.16c-.49.06-1.07.16-1.68.26s-1.26.27-1.91.4l-.95.27c-.31.1-.62.16-.91.28-.57.22-1.11.41-1.55.61l-1.43.75-.06,0a.5.5,0,0,1-.68-.21.49.49,0,0,1,.21-.67l0,0,1.58-.73c.49-.17,1.07-.34,1.68-.54.3-.1.63-.15,1-.23l1-.22c.67-.1,1.33-.23,2-.3s1.22-.13,1.73-.16c1-.07,1.68-.07,1.68-.07h0a.19.19,0,0,1,0,.38Z"/><g id="_Grupo_5" data-name="&lt;Grupo&gt;"><path class="cls-5" d="M147.75,91.94c-.31.42-3.79,4.39-4.35,4.84s-5.34,2.57-6.29,3.76-11.36,22.72-14.27,26.67-5.28,7.25-7.86,8.11c-1.38.46-24.06-3-24.06-3l1-14.79L110.29,124a93.16,93.16,0,0,1,6.93-10.25c3.43-4.22,13.9-14.36,15.2-18.41a45,45,0,0,1,2.39-6.58c.39-.58,2.14-2.06,2.72-3s1-2,1.22-1.85c.76.32,1.59,1.47.69,3.54,1.43-1.24,3.09-2.66,3.54-3,.83-.68,3.19-2.83,3.76-3.37s1.41-1.07,1.59-1a3,3,0,0,1-.36,2.17h0a1.7,1.7,0,0,1,1.92-.63,5.22,5.22,0,0,1-.49,1.81s.75,1.54.63,1.89-.71,1.78-.89,2.18a7.51,7.51,0,0,1-.54.82s-.09,1.51-.11,1.7A7.67,7.67,0,0,1,147.75,91.94Z"/><path class="cls-4" d="M137.13,89.4l2.31-2c1.43-1.24,3.09-2.66,3.54-3,.83-.68,3.19-2.83,3.76-3.37s1.41-1.07,1.59-1a3,3,0,0,1-.36,2.17,4,4,0,0,1-.57.92c-1.07,1.31-2.16,3-2.58,3.49a11.18,11.18,0,0,0-2.2,2.93"/><path class="cls-4" d="M144.47,91.44a22.23,22.23,0,0,1,2.35-3.79A16.93,16.93,0,0,0,149.14,84c.1-.19.18-.39.27-.59a5.22,5.22,0,0,0,.49-1.81,1.7,1.7,0,0,0-1.92.63"/><path class="cls-4" d="M145.83,92.47a20.06,20.06,0,0,1,1.34-2.23c.4-.53,1-1.32,1.44-1.95a7.51,7.51,0,0,0,.54-.82c.18-.4.78-1.85.89-2.18s-.63-1.89-.63-1.89"/><path class="cls-4" d="M148.61,88.29s-.09,1.51-.11,1.7a7.67,7.67,0,0,1-.75,2c-.31.42-3.79,4.39-4.35,4.84s-5.34,2.57-6.29,3.76-11.36,22.72-14.27,26.67-5.28,7.25-7.86,8.11c-1.38.46-24.06-3-24.06-3l1-14.79L110.29,124a93.16,93.16,0,0,1,6.93-10.25c3.43-4.22,13.9-14.36,15.2-18.41a45,45,0,0,1,2.39-6.58c.39-.58,2.14-2.06,2.72-3s1-2,1.22-1.85c.76.32,1.59,1.47.69,3.54"/></g><path class="cls-6" d="M89.84,114.06c-3.72.15-7.77.54-7.77.54l-.94,14.73c4.18,2.2,8,4.35,13.65,6,1.33-3.47,6-15.65,6-15.65S95.49,116.88,89.84,114.06Z"/><path class="cls-7" d="M89.5,134l-4.28-2.13L81,129.52a.21.21,0,0,1-.09-.29.22.22,0,0,1,.29-.09l4.28,2.08,4.4,1.87a.5.5,0,0,1,.27.66.51.51,0,0,1-.65.27Z"/><path class="cls-7" d="M89.7,134.05l-3.4-.23-3.41-.38a.22.22,0,0,1-.19-.24.22.22,0,0,1,.23-.19l3.38.1,3.41-.06a.5.5,0,1,1,0,1Z"/><path class="cls-4" d="M88.63,114.12l1.21-.06c5.65,2.82,11,5.61,11,5.61s-4.72,12.18-6,15.65a49.58,49.58,0,0,1-5.07-1.77"/><path class="cls-7" d="M82.05,114.29l6.54-.67a.5.5,0,0,1,.55.45.49.49,0,0,1-.45.54h0l-6.56.3a.32.32,0,0,1,0-.63Z"/><path class="cls-14" d="M112.84,63.36l25.61,60.93a5.22,5.22,0,0,0,6.83,2.79l16.11-6.77c4.91-2.07,9-2.26,11,2.55s-3.1,6.79-.74,12.41c2.21,5.26,6.71,7.26,13.73,4.31s8.73-7.56,6.52-12.83c-2.36-5.61-7.36-3.33-9.38-8.14s1-7.61,5.9-9.68l17.76-7.46A5.21,5.21,0,0,0,209,94.64l-6.45-15.35c-2.06-4.91-4.86-7.92-9.67-5.9s-2.54,7-8.15,9.38c-5.26,2.21-9.88.5-12.82-6.52s-.95-11.51,4.31-13.73c5.61-2.36,7.59,2.77,12.4.74s4.62-6.12,2.56-11l-7.79-18.52a5.21,5.21,0,0,0-6.83-2.79l-60.93,25.6A5.23,5.23,0,0,0,112.84,63.36Z"/><polygon class="cls-8" points="94.83 286.54 93.54 316.63 83.38 317.76 82.8 286.54 94.83 286.54"/><rect class="cls-9" x="81.75" y="325.79" width="35.3" height="2.64"/><path class="cls-10" d="M108.54,320.82a3.42,3.42,0,0,0-1.57-2.59c-1.43-.74-10-5.55-11.09-6.2s-1.62-1.53-2.55-1.34a2.42,2.42,0,0,0-.51,4.21c2.18,1.71,14.47,7.58,14.47,7.58Z"/><path class="cls-8" d="M105.69,322.47c.32-1.07.51-1.54-.74-2.56s-8.18-4.25-9.8-5.31-2.36-1.11-4.35.23-3.29,1-5.51,1.32-2.45-.14-2.91,1.11-.63,5.89-.63,8.53H107Z"/><path class="cls-8" d="M117.05,325.79a4.24,4.24,0,0,0-1.89-3,56,56,0,0,0-6.57-2.78c-1.3-.5-3.38,2.27-4,5.81Z"/><path class="cls-8" d="M102,319.52a.91.91,0,0,0,.3,1.27h0a.92.92,0,0,0,1.27-.29l2.11-3.4a.92.92,0,0,0-.3-1.27h0a.91.91,0,0,0-1.27.3Z"/><path class="cls-8" d="M98,317.15a.92.92,0,0,0,.3,1.27h0a.93.93,0,0,0,1.27-.3l2.1-3.39a.93.93,0,0,0-.29-1.28h0a.93.93,0,0,0-1.28.3Z"/><path class="cls-8" d="M94.15,315.27a.92.92,0,0,0,.37,1.25h0a.92.92,0,0,0,1.25-.37l1.91-3.51a.92.92,0,0,0-.37-1.25h0a.93.93,0,0,0-1.26.37Z"/><polygon class="cls-8" points="51.33 281.71 39.74 312.69 31.45 306.71 40.88 276.83 51.33 281.71"/><path class="cls-10" d="M48.05,325.86a3.41,3.41,0,0,0,.58-3c-.57-1.52-3.68-10.82-4.07-12s-.18-2.22-1-2.7a2.41,2.41,0,0,0-3.21,2.77c.47,2.73,5.64,15.34,5.64,15.34Z"/><path class="cls-8" d="M44.83,325.17c1-.57,1.41-.8,1.17-2.39s-3.22-8.64-3.7-10.52-1-2.4-3.38-2.75-3.11-1.47-5-2.72S32.23,305,31,305.66s-4.41,3.95-6.18,5.9l16.26,15.78Z"/><path class="cls-8" d="M55.3,325.85a4.25,4.25,0,0,0-1.9-3,43.37,43.37,0,0,0-5.5-2.62c-1.29-.5-3.69,2.13-4,5.65Z"/><path class="cls-8" d="M42.88,316.61a.91.91,0,0,0-.63,1.14h0a.91.91,0,0,0,1.14.63l3.84-1.1a.92.92,0,0,0,.63-1.14h0a.92.92,0,0,0-1.14-.64Z"/><path class="cls-8" d="M41.11,312.24a.92.92,0,0,0-.57,1.18h0a.92.92,0,0,0,1.18.56l3.77-1.32a.91.91,0,0,0,.56-1.17h0a.91.91,0,0,0-1.17-.57Z"/><polygon class="cls-9" points="40.56 325.79 24.86 311.56 23.09 313.52 39.55 328.42 55.3 328.42 55.3 325.79 40.56 325.79"/><path class="cls-2" d="M69.85,169l-2.53,13.58a157.28,157.28,0,0,0,.91,18c.35,1.67,9.91,38.64,10.3,43.36s2.64,45.37,2.64,45.37,10,2.54,15.08,2c1.15-32.49,4-57.74,4.74-67.1s.1-39.32.06-40.12-5.91-21-5.91-21Z"/><path class="cls-11" d="M78.45,167.71s2.49,21.93,3.54,29.46S86.2,234.34,86.24,238s.77,52.53.77,52.53"/><path class="cls-11" d="M81,286.54a71.94,71.94,0,0,0,15.32,2.35"/><path class="cls-11" d="M84.1,166.53s1,13.8.8,16.25c-1.07,5.35-3,14-3,14"/><path class="cls-1" d="M69.85,162.84,67.5,174.09A155.61,155.61,0,0,0,61.25,191c-.33,1.67-6.08,39.42-7.58,43.92s-15.42,42.75-15.42,42.75,8.17,6.25,13.08,7.75c13.84-29.42,26.42-51.5,30.75-59.83s18.69-40.75,19-41.5-.3-17-.3-17Z"/><path class="cls-11" d="M83.58,164.79s-6.33,21.13-8.33,28.47S64.5,229.09,63.08,232.5s-19.95,48.6-19.95,48.6"/><path class="cls-11" d="M39.21,275a71.28,71.28,0,0,0,13.16,8.19"/><path class="cls-11" d="M89.25,165.92s-4.5,13.08-5.67,15.25c-3.08,4.5-8.22,11.69-8.22,11.69"/><path class="cls-12" d="M89.58,96a10.28,10.28,0,0,0-2.45,6.79c0,3.3.37,9.71.37,9.71L72.67,106l4.17-15.62Z"/><path class="cls-5" d="M76.84,90.34,75.32,96a43.38,43.38,0,0,0,11.88,10c0-1.19-.07-2.35-.07-3.26A10.28,10.28,0,0,1,89.58,96Z"/><path class="cls-4" d="M89.58,96a10.28,10.28,0,0,0-2.45,6.79c0,3.3.37,9.71.37,9.71L72.67,106l4.17-15.62Z"/><path class="cls-1" d="M70.36,160.16l-.51,2.68c8,4.31,25.57,5.81,31.2,5l-.69-4.82Z"/><path class="cls-1" d="M97.1,163.49s.28,3.15.32,3.75.14,1.77,1,1.77a24.6,24.6,0,0,0,3.22-.44l-.7-5.75Z"/><path class="cls-14" d="M91.85,112.51s10.63,14.52,11.57,16.33c1,6.12-1.82,16.5-2.57,19.06.82,5.19,2.78,12.94,2.78,12.94a12.83,12.83,0,0,1-2.84,3.56c-11.75,1.75-27.69-3-30.25-4A8.2,8.2,0,0,1,68.67,157c.06-.38,1.75-2.69,1.75-3.38S69,141.82,67.59,135.17a17.78,17.78,0,0,1-2.11-14.33c1.56-5.56,9.12-13.63,9.12-13.63Z"/><path class="cls-11" d="M86.35,110.4s-.18,8.31,0,9.31,2.07,37.57,2.07,38.32a55.29,55.29,0,0,1-2.14,6.08"/><path class="cls-6" d="M73,103.34s7.32,2,9.47,2.72,10.65,5.53,10.65,5.53l-2.43,8.12s-11.21-8.68-12-9.31S71,107.34,71,107.34Z"/><path class="cls-15" d="M82.82,106.2a2.48,2.48,0,0,0-.37-.14c-2.15-.72-9.47-2.72-9.47-2.72l-2,4s6.92,2.43,7.7,3.06Z"/><path class="cls-4" d="M73,103.34s7.32,2,9.47,2.72,10.65,5.53,10.65,5.53l-2.43,8.12s-11.21-8.68-12-9.31S71,107.34,71,107.34Z"/><g id="_Grupo_6" data-name="&lt;Grupo&gt;"><path class="cls-12" d="M74.9,92.05l.06,0a5.83,5.83,0,0,0,1.42.37c5.06,7.12,15.79,6.57,17.26,6.21s1.1-1.56,1-3.16,1-1.73,1.31-2.38A4.57,4.57,0,0,0,96,91,2.81,2.81,0,0,0,98,90s-.08-.31-.22-.89a1,1,0,0,1,.74-1.24,2.8,2.8,0,0,0,1.77-1.61c.2-.78-.34-1-2.28-3s-.29-2.47-2.65-10.1A14.6,14.6,0,0,0,79.43,63c-7.67.86-12.88,4.9-13.57,13.88C65.21,85.43,70.84,90.71,74.9,92.05Z"/><path class="cls-7" d="M92.68,81c0,.81.45,1.45,1,1.44s1-.66.93-1.47-.45-1.45-1-1.44S92.66,80.22,92.68,81Z"/><path class="cls-4" d="M76.38,92.45c5.06,7.12,15.79,6.57,17.26,6.21s1.1-1.56,1-3.16,1-1.73,1.31-2.38A4.57,4.57,0,0,0,96,91,2.81,2.81,0,0,0,98,90s-.08-.31-.22-.89a1,1,0,0,1,.74-1.24,2.8,2.8,0,0,0,1.77-1.61c.2-.78-.34-1-2.28-3s-.29-2.47-2.65-10.1A14.6,14.6,0,0,0,79.43,63c-7.67.86-12.88,4.9-13.57,13.88-.65,8.52,5,13.8,9,15.14"/><path class="cls-7" d="M96,91.52l-.23-.06a5.35,5.35,0,0,1-.62-.18,10.7,10.7,0,0,1-1.77-.74,8.48,8.48,0,0,1-.88-.52,6.59,6.59,0,0,1-.71-.51L91.09,89a.22.22,0,0,1,0-.31.2.2,0,0,1,.28,0h0l.68.47a6.59,6.59,0,0,0,.72.41,8.76,8.76,0,0,0,.87.39,9.85,9.85,0,0,0,1.7.51,5.26,5.26,0,0,0,.56.1l.22,0h0a.49.49,0,0,1,.43.56.5.5,0,0,1-.56.43Z"/></g><g id="_Grupo_7" data-name="&lt;Grupo&gt;"><path class="cls-13" d="M87.67,70.26c-1,4-3.93,12-11.62,14.66a2.71,2.71,0,0,0-.09-.41,3,3,0,0,0-.41-.86c-1.1-1.6-3.61-2.27-4.7-.25-1.54,2.82.35,8.1,5.53,9,.63,2.48,2.87,12.06-3.38,19.81s-8.5,16.5-5.41,22.91c-7.17.59-17.25-5.25-13.84-17.91s7.84-14.75,7.34-25.67S59.92,72,66.67,68.09c1.31-4.62,9.64-9.33,21-7.54C95.59,61.8,99.8,66.3,99.59,70.3,99.4,73.8,96,75.85,96,75.85,93.63,75.34,89.64,73.67,87.67,70.26Z"/><path class="cls-4" d="M76.05,84.92a2.71,2.71,0,0,0-.09-.41,3,3,0,0,0-.41-.86c-1.1-1.6-3.61-2.27-4.7-.25-1.54,2.82.35,8.1,5.53,9,.63,2.48,2.87,12.06-3.38,19.81s-8.5,16.5-5.41,22.91c-7.17.59-17.25-5.25-13.84-17.91s7.84-14.75,7.34-25.67S59.92,72,66.67,68.09c1.31-4.62,9.64-9.33,21-7.54C95.59,61.8,99.8,66.3,99.59,70.3,99.4,73.8,96,75.85,96,75.85c-2.41-.51-6.4-2.18-8.37-5.59,0,0,0,0,0,0"/><path class="cls-4" d="M88.13,68a20.23,20.23,0,0,1-.46,2.25c-1,4-3.93,12-11.62,14.66"/><path class="cls-7" d="M75.59,84.17s.18-.18.42-.48.6-.78,1-1.35l.6-1a9.72,9.72,0,0,0,.62-1.11L78.86,79c.2-.42.35-.88.53-1.32s.36-.88.5-1.32.26-.9.38-1.33.23-.85.35-1.24.14-.79.21-1.14c.25-1.42.41-2.36.41-2.36v0a.18.18,0,0,1,.21-.14.17.17,0,0,1,.14.2s-.12,1-.31,2.4c-.06.36-.08.75-.17,1.16s-.2.84-.3,1.28-.22.9-.33,1.37-.3.91-.46,1.38-.3.93-.48,1.37L79,80.61a10.82,10.82,0,0,1-.59,1.18l-.59,1c-.41.62-.73,1.14-1,1.49s-.44.53-.44.53l0,0a.49.49,0,0,1-.7,0,.5.5,0,0,1,0-.71Z"/><path class="cls-7" d="M75.07,83.48s.06-.14.15-.39.2-.6.33-1,.3-.91.42-1.46.24-1.13.37-1.72c.06-.29.12-.59.18-.87s.07-.59.1-.86c.06-.56.11-1.09.16-1.53l.15-1.5v0a.2.2,0,0,1,.22-.17.19.19,0,0,1,.17.2l0,1.52c0,.46,0,1-.06,1.57,0,.28,0,.58,0,.88s-.09.6-.13.9c-.09.61-.18,1.22-.27,1.79s-.24,1.09-.34,1.54-.2.84-.28,1.08l-.12.4a.5.5,0,0,1-.62.34.5.5,0,0,1-.34-.63v0Z"/></g><g id="_Grupo_8" data-name="&lt;Grupo&gt;"><path class="cls-12" d="M150,91.57c-.3.48-3.78,5-4.36,5.52s-5.58,3.15-6.52,4.5-10.67,25.29-13.54,29.75-5.19,8.19-7.92,9.29c-1.45.59-28.9-2.08-28.9-2.08v-16l23.06,6.18a101.42,101.42,0,0,1,6.76-11.54c3.41-4.79,14-16.45,15.12-20.91s1.75-6.61,2.12-7.26,2.17-2.37,2.73-3.43.9-2.19,1.19-2.08c.84.29,1.81,1.48,1,3.77,1.46-1.43,3.15-3.08,3.61-3.5.85-.79,3.25-3.27,3.83-3.9s1.44-1.25,1.64-1.15a3.25,3.25,0,0,1-.23,2.36h0a1.83,1.83,0,0,1,2-.81,5.6,5.6,0,0,1-.4,2s.92,1.61.81,2-.64,2-.81,2.41a7.53,7.53,0,0,1-.52.93v1.84A8.61,8.61,0,0,1,150,91.57Z"/><path class="cls-5" d="M101,125.81l-12.26-3.28v16s8.4.82,16.15,1.45A60.59,60.59,0,0,0,101,125.81Z"/><path class="cls-4" d="M138.34,89.57l2.35-2.31c1.46-1.43,3.15-3.08,3.61-3.5.85-.79,3.25-3.27,3.83-3.9s1.44-1.25,1.64-1.15a3.25,3.25,0,0,1-.23,2.36,4.23,4.23,0,0,1-.56,1c-1.06,1.48-2.12,3.4-2.54,3.94a11.92,11.92,0,0,0-2.17,3.31"/><path class="cls-4" d="M146.4,91.26A23.75,23.75,0,0,1,148.67,87a18.19,18.19,0,0,0,2.25-4.11c.09-.21.17-.43.25-.65a5.6,5.6,0,0,0,.4-2,1.83,1.83,0,0,0-2,.81"/><path class="cls-4" d="M147.94,92.28a21.65,21.65,0,0,1,1.29-2.5c.39-.6,1-1.5,1.42-2.2a7.53,7.53,0,0,0,.52-.93c.17-.44.71-2,.81-2.41s-.81-2-.81-2"/><path class="cls-4" d="M150.65,87.58v1.84a8.61,8.61,0,0,1-.68,2.15c-.3.48-3.78,5-4.36,5.52s-5.58,3.15-6.52,4.5-10.67,25.29-13.54,29.75-5.19,8.19-7.92,9.29c-1.45.59-28.9-2.08-28.9-2.08v-16l23.06,6.18a101.42,101.42,0,0,1,6.76-11.54c3.41-4.79,14-16.45,15.12-20.91s1.75-6.61,2.12-7.26,2.17-2.37,2.73-3.43.9-2.19,1.19-2.08c.84.29,1.81,1.48,1,3.77"/></g><path class="cls-6" d="M86.3,118.92c-4,.42-8.34,1.13-8.34,1.13v16c4.67,2.08,8.92,4.13,15.14,5.5,1.19-3.83,5.44-17.29,5.44-17.29S92.58,121.57,86.3,118.92Z"/><path class="cls-7" d="M87.33,140.41l-4.77-2-4.69-2.22a.22.22,0,0,1,.18-.4l4.76,1.95,4.87,1.73a.51.51,0,0,1,.31.64.5.5,0,0,1-.63.31Z"/><path class="cls-7" d="M87.53,140.45H83.85l-3.7-.17a.23.23,0,0,1-.21-.23.23.23,0,0,1,.21-.21l3.66-.11,3.67-.29a.5.5,0,0,1,.09,1Z"/><path class="cls-4" d="M85,119.07l1.31-.15c6.28,2.65,12.24,5.29,12.24,5.29s-4.25,13.46-5.44,17.29A54.5,54.5,0,0,1,87.5,140"/><path class="cls-7" d="M77.92,119.74l7-1.17a.5.5,0,0,1,.16,1h0l-7.06.8a.31.31,0,0,1-.34-.28A.3.3,0,0,1,77.92,119.74Z"/><path class="cls-6" d="M143.26,158.86H141v-2.24a1.31,1.31,0,0,0-2.61,0v2.24h-2.23a1.3,1.3,0,0,0,0,2.6h2.23v2.24a1.31,1.31,0,0,0,2.61,0v-2.24h2.24a1.3,1.3,0,1,0,0-2.6Z"/><path class="cls-16" d="M267.4,61.86h-2.23V59.63a1.31,1.31,0,0,0-2.61,0v2.23h-2.23a1.31,1.31,0,1,0,0,2.61h2.23v2.24a1.31,1.31,0,0,0,2.61,0V64.47h2.23a1.31,1.31,0,1,0,0-2.61Z"/><path class="cls-17" d="M346.15,17.24l-1.58-1.58,1.58-1.58a1.3,1.3,0,1,0-1.84-1.84l-1.58,1.58-1.58-1.58a1.3,1.3,0,0,0-1.85,1.84l1.58,1.58-1.58,1.58a1.31,1.31,0,0,0,1.85,1.85l1.58-1.58,1.58,1.58a1.3,1.3,0,1,0,1.84-1.85Z"/><path class="cls-18" d="M427.49,143a4.4,4.4,0,1,1-4.4-4.39A4.4,4.4,0,0,1,427.49,143Z"/><path class="cls-18" d="M128.48,279.14a4.4,4.4,0,1,1-4.4-4.4A4.39,4.39,0,0,1,128.48,279.14Z"/><polygon class="cls-19" points="117.53 0.5 122 2.78 117.79 5.51 117.53 0.5"/><polygon class="cls-19" points="313.62 286.38 318.09 288.66 313.89 291.39 313.62 286.38"/><path class="cls-18" d="M34.23,199.82c4,0,4,3.75,8,3.75s4-3.75,8-3.75,4,3.75,8,3.75,4-3.75,8-3.75,4,3.75,8,3.75,4-3.75,8-3.75"/><path class="cls-20" d="M328.37,90.49c4,0,4,3.75,8,3.75s4-3.75,8-3.75,4,3.75,8,3.75,4-3.75,8-3.75,4,3.75,8,3.75,4-3.75,8-3.75"/></g></g></svg>