<svg xmlns="http://www.w3.org/2000/svg" viewBox="0 0 501.62 260.05"><defs><style>.cls-1{fill:#fcfdfd;}.cls-2{fill:#6c95a1;}.cls-3{fill:#11669e;}.cls-4{fill:#193d62;}.cls-5{fill:#ebedee;}.cls-6{fill:#a1b1c1;}</style></defs><title>Recurso 5</title><g id="Capa_2" data-name="Capa 2"><g id="Capa_1-2" data-name="Capa 1"><path class="cls-1" d="M246.73,158.44c.07.54.49.49.87.51l1.29,0,63.53,0c3.83-.31,7.51-1,9.8-4.56,2.17-1,3.24-2.88,4-5,1.88-3.55,1.36-7.4,1.36-11.17q0-60.89,0-121.77c0-3-.34-5.77-2.4-8.1-.71-1.46-1.22-3.1-3.11-3.5-2.22-3.48-5.83-4.09-9.49-4.59C311.46.16,310.37,0,309.28,0h-65q-28.46,0-56.91,0c-9.2,0-16.29,6.44-16.58,15q0,64.05,0,128.12a5,5,0,0,0,.42,2.91c.38,2.17.76,4.34,2.65,5.82,2.77,4.89,7.29,6.88,12.57,7.12s10.51,0,15.77,0l19.05-.1c5.66,0,11.31.15,17,.08,2.84,0,5.73.49,8.54-.38Zm89.08,87h0c-1.3-1.85-2.77-1.26-4.27-.3l-4.57,0c-.7-.91-1.1-.71-1.25.35l-.07-.06a3.76,3.76,0,0,1-1.18-.11c-2.32-1-4.55-2.08-6.67.51a1.58,1.58,0,0,1-2.17-.28c-2.11-2.47-4.43-1.41-6.31,0-1.34,1-1.13.48-1.9-.45-1-1.28-3.26-2.88-4.46-1.88-2.07,1.71-5,0-6.61,2.33-1.06,1.57-2,.16-3-.22-.19-1.23.15-2.72-2.17-1.49-1,.55-3.37,3.09-4.47-.48-.08-.25-1.1-.3-1.67-.28-2.8.05-5.76-.73-7.92,2.11-.55.72-1.93,1-3.08.87a.54.54,0,0,1-.05-.52c-.21-.77-.43-1.55-.65-2.35-4,2.3-4,2.3-4.1,7,0,.4,0,.8,0,1.19s-.2,1-.78,1.11-.85-.36-1-.89a13.35,13.35,0,0,1-.64-4.39c.27-2.3-1.06-3-3.06-2.95-3,0-3.89,1.27-4.1,6.18-.06,1.39-.27,2.28-2,2.23s-1.69-1-1.67-2.2-.05-2.19,0-3.28c.06-1.31-.57-1.81-1.8-1.73h0c-.11-1.21-.71-2.23-1.94-2.14a2,2,0,0,0-1.65,2.13h0a38.6,38.6,0,0,0-11-1.27c-2.41.09-3.61.81-3.24,3.33l-.73.94c-1,0-2.25.28-2.45-1.31-2.45-3.38-7.35-3-9.91.75-2.12,1.51-.24,3.85-1.28,5.82-1.36,2.54,1,6.37,3.65,5.89s5.81,1.83,8-1.27a.83.83,0,0,1,.82-.13c1.78,1.22,3.44,1.28,5.66.77,2.68-.62,5.78,1.05,8.28-1.38a1.16,1.16,0,0,1,1.11.08c3.23,3.32,6.7,1.61,10.14.51l.75-.72c.68.05,1.43-.19,2,.4,1.85,1.95,7.81,3.12,9.49,1.37,1.54-1.59,3.25-1.93,5.11-2.33l1.13.68c1.06,1.47,6.14,2.72,7.91,1.92a2.44,2.44,0,0,0,1-.63c.71-.95,1.72-.78,2.68-.86h0c0,.5-1.61.81-.16,1.46,1.74.77,3.09.57,3.69-1.49l.12-1.12c1.26-.19,2,.68,2.83,1.37a8.42,8.42,0,0,0,7.33,1.39c2.39-.55,4.71-1.42,7.05-2.15a.89.89,0,0,1,.13.53,1.61,1.61,0,0,0,1.83,1.81c1.12,0,1.14-.87,1.17-1.68l.09,0,.47-.64h0c.67-1,1.26-3,2.36-.34.4,1,1.32,1.37,1.94,2a2.33,2.33,0,0,0,4.09-1h0c2-.21-.11-1.87.95-2.43a2.67,2.67,0,0,0,2,.66c0,.57.11,1.13.16,1.69s-.24,2.06,1,1.33c1.57-.94,3.1-.44,4.64-.61,3.43-.38,6.9,1.2,10.32-.19a8.17,8.17,0,0,1,1.43-.32c2.3-.06,4.16-.8,4.7-3.27s-1.06-3.62-2.93-4.58l.06-1.45c1.94-.6,3.37-1.37,1.15-3.38-1.3-3.45-4-.23-5.85-1.14-.69-.33-2.32-.6-2.41,1.19a2.69,2.69,0,0,0,.25.84l-.22.16-1.41-1Zm40.27-52.88c-.05,2.21-1,5,.79,6.4,2.14,1.66,1.92,3.94,3,5.78,1.33,2.35-.62,6.93,4.36,6.94q4.13,9.76,8.23,19.54c.5,1.2.86,2.28,2.65,2.25,6.58-.12,13.17,0,19.75-.06.86,0,1.81.2,2.28-.94,1.7-4.1,3.44-8.18,5.16-12.27a6.72,6.72,0,0,0,4.47-5.9c.36-4.22,3.33-7.29,4-11.36a12,12,0,0,1,3.84-6.41c2.16-2.12,2.4-5.66,1.46-8.87-.28-1.48-1.48-1.07-2.39-1.09-2.89,0-5.79.13-8.67,0-2-.11-3,.53-3.76,2.46-2.41,6.1-5.06,12.1-7.62,18.14-1.71-.44-2.22.62-2.73,2-1.34,3.57-2.78,7.1-4.25,10.62-.35.84-.8,2.22-2,.95-.38-.38-3.41-.18-.78-1.91.51-.33.18-.74-.21-.89-3.32-1.25-.91-6.21-4.65-7.17.14-2.63-2.28-5-.47-7.73-.86-.28-1.33,1.86-2,0-.39-1-1.26-.75-2-.71l-.41-1.13c0-2.65,1.06-6.15-.23-7.75a33.39,33.39,0,0,1-4.81-8.46c-.5-1.18-.93-1.76-2-1.26-3.63,1.63-7.45,1.07-11.19,1a11.06,11.06,0,0,0-4.46,1.22c-.81.33-1,.84-.44,1.25a19.85,19.85,0,0,1,4.72,5.25c.08.11.38.08.57.11Zm-82.33,40.66-.07.08c.63-.66,2-.1,2-1.89-.09-20.06-.07-40.12,0-60.18a2.88,2.88,0,0,0-1.67-2.8c-3.3-2-6.81-.57-10.18-1a4.86,4.86,0,0,0-4.88,2.06v.15c-2,7.41-1.11,15-1.24,22.48-.08,4.5,0,9,0,13.5,0,.92.42,2.16-1,2.5a3.33,3.33,0,0,1-3-.82c-1.5-1.17-2-3.19-3.86-4-3.88-1.77-6-5.61-8.91-8.38-3.63-3.41-5.81-8.36-10.43-11-.26-.15-.37-.69-.4-1.07-.15-1.61-1.26-2.28-2.54-3a18.45,18.45,0,0,1-3.5-2.71c-3.42-3.09-5.48-7.62-10.53-9-4.37-1.2-8.65-.48-13-.5-.75,0-1.31.85-1.68,1.59-1.85,2-.46,4.05-.45,6.15.07,18.84,0,37.69-.13,56.53,0,1.47,1.65,3.16,2.93,2.85a27.22,27.22,0,0,1,8.91-.21c3.2.28,3.8,0,4.21-3.35,0-11.81.07-23.61.16-35.41,0-1-.6-2.4.72-2.95,1.7-.7,1.43,1.1,2,1.86a3.83,3.83,0,0,0,.93.75,41.27,41.27,0,0,1,9.67,10.23c.33.47.73,1.06,1.22,1.22a9.82,9.82,0,0,1,6.22,5.64c1.36,3.3,4.1,3.93,7,4.49a1.61,1.61,0,0,0,.32,1.92c2.82,2.31,3.84,6.32,7.66,7.8,1.07.41,1.83,2,2.7,3,1.53,1.83,2.41,4.74,5.38,4.84,4.37.15,8.75,0,13.13,0C292.49,234.6,293.5,234.55,293.75,233.23ZM304,201c-1.94,8.81-1.8,17.3,3.73,25-.17,1.22-.25,2.45.91,3.27,4.19,3,8.25,5.8,14,5.46,7.76-.46,15.57,0,23.36-.17,1.78,0,3.43,1,5.28.23,3.36-1.31,7.1-.53,10.4-3.47,2.23-2,5.09-3.81,7.08-6,2.58-2.89,2.79-7.17,3.64-10.95,1-4.56-1.27-8.91-1.23-13.44,0-.35-.34-.69-.5-1-1.32-2.94-2.36-6-5.23-8-1.34-.95-4.67-3.45-5.78-4.07-2.2-1.23-4.59-1.12-7-1.22.21-.77,1.13-.21,1.11-1.12-9.25,0-18.5,0-27.74,0-1.65,0-3.34-1-5,0-2,1.27-4.44,1.57-6.64,2.21-5.92,1.74-9.14,5.84-11.37,11.14C302.64,199.85,303.12,200.53,304,201ZM0,201.62c0,9.59.06,19.19,0,28.78,0,2.31.6,3.09,3,3.07,13.09-.12,26.18,0,39.28-.07A44.81,44.81,0,0,0,56.41,231c8.62-2.9,15.07-8.23,18-17a40.61,40.61,0,0,0,.19-24.75,24.36,24.36,0,0,0-9.88-13.48c-6.67-4.62-14.16-6.39-22-6.5-13.09-.18-26.19,0-39.28-.12-2.71,0-3.4.88-3.37,3.4C.1,182.23.05,191.93,0,201.62ZM475.5,233.43c7.79,0,15.59-.06,23.38,0,2,0,2.77-.37,2.74-2.6-.15-10.09-.07-20.18-.1-30.28,0-9.34-4.67-14-14-14q-17.53,0-35.07,0c-2.39,0-5.59-.82-7,.39-1.59,1.4-.17,4.7-.56,7.12-.43,2.64.89,2.85,3,2.84,10.79-.07,21.59-.05,32.38,0a22.9,22.9,0,0,1,4.46.38c2.44.5,3.95,3.21,3.62,6.11s-2.62,1.61-4,1.63c-10.69.11-21.39,0-32.08.08-4.63,0-8.8,1.49-11.28,5.6-3.11,5.16-3,10.78-.5,16.09,2.42,5.11,7.22,6.56,12.5,6.6C460.51,233.47,468,233.43,475.5,233.43Zm-354.19,0h15.87c7.11,0,7,0,7.26-7,.11-2.69-.67-3.35-3.29-3.32-10.9.13-21.8.14-32.69,0-4.33-.06-8.6-.73-11-5.27-1.51-2.89-1.58-2.93,1.59-2.93,11,0,22,0,33-.07a17,17,0,0,0,8.88-2.25c5.16-3.1,6.62-8.57,5.35-15.32-1.2-6.34-6.42-10.41-13.16-10.53-9.69-.17-19.41-.42-29.08.06-11.17.56-20.4,6.34-21.74,19.31-1.36,13.27,3.17,24,18.32,26.8C108,234.18,115.41,233,121.31,233.41Zm90.5-46.83c-4.57,0-8.65,0-12.74,0-1.28,0-1.54.75-2,1.76-4.53,11.07-9.17,22.1-13.7,33.18a2.33,2.33,0,0,1-2.73,1.65c-1.29-.1-2.25,0-2.91-1.72-3.3-8.44-6.85-16.79-10.33-25.16-1.31-3.13-1.87-7.25-4.2-9.08-2.49-1.95-6.72-.5-10.19-.59-3.63-.09-3.66,0-2.27,3.31,5.83,13.89,11.73,27.75,17.45,41.68.57,1.39,1.11,1.84,2.46,1.83,6.6,0,13.19-.05,19.79,0a2.18,2.18,0,0,0,2.44-1.58c1.55-3.9,3.23-7.74,4.84-11.61ZM377,248.74l.68-.33c.69.8,1.42,1.56,2.07,2.4,1.34,1.73,2.58,3.55,4,5.23.6.72,1,2,2.21,1.74,1.34-.36.63-1.7.66-2.59a71.82,71.82,0,0,0,0-7.19c-.07-1,.8-2.91-.82-2.94-1.24,0-.61,1.81-.66,2.8-.11,2.22,0,4.45,0,7.37-2.73-3.55-5-6.47-7.22-9.36-.42-.53-1-1.17-1.74-.91s-.62,1.16-.62,1.81q0,4.8,0,9.6c0,.63-.3,1.64.71,1.65s.83-.92.82-1.62C377,253.85,377,251.29,377,248.74Zm-14.12-.5c1.07,1.14,1.9,1.94,2.62,2.83,1.5,1.86,2.93,3.79,4.41,5.67.42.53.82,1.27,1.64,1.08s.65-1.11.65-1.76c0-3.19,0-6.39,0-9.59,0-.61.27-1.6-.86-1.48-.79.08-.64.89-.64,1.46,0,2.71,0,5.42,0,8.83-2.7-3.52-4.83-6.39-7.08-9.18-.56-.69-2.09-2.23-2.3-.52-.5,4.13-.16,8.36-.16,12.55l1,0C363.08,255.12,362.26,251.85,362.88,248.24ZM396,258.09a6.69,6.69,0,1,0,.41-13.37c-4.08,0-6.88,2.56-7,6.47A6.6,6.6,0,0,0,396,258.09Zm56.17-13.29a6.32,6.32,0,0,0-6.49,6.41,6.43,6.43,0,0,0,6.75,6.8,6.34,6.34,0,0,0,6.48-6.75C458.8,247.36,456.12,244.79,452.13,244.8Zm41.95,13.29c3,0,4.75-1.23,4.88-3.48.14-2.55-1.63-3.37-3.73-3.85a12.42,12.42,0,0,1-2.55-.81,1.86,1.86,0,0,1-1.32-2.09c.22-1.08,1.12-1.27,2.06-1.35a6.6,6.6,0,0,1,3.18.6c.54.23,1.28.31,1.54-.4s-.44-1-.94-1.3a6.77,6.77,0,0,0-5.51-.35,3.59,3.59,0,0,0,.21,6.78c1.14.34,2.32.57,3.44.95.89.3,1.61.84,1.38,2s-.94,1.4-1.93,1.52a5.36,5.36,0,0,1-3.94-1,1,1,0,0,0-1.52.32c-.36.7,0,1.09.64,1.4A7.44,7.44,0,0,0,494.08,258.09Zm-32.13.2c1.78-.6,1.27-1.65,1.46-2.44.22-.94-.49-2.39,1.23-2.59,1.31-.15,2.55-.11,3.34,1.29a13.22,13.22,0,0,0,1.79,2.36c.49.53,1.05,1.58,1.9.8s-.28-1.17-.65-1.68-1-1.26-1.47-1.88-.43-1.07.27-1.69c2.55-2.27,2.93-4.5,1.26-6.29-1.13-1.2-7.75-2-8.81-1.07a.78.78,0,0,0-.31.47C462,249.75,462,253.92,462,258.29ZM429.32,257a2.06,2.06,0,0,0-.19-.56c-2.08-3.41-3.14-7.29-5-10.81-.92-1.77-1.82-1.45-2.7.17-1.81,3.32-2.62,7.09-4.73,10.27-.37.56-.79,1.33.06,1.82s1.23-.17,1.65-.79c.53-.79.58-2,1.82-2.17,2.57-.29,5.36-1.33,6.87,2.06.26.59.77,1.23,1.65.94A.81.81,0,0,0,429.32,257Zm51.75-2.36c3.37.14,3.35.15,4.44,2.12.29.53.3,1.69,1.27,1.27,1.15-.48.32-1.35,0-2-1.39-3.2-2.82-6.37-4.22-9.57-.27-.63-.34-1.4-1.21-1.53-1-.16-1.37.67-1.7,1.37-1.61,3.42-3.19,6.87-4.77,10.31-.2.44-.43,1,.22,1.25s1.15-.27,1.33-.85C477.22,254.5,479.07,254.29,481.07,254.63Zm-49.2-3.42c-.07,7.37.22,7.68,6.24,6.67a6.57,6.57,0,0,0,5.14-7.3c-.39-4.09-3.52-6.15-9.17-5.75-4.21.3-1.48,3.64-2.2,5.49A2.65,2.65,0,0,0,431.87,251.21Zm-21.22,3.86c-2-3.15-2.77-6.26-4-9.18-.36-.86-.9-1.43-1.79-1s-.39,1.19-.12,1.82c1.45,3.37,2.86,6.76,4.39,10.1.79,1.72,2,1.72,2.75,0,1.54-3.44,2.91-7,4.28-10.47.22-.56.57-1.49-.42-1.75s-1.07.61-1.33,1.26C413.22,248.83,412,251.75,410.65,255.07Zm-53.39-3.42h-.06c0-1.89,0-3.78,0-5.67,0-.54-.16-1-.78-1s-.73.53-.73,1q0,5.37,0,10.74c0,.45-.09,1.07.6,1.15s1-.48,1-1.12C357.27,255,357.26,253.34,357.26,251.65ZM312,243.24a.81.81,0,0,0-.25-.08s0,.14-.08.21a.81.81,0,0,0,.25.08S312,243.31,312,243.24Zm-2.11,15.95c-.05-.06-.08-.16-.13-.18s-.12.06-.19.1l.22.28Z"/><path class="cls-2" d="M0,201.62c0-9.69.06-19.39,0-29.08,0-2.52.66-3.43,3.37-3.4,13.09.15,26.19-.06,39.28.12,7.88.11,15.37,1.88,22,6.5a24.36,24.36,0,0,1,9.88,13.48A40.61,40.61,0,0,1,74.39,214c-2.91,8.81-9.36,14.14-18,17a44.81,44.81,0,0,1-14.1,2.37c-13.1,0-26.19-.05-39.28.07-2.43,0-3-.76-3-3.07C.1,220.81,0,211.21,0,201.62ZM14.45,201c0,6,.05,12,0,18,0,1.73.34,2.5,2.29,2.47,8.29-.13,16.6.11,24.88-.22,5.51-.22,11-1.41,15-5.74,5.77-6.24,5.73-13.68,4.13-21.37a14.89,14.89,0,0,0-9.39-11.2,27.57,27.57,0,0,0-10.17-2.21c-8-.15-16,0-24-.13-2.09,0-2.78.61-2.74,2.72C14.52,189.2,14.44,195.09,14.45,201Z"/><path class="cls-3" d="M278.92,169.63v-.15c4.17-.59,8.37,0,12.55-.3,2-.12,2.27.77,2.26,2.48q-.08,30.83-.06,61.65l.07-.07c-4.07,0-8.15,0-12.22.2a5.42,5.42,0,0,1-4.42-1.85c-4.92-4.89-9.57-10.06-14.84-14.59q-13.59-14.37-27.85-28.06c-.19-.44-.58-.57-.88-.26a1.32,1.32,0,0,0,0,1.58v2.89a21.62,21.62,0,0,0,0,7.31c0,.56,0,1.13,0,1.7-.6,5.17-.15,10.35-.25,15.53-.08,4.29,0,8.58,0,12.87,0,1.91-.57,3.07-3,2.8a57,57,0,0,0-8.37,0c-1.8.07-2.45-.55-2.44-2.38q.13-30.83.15-61.65c4.1,0,8.2,0,12.29-.09a4.27,4.27,0,0,1,3.41,1.41q16.33,16.78,32.73,33.5c3.51,3.57,7.09,7.08,10.67,10.65a3.39,3.39,0,0,0,.57-2.61q0-19.64,0-39.28A6.62,6.62,0,0,0,278.92,169.63Z"/><path class="cls-3" d="M475.5,233.43c-7.49,0-15,0-22.48,0-5.28,0-10.08-1.49-12.5-6.6-2.51-5.31-2.61-10.93.5-16.09,2.48-4.11,6.65-5.58,11.28-5.6,10.69-.05,21.39,0,32.08-.08,1.36,0,3.64,1.29,4-1.63s-1.18-5.61-3.62-6.11a22.9,22.9,0,0,0-4.46-.38c-10.79,0-21.59,0-32.38,0-2.09,0-3.41-.2-3-2.84.39-2.42-1-5.72.56-7.12,1.37-1.21,4.57-.38,7-.39q17.54,0,35.07,0c9.34,0,14,4.66,14,14,0,10.1,0,20.19.1,30.28,0,2.23-.75,2.62-2.74,2.6C491.09,233.37,483.29,233.43,475.5,233.43Zm-21.4-10.84c.35,1.87,1.85,1.17,2.88,1.17,9.33.06,18.65,0,28,0,.87,0,1.8.26,2.56-.44,1.67-1.56.54-3.57.86-5.34.39-2.12-.57-2.68-2.62-2.66-9.34.1-18.69.06-28,0-1.72,0-3.58-.06-4.47,1.68A4.79,4.79,0,0,0,454.1,222.59Z"/><path class="cls-2" d="M121.31,233.41c-5.9-.4-13.32.77-20.66-.57C85.5,230.06,81,219.31,82.33,206c1.34-13,10.57-18.75,21.74-19.31,9.67-.48,19.39-.23,29.08-.06,6.74.12,12,4.19,13.16,10.53,1.27,6.75-.19,12.22-5.35,15.32a17,17,0,0,1-8.88,2.25c-11,0-22,0-33,.07-3.17,0-3.1,0-1.59,2.93,2.36,4.54,6.63,5.21,11,5.27,10.89.17,21.79.16,32.69,0,2.62,0,3.4.63,3.29,3.32-.28,7-.15,7-7.26,7Zm-7.77-28.86v0H118c3.79,0,7.59.09,11.38-.05a3.83,3.83,0,0,0,4-4c.1-2.29-1.39-3.36-3.36-3.38-8.67-.13-17.37-.75-26,.39a9.05,9.05,0,0,0-6.79,4.9c-1,1.69-.63,2.26,1.34,2.22C103.56,204.49,108.55,204.55,113.54,204.55Z"/><path class="cls-3" d="M307.76,226c-5.53-7.69-5.67-16.18-3.73-25,3.32-8.63,9.94-13.19,18.82-14a142.75,142.75,0,0,1,29.3.15c6.38.76,11.84,3.73,15.32,9.33,9.31,14.94,1.31,33.34-15.87,36.42-6.71,1.2-13.56.18-20.33.48C322.51,233.8,314.4,232.25,307.76,226Zm47.74-23.76a9.08,9.08,0,0,0-7.38-4.92,106.6,106.6,0,0,0-22.09,0c-5,.51-7.83,3.29-9,8.18a23.09,23.09,0,0,0-.31,6.26c.19,7,4.27,11.14,11.21,11.32,5.68.15,11.37.07,17.06.08a18,18,0,0,0,5.57-1,8,8,0,0,0,5.07-4.37c2.06-4.92,2.55-10,.09-15A.51.51,0,0,0,355.5,202.23Z"/><path class="cls-2" d="M211.81,186.58l-14.05,33.67c-1.61,3.87-3.29,7.71-4.84,11.61a2.18,2.18,0,0,1-2.44,1.58c-6.6-.06-13.19,0-19.79,0-1.35,0-1.89-.44-2.46-1.83-5.72-13.93-11.62-27.79-17.45-41.68-1.39-3.31-1.36-3.4,2.27-3.31,3.47.09,7.7-1.36,10.19.59,2.33,1.83,2.89,6,4.2,9.08,3.48,8.37,7,16.72,10.33,25.16.66,1.71,1.62,1.62,2.91,1.72a2.33,2.33,0,0,0,2.73-1.65c4.53-11.08,9.17-22.11,13.7-33.18.42-1,.68-1.78,2-1.76C203.16,186.61,207.24,186.58,211.81,186.58Z"/><path class="cls-3" d="M413.55,207.15c2.56-6,5.21-12,7.62-18.14.76-1.93,1.76-2.57,3.76-2.46,2.88.16,5.78,0,8.67,0,.91,0,2.11-.39,2.39,1.09-2.16,3.58-3.43,7.56-5,11.38-3,7-5.8,14.11-8.69,21.16-1.72,4.09-3.46,8.17-5.16,12.27-.47,1.14-1.42.94-2.28.94-6.58,0-13.17-.06-19.75.06-1.79,0-2.15-1-2.65-2.25q-4.11-9.76-8.23-19.54a206,206,0,0,0-8.11-19.12h0a38,38,0,0,0-1.34-3.94c-.72-1.61-.31-2.1,1.41-2,3.1.09,6.2.13,9.29,0,1.84-.1,2.58.68,3.22,2.29,1.65,4.15,3.52,8.23,5.3,12.33l.41,1.13c2.63,6.42,5.32,12.83,7.86,19.3.58,1.49,1.6,1.51,2.81,1.54s2.25-.2,2.79-1.63C409.68,216.71,411.64,211.94,413.55,207.15Z"/><path class="cls-4" d="M246.73,158.52c-2.81.87-5.7.34-8.54.38-5.66.07-11.31,0-17-.08a153.38,153.38,0,0,0-2.41-19c.81-.29,1.88.21,2.43-.84l4.7-.29c.52.34,1,.34,1.29-.27L232,138c.5.53.89.43,1.2-.2l4.81-.42c.72.78,1.09.22,1.43-.39l4-.2c.67.61,1.28.65,1.8-.18l4.81-.44c.45.49.86.48,1.2-.12l4.79-.47c.73.77,1.09.23,1.44-.4l4-.18c1.3,1,2.44.07,3.64-.26l.55-.19c.06.38.12.76.19,1.14l-.59.67a.49.49,0,0,0-.55.59l-17.1,20.14C246.84,157.32,246.47,157.73,246.73,158.52Z"/><path class="cls-5" d="M307.76,226c6.64,6.26,14.75,7.81,23.51,7.42,6.77-.3,13.62.72,20.33-.48,17.18-3.08,25.18-21.48,15.87-36.42-3.48-5.6-8.94-8.57-15.32-9.33a142.75,142.75,0,0,0-29.3-.15c-8.88.78-15.5,5.34-18.82,14-.91-.47-1.39-1.15-.95-2.19,2.23-5.3,5.45-9.4,11.37-11.14,2.2-.64,4.61-.94,6.64-2.21,1.62-1,3.31,0,5,0,9.24-.09,18.49,0,27.74,0,0,.91-.9.35-1.11,1.12,2.39.1,4.78,0,7,1.22,1.11.62,4.44,3.12,5.78,4.07,2.87,2,3.91,5.09,5.23,8,.16.35.51.69.5,1,0,4.53,2.26,8.88,1.23,13.44-.85,3.78-1.06,8.06-3.64,10.95-2,2.22-4.85,4.05-7.08,6-3.3,2.94-7,2.16-10.4,3.47-1.85.73-3.5-.26-5.28-.23-7.79.13-15.6-.29-23.36.17-5.72.34-9.78-2.48-14-5.46C307.51,228.44,307.59,227.21,307.76,226Z"/><path class="cls-5" d="M289.7,258c-1,.08-2-.09-2.68.86a2.44,2.44,0,0,1-1,.63c-1.77.8-6.85-.45-7.91-1.92l.18-.22c2.72.94,5.42,1.43,7.93-.55.53-.41,1.33-.88.77-1.62s-1.08-1.55-2.18-1.16c-.46.17-.84.55-1.29.75a2.92,2.92,0,0,1-3.91-1.1,3.68,3.68,0,0,1,.15-4.48,2.6,2.6,0,0,1,3.72-.72c1.59,1.29,2.77.67,3.36-.6.83-1.77-1.14-2-2.12-2.46a6.49,6.49,0,0,0-7.92,2.18c-2.1,2.64-1.95,5.34.51,8.95l-.33.35c-1.86.4-3.57.74-5.11,2.33-1.68,1.75-7.64.58-9.49-1.37-.56-.59-1.31-.35-2-.4-.37-.93.45-2.36-1.61-2.5-4.58-.32-4.57-.45-4.58-5,0-1.5,0-3,0-4.48,1.23-.08,1.86.42,1.8,1.73-.05,1.09,0,2.19,0,3.28s.06,2.16,1.67,2.2,1.9-.84,2-2.23c.21-4.91,1.07-6.14,4.1-6.18,2,0,3.33.65,3.06,2.95a13.35,13.35,0,0,0,.64,4.39c.12.53.38,1,1,.89s.75-.58.78-1.11,0-.79,0-1.19c.13-4.7.13-4.7,4.1-7,.22.8.44,1.58.65,2.35-2.59-.79-4-.22-3.64,2.87a18.17,18.17,0,0,1-.11,4.48,2.29,2.29,0,0,1-2.69,2.19c-1.55-.12-2-1.09-2-2.44,0-1.8-.12-3.6-.05-5.39.06-1.39-.4-2-1.86-2s-1.7.66-1.65,1.87c.06,1.59,0,3.19,0,4.79,0,4.29,1.6,6.08,5.48,6.2,4.08.13,6.07-1.64,6.39-5.81.16-2.08.13-4.17.18-6.26,1.15.09,2.53-.15,3.08-.87,2.16-2.84,5.12-2.06,7.92-2.11.57,0,1.59,0,1.67.28,1.1,3.57,3.44,1,4.47.48,2.32-1.23,2,.26,2.17,1.49l-.15.15c-2.64-.74-3.83,0-3.58,3S289.7,254.78,289.7,258Z"/><path class="cls-5" d="M278.92,169.63a6.62,6.62,0,0,1,.29,3.24q0,19.65,0,39.28a3.39,3.39,0,0,1-.57,2.61c-3.58-3.57-7.16-7.08-10.67-10.65q-16.4-16.73-32.73-33.5a4.27,4.27,0,0,0-3.41-1.41c-4.09.09-8.19.07-12.29.09l-.73-.09c.37-.74.93-1.6,1.68-1.59,4.32,0,8.6-.7,13,.5,5.05,1.4,7.11,5.93,10.53,9a18.45,18.45,0,0,0,3.5,2.71c1.28.7,2.39,1.37,2.54,3,0,.38.14.92.4,1.07,4.62,2.63,6.8,7.58,10.43,11,3,2.77,5,6.61,8.91,8.38,1.83.84,2.36,2.86,3.86,4a3.33,3.33,0,0,0,3,.82c1.38-.34.95-1.58,1-2.5,0-4.5,0-9,0-13.5C277.81,184.61,276.94,177,278.92,169.63Z"/><path class="cls-3" d="M218.81,139.84a153.38,153.38,0,0,1,2.41,19l-19.05.1-.06-.82.22-.2.43-.43q7.45-8.82,14.93-17.63Z"/><path class="cls-5" d="M310.55,257.42c-2.34.73-4.66,1.6-7.05,2.15a8.42,8.42,0,0,1-7.33-1.39c-.87-.69-1.57-1.56-2.83-1.37l-.12-11.38.15-.15c1,.38,1.92,1.79,3,.22,1.6-2.36,4.54-.62,6.61-2.33,1.2-1,3.42.6,4.46,1.88.77.93.56,1.44,1.9.45,1.88-1.38,4.2-2.44,6.31,0a1.58,1.58,0,0,0,2.17.28c2.12-2.59,4.35-1.55,6.67-.51a3.76,3.76,0,0,0,1.18.11c0,3.6-.07,7.2-.11,10.8a2.67,2.67,0,0,1-2-.66c-1.06.56,1,2.22-.95,2.43,0-3.59,0-7.17.09-10.76,0-1.27-.16-2.05-1.74-2s-1.73,1-1.73,2.14v3.4a17.83,17.83,0,0,1-4.55-4.54c-.9-1.27-2.11-1-3.22-.84-1.37.2-.73,1.44-.76,2.2C310.6,250.84,310.6,254.13,310.55,257.42ZM309,251.69a6.7,6.7,0,0,0-6.72-6.87,7,7,0,0,0-7,6.41,6.86,6.86,0,0,0,13.71.46Z"/><path class="cls-5" d="M259.67,258.14c-3.44,1.1-6.91,2.81-10.14-.51a1.16,1.16,0,0,0-1.11-.08c-2.5,2.43-5.6.76-8.28,1.38-2.22.51-3.88.45-5.66-.77a.83.83,0,0,0-.82.13c-2.19,3.1-5.35.79-8,1.27s-5-3.35-3.65-5.89c1-2-.84-4.31,1.28-5.82-.25,2.76,1.09,4.3,3.72,4.87.68.14,1.35.34,2,.54s1.17.48,1,1.21-.88.69-1.44.72a5.85,5.85,0,0,1-3.14-.78c-1.1-.62-1.68.24-2.13,1-.62,1.06.31,1.31,1,1.71a8.76,8.76,0,0,0,4.92.92c2.48-.12,4.3-1.16,4.5-3.8s-1.77-3.57-3.94-4c-1.25-.23-2.43-.35-3.08-1.66,2.13-1.06,4.92,1.54,6.45-1.5.2,1.59,1.43,1.26,2.45,1.31-.14.77-.32,1.54-.42,2.31a6.7,6.7,0,0,0,5.23,7.27,7,7,0,0,0,8.36-4.87,6.57,6.57,0,0,0-4.58-7.91c-3.19-1.06-5.57.39-7.86,2.26-.37-2.52.83-3.24,3.24-3.33a38.6,38.6,0,0,1,11,1.27c0,3.48.07,7,0,10.45,0,1.67.53,2.23,2.2,2.16C255.09,257.94,257.38,258.09,259.67,258.14Z"/><path class="cls-6" d="M170.8,15c.29-8.52,7.38-14.95,16.58-15q28.45,0,56.91,0h65c1.09,0,2.18.15,3.27.22,0,.27,0,.54,0,.81l-20.15.17C287.13.05,281.82.67,276.53.67c-8,0-16.11,0-24.16-.19-2.3,0-4.26.26-5.79,2.07-.29-1.83-1.75-1.33-2.84-1.33q-28.61,0-57.23,0a12.28,12.28,0,0,0-5.21,1.06C175.77,4.8,172.77,9.2,171.49,15Z"/><path class="cls-6" d="M218.85,169.2l.73.09q-.06,30.83-.15,61.65c0,1.83.64,2.45,2.44,2.38a57,57,0,0,1,8.37,0c2.41.27,3-.89,3-2.8,0-4.29,0-8.58,0-12.87.1-5.18-.35-10.36.25-15.53.61,1,.33,2.14.34,3.21,0,7.54,0,15.09,0,22.63,0,1.06-.29,2.2.45,3.17-.41,3.37-1,3.63-4.21,3.35a27.22,27.22,0,0,0-8.91.21c-1.28.31-2.93-1.38-2.93-2.85.09-18.84.2-37.69.13-56.53C218.39,173.25,217,171.15,218.85,169.2Z"/><path class="cls-4" d="M310.55,257.42c.05-3.29.05-6.58.16-9.86,0-.76-.61-2,.76-2.2,1.11-.15,2.32-.43,3.22.84a17.83,17.83,0,0,0,4.55,4.54v-3.4c0-1.17.11-2.12,1.73-2.14s1.76.75,1.74,2c-.07,3.59-.07,7.17-.09,10.76h0c-2.11.37-3.5-.49-4.73-2.24-.95-1.35-1.67-3.09-3.57-3.84a14.86,14.86,0,0,0-.09,5.51h0l-.47.64-.09,0-3-.13A.89.89,0,0,0,310.55,257.42Z"/><path class="cls-4" d="M236.38,247.47c2.29-1.87,4.67-3.32,7.86-2.26a6.57,6.57,0,0,1,4.58,7.91,7,7,0,0,1-8.36,4.87,6.7,6.7,0,0,1-5.23-7.27c.1-.77.28-1.54.42-2.31Zm9,4.42c-.05-2.27-.92-3.67-3.16-3.75a3,3,0,0,0-3.42,3.28c0,2,.94,3.52,3.17,3.58A3,3,0,0,0,245.4,251.89Z"/><path class="cls-5" d="M234.32,231.17c-.74-1-.45-2.11-.45-3.17,0-7.54,0-15.09,0-22.63,0-1.07.27-2.19-.34-3.21,0-.57,0-1.14,0-1.7a15.7,15.7,0,0,0,0-7.31v-1.07c.32-.24.33-.49,0-.74v-1.08l.93-1.32q14.29,13.67,27.85,28.06c-2.94-.56-5.68-1.19-7-4.49a9.82,9.82,0,0,0-6.22-5.64c-.49-.16-.89-.75-1.22-1.22a41.27,41.27,0,0,0-9.67-10.23,3.83,3.83,0,0,1-.93-.75c-.56-.76-.29-2.56-2-1.86-1.32.55-.72,1.94-.72,2.95C234.39,207.56,234.36,219.36,234.32,231.17Z"/><path class="cls-5" d="M293.68,233.31q0-30.83.06-61.65c0-1.71-.28-2.6-2.26-2.48-4.18.26-8.38-.29-12.55.3a4.86,4.86,0,0,1,4.88-2.06c3.37.45,6.88-1,10.18,1a2.88,2.88,0,0,1,1.67,2.8c0,20.06,0,40.12,0,60.18C295.72,233.21,294.31,232.65,293.68,233.31Zm.86-3.1.3.12V174.2h-.3Z"/><path class="cls-4" d="M344.84,250.26c1.87,1,3.47,2.15,2.93,4.58s-2.4,3.21-4.7,3.27a8.17,8.17,0,0,0-1.43.32,21,21,0,0,0-2.8-1.5c-.71-.26-1.39-.35-1.11-1.31a1.45,1.45,0,0,1,1.82-1.1c.47.09.91.27,1.37.4.94.25,2.33.83,2.6-.29s-1.22-1.37-2.22-1.54c-3.58-.63-4.84-3-3.48-6.61l.22-.16c2.5-1.86,5.24-1.54,8-.89,2.22,2,.79,2.78-1.15,3.38a3.2,3.2,0,0,0-3.51-.79c-.2,0-.43.84-.3,1a4.8,4.8,0,0,0,3.16,1.27A2.94,2.94,0,0,0,344.84,250.26Z"/><path class="cls-4" d="M233.2,247.1c-1.53,3-4.32.44-6.45,1.5.65,1.31,1.83,1.43,3.08,1.66,2.17.41,4.14,1.32,3.94,4s-2,3.68-4.5,3.8a8.76,8.76,0,0,1-4.92-.92c-.69-.4-1.62-.65-1-1.71.45-.76,1-1.62,2.13-1a5.85,5.85,0,0,0,3.14.78c.56,0,1.3.07,1.44-.72s-.43-1-1-1.21-1.34-.4-2-.54c-2.63-.57-4-2.11-3.72-4.87C225.85,244.09,230.75,243.72,233.2,247.1Z"/><path class="cls-4" d="M325.54,256.21c0-3.6.07-7.2.11-10.8l.07.06,1.25-.35,4.57,0c1.39.59,2.85.18,4.27.3h0c0,.78,0,1.55,0,2.32l-6.24.41c-.88.41-1,.94-.26,1.61l.56.3h3.63c1.38-.1,2.06.48,1.87,1.92l-1.39.84h-3.71l-.72.1c-.93.83-1.51,1.62.32,2l4.72.06c1,0,1.73.17,1.68,1.46s-.65,1.48-1.7,1.46c-2.95-.05-5.91-.05-8.86-.07C325.65,257.34,325.59,256.78,325.54,256.21Z"/><path class="cls-4" d="M274.06,246c-.05,2.09,0,4.18-.18,6.26-.32,4.17-2.31,5.94-6.39,5.81-3.88-.12-5.46-1.91-5.48-6.2,0-1.6,0-3.2,0-4.79-.05-1.21.29-1.85,1.65-1.87s1.92.59,1.86,2c-.07,1.79,0,3.59.05,5.39,0,1.35.47,2.32,2,2.44a2.29,2.29,0,0,0,2.69-2.19,18.17,18.17,0,0,0,.11-4.48c-.37-3.09,1.05-3.66,3.64-2.87A.54.54,0,0,0,274.06,246Z"/><path class="cls-2" d="M325.15,8.32c2.06,2.33,2.4,5.15,2.4,8.1q0,60.88,0,121.77c0,3.77.52,7.62-1.36,11.17l-.84,0c.61-2.4,1.57-4.66,1.57-7.25q-.09-60.82,0-121.63c0-4.14-.17-8.16-2-11.94Z"/><path class="cls-2" d="M170.8,15h.69l0,130.78-.34.24a5,5,0,0,1-.42-2.91Q170.76,79,170.8,15Z"/><path class="cls-5" d="M413.55,207.15c-1.91,4.79-3.87,9.56-5.71,14.38-.54,1.43-1.51,1.66-2.79,1.63s-2.23,0-2.81-1.54c-2.54-6.47-5.23-12.88-7.86-19.3.77,0,1.64-.32,2,.71.68,1.82,1.15-.32,2,0-1.81,2.71.61,5.1.47,7.73,3.74,1,1.33,5.92,4.65,7.17.39.15.72.56.21.89-2.63,1.73.4,1.53.78,1.91,1.24,1.27,1.69-.11,2-.95,1.47-3.52,2.91-7.05,4.25-10.62C411.33,207.77,411.84,206.71,413.55,207.15Z"/><path class="cls-5" d="M394,201.19c-1.78-4.1-3.65-8.18-5.3-12.33-.64-1.61-1.38-2.39-3.22-2.29-3.09.15-6.19.11-9.29,0-1.72-.05-2.13.44-1.41,2a38,38,0,0,1,1.34,3.94c-.19,0-.49,0-.57-.11a19.85,19.85,0,0,0-4.72-5.25c-.54-.41-.37-.92.44-1.25a11.06,11.06,0,0,1,4.46-1.22c3.74,0,7.56.6,11.19-1,1.11-.5,1.54.08,2,1.26a33.39,33.39,0,0,0,4.81,8.46C395,195,394,198.54,394,201.19Z"/><path class="cls-2" d="M377,248.74c0,2.55,0,5.11,0,7.66,0,.7.08,1.63-.82,1.62s-.7-1-.71-1.65q0-4.8,0-9.6c0-.65-.26-1.52.62-1.81s1.32.38,1.74.91c2.26,2.89,4.49,5.81,7.22,9.36,0-2.92-.08-5.15,0-7.37.05-1-.58-2.83.66-2.8,1.62,0,.75,1.9.82,2.94a71.82,71.82,0,0,1,0,7.19c0,.89.68,2.23-.66,2.59-1.16.31-1.61-1-2.21-1.74-1.4-1.68-2.64-3.5-4-5.23-.65-.84-1.38-1.6-2.07-2.4Z"/><path class="cls-2" d="M362.88,248.24c-.62,3.61.2,6.88-.71,9.92l-1,0c0-4.19-.34-8.42.16-12.55.21-1.71,1.74-.17,2.3.52,2.25,2.79,4.38,5.66,7.08,9.18,0-3.41,0-6.12,0-8.83,0-.57-.15-1.38.64-1.46,1.13-.12.85.87.86,1.48,0,3.2,0,6.4,0,9.59,0,.65.3,1.53-.65,1.76s-1.22-.55-1.64-1.08c-1.48-1.88-2.91-3.81-4.41-5.67C364.78,250.18,364,249.38,362.88,248.24Z"/><path class="cls-5" d="M325.7,257.9c2.95,0,5.91,0,8.86.07,1.05,0,1.65-.27,1.7-1.46s-.71-1.44-1.68-1.46l-4.72-.06c-.11-.68-.21-1.36-.32-2l.72-.1a.51.51,0,0,0,.84,0H334c.19.56.6.79,1.09.5s.95-.73.3-1.34c.19-1.44-.49-2-1.87-1.92-.22-.36-.44-.39-.67,0h-2.35c-.2-.2-.4-.3-.61,0l-.56-.3a1.85,1.85,0,0,0,.26-1.61l6.24-.41c1-.57.41-1.55.61-2.33l1.41,1c-1.36,3.61-.1,6,3.48,6.61,1,.17,2.51.33,2.22,1.54s-1.66.54-2.6.29c-.46-.13-.9-.31-1.37-.4a1.45,1.45,0,0,0-1.82,1.1c-.28,1,.4,1.05,1.11,1.31a21,21,0,0,1,2.8,1.5c-3.42,1.39-6.89-.19-10.32.19-1.54.17-3.07-.33-4.64.61C325.46,260,325.81,258.54,325.7,257.9Z"/><path class="cls-6" d="M396,258.09a6.6,6.6,0,0,1-6.62-6.9c.15-3.91,3-6.49,7-6.47a6.69,6.69,0,1,1-.41,13.37Zm.22-1.48c2.53,0,4.94-2.6,5-5.41a5.27,5.27,0,0,0-5-5,5.32,5.32,0,0,0-5,5.07A5.49,5.49,0,0,0,396.18,256.61Z"/><path class="cls-2" d="M452.13,244.8c4,0,6.67,2.56,6.74,6.46a6.34,6.34,0,0,1-6.48,6.75,6.43,6.43,0,0,1-6.75-6.8A6.32,6.32,0,0,1,452.13,244.8Zm-4.92,6.34c0,3.33,2.12,5.63,5.25,5.61,2.6,0,4.86-2.54,4.83-5.38a5.2,5.2,0,0,0-4.63-5.3A5.1,5.1,0,0,0,447.21,251.14Z"/><path class="cls-4" d="M259.67,258.14c-2.29-.05-4.58-.2-6.85-.12-1.67.07-2.24-.49-2.2-2.16.1-3.48,0-7,0-10.45h0a8.36,8.36,0,0,1,3.59,0h0c0,1.49,0,3,0,4.48,0,4.58,0,4.71,4.58,5,2.06.14,1.24,1.57,1.61,2.5Z"/><path class="cls-6" d="M494.08,258.09A7.44,7.44,0,0,1,490,257c-.6-.31-1-.7-.64-1.4a1,1,0,0,1,1.52-.32,5.36,5.36,0,0,0,3.94,1c1-.12,1.73-.46,1.93-1.52s-.49-1.68-1.38-2c-1.12-.38-2.3-.61-3.44-.95a3.59,3.59,0,0,1-.21-6.78,6.77,6.77,0,0,1,5.51.35c.5.27,1.2.58.94,1.3s-1,.63-1.54.4a6.6,6.6,0,0,0-3.18-.6c-.94.08-1.84.27-2.06,1.35a1.86,1.86,0,0,0,1.32,2.09,12.42,12.42,0,0,0,2.55.81c2.1.48,3.87,1.3,3.73,3.85C498.83,256.86,497.11,258.08,494.08,258.09Z"/><path class="cls-2" d="M462,258.29c0-4.37,0-8.54,0-12.72a.78.78,0,0,1,.31-.47c1.06-.94,7.68-.13,8.81,1.07,1.67,1.79,1.29,4-1.26,6.29-.7.62-.8,1-.27,1.69s1,1.24,1.47,1.88,1.36,1,.65,1.68-1.41-.27-1.9-.8a13.22,13.22,0,0,1-1.79-2.36c-.79-1.4-2-1.44-3.34-1.29-1.72.2-1,1.65-1.23,2.59S463.73,257.69,462,258.29ZM465.57,246c-1.13-.12-2.71,0-2.45,2.56.2,1.94.12,3.79,3.05,3.44,2.06-.25,4.16-.2,4.23-3S468.38,246.07,465.57,246Z"/><path class="cls-6" d="M429.32,257a.81.81,0,0,1-.55.93c-.88.29-1.39-.35-1.65-.94-1.51-3.39-4.3-2.35-6.87-2.06-1.24.14-1.29,1.38-1.82,2.17-.42.62-.87,1.23-1.65.79s-.43-1.26-.06-1.82c2.11-3.18,2.92-6.95,4.73-10.27.88-1.62,1.78-1.94,2.7-.17,1.84,3.52,2.9,7.4,5,10.81A2.06,2.06,0,0,1,429.32,257Zm-6.3-9.71c-1.55,1.27-1.55,3.2-2.41,4.65a.71.71,0,0,0,.52,1.13c1.26.11,2.75.6,3.73-.22s-.2-1.79-.54-2.66S423.52,248.39,423,247.28Z"/><path class="cls-5" d="M262.27,217c5.27,4.53,9.92,9.7,14.84,14.59a5.42,5.42,0,0,0,4.42,1.85c4.07-.19,8.15-.15,12.22-.2-.25,1.31-1.26,1.36-2.29,1.36-4.38,0-8.76.11-13.13,0-3-.1-3.85-3-5.38-4.84-.87-1-1.63-2.59-2.7-3-3.82-1.48-4.84-5.49-7.66-7.8A1.61,1.61,0,0,1,262.27,217Z"/><path class="cls-5" d="M422.26,220.21c2.89-7.05,5.73-14.13,8.69-21.16,1.61-3.82,2.88-7.8,5-11.38.94,3.21.7,6.75-1.46,8.87a12,12,0,0,0-3.84,6.41c-.63,4.07-3.6,7.14-4,11.36A6.72,6.72,0,0,1,422.26,220.21Z"/><path class="cls-2" d="M481.07,254.63c-2-.34-3.85-.13-4.61,2.36-.18.58-.6,1.12-1.33.85s-.42-.81-.22-1.25c1.58-3.44,3.16-6.89,4.77-10.31.33-.7.66-1.53,1.7-1.37.87.13.94.9,1.21,1.53,1.4,3.2,2.83,6.37,4.22,9.57.29.66,1.12,1.53,0,2-1,.42-1-.74-1.27-1.27C484.42,254.78,484.44,254.77,481.07,254.63Zm0-7.47c-1.33,1.42-1.7,3.05-2.29,4.57-.22.58-.4,1.31.41,1.39a15.18,15.18,0,0,0,3.81,0c.82-.12.52-.91.27-1.43C482.56,250.2,482.32,248.49,481.07,247.16Z"/><path class="cls-2" d="M431.87,251.21a2.65,2.65,0,0,1,0-.89c.72-1.85-2-5.19,2.2-5.49,5.65-.4,8.78,1.66,9.17,5.75a6.57,6.57,0,0,1-5.14,7.3C432.09,258.89,431.8,258.58,431.87,251.21Zm1.27-.05h.05c0,1.09,0,2.19,0,3.29.05,1.64.68,2.6,2.58,2.35a8.19,8.19,0,0,0,3.69-1.05,5.45,5.45,0,0,0,1.82-6.65,5.91,5.91,0,0,0-6.6-3c-2.89.71-1,3.15-1.55,4.74A1,1,0,0,0,433.14,251.16Z"/><path class="cls-6" d="M410.65,255.07c1.36-3.32,2.57-6.24,3.76-9.18.26-.65.43-1.49,1.33-1.26s.64,1.19.42,1.75c-1.37,3.52-2.74,7-4.28,10.47-.76,1.69-2,1.69-2.75,0-1.53-3.34-2.94-6.73-4.39-10.1-.27-.63-.75-1.39.12-1.82s1.43.13,1.79,1C407.88,248.81,408.65,251.92,410.65,255.07Z"/><path class="cls-4" d="M293.22,245.43l.12,11.38-.12,1.12-3.53,0h0c0-3.19.2-6.39-.06-9.55S290.58,244.69,293.22,245.43Z"/><path class="cls-2" d="M312.42,159l-63.53,0,0-.62,63.61,0Z"/><path class="cls-2" d="M202.11,158.1l.06.82c-5.26,0-10.52.26-15.77,0s-9.8-2.23-12.57-7.12h0c1.19-.28,1.45.81,2,1.4a15.39,15.39,0,0,0,11.38,5C192.21,158.12,197.16,158.16,202.11,158.1Z"/><path class="cls-5" d="M376.08,192.57a206,206,0,0,1,8.11,19.12c-5,0-3-4.59-4.36-6.94-1-1.84-.82-4.12-3-5.78C375.08,197.58,376,194.78,376.08,192.57Z"/><path class="cls-2" d="M357.26,251.65c0,1.69,0,3.38,0,5.07,0,.64-.19,1.22-1,1.12s-.6-.7-.6-1.15q0-5.37,0-10.74c0-.49,0-1.06.73-1s.78.51.78,1c0,1.89,0,3.78,0,5.67Z"/><path class="cls-5" d="M314.24,257.4a14.86,14.86,0,0,1,.09-5.51c1.9.75,2.62,2.49,3.57,3.84,1.23,1.75,2.62,2.61,4.73,2.24a2.33,2.33,0,0,1-4.09,1c-.62-.59-1.54-1-1.94-2C315.5,254.37,314.91,256.35,314.24,257.4Z"/><path class="cls-6" d="M312.42,159l0-.67a34.46,34.46,0,0,0,9.45-4.23l.31.34C319.93,158,316.25,158.65,312.42,159Z"/><path class="cls-2" d="M312.53,1c0-.27,0-.54,0-.81,3.66.5,7.27,1.11,9.49,4.59l0,0C318.85,3.64,316.23,1,312.53,1Z"/><path class="cls-5" d="M346.05,245.43c-2.77-.65-5.51-1-8,.89a2.69,2.69,0,0,1-.25-.84c.09-1.79,1.72-1.52,2.41-1.19C342.09,245.2,344.75,242,346.05,245.43Z"/><path class="cls-5" d="M344.84,250.26a2.94,2.94,0,0,1-.59,0,4.8,4.8,0,0,1-3.16-1.27c-.13-.15.1-.94.3-1a3.2,3.2,0,0,1,3.51.79Z"/><path class="cls-6" d="M325.33,149.41l.85,0c-.72,2.16-1.79,4-4,5l-.3-.33Q323.62,151.73,325.33,149.41Z"/><path class="cls-5" d="M254.25,245.41a8.36,8.36,0,0,0-3.59,0,2,2,0,0,1,1.65-2.13C253.54,243.18,254.14,244.2,254.25,245.41Z"/><path class="cls-5" d="M289.69,258l3.53,0c-.6,2.06-2,2.26-3.69,1.49C288.08,258.77,289.73,258.46,289.69,258Z"/><path class="cls-2" d="M173.83,151.82c-1.89-1.48-2.27-3.65-2.65-5.82l.34-.24c.9,2,2,3.87,2.32,6.06Z"/><path class="cls-2" d="M322,4.82c1.89.4,2.4,2,3.11,3.5l-.3.27a7.94,7.94,0,0,1-2.78-3.8Z"/><path class="cls-5" d="M310.68,258l3,.13c0,.81-.05,1.66-1.17,1.68A1.61,1.61,0,0,1,310.68,258Z"/><path class="cls-6" d="M335.81,245.44c-1.42-.12-2.88.29-4.27-.3C333,244.18,334.51,243.59,335.81,245.44Z"/><path class="cls-6" d="M248.85,158.31l0,.62-1.29,0-.87-.51v.08c-.26-.79.11-1.2.84-1.4Z"/><path class="cls-6" d="M336.41,245.44c-.2.78.36,1.76-.61,2.33,0-.77,0-1.54,0-2.32Z"/><path class="cls-6" d="M327,245.12l-1.25.35C325.87,244.41,326.27,244.21,327,245.12Z"/><path class="cls-5" d="M278.14,257.54l-1.13-.68.33-.35,1,.81Z"/><path class="cls-5" d="M312,243.24c0,.07,0,.21-.08.21a.81.81,0,0,1-.25-.08c0-.07.05-.21.08-.21A.81.81,0,0,1,312,243.24Z"/><path class="cls-5" d="M309.91,259.19l-.1.2-.22-.28c.07,0,.14-.11.19-.1S309.86,259.13,309.91,259.19Z"/><path class="cls-5" d="M313.77,258l.47-.64Z"/><path class="cls-2" d="M246.73,158.44l.87.51C247.22,158.93,246.8,159,246.73,158.44Z"/><path class="cls-1" d="M14.45,201c0-5.9.07-11.79,0-17.69,0-2.11.65-2.75,2.74-2.72,8,.11,16,0,24,.13a27.57,27.57,0,0,1,10.17,2.21,14.89,14.89,0,0,1,9.39,11.2c1.6,7.69,1.64,15.13-4.13,21.37-4,4.33-9.46,5.52-15,5.74-8.28.33-16.59.09-24.88.22-2,0-2.32-.74-2.29-2.47C14.5,213,14.45,207,14.45,201Z"/><path class="cls-6" d="M233.49,193.15a15.7,15.7,0,0,1,0,7.31A21.62,21.62,0,0,1,233.49,193.15Z"/><path class="cls-6" d="M234.42,188.94l-.93,1.32a1.32,1.32,0,0,1,0-1.58C233.84,188.37,234.23,188.5,234.42,188.94Z"/><path class="cls-6" d="M233.49,191.34c.33.25.32.5,0,.74Z"/><path class="cls-5" d="M454.1,222.59a4.79,4.79,0,0,1-.84-5.52c.89-1.74,2.75-1.68,4.47-1.68,9.34,0,18.69.06,28,0,2.05,0,3,.54,2.62,2.66-.32,1.77.81,3.78-.86,5.34-9.37,0-18.73-.11-28.1-.13A17.09,17.09,0,0,1,454.1,222.59Z"/><path class="cls-4" d="M454.1,222.59a17.09,17.09,0,0,0,5.32.63c9.37,0,18.73.08,28.1.13-.76.7-1.69.44-2.56.44-9.33,0-18.65,0-28,0C456,223.76,454.45,224.46,454.1,222.59Z"/><path class="cls-1" d="M113.54,204.55c-5,0-10-.06-15,0-2,0-2.3-.53-1.34-2.22a9.05,9.05,0,0,1,6.79-4.9c8.64-1.14,17.34-.52,26-.39,2,0,3.46,1.09,3.36,3.38a3.83,3.83,0,0,1-4,4c-3.79.14-7.59.05-11.38.05h-4.5Z"/><path class="cls-1" d="M355.5,202.23a.51.51,0,0,1,.18.51c.24,6,.37,11.89-4.09,16.87a4.32,4.32,0,0,1-3.64,1.83q-10.62-.09-21.25,0a7,7,0,0,1-4.27-1.62c-4.52-3-4.35-7.51-3.93-12,.59-6.27,4.05-9.24,10.3-9.24,5.39,0,10.78.09,16.17,0,2.6-.07,4.88.22,6.71,2.32A4.44,4.44,0,0,0,355.5,202.23Z"/><path class="cls-5" d="M355.5,202.23a4.44,4.44,0,0,1-3.82-1.35c-1.83-2.1-4.11-2.39-6.71-2.32-5.39.13-10.78,0-16.17,0-6.25,0-9.71,3-10.3,9.24-.42,4.47-.59,8.93,3.93,12a7,7,0,0,0,4.27,1.62q10.62-.1,21.25,0a4.32,4.32,0,0,0,3.64-1.83c4.46-5,4.33-10.87,4.09-16.87,2.46,5,2,10.08-.09,15a8,8,0,0,1-5.07,4.37,18,18,0,0,1-5.57,1c-5.69,0-11.38.07-17.06-.08-6.94-.18-11-4.36-11.21-11.32a23.09,23.09,0,0,1,.31-6.26c1.21-4.89,4-7.67,9-8.18a106.6,106.6,0,0,1,22.09,0A9.08,9.08,0,0,1,355.5,202.23Z"/><path class="cls-5" d="M248.85,158.31l-1.28-1.19L264.67,137l.55-.59.59-.67a18.52,18.52,0,0,0,2-1.77c9.87-11.55,19.77-23.08,29.55-34.71,3.31-3.94,7.06-7.53,9.74-12,.7-.71,1.44-1.39,2.08-2.15C316,77,315.36,69.87,307.27,63c-2.42-2.08-4.78-4.24-7.25-6.27-8.78-7.19-17-15.07-26.15-21.79-3-2.18-4.4-2.17-6.84.61-4.92,5.63-9.74,11.36-14.63,17-3,3.51-3,5.19.53,8.28,5.1,4.47,10.25,8.88,15.39,13.3,2.58,2.21,2.74,3,.58,5.62-2.4,2.87-4.91,5.65-7.37,8.48-.5,0-.72.36-.89.76a.31.31,0,0,0-.22.22c-1.93,2.42-4.1,4.65-5.6,7.39h0c-3.47,1.58-4.74,5.1-6.91,7.81l-.24.06-.05.24c-.47.39-1.08.73-.62,1.5h0c-1.62,0-2.05,1.15-2.4,2.41h0a7.9,7.9,0,0,0-3.6,4.2h0c-.69.16-1,.51-.61,1.2h0c-1.93.08-2.3,1.71-3,3h0c-.84.31-1.52.72-1.21,1.8h0a3.86,3.86,0,0,0-3,3.61h0c-1.63,0-2.05,1.15-2.4,2.41h0c-3.6,1.77-5,5.41-7.2,8.4h0a22.5,22.5,0,0,0-5.93,6.66q-7.47,8.82-14.93,17.63c-.34,0-.48.1-.43.43l-.22.2c-5,.06-9.9,0-14.86.11a15.39,15.39,0,0,1-11.38-5c-.58-.59-.84-1.68-2-1.4-.32-2.19-1.42-4.09-2.32-6.06l0-130.78c1.28-5.78,4.28-10.18,9.81-12.71a12.28,12.28,0,0,1,5.21-1.06q28.62,0,57.23,0c1.09,0,2.55-.5,2.84,1.33l-.57.58a.55.55,0,0,0-.61.64L232,19.76c-1,.18-1.4,1.08-2,1.74-9.08,10.62-18.2,21.19-27.17,31.9-3.95,4.71-8.33,9.09-11.71,14.28l-.07,0a1.31,1.31,0,0,0-1.1,1.21l0,0a1.51,1.51,0,0,0-1.15,1.22c-7,7.55-7.44,14.77-.41,21.07,11.28,10.08,22.9,19.78,34.47,29.54,3.28,2.76,5.18,2.38,8.07-1q7.11-8.28,14.21-16.57c2.76-3.2,2.59-5.24-.66-8-5.28-4.55-10.5-9.18-15.8-13.71-1.93-1.64-2.08-3.09-.37-5,3-3.36,5.74-6.88,8.6-10.32,1.75-.95,2.69-2.58,3.61-4.23A21,21,0,0,0,245,56.75a10.7,10.7,0,0,0,3-3.6,3.63,3.63,0,0,0,1.69-1.89l.54-.68,1.41-1.67.5-.49a7.62,7.62,0,0,0,2.29-2.63c.26-.35.51-.7.77-1a6.74,6.74,0,0,0,2.28-2.52l.74-1L259.39,40c.36-.46.72-.91,1.09-1.36a104.49,104.49,0,0,0,9.16-10.65,4.71,4.71,0,0,0,1.84-2.37,1.84,1.84,0,0,0,1.12-1.23l1.17-1.24A36.27,36.27,0,0,0,279,16.93L292.38,1.21,312.53,1c3.7-.08,6.32,2.6,9.54,3.75a7.94,7.94,0,0,0,2.78,3.8c1.88,3.78,2,7.8,2,11.94q-.07,60.81,0,121.63c0,2.59-1,4.85-1.57,7.25q-1.72,2.33-3.42,4.66a34.93,34.93,0,0,1-9.46,4.22Z"/><path class="cls-2" d="M307.08,87.25c-2.68,4.46-6.43,8-9.74,12-9.78,11.63-19.68,23.16-29.55,34.71a18.52,18.52,0,0,1-2,1.77c-.07-.38-.13-.76-.19-1.14-.16-1.47-.32-3-.49-4.43.85-.83.47-1.88.51-2.84.2-4.42-1.18-8.66-1.44-13a59.66,59.66,0,0,0-.95-9.66c-.87-3.9-.95-7.89-1.8-11.78-.29-1.37.19-2.22,1.82-2.37,2.57-.22,5.11-.89,7.67-1,11.34-.39,22.51-2.61,33.82-3.27C305.9,86.15,306.71,86,307.08,87.25Z"/><path class="cls-6" d="M265.13,130.15c.17,1.48.33,3,.49,4.43l-.55.19a3,3,0,0,0-3.64.26l-4,.18a1,1,0,0,0-1.44.4l-4.79.47c-.46-.55-.86-.47-1.2.12l-4.81.44a1.05,1.05,0,0,0-1.8.18l-4,.19a1,1,0,0,0-1.43.4l-4.81.42c-.5-.53-.88-.38-1.2.2l-4.8.41c-.58-.67-1-.33-1.29.27l-4.7.29c-1-1.26.1-1.88.78-2.63.83-.91,2-1.67,1.6-3.19h0c3.26-2.06,5.91-4.65,7.2-8.4h0a2.3,2.3,0,0,0,2.4-2.41h0a4.58,4.58,0,0,0,3-3.61h0c1.23,0,1.38-.81,1.21-1.8h0a3.21,3.21,0,0,0,3-3h0c.64-.17.71-.64.61-1.2h0c2.14-.6,3.53-1.83,3.6-4.2h0c1.84.23,2.22-1,2.4-2.41h0c.76-.27.67-.9.62-1.5l.05-.24.24-.06a13,13,0,0,0,6.91-7.81h0c2.52-.7,3.74-2.7,4.85-4.83,1.07,1.08,1,2.53,1.15,3.87.37,2.65.65,5.32,1,8Z"/><path class="cls-2" d="M223.62,133.18c.38,1.52-.77,2.28-1.6,3.19-.68.75-1.82,1.37-.78,2.63-.55,1.05-1.62.55-2.43.84h-1.12A22.5,22.5,0,0,1,223.62,133.18Z"/><path class="cls-2" d="M261.43,135a3,3,0,0,1,3.64-.26C263.87,135.1,262.73,136,261.43,135Z"/><path class="cls-2" d="M243.43,136.82a1.05,1.05,0,0,1,1.8-.18C244.71,137.47,244.1,137.43,243.43,136.82Z"/><path class="cls-2" d="M256,135.61a1,1,0,0,1,1.44-.4C257.12,135.84,256.76,136.38,256,135.61Z"/><path class="cls-2" d="M225.94,138.71c.33-.6.71-.94,1.29-.27C226.91,139.05,226.46,139.05,225.94,138.71Z"/><path class="cls-2" d="M232,138c.32-.58.7-.73,1.2-.2C232.92,138.46,232.53,138.56,232,138Z"/><path class="cls-2" d="M238,137.41a1,1,0,0,1,1.43-.4C239.13,137.63,238.76,138.19,238,137.41Z"/><path class="cls-2" d="M250,136.2c.34-.59.74-.67,1.2-.12C250.9,136.68,250.49,136.69,250,136.2Z"/><path class="cls-2" d="M265.22,136.39l-.55.59A.49.49,0,0,1,265.22,136.39Z"/><path class="cls-4" d="M278.32,257.32l-1-.81c-2.46-3.61-2.61-6.31-.51-8.95a6.49,6.49,0,0,1,7.92-2.18c1,.43,2.95.69,2.12,2.46-.59,1.27-1.77,1.89-3.36.6a2.6,2.6,0,0,0-3.72.72,3.68,3.68,0,0,0-.15,4.48,2.92,2.92,0,0,0,3.91,1.1c.45-.2.83-.58,1.29-.75,1.1-.39,1.7.51,2.18,1.16s-.24,1.21-.77,1.62C283.74,258.75,281,258.26,278.32,257.32Z"/><path class="cls-2" d="M202.33,157.9c-.05-.33.09-.47.43-.43Z"/><path class="cls-4" d="M309,251.69a6.86,6.86,0,0,1-13.71-.46,7,7,0,0,1,7-6.41A6.7,6.7,0,0,1,309,251.69Zm-3.49-.09c-.2-1.92-1.11-3.44-3.24-3.55s-3.39,1.21-3.42,3.32,1,3.5,3.16,3.64S305.15,253.7,305.48,251.6Z"/><path class="cls-4" d="M232,19.76l13.38-16,.61-.64.57-.58C248.11.74,250.07.43,252.37.48c8.05.17,16.11.15,24.16.19.3,5.37,1.73,10.62,1.74,16l-1.2.09-6.6.62c-.72-.74-1.1-.27-1.44.4l-4.56.23c-.67-.66-1.27-.67-1.79.17l-3,.34c-1.06-.63-2.08-.78-3,.27l-3.62.35c-1.19-.64-2.3-.84-3.17.51l-2.82.11c-.88-.79-1.54-.55-2.05.43l-4.56.21c-.68-.66-1.28-.7-1.78.2l-4.14.34c-.7-.57-1.15-.21-1.53.42l-.85.08Z"/><path class="cls-3" d="M278.27,16.69c0-5.4-1.44-10.65-1.74-16,5.29,0,10.6-.62,15.85.54L279,16.93Z"/><path class="cls-5" d="M245.4,251.89A3,3,0,0,1,242,255c-2.23-.06-3.19-1.59-3.17-3.58a3,3,0,0,1,3.42-3.28C244.48,248.22,245.35,249.62,245.4,251.89Z"/><path class="cls-1" d="M294.54,230.21v-56h.3v56.13Z"/><path class="cls-6" d="M335.36,252c.65.61.2,1-.3,1.34s-.9.06-1.09-.5Z"/><path class="cls-6" d="M329.54,253c.11.67.21,1.35.32,2C328,254.58,328.61,253.79,329.54,253Z"/><path class="cls-6" d="M329.56,248.18a1.85,1.85,0,0,1-.26,1.61C328.6,249.12,328.68,248.59,329.56,248.18Z"/><path class="cls-6" d="M331.1,252.85a.51.51,0,0,1-.84,0Z"/><path class="cls-6" d="M332.82,250.09c.23-.38.45-.35.67,0Z"/><path class="cls-6" d="M329.86,250.09c.21-.29.41-.19.61,0Z"/><path class="cls-1" d="M396.18,256.61a5.49,5.49,0,0,1-5-5.34,5.32,5.32,0,0,1,5-5.07,5.27,5.27,0,0,1,5,5C401.12,254,398.71,256.63,396.18,256.61Z"/><path class="cls-5" d="M447.21,251.14a5.1,5.1,0,0,1,5.45-5.07,5.2,5.2,0,0,1,4.63,5.3c0,2.84-2.23,5.36-4.83,5.38C449.33,256.77,447.17,254.47,447.21,251.14Z"/><path class="cls-5" d="M465.57,246c2.81.06,4.91.23,4.83,3s-2.17,2.71-4.23,3c-2.93.35-2.85-1.5-3.05-3.44C462.86,246,464.44,245.89,465.57,246Z"/><path class="cls-5" d="M423,247.28c.5,1.11,1,2,1.3,2.9s1.43,1.91.54,2.66-2.47.33-3.73.22a.71.71,0,0,1-.52-1.13C421.47,250.48,421.47,248.55,423,247.28Z"/><path class="cls-5" d="M481.07,247.16c1.25,1.33,1.49,3,2.2,4.5.25.52.55,1.31-.27,1.43a15.18,15.18,0,0,1-3.81,0c-.81-.08-.63-.81-.41-1.39C479.37,250.21,479.74,248.58,481.07,247.16Z"/><path class="cls-5" d="M433.14,251.16a1,1,0,0,1,0-.3c.52-1.59-1.34-4,1.55-4.74a5.91,5.91,0,0,1,6.6,3,5.45,5.45,0,0,1-1.82,6.65,8.19,8.19,0,0,1-3.69,1.05c-1.9.25-2.53-.71-2.58-2.35,0-1.1,0-2.2,0-3.29Z"/><path class="cls-3" d="M265.13,130.15,261.8,103.6c-.33-2.66-.61-5.33-1-8-.19-1.34-.08-2.79-1.15-3.87-.08-1,1.56-1.39.75-2.56a.31.31,0,0,1,.22-.22c.3.29.68.43,1,.15s.28-.65-.11-.91c2.46-2.83,5-5.61,7.37-8.48,2.16-2.58,2-3.41-.58-5.62-5.14-4.42-10.29-8.83-15.39-13.3-3.53-3.09-3.57-4.77-.53-8.28,4.89-5.66,9.71-11.39,14.63-17,2.44-2.78,3.86-2.79,6.84-.61C283,41.62,291.24,49.5,300,56.69c2.47,2,4.83,4.19,7.25,6.27C315.36,69.87,316,77,309.16,85.1c-.64.76-1.38,1.44-2.08,2.15-.37-1.27-1.18-1.1-2.32-1-11.31.66-22.48,2.88-33.82,3.27-2.56.09-5.1.76-7.67,1-1.63.15-2.11,1-1.82,2.37.85,3.89.93,7.88,1.8,11.78a59.66,59.66,0,0,1,.95,9.66c.26,4.37,1.64,8.61,1.44,13C265.6,128.27,266,129.32,265.13,130.15Z"/><path class="cls-3" d="M237,66.13c-2.86,3.44-5.64,7-8.6,10.32-1.71,1.93-1.56,3.38.37,5,5.3,4.53,10.52,9.16,15.8,13.71,3.25,2.81,3.42,4.85.66,8q-7.12,8.26-14.21,16.57c-2.89,3.37-4.79,3.75-8.07,1-11.57-9.76-23.19-19.46-34.47-29.54-7-6.3-6.61-13.52.41-21.07.79,0,1.23-.38,1.15-1.22l0,0c2.1.91,4.31.72,6.47.52q11.25-1.08,22.46-2.31c5-.54,10-1.22,15-1.72,1.69-.17,2.35-1,2.14-2.52-1.49-11-3.09-22-4.45-33-.21-1.71-1.24-3.69.36-5.37.73,5.71,1.61,11.41,2.16,17.14.72,7.52,2.35,14.92,2.7,22.47Z"/><path class="cls-2" d="M232,24.58c-1.6,1.68-.57,3.66-.36,5.37,1.36,11,3,22,4.45,33,.21,1.56-.45,2.35-2.14,2.52-5,.5-10,1.18-15,1.72q-11.22,1.21-22.46,2.31c-2.16.2-4.37.39-6.47-.52a1.31,1.31,0,0,1,1.1-1.21c.11.09.22.18.32.28l-.25-.33c3.38-5.19,7.76-9.57,11.71-14.28,9-10.71,18.09-21.28,27.17-31.9.56-.66.95-1.56,2-1.74l.15,1.7C230.92,22.44,232.54,23.56,232,24.58Z"/><path class="cls-2" d="M269.64,28a105.47,105.47,0,0,1-9.16,10.64l-.36-.29c2.06-4.38,5.62-7.53,8.94-10.88Z"/><path class="cls-2" d="M230.82,124.78c-1.29,3.75-3.94,6.34-7.2,8.4C225.81,130.19,227.22,126.55,230.82,124.78Z"/><path class="cls-2" d="M254.83,96.57a13,13,0,0,1-6.91,7.81C250.09,101.67,251.36,98.15,254.83,96.57Z"/><path class="cls-2" d="M260.42,89.19c.81,1.17-.83,1.61-.75,2.56-1.11,2.13-2.33,4.13-4.85,4.83C256.32,93.84,258.49,91.61,260.42,89.19Z"/><path class="cls-2" d="M278.27,16.69l.73.24a36.27,36.27,0,0,1-5.23,6.17l-.45-.42c.55-2.41,3.23-3.47,3.75-5.9Z"/><path class="cls-2" d="M245,56.75a21.22,21.22,0,0,1-4.48,5.15l-.1-.09a5.92,5.92,0,0,1,4.09-5.5Z"/><path class="cls-2" d="M237,66.13l-.06-1.94c1.39-.49,1.79-2.46,3.57-2.38l.1.09C239.64,63.55,238.7,65.18,237,66.13Z"/><path class="cls-2" d="M244.62,108.58c-.07,2.37-1.46,3.6-3.6,4.2A7.9,7.9,0,0,1,244.62,108.58Z"/><path class="cls-2" d="M248,53.15a10.7,10.7,0,0,1-3,3.6c-.15-.15-.32-.3-.48-.44a7.17,7.17,0,0,1,3-3.61Z"/><path class="cls-2" d="M236.22,118.77a4.58,4.58,0,0,1-3,3.61A3.86,3.86,0,0,1,236.22,118.77Z"/><path class="cls-2" d="M240.42,114a3.21,3.21,0,0,1-3,3C238.12,115.68,238.49,114.05,240.42,114Z"/><path class="cls-2" d="M247,106.17c-.18,1.42-.56,2.64-2.4,2.41C245,107.32,245.4,106.16,247,106.17Z"/><path class="cls-2" d="M233.22,122.37a2.3,2.3,0,0,1-2.4,2.41C231.17,123.52,231.59,122.34,233.22,122.37Z"/><path class="cls-2" d="M254.44,45.79a7.62,7.62,0,0,1-2.29,2.63l-.44-.53a3.48,3.48,0,0,1,2.36-2.46Z"/><path class="cls-2" d="M257.49,42.23a6.74,6.74,0,0,1-2.28,2.52l-.5-.45a3.59,3.59,0,0,1,2.34-2.49Z"/><path class="cls-2" d="M271.49,25.57a4.78,4.78,0,0,1-1.85,2.37l-.58-.52a4.94,4.94,0,0,1,1.87-2.31Z"/><path class="cls-2" d="M249.7,51.26A3.63,3.63,0,0,1,248,53.15l-.47-.45a2.11,2.11,0,0,1,1.83-1.79Z"/><path class="cls-2" d="M237.43,117c.17,1,0,1.76-1.21,1.8C235.91,117.7,236.59,117.29,237.43,117Z"/><path class="cls-2" d="M251.65,48.91l-1.41,1.67-.34-.29c.08-.83.26-1.6,1.24-1.82Z"/><path class="cls-2" d="M261.53,88.21c.39.26.44.62.11.91s-.7.14-1-.15C260.81,88.57,261,88.23,261.53,88.21Z"/><path class="cls-2" d="M259.39,40l-1.16,1.26-.48-.49a1.52,1.52,0,0,1,1.17-1.27Z"/><path class="cls-2" d="M272.6,24.34a1.84,1.84,0,0,1-1.12,1.23l-.54-.46a1.43,1.43,0,0,1,1.2-1.22Z"/><path class="cls-2" d="M273.77,23.1l-1.17,1.24-.46-.45a1.36,1.36,0,0,1,1.18-1.21Z"/><path class="cls-2" d="M260.48,38.59c-.37.45-.73.9-1.09,1.36-.16-.17-.31-.34-.47-.5l1.2-1.15Z"/><path class="cls-2" d="M190,69c.08.84-.36,1.2-1.15,1.22A1.51,1.51,0,0,1,190,69Z"/><path class="cls-2" d="M247.63,104.68c.05.6.14,1.23-.62,1.5C246.55,105.41,247.16,105.07,247.63,104.68Z"/><path class="cls-2" d="M241,112.78c.1.56,0,1-.61,1.2C240.05,113.29,240.33,112.94,241,112.78Z"/><path class="cls-2" d="M258.23,41.21l-.74,1-.44-.42c.23-.36.47-.72.7-1.09Z"/><path class="cls-2" d="M255.21,44.75c-.26.34-.51.69-.77,1l-.37-.36.64-1.13Z"/><path class="cls-6" d="M246,3.13l-.61.64A.55.55,0,0,1,246,3.13Z"/><path class="cls-2" d="M250.24,50.58l-.54.68-.33-.35c.18-.21.36-.41.53-.62Z"/><path class="cls-2" d="M252.15,48.42l-.5.49-.51-.44.57-.58Z"/><path class="cls-5" d="M305.48,251.6c-.33,2.1-1.25,3.55-3.5,3.41s-3.19-1.61-3.16-3.64,1.27-3.44,3.42-3.32S305.28,249.68,305.48,251.6Z"/><path class="cls-6" d="M251.71,47.89l-.57.58c-1,.22-1.16,1-1.24,1.82-.17.21-.35.41-.53.62a2.11,2.11,0,0,0-1.83,1.79,7.17,7.17,0,0,0-3,3.61,5.92,5.92,0,0,0-4.09,5.5c-1.78-.08-2.18,1.89-3.57,2.38-.35-7.55-2-14.95-2.7-22.47-.55-5.73-1.43-11.43-2.16-17.14.51-1-1.11-2.14.14-3.12l.85-.08a1.11,1.11,0,0,0,1.53-.42l4.14-.34a1.05,1.05,0,0,0,1.78-.2l4.56-.21c.76.22,1.51.38,2.05-.43l2.82-.11c1.1.11,2.26.55,3.17-.51l3.62-.35a2.19,2.19,0,0,0,3-.27l3-.34a1.07,1.07,0,0,0,1.79-.17L269,17.8a1,1,0,0,0,1.44-.4l6.6-.62c-.52,2.43-3.2,3.49-3.75,5.9a1.36,1.36,0,0,0-1.18,1.21,1.43,1.43,0,0,0-1.2,1.22,4.9,4.9,0,0,0-1.88,2.31c-3.32,3.35-6.88,6.5-8.94,10.88l-1.2,1.15a1.52,1.52,0,0,0-1.17,1.27c-.23.37-.47.73-.7,1.09a3.59,3.59,0,0,0-2.34,2.49l-.64,1.13A3.48,3.48,0,0,0,251.71,47.89Z"/><path class="cls-2" d="M259.68,18.54a2.19,2.19,0,0,1-3,.27C257.6,17.76,258.62,17.91,259.68,18.54Z"/><path class="cls-2" d="M253.07,19.16c-.91,1.06-2.07.62-3.17.51C250.77,18.32,251.88,18.52,253.07,19.16Z"/><path class="cls-2" d="M240.47,20.42a1.05,1.05,0,0,1-1.78.2C239.19,19.72,239.79,19.76,240.47,20.42Z"/><path class="cls-2" d="M247.08,19.78c-.54.81-1.29.65-2.05.43C245.54,19.23,246.2,19,247.08,19.78Z"/><path class="cls-2" d="M264.47,18a1.07,1.07,0,0,1-1.79.17C263.2,17.36,263.8,17.37,264.47,18Z"/><path class="cls-2" d="M234.55,21a1.11,1.11,0,0,1-1.53.42C233.4,20.75,233.85,20.39,234.55,21Z"/><path class="cls-2" d="M270.47,17.4a1,1,0,0,1-1.44.4C269.37,17.13,269.75,16.66,270.47,17.4Z"/><path class="cls-3" d="M191.18,67.68l.25.33c-.1-.1-.21-.19-.32-.28Z"/></g></g></svg>