<svg xmlns="http://www.w3.org/2000/svg" viewBox="0 0 658.78 254.69"><defs><style>.cls-1{fill:#fff;}.cls-2{fill:#b0b0b0;}.cls-3{fill:#353535;}.cls-4{fill:#363636;}.cls-5{fill:#fdfdfd;}.cls-6{fill:#4a4a4a;}</style></defs><title>Recurso 11</title><g id="Capa_2" data-name="Capa 2"><g id="Capa_1-2" data-name="Capa 1"><path class="cls-1" d="M0,254.69V0H658.78V254.69Zm153.13-81.34c.63-.72,1.24-1.48,1.91-2.19a58.82,58.82,0,0,0,5.49-6.91,64.57,64.57,0,0,0,5.18-9,62.64,62.64,0,0,0,4.45-12.38,60.85,60.85,0,0,0,1.47-8.39c.22-2.09.4-4.18.46-6.28a42.5,42.5,0,0,0-.16-5c-.17-2-.35-3.89-.59-5.84a53,53,0,0,0-1.36-6.72,65.31,65.31,0,0,0-12.13-24.27c-.58-.72-1.18-1.44-1.75-2.18-.28-.37-.25-.52.05-.86a8.35,8.35,0,0,1,.59-.6l10.52-10.53c1.17-1.17,1.13-1.11,2.29,0q5.5,5.52,11,11c.26.27.52.54.8.78a.58.58,0,0,0,.88,0,5.7,5.7,0,0,0,.51-.48l5-5c1-1,1-1,0-2l-.49-.5L176.41,65.3c-1.17-1.16-1.18-1.09,0-2.28L187.74,51.7c.26-.26.53-.52.78-.8a.6.6,0,0,0,0-.88,4.12,4.12,0,0,0-.28-.31l-5.46-5.46c-.62-.61-.78-.6-1.4,0-.24.23-.46.46-.69.7q-5.61,5.61-11.22,11.22c-1.14,1.14-1.11,1.17-2.29,0L156.31,45.2c-.27-.26-.52-.53-.8-.78-.45-.42-.58-.43-1,0-1.89,1.88-3.78,3.76-5.66,5.66-.65.65-.65.69,0,1.34.23.24.46.47.7.7L160.2,62.88c.29.3.59.6.87.92a.55.55,0,0,1,0,.76,3.7,3.7,0,0,1-.38.42q-5.55,5.55-11.12,11.11c-.76.77-.78.76-1.62.15-.27-.19-.53-.38-.79-.59a57.77,57.77,0,0,0-8.84-5.92,65.39,65.39,0,0,0-14.1-5.79,56.1,56.1,0,0,0-6-1.35c-1.38-.23-2.76-.42-4.14-.62-1.63-.24-3.26-.32-4.88-.41A57,57,0,0,0,98.82,62c-2.36.31-4.7.67-7,1.19a62.78,62.78,0,0,0-14,4.92,61.9,61.9,0,0,0-9.61,5.76,68.56,68.56,0,0,0-7.62,6.39c-1.07,1-2.08,2.16-3.08,3.27-1.22,1.36-2.38,2.76-3.47,4.22a64.47,64.47,0,0,0-7.66,13.18,63.76,63.76,0,0,0-3.7,11.16,56.38,56.38,0,0,0-1.16,6.46A45.12,45.12,0,0,0,41,124c0,3-.1,6.07.21,9.11.24,2.37.54,4.73,1,7.06a62.67,62.67,0,0,0,2.91,10.08,67.75,67.75,0,0,0,6.31,12.49,64.39,64.39,0,0,0,6.76,8.75,66.67,66.67,0,0,0,17.7,13.63,72.19,72.19,0,0,0,6.75,3.1,64.64,64.64,0,0,0,11.56,3.31c1.42.27,2.85.45,4.28.66s2.71.12,4,.44a79.13,79.13,0,0,0,12.31-.48c2.4-.36,4.8-.72,7.16-1.3a64.65,64.65,0,0,0,22.2-10.08c1.49-1,1.26-.94,2.39.19q7.51,7.49,15,15l1.38,1.39c.16.16.36.32.15.64h-4c-2.57,0-5.14,0-7.72,0-.71,0-.82.11-.82.82q0,4,0,8c0,.9.06,1,1,1h1q9.76,0,19.52,0l10,0c.37,0,.75,0,1.12,0s.55-.19.57-.64c0-.28,0-.56,0-.84V178.64c0-.33,0-.65,0-1a.45.45,0,0,0-.44-.45c-.38,0-.75,0-1.13,0h-6.59c-1.67,0-1.62-.1-1.62,1.59v13.62q0,.63,0,1.26a.26.26,0,0,1-.15.19.32.32,0,0,1-.25-.05c-.25-.21-.48-.44-.72-.67l-18.86-18.86A2.32,2.32,0,0,1,153.13,173.35Zm370.68-58.49a3,3,0,0,1-.92-1l-5.42-7.68-6.23-8.83c-.88-1.22-.54-1-2.05-1-2.29,0-4.59,0-6.88,0h-.84a.68.68,0,0,0-.6.29,3.65,3.65,0,0,0-1,2.8,2.61,2.61,0,0,1,0,.28v67.52c0,.33,0,.66,0,1a4.24,4.24,0,0,0,1.31,3.15,4.91,4.91,0,0,0,4.88,1.4,3.35,3.35,0,0,0,2.81-3.08,15.74,15.74,0,0,0,.07-1.82V112.35c0-.47,0-.93,0-1.4,0-.11,0-.19.14-.2s.21,0,.24,0q.34.54.66,1.08l10,16.9c.82,2,4.41,2.64,6,.46.31-.41.59-.84.88-1.27l10.69-16.31c.25-.37.53-.73.78-1.08.12.07.19.09.19.11,0,.47,0,.93,0,1.4v55.17c0,.37,0,.75,0,1.12a3.92,3.92,0,0,0,1.59,3.28,5.14,5.14,0,0,0,4.07,1.14,4.39,4.39,0,0,0,4-4.35c0-.37,0-.75,0-1.12q0-33.84,0-67.67c0-1.87.22-1.27-1.07-2.69l-.1-.11a1.47,1.47,0,0,0-1.32-.61c-3,0-6,0-9,0a1.19,1.19,0,0,0-1.25.66,6.49,6.49,0,0,1-.53.83l-10.23,15.77ZM271.27,115c-.85-1.2-1.57-2.23-2.3-3.25q-5.18-7.33-10.35-14.69a1.6,1.6,0,0,0-1.48-.79c-2.34,0-4.68,0-7,0-1.61,0-1.6,0-2.41,1.36a1.78,1.78,0,0,0-.32,1c0,.33,0,.65,0,1v67.52c0,.33,0,.66,0,1a4.15,4.15,0,0,0,1.24,3,4.86,4.86,0,0,0,4.84,1.51,3.39,3.39,0,0,0,2.93-3.12,15.74,15.74,0,0,0,.06-1.82V112.33c0-.42,0-.85,0-1.27a.42.42,0,0,1,0-.25c.05,0,.21-.09.23-.06.22.3.45.59.64.91q4.56,7.73,9.13,15.46c.39.64.77,1.29,1.15,1.93a3.1,3.1,0,0,0,2.27,1.48,3.58,3.58,0,0,0,3.72-1.42c.28-.38.53-.77.78-1.16q5.35-8.16,10.7-16.31a4.12,4.12,0,0,1,1-1.2c0,.68,0,1.18,0,1.67v55c0,.43,0,.85,0,1.27a3.9,3.9,0,0,0,1.51,3.18,5.15,5.15,0,0,0,4.17,1.21,4.4,4.4,0,0,0,3.95-4.37c0-.33,0-.66,0-1V99.64c0-1.85.2-1.23-1.09-2.7a1.86,1.86,0,0,0-1.57-.69c-2.81,0-5.62,0-8.43,0-1.43,0-1.14-.11-1.88,1q-5.32,8.17-10.62,16.36Zm86.91,16V101.88a9.15,9.15,0,0,0-.14-2.09,3,3,0,0,0-2-2.37,6,6,0,0,0-6.29,1.16,3.23,3.23,0,0,0-1.1,2.35c0,.51,0,1,0,1.54q0,28,0,56c0,.84-.07,1.68-.11,2.52a3.76,3.76,0,0,1-.36,1.35,2.32,2.32,0,0,1-1.9,1.47,13.31,13.31,0,0,1-1.54.12H324.1a12.2,12.2,0,0,1-1.81-.18,2.68,2.68,0,0,1-2.52-2.57,21.55,21.55,0,0,1-.14-2.66q0-27.93,0-55.87a13.37,13.37,0,0,0-.1-2.1A3.69,3.69,0,0,0,317,97.35a4.9,4.9,0,0,0-5.32,1.13,5.14,5.14,0,0,0-1.64,3.75v56.85c0,.51,0,1,0,1.54a13.33,13.33,0,0,0,3.45,8.39,9.5,9.5,0,0,0,5.13,3,11.14,11.14,0,0,0,2.51.19h26.25a9.9,9.9,0,0,0,5.95-2.18,12.58,12.58,0,0,0,4.43-6.82,17,17,0,0,0,.43-4.32ZM182.33,169.86c0,.32.08.79.15,1.25a2.51,2.51,0,0,0,1.9,2.19,5.38,5.38,0,0,0,4.59-.48,6.62,6.62,0,0,0,2.88-3.67c.54-1.64,1.09-3.28,1.63-4.92.76-2.31,1.51-4.62,2.27-6.93.21-.63.25-.65.89-.67H216c1.81,0,1.41-.11,1.91,1.38q1.83,5.52,3.61,11.06a7.59,7.59,0,0,0,2.64,3.71,3.61,3.61,0,0,0,2.61.8,7.57,7.57,0,0,0,3-1,2.89,2.89,0,0,0,1.62-3.14,18.51,18.51,0,0,0-.65-2.86q-6.43-22.29-12.88-44.56c-2-6.91-4-13.82-6-20.74a6.22,6.22,0,0,0-3.31-4,2.59,2.59,0,0,0-2.16-.22,5.7,5.7,0,0,0-4,3.9q-6,20.09-12.06,40.13-3.75,12.48-7.53,25A15.21,15.21,0,0,0,182.33,169.86Zm252.54-37.7a17.32,17.32,0,0,0,.28,4.19,25.26,25.26,0,0,0,2.43,6.84q6.41,12.31,12.82,24.62a13,13,0,0,0,.93,1.57,6.93,6.93,0,0,0,3.88,2.83,16.59,16.59,0,0,0,6.11.58,9.55,9.55,0,0,0,3.1-.82,10.62,10.62,0,0,0,5.47-5.39q6-12.83,12-25.63c.35-.76.67-1.55,1-2.34a18.49,18.49,0,0,0-1.21-15.3l-12.27-23c-.33-.62-.65-1.24-1-1.85a9,9,0,0,0-5.06-4.2,14.31,14.31,0,0,0-4.68-.73,9.17,9.17,0,0,0-6.78,2.87,15.51,15.51,0,0,0-2.62,3.8l-7,13.59c-1.84,3.58-3.65,7.17-5.52,10.73a14.82,14.82,0,0,0-1.9,7.24ZM403.72,96.37H391.51a5.9,5.9,0,0,0-5,2.62,11.8,11.8,0,0,0-.88,1.44c-.52,1-1,2-1.5,3q-4.32,9.12-8.63,18.26c-1,2.16-2,4.31-3,6.47a13.29,13.29,0,0,0-1.22,7.65,17.28,17.28,0,0,0,1.86,5.41q6.53,12.74,13,25.47a13.77,13.77,0,0,0,1.42,2.25,8.51,8.51,0,0,0,7.14,3.5c7.39-.07,14.79,0,22.18,0,.23,0,.47,0,.7,0a2.74,2.74,0,0,0,2.3-1.14,5.4,5.4,0,0,0,.25-6.29,2.92,2.92,0,0,0-2.58-1.42c-.38,0-.75,0-1.13,0H396.89c-1.61,0-1.35.14-2.1-1.31l-9.52-18.6c-1.21-2.38-2.4-4.76-3.66-7.11a4.64,4.64,0,0,1-.19-4.18l.4-.9q1.88-4.23,3.74-8.47c2.43-5.51,4.88-11,7.29-16.55a1.28,1.28,0,0,1,1.36-.88c7,0,13.94,0,20.91,0h1.27a2.71,2.71,0,0,0,2.85-2,7.82,7.82,0,0,0,.32-4.15,3.59,3.59,0,0,0-3.77-3ZM562,98.14a1.76,1.76,0,0,0-.16,1.1v6.88c0,2.34,0,4.68,0,7a2.84,2.84,0,0,0,1.9,2.82,6.53,6.53,0,0,0,5.32,0,2.91,2.91,0,0,0,2-3c0-1.22,0-2.44,0-3.65,0-.28,0-.56,0-.84,0-.68.09-.75.7-.79h.42c2.48,0,5,0,7.44,0,.92,0,.92,0,.94.93,0,.38,0,.75,0,1.13v58.39c0,.42,0,.85,0,1.27a3,3,0,0,0,2.27,3,7.56,7.56,0,0,0,3.89.18,3.59,3.59,0,0,0,3.06-3.78,8,8,0,0,1,0-1V109.75c0-.42,0-.84,0-1.26,0-.67.08-.76.7-.76,2.85,0,5.71,0,8.56,0,.58,0,.66.07.66.65,0,1.49,0,3,0,4.49,0,1.93.89,2.89,2.71,3.39a6,6,0,0,0,4.61-.55,3.2,3.2,0,0,0,1.91-3.13c-.07-4.35,0-8.7,0-13,0-1.66.12-1.47-1.54-1.47H563.35A4.27,4.27,0,0,0,562,98.14Z"/><path class="cls-2" d="M153.13,173.35a2.32,2.32,0,0,0,.72.9l18.86,18.86c.24.23.47.46.72.67a.32.32,0,0,0,.25.05.26.26,0,0,0,.15-.19q0-.63,0-1.26V178.76c0-1.69-.05-1.59,1.62-1.59h6.59c.38,0,.75,0,1.13,0a.45.45,0,0,1,.44.45c0,.33,0,.65,0,1V206.3c0,.28,0,.56,0,.84,0,.45-.16.61-.57.64s-.75,0-1.12,0l-10,0q-9.77,0-19.52,0h-1c-.89,0-1-.07-1-1q0-4,0-8c0-.71.11-.81.82-.82,2.58,0,5.15,0,7.72,0h4c.21-.32,0-.48-.15-.64l-1.38-1.39q-7.5-7.5-15-15c-1.13-1.13-.9-1.22-2.39-.19A64.65,64.65,0,0,1,122,190.83c-2.36.58-4.76.94-7.16,1.3a79.13,79.13,0,0,1-12.31.48c-1.32-.32-2.69-.24-4-.44s-2.86-.39-4.28-.66a64.64,64.64,0,0,1-11.56-3.31,72.19,72.19,0,0,1-6.75-3.1,66.67,66.67,0,0,1-17.7-13.63,64.39,64.39,0,0,1-6.76-8.75,67.75,67.75,0,0,1-6.31-12.49,62.67,62.67,0,0,1-2.91-10.08c-.47-2.33-.77-4.69-1-7.06-.31-3-.2-6.07-.21-9.11a45.12,45.12,0,0,1,.51-5.43,56.38,56.38,0,0,1,1.16-6.46,63.76,63.76,0,0,1,3.7-11.16A64.47,64.47,0,0,1,54,87.75c1.09-1.46,2.25-2.86,3.47-4.22,1-1.11,2-2.22,3.08-3.27a68.56,68.56,0,0,1,7.62-6.39,61.9,61.9,0,0,1,9.61-5.76,62.78,62.78,0,0,1,14-4.92c2.32-.52,4.66-.88,7-1.19a57,57,0,0,1,10.35-.44c1.62.09,3.25.17,4.88.41,1.38.2,2.76.39,4.14.62a56.1,56.1,0,0,1,6,1.35,65.39,65.39,0,0,1,14.1,5.79,57.77,57.77,0,0,1,8.84,5.92c.26.21.52.4.79.59.84.61.86.62,1.62-.15q5.58-5.55,11.12-11.11a3.7,3.7,0,0,0,.38-.42.55.55,0,0,0,0-.76c-.28-.32-.58-.62-.87-.92L149.48,52.16c-.24-.23-.47-.46-.7-.7-.63-.65-.63-.69,0-1.34,1.88-1.9,3.77-3.78,5.66-5.66.47-.47.6-.46,1,0,.28.25.53.52.8.78l10.92,10.93c1.18,1.18,1.15,1.15,2.29,0q5.61-5.62,11.22-11.22c.23-.24.45-.47.69-.7.62-.57.78-.58,1.4,0l5.46,5.46a4.12,4.12,0,0,1,.28.31.6.6,0,0,1,0,.88c-.25.28-.52.54-.78.8L176.42,63c-1.19,1.19-1.18,1.12,0,2.28l10.82,10.82.49.5c1,1,1,1,0,2l-5,5a5.7,5.7,0,0,1-.51.48.58.58,0,0,1-.88,0c-.28-.24-.54-.51-.8-.78q-5.52-5.5-11-11c-1.16-1.16-1.12-1.22-2.29,0L156.74,82.71a8.35,8.35,0,0,0-.59.6c-.3.34-.33.49-.05.86.57.74,1.17,1.46,1.75,2.18A65.31,65.31,0,0,1,170,110.62a53,53,0,0,1,1.36,6.72c.24,2,.42,3.89.59,5.84a42.5,42.5,0,0,1,.16,5c-.06,2.1-.24,4.19-.46,6.28a60.85,60.85,0,0,1-1.47,8.39,62.64,62.64,0,0,1-4.45,12.38,64.57,64.57,0,0,1-5.18,9,58.82,58.82,0,0,1-5.49,6.91C154.37,171.87,153.76,172.63,153.13,173.35ZM50.8,127.17a46.6,46.6,0,0,0,.34,7.28c.37,2.3.8,4.59,1.38,6.85a56.07,56.07,0,0,0,4.09,10.87c.7,1.42,1.51,2.8,2.34,4.15a56.11,56.11,0,0,0,29.12,23.47,53.7,53.7,0,0,0,10.31,2.52,48.53,48.53,0,0,0,7.12.52c1.4,0,2.8,0,4.21,0a29.13,29.13,0,0,0,4.18-.39,46.91,46.91,0,0,0,5.49-1A55.18,55.18,0,0,0,145.44,167a56.55,56.55,0,0,0,7.54-9,52.09,52.09,0,0,0,4.52-8.22,55,55,0,0,0,3-8.45,56.93,56.93,0,0,0,1.34-6.86,52.84,52.84,0,0,0,0-14.79,54.51,54.51,0,0,0-2-9.28A55.62,55.62,0,0,0,145,86.74a53.67,53.67,0,0,0-6.84-5.57,52.06,52.06,0,0,0-9.54-5.31c-1.68-.7-3.37-1.38-5.11-1.93a60.09,60.09,0,0,0-6.5-1.66,47.44,47.44,0,0,0-6.79-.88,57.66,57.66,0,0,0-11.74.47,60.47,60.47,0,0,0-8.86,2,55.49,55.49,0,0,0-12.81,5.95A62.23,62.23,0,0,0,69,85.75a52.75,52.75,0,0,0-5.25,5.43,51.06,51.06,0,0,0-5,6.94,61,61,0,0,0-3.66,7.1A52.53,52.53,0,0,0,51.79,116a44.71,44.71,0,0,0-1,8.47C50.8,125.4,50.8,126.29,50.8,127.17Z"/><path class="cls-3" d="M523.81,114.86l.9-1.35,10.23-15.77a6.49,6.49,0,0,0,.53-.83,1.19,1.19,0,0,1,1.25-.66c3,0,6,0,9,0a1.47,1.47,0,0,1,1.32.61l.1.11c1.29,1.42,1.07.82,1.07,2.69q0,33.84,0,67.67c0,.37,0,.75,0,1.12a4.39,4.39,0,0,1-4,4.35,5.14,5.14,0,0,1-4.07-1.14,3.92,3.92,0,0,1-1.59-3.28c0-.37,0-.75,0-1.12V112.09c0-.47,0-.93,0-1.4,0,0-.07,0-.19-.11-.25.35-.53.71-.78,1.08L526.88,128c-.29.43-.57.86-.88,1.27-1.63,2.18-5.22,1.56-6-.46l-10-16.9q-.31-.54-.66-1.08s-.16-.06-.24,0-.14.09-.14.2c0,.47,0,.93,0,1.4V167.8a15.74,15.74,0,0,1-.07,1.82A3.35,3.35,0,0,1,506,172.7a4.91,4.91,0,0,1-4.88-1.4,4.24,4.24,0,0,1-1.31-3.15c0-.32,0-.65,0-1V99.65a2.61,2.61,0,0,0,0-.28,3.65,3.65,0,0,1,1-2.8.68.68,0,0,1,.6-.29h.84c2.29,0,4.59,0,6.88,0,1.51,0,1.17-.19,2.05,1l6.23,8.83,5.42,7.68A3,3,0,0,0,523.81,114.86Z"/><path class="cls-3" d="M271.27,115l.9-1.34q5.31-8.18,10.62-16.36c.74-1.14.45-1,1.88-1,2.81,0,5.62,0,8.43,0a1.86,1.86,0,0,1,1.57.69c1.29,1.47,1.09.85,1.09,2.7v67.8c0,.33,0,.66,0,1a4.4,4.4,0,0,1-3.95,4.37,5.15,5.15,0,0,1-4.17-1.21,3.9,3.9,0,0,1-1.51-3.18c0-.42,0-.84,0-1.27v-55c0-.49,0-1,0-1.67a4.12,4.12,0,0,0-1,1.2q-5.36,8.14-10.7,16.31c-.25.39-.5.78-.78,1.16a3.58,3.58,0,0,1-3.72,1.42,3.1,3.1,0,0,1-2.27-1.48c-.38-.64-.76-1.29-1.15-1.93q-4.56-7.74-9.13-15.46c-.19-.32-.42-.61-.64-.91,0,0-.18,0-.23.06a.42.42,0,0,0,0,.25c0,.42,0,.85,0,1.27v55.45a15.74,15.74,0,0,1-.06,1.82,3.39,3.39,0,0,1-2.93,3.12,4.86,4.86,0,0,1-4.84-1.51,4.15,4.15,0,0,1-1.24-3c0-.33,0-.66,0-1V99.67c0-.33,0-.65,0-1a1.78,1.78,0,0,1,.32-1c.81-1.36.8-1.36,2.41-1.36,2.34,0,4.68,0,7,0a1.6,1.6,0,0,1,1.48.79q5.16,7.36,10.35,14.69C269.7,112.76,270.42,113.79,271.27,115Z"/><path class="cls-4" d="M358.18,130.94v27.93a17,17,0,0,1-.43,4.32,12.58,12.58,0,0,1-4.43,6.82,9.9,9.9,0,0,1-5.95,2.18H321.12a11.14,11.14,0,0,1-2.51-.19,9.5,9.5,0,0,1-5.13-3,13.33,13.33,0,0,1-3.45-8.39c0-.51,0-1,0-1.54V102.23a5.14,5.14,0,0,1,1.64-3.75A4.9,4.9,0,0,1,317,97.35a3.69,3.69,0,0,1,2.56,3.21,13.37,13.37,0,0,1,.1,2.1q0,27.93,0,55.87a21.55,21.55,0,0,0,.14,2.66,2.68,2.68,0,0,0,2.52,2.57,12.2,12.2,0,0,0,1.81.18h20.63a13.31,13.31,0,0,0,1.54-.12,2.32,2.32,0,0,0,1.9-1.47,3.76,3.76,0,0,0,.36-1.35c0-.84.11-1.68.11-2.52q0-28,0-56c0-.51,0-1,0-1.54a3.23,3.23,0,0,1,1.1-2.35,6,6,0,0,1,6.29-1.16,3,3,0,0,1,2,2.37,9.15,9.15,0,0,1,.14,2.09Z"/><path class="cls-4" d="M182.33,169.86a15.21,15.21,0,0,1,.52-3.74q3.77-12.48,7.53-25,6-20.05,12.06-40.13a5.7,5.7,0,0,1,4-3.9,2.59,2.59,0,0,1,2.16.22,6.22,6.22,0,0,1,3.31,4c1.95,6.92,4,13.83,6,20.74q6.43,22.28,12.88,44.56a18.51,18.51,0,0,1,.65,2.86,2.89,2.89,0,0,1-1.62,3.14,7.57,7.57,0,0,1-3,1,3.61,3.61,0,0,1-2.61-.8,7.59,7.59,0,0,1-2.64-3.71q-1.78-5.53-3.61-11.06c-.5-1.49-.1-1.38-1.91-1.38H196.64c-.64,0-.68,0-.89.67-.76,2.31-1.51,4.62-2.27,6.93-.54,1.64-1.09,3.28-1.63,4.92a6.62,6.62,0,0,1-2.88,3.67,5.38,5.38,0,0,1-4.59.48,2.51,2.51,0,0,1-1.9-2.19C182.41,170.65,182.37,170.18,182.33,169.86Zm24.53-50.17c-.14.39-.22.61-.28.82q-3.86,12.58-7.7,25.17c0,.18-.08.36-.13.54a.34.34,0,0,0,.31.49,7.75,7.75,0,0,0,.84,0l13.59,0a3.23,3.23,0,0,0,1.24-.09.65.65,0,0,0,.06-.54C214.19,143.61,207.39,120.8,206.86,119.69Z"/><path class="cls-4" d="M434.87,132.16v-.42a14.82,14.82,0,0,1,1.9-7.24c1.87-3.56,3.68-7.15,5.52-10.73l7-13.59a15.51,15.51,0,0,1,2.62-3.8,9.17,9.17,0,0,1,6.78-2.87,14.31,14.31,0,0,1,4.68.73,9,9,0,0,1,5.06,4.2c.35.61.67,1.23,1,1.85l12.27,23a18.49,18.49,0,0,1,1.21,15.3c-.29.79-.61,1.58-1,2.34q-6,12.81-12,25.63a10.62,10.62,0,0,1-5.47,5.39,9.55,9.55,0,0,1-3.1.82,16.59,16.59,0,0,1-6.11-.58,6.93,6.93,0,0,1-3.88-2.83,13,13,0,0,1-.93-1.57q-6.42-12.3-12.82-24.62a25.26,25.26,0,0,1-2.43-6.84A17.32,17.32,0,0,1,434.87,132.16Zm39.68-.22c0-.3,0-.58,0-.86a8.58,8.58,0,0,0-1.3-4.8c-.23-.36-.41-.74-.61-1.11-3.35-6.21-6.72-12.42-10-18.65a4,4,0,0,0-3.17-2.22,2.73,2.73,0,0,0-2.8,1.19,9.94,9.94,0,0,0-.76,1.35l-9.35,18.84c-.61,1.21-1.28,2.39-1.83,3.63a8.16,8.16,0,0,0,.23,7.8c.68,1.17,1.33,2.36,1.93,3.58q4.56,9.17,9.1,18.34a11,11,0,0,0,.75,1.34,4.26,4.26,0,0,0,6.93-.11,9.75,9.75,0,0,0,.71-1.36c3-6.81,5.92-13.63,8.9-20.44A14,14,0,0,0,474.55,131.94Z"/><path class="cls-4" d="M403.72,96.37h12.07a3.59,3.59,0,0,1,3.77,3,7.82,7.82,0,0,1-.32,4.15,2.71,2.71,0,0,1-2.85,2h-1.27c-7,0-13.94,0-20.91,0a1.28,1.28,0,0,0-1.36.88c-2.41,5.53-4.86,11-7.29,16.55q-1.87,4.23-3.74,8.47l-.4.9a4.64,4.64,0,0,0,.19,4.18c1.26,2.35,2.45,4.73,3.66,7.11l9.52,18.6c.75,1.45.49,1.31,2.1,1.31H416.4c.38,0,.75,0,1.13,0a2.92,2.92,0,0,1,2.58,1.42,5.4,5.4,0,0,1-.25,6.29,2.74,2.74,0,0,1-2.3,1.14c-.23,0-.47,0-.7,0-7.39,0-14.79-.05-22.18,0a8.51,8.51,0,0,1-7.14-3.5,13.77,13.77,0,0,1-1.42-2.25q-6.51-12.73-13-25.47a17.28,17.28,0,0,1-1.86-5.41,13.29,13.29,0,0,1,1.22-7.65c1-2.16,2-4.31,3-6.47q4.32-9.14,8.63-18.26c.48-1,1-2,1.5-3A11.8,11.8,0,0,1,386.5,99a5.9,5.9,0,0,1,5-2.62h12.21Z"/><path class="cls-4" d="M562,98.14a4.27,4.27,0,0,1,1.38-.08h43.94c1.66,0,1.54-.19,1.54,1.47,0,4.35,0,8.7,0,13a3.2,3.2,0,0,1-1.91,3.13,6,6,0,0,1-4.61.55c-1.82-.5-2.73-1.46-2.71-3.39,0-1.5,0-3,0-4.49,0-.58-.08-.65-.66-.65-2.85,0-5.71,0-8.56,0-.62,0-.68.09-.7.76,0,.42,0,.84,0,1.26v58.12a8,8,0,0,0,0,1,3.59,3.59,0,0,1-3.06,3.78,7.56,7.56,0,0,1-3.89-.18,3,3,0,0,1-2.27-3c0-.42,0-.85,0-1.27V109.78c0-.38,0-.75,0-1.13,0-.91,0-.92-.94-.93-2.48,0-5,0-7.44,0h-.42c-.61,0-.68.11-.7.79,0,.28,0,.56,0,.84,0,1.21,0,2.43,0,3.65a2.91,2.91,0,0,1-2,3,6.53,6.53,0,0,1-5.32,0,2.84,2.84,0,0,1-1.9-2.82c0-2.34,0-4.68,0-7V99.24A1.76,1.76,0,0,1,562,98.14Z"/><path class="cls-5" d="M50.8,127.17c0-.88,0-1.77,0-2.66a44.71,44.71,0,0,1,1-8.47,52.53,52.53,0,0,1,3.34-10.82,61,61,0,0,1,3.66-7.1,51.06,51.06,0,0,1,5-6.94A52.75,52.75,0,0,1,69,85.75a62.23,62.23,0,0,1,7.81-5.93,55.49,55.49,0,0,1,12.81-5.95,60.47,60.47,0,0,1,8.86-2,57.66,57.66,0,0,1,11.74-.47,47.44,47.44,0,0,1,6.79.88,60.09,60.09,0,0,1,6.5,1.66c1.74.55,3.43,1.23,5.11,1.93a52.06,52.06,0,0,1,9.54,5.31A53.67,53.67,0,0,1,145,86.74a55.62,55.62,0,0,1,14.73,23.67,54.51,54.51,0,0,1,2,9.28,52.84,52.84,0,0,1,0,14.79,56.93,56.93,0,0,1-1.34,6.86,55,55,0,0,1-3,8.45A52.09,52.09,0,0,1,153,158a56.55,56.55,0,0,1-7.54,9,55.18,55.18,0,0,1-26.06,14.38,46.91,46.91,0,0,1-5.49,1,29.13,29.13,0,0,1-4.18.39c-1.41,0-2.81,0-4.21,0a48.53,48.53,0,0,1-7.12-.52,53.7,53.7,0,0,1-10.31-2.52A55.75,55.75,0,0,1,59,156.32c-.83-1.35-1.64-2.73-2.34-4.15a56.07,56.07,0,0,1-4.09-10.87c-.58-2.26-1-4.55-1.38-6.85A46.6,46.6,0,0,1,50.8,127.17Zm70-47.72a3.58,3.58,0,0,0-2.85,0,3.29,3.29,0,0,0-2.61,2.88,3.79,3.79,0,0,0,1.82,4.14,3.89,3.89,0,0,0,2.49.86,2.28,2.28,0,0,0,1.13,0,1.57,1.57,0,0,0,1.09-.29,3.66,3.66,0,0,0,2.57-3.31,3.33,3.33,0,0,0-1.79-3.48,3,3,0,0,0-1.85-.81Zm15.69,16.31a3.32,3.32,0,0,0,3.64.55,2.41,2.41,0,0,0,1.21-3.39,5.91,5.91,0,0,0-.64-1.08,8.93,8.93,0,0,0-.63-.75c-.22-.26-.12-.49.22-.59a.74.74,0,0,1,.78.15l1.84,1.52a.67.67,0,0,0,.77.13l.76-.33a18.23,18.23,0,0,1-2.17-1.67c-.26-.2-.5-.42-.76-.61a.64.64,0,0,0-.66-.11,13.73,13.73,0,0,0-2.64,1.21c.13.38.44.53.66.76A6.66,6.66,0,0,1,139.91,93a2,2,0,0,1-.8,2.88c-.12.06-.26.11-.39.16a2.2,2.2,0,0,1-1.92-.69,2.47,2.47,0,0,0-.92-1.51.43.43,0,0,0-.52,0,.46.46,0,0,0-.2.49,1.45,1.45,0,0,0,.24.5A2.59,2.59,0,0,0,136.46,95.76ZM107,85.63a4.16,4.16,0,0,0,2.39-1c.11-.08.22-.21.14-.35a.23.23,0,0,0-.35,0,5.12,5.12,0,0,1-3.58.85c-.25-.12-.52-.21-.76-.35a3.76,3.76,0,0,1-1.25-5.14,2.81,2.81,0,0,1,1.25-1.09,3.26,3.26,0,0,1,4.34,1.35,1.43,1.43,0,0,0,.19.37c0,.06.16.06.25.07s.17-.05.18-.16c0-.47,0-.94,0-1.4,0-.28,0-.62-.1-.81s-.49.08-.74.08a5.74,5.74,0,0,1-.82-.1,15.43,15.43,0,0,0-1.66-.24,5.35,5.35,0,0,0-3.47.86A3.56,3.56,0,0,0,101.37,82,3.94,3.94,0,0,0,104,85.36,5.14,5.14,0,0,0,107,85.63Zm34.54,14.62a2.85,2.85,0,0,0,1.4,1.4,1.85,1.85,0,0,0,2.22.14,2,2,0,0,0,.79-2.11c0-.14-.05-.28-.07-.42s-.12-.46.08-.69a6.41,6.41,0,0,0,1.75.36,1.2,1.2,0,0,0,1.18-1.16,2,2,0,0,0-.39-1.45,3.44,3.44,0,0,0-1.63-1.67,1.77,1.77,0,0,0-.34-.24c-1.65-.56-2.53.08-2.49,1.82,0,.31.17.63-.07,1l-1.18-.1a1.69,1.69,0,0,0-1.69,2.27A1.86,1.86,0,0,0,141.53,100.25Zm16.07,10.69.43.69a.83.83,0,0,0,.67.49,4.12,4.12,0,0,0-.86-1.49,6.1,6.1,0,0,0-3-2.66,3.62,3.62,0,0,0-2.45-.31A3.56,3.56,0,0,0,150,112.6a2.38,2.38,0,0,0,1.07,1.43,2.1,2.1,0,0,0,1.21.63,2.3,2.3,0,0,0,3-2.72,4.33,4.33,0,0,0-1-2.11c-.14-.15-.38-.27-.25-.58a2.6,2.6,0,0,1,.4,0A4.7,4.7,0,0,1,157.6,110.94ZM91.54,79.77c-.42,0-.73.18-1.25.47l1.24.09a8.25,8.25,0,0,1,.81,2.36c.24.75.39,1.53.66,2.28a2.58,2.58,0,0,0,2.27,1.8,5.38,5.38,0,0,0,3.1-.63,2.38,2.38,0,0,0,1.36-2.27,15.65,15.65,0,0,0-.13-1.67c-.09-.78-.2-1.56-.32-2.35a1.06,1.06,0,0,1,.68-1.34c.13,0,.36-.11.22-.42l-1.9.28a1.87,1.87,0,0,0-.41,0c-.27,0-.73,0-.7.3s.5.18.78.22A1.39,1.39,0,0,1,98.54,80c0,.37.12.74.17,1.11.12.83.27,1.66.34,2.5a2,2,0,0,1-1.7,2.34,3.28,3.28,0,0,1-.41.08,1.93,1.93,0,0,1-2.55-1.53c-.37-1.3-.65-2.63-1-3.94a1,1,0,0,1,.13-.8l.5-.22c.11,0,.3,0,.23-.23s-.21-.13-.35-.12a2,2,0,0,0-1,.29A3.37,3.37,0,0,0,91.54,79.77ZM80,93.25a3.82,3.82,0,0,0,2-1.41,3,3,0,0,0,1-1.5,3.91,3.91,0,0,0-2.85-5.19,5.64,5.64,0,0,0-6,3.95,3.55,3.55,0,0,0,.4,2.56A4.15,4.15,0,0,0,80,93.25Zm47.23-11.58a1.61,1.61,0,0,0-1.07-.36c.08.44.45.48.67.68a1.2,1.2,0,0,1,0,1.19c-.56,1.34-1.09,2.69-1.63,4-.09.21-.19.43-.3.63a.83.83,0,0,1-.92.48l-.14,0c-.13,0-.2,0-.19.08s0,.22.1.24c.6.25,1.2.5,1.81.73.19.07.4.3.62,0-.7-.89-.72-.9-.35-1.85.46-1.17,1-2.33,1.45-3.49a1.84,1.84,0,0,1,.27-.39,36.52,36.52,0,0,1,2.38,7,2.57,2.57,0,0,0,.41,1.11c.44-.2.54-.6.72-.91.77-1.33,1.52-2.69,2.29-4s.71-1.22,2.15-1a5.79,5.79,0,0,0-2.13-1.32l-.57-.37c-.12-.07-.26-.12-.32.06a.28.28,0,0,0,.09.24,4.6,4.6,0,0,0,.45.32,1.15,1.15,0,0,1,0,1.08,31.57,31.57,0,0,1-1.92,3.4c-.2-.57-.36-1-.48-1.42a49.18,49.18,0,0,0-1.72-4.86,1.84,1.84,0,0,0-1.26-1.18C127.55,81.72,127.41,81.7,127.27,81.67ZM61.15,101.92,65.6,105c.5.34.85.7.5,1.38-.1.18,0,.44,0,.67a9.32,9.32,0,0,1-2.59,1,11.38,11.38,0,0,1-2.65.63c.08-.59.17-1.1.21-1.6a1.56,1.56,0,0,0-.85-1.63,1.6,1.6,0,0,0-1.82.24A3.94,3.94,0,0,0,57,107.39a6.57,6.57,0,0,0-1.11,2.11,14.19,14.19,0,0,0-1.28,2.77c0,.06,0,.16.07.25a1,1,0,0,0,.2-.15c.55-.89.88-.8,1.74-.41,1.32.59,2.65,1.17,4,1.77a9.09,9.09,0,0,1,.95.56c.07.34-.12.7.07,1a1.66,1.66,0,0,0,.48-.89c.37-.79.75-1.58,1.12-2.38a.13.13,0,0,0,0-.12.73.73,0,0,0-.13-.1,2.2,2.2,0,0,0-.27.26.82.82,0,0,1-1.21.22c-.52-.29-1.08-.53-1.61-.8a.37.37,0,0,1,0-.66,4,4,0,0,1,.86-.42c1.14-.39,2.29-.77,3.44-1.11a1.32,1.32,0,0,0,.86-.63c.31-.56.66-1.1,1-1.65.23-.33.48-.66.71-1a38.57,38.57,0,0,1,3.55-4.52c.52-.58.52-.6.12-1.32-.19-.32-.4-.63-.61-.94a.36.36,0,0,0-.2.1c-.17.21,0,.45,0,.67a2.4,2.4,0,0,1-.24,1.49A15.41,15.41,0,0,1,67.5,104a.36.36,0,0,1-.5.09,17.18,17.18,0,0,1-2.25-1.76l1.62-2a1,1,0,0,1,1.12-.38c.2.06.49.19.58-.13,0-.11-.17-.31-.3-.43-.44-.41-.9-.81-1.37-1.2-.09-.07-.24-.16-.34,0a.33.33,0,0,0,0,.27,1.08,1.08,0,0,1,0,1.3c-.55.75-1.12,1.48-1.77,2.25-.71-.5-1.34-1-1.94-1.47a.38.38,0,0,1,0-.6c.65-.8,1.28-1.61,2-2.39a1.18,1.18,0,0,1,1.49-.43c.13.06.4.14.43-.15a.47.47,0,0,0-.15-.35,2.37,2.37,0,0,0-1.1-.75,37.6,37.6,0,0,0-4.3,5.46,2.52,2.52,0,0,0-.81,1.38C60.36,102.41,60.6,101.86,61.15,101.92Zm69.45,42.52c.21-.29.14-.49-.2-.59a.57.57,0,0,0-.62.1l-.93,0c-.08-.15-.14-.15-.19,0-.89.55-1.91.31-2.87.43-.2,0-.31-.2-.27-.4.08-.4.46-.8.2-1.2a2.4,2.4,0,0,0-1.45-1.21c-.75-.13-1.58-.27-2.15.56-.17.25-.53.36-.79.55a.61.61,0,0,0-.22.86,1,1,0,0,1,0,1.26c-.2.31-.12.44.31.56s.56.1.57.48.26.44.57.44.84.07,1.26,0a.9.9,0,0,1,.94.44.64.64,0,0,0,.81.31c.41-.08.69.22.75.63s.07.74.13,1.11a2,2,0,0,0,.78,1.28,13.74,13.74,0,0,1,3,3.05,1,1,0,0,0,1.08.49,2.56,2.56,0,0,0,.27-.05.92.92,0,0,1,1.21.61,3.46,3.46,0,0,0,1.73,1.77,1.13,1.13,0,0,0-.33-1.27l-.1-.55a.6.6,0,0,0,0-.67,1.12,1.12,0,0,1,.06-1.72,3,3,0,0,0,.34-.61.92.92,0,0,1,.81-.46c1.5,0,3,0,4.49,0a1,1,0,0,1,.76.27,1.21,1.21,0,0,0,1.66.09,4.3,4.3,0,0,1,.75-.36.27.27,0,0,0,.1-.21.32.32,0,0,0-.19-.17,12.88,12.88,0,0,0-2.24,0,2.2,2.2,0,0,1-.82,0,9.93,9.93,0,0,0-3.31-1,1.55,1.55,0,0,1-.62-.3,3.81,3.81,0,0,0-2.24-.67l-1.26,0a1,1,0,0,1-.64-.23c-.42-.37-.85-.71-1.27-1.07l.1-.69a.53.53,0,0,0,.16-.49Zm-21.8,12-.35-.61c-.15-.28-.64-.21-.64-.66s.54-.39.8-.59a3.41,3.41,0,0,0,1.12-3.12.64.64,0,0,0-.2-.36c-.59-.37-1.19-.84-1.93-.56a7.91,7.91,0,0,0-2.22,1.09,2.34,2.34,0,0,1-1.78.56,2.15,2.15,0,0,0-2.15,1.22,3.48,3.48,0,0,1-1.17,1.18c-.23.15-.65,0-.67-.27a5.83,5.83,0,0,0-.73-1.81c-.3-.7-.31-.69.33-1.22a4.46,4.46,0,0,0,.7-.67,1.16,1.16,0,0,1,1.23-.47,1.61,1.61,0,0,0,1,0,4.1,4.1,0,0,1,1.32-.39.6.6,0,0,0,.55-.7c-.14-.66.65-1.3,0-2-.07-.06.07-.34.12-.51.15-.49,0-1-.5-1a2.83,2.83,0,0,1-1.8-.94,4.45,4.45,0,0,0-1.11-.56,1.71,1.71,0,0,0-1.74.1c-.54.35-1,.82-1.53,1.2s-.39.82-.56,1.23c-.11.24.2.49.39.7a.81.81,0,0,1,.25.62,1,1,0,0,0,.27.77.73.73,0,0,1,.12,1,1,1,0,0,0-.11.92c.15.56.09.62-.44.79-.31.1-.62.2-.94.27a12.52,12.52,0,0,0-5.63,2.79,1.77,1.77,0,0,1-.22.16.6.6,0,0,1-.74-.18c-.19-.37-.36-.76-.54-1.14a6.28,6.28,0,0,0-1.44-2.19,4.67,4.67,0,0,1-1-1.68.51.51,0,0,1,.43-.71,4.35,4.35,0,0,1,1.39.1,1.26,1.26,0,0,0,1.07-.17c.55-.51,1.11-1,1-1.91a5.87,5.87,0,0,1,0-.84A1.9,1.9,0,0,0,89,144c-.93-.11-1.77-.52-2.68-.69a1,1,0,0,0-1.26.68,1.7,1.7,0,0,0,.82,1.89c.15.1.35.16.38.36a1.5,1.5,0,0,1-.1,1c-.1.19-.51.21-.89,0a2.4,2.4,0,0,1-.91-.64,1.48,1.48,0,0,0-.66-.5c-1-.35-1.78-1.17-2.85-1.4-.43-.47-1.08-.19-1.58-.47A4.48,4.48,0,0,0,76.4,144c-.06,0-.1.13-.15.19s.15.14.23.15c.37,0,.74,0,1.11.08a2,2,0,0,1,.82.11c.78.49,1.66.79,2.46,1.23.61.34,1.18.75,1.76,1.12a.35.35,0,0,1,.16.47c-.18.38-.4.74-.59,1.11a.65.65,0,0,1-.57.35,15,15,0,0,1-3.35.09,2,2,0,0,0-1.37.13,3.86,3.86,0,0,1-1.48.35,13.31,13.31,0,0,1-1.67.05.53.53,0,0,0-.53.53,1.26,1.26,0,0,0,.18.8,1.86,1.86,0,0,1,.06,1.85c-.24.4-.87.22-1.32.21-1.13,0-1.69.85-2.4,1.48a.3.3,0,0,0,0,.25.31.31,0,0,0,.24.1.88.88,0,0,0,.4-.1,4,4,0,0,1,2.69-.53,1.5,1.5,0,0,1,1.38.78,9.88,9.88,0,0,0,2.68,3.14.88.88,0,0,1,.35,1,4,4,0,0,1-.76,1.62c-.14.19-.36.4-.35.59,0,.7.14,1.39.23,2.07,0,0,.15.11.22.1a.29.29,0,0,0,.18-.18,7.53,7.53,0,0,0,.08-.83,3.5,3.5,0,0,1,.79-2.05,3.09,3.09,0,0,0,.52-.65.9.9,0,0,1,1.11-.62,2.12,2.12,0,0,0,1.88-.67c.69-.69,1.47-1.26,1.6-2.36,0-.41.5-.77.41-1.27a2.24,2.24,0,0,1,.69-2,.55.55,0,0,0,.12-.24.88.88,0,0,1,.93-.69c.37,0,.55-.27.73-.57s.53-.47.86-.09a7.7,7.7,0,0,1,2,3.74c0,.14,0,.28.06.42a.51.51,0,0,0,.78.3,17.82,17.82,0,0,1,3-1.7,25.18,25.18,0,0,1,2.45-1c.38-.14.61.09.55.51a4.6,4.6,0,0,1-1.28,2.26c-.62.76-1.08,1.61-1.68,2.37a4.33,4.33,0,0,0-.55,1.12,19.58,19.58,0,0,1-1.21,2.48,14.4,14.4,0,0,1-2.75,3.32,1.42,1.42,0,0,0-.61.9c.46.23,1,.38,1.19.92-.41.35-.84.7-1.24,1.07-.1.09-.17.27,0,.38a.47.47,0,0,0,.37.13c.39,0,.62-.38.93-.58a3.18,3.18,0,0,1,2-.82,1.68,1.68,0,0,0,.81-.09c.37-.18.17-.58.23-.89a2,2,0,0,1,.11-.4,19.31,19.31,0,0,0,.81-2.36,14.49,14.49,0,0,1,1-2.74c.13-.22.25-.39.52-.35s.36.27.42.5a9.2,9.2,0,0,1,.16,2.51,4.56,4.56,0,0,1-1.33,3.25c-.31.3-.28.53,0,.82.07.06.16.1.23.16.46.4.51.53.19,1-.15.24-.43.52-.21.72s.34.77.69,1a.3.3,0,0,0,.26,0,.24.24,0,0,0,.13-.2c-.06-.37-.17-.74-.2-1.11,0-.54.18-.81.75-1s.78-.25.81-.9a9.39,9.39,0,0,1,0-1.68,12.52,12.52,0,0,0,.17-2.93c0-1.4,0-2.8,0-4.21a7.38,7.38,0,0,1,1.43-3.87.62.62,0,0,1,.48-.23.5.5,0,0,1,.39.51c0,.33,0,.66,0,1s0,.75,0,1.12a.31.31,0,0,0,.35.34c.22,0,.32-.15.35-.36a5.11,5.11,0,0,1,0-.55.65.65,0,0,1,.18-.37,2.35,2.35,0,0,1,1.45-.4c.36,0,.34.41.47.64a3.46,3.46,0,0,0,.34.44.61.61,0,0,0,1.1-.12,1.21,1.21,0,0,0,.09-.67c0-.37.21-.54.54-.35s.77.07,1.17-.08,1-.57,1.59-.39c.12,0,.29,0,.28.22a.65.65,0,0,1-.14.37.76.76,0,0,1-.34.24,8.52,8.52,0,0,0-2.37,1.37c-1.27.86-2.32,2-3.63,2.8-.5.31-.83.57-1.34.16a.33.33,0,0,0-.19.14.24.24,0,0,0,.1.22,1.93,1.93,0,0,0,2.08-.22c1.66-1.26,3.37-2.44,5.06-3.65l.12-.07a.46.46,0,0,1,.58.22,1.28,1.28,0,0,1,.09.54,2.51,2.51,0,0,1-.71,1.34,7.93,7.93,0,0,0-1,1.17c-.74,1.22-1.47,2.46-2.12,3.73a25.33,25.33,0,0,1-2.49,3.51A14.81,14.81,0,0,1,99,168.23c-.86.88-.47.91.23,1.46.1.08.27.08.39.14a4.52,4.52,0,0,1,.58.39.32.32,0,0,1,0,.57,5.75,5.75,0,0,0-.49.5.25.25,0,0,0,.14.42.9.9,0,0,0,.8-.09,7.65,7.65,0,0,0,.74-.65.45.45,0,0,1,.51-.09l4.13,1.6a2.92,2.92,0,0,0,2.32,0,.93.93,0,0,1,1.22.25c.3.29.59.6.91.87a.38.38,0,0,0,.51,0c.13-.11,0-.22,0-.36-.18-.67-.78-1.17-.77-1.91a3.71,3.71,0,0,0-.36-1.34,28.59,28.59,0,0,1-1.24-3.54,14.4,14.4,0,0,1-.51-3.88c0-.93,0-1.87,0-2.8a2.59,2.59,0,0,0-.21-1.22,2.59,2.59,0,0,1-.18-1.38c0-.42.29-.55.67-.5a3.79,3.79,0,0,1,.6,1.08,1.47,1.47,0,0,0,1,.92.4.4,0,0,0,.5-.12.43.43,0,0,0,0-.37C110,157.54,109.66,156.72,108.8,156.44Zm20.66,10.73a3,3,0,0,0,1.08-.92.87.87,0,0,1,1-.27c.14,0,.26.11.4.14.34.09.52-.1.41-.46a5.05,5.05,0,0,1-.24-1.09c0-.58-.1-.63-.67-.64-1.26,0-2.41-.7-3.69-.59A5.41,5.41,0,0,0,126,163a2,2,0,0,1-.79-.26,32.13,32.13,0,0,0-3.5-1.68,4.28,4.28,0,0,0-1.57-.56,1.34,1.34,0,0,1-1.1-.75,6.83,6.83,0,0,1-.57-1,32.23,32.23,0,0,1-.94-3.63c-.06-.23.18-.44.43-.42a.84.84,0,0,1,.28,0,2.62,2.62,0,0,0,1.89.08,9.12,9.12,0,0,1,1.82-.08,1.28,1.28,0,0,0,.81-.14s0-.07.05-.11,0-.13,0-.14a1.07,1.07,0,0,0-.38-.13c-.89,0-1.78-.06-2.67,0a3,3,0,0,1-1.71-.42,4.57,4.57,0,0,0-1.28-.54c-.9-.21-1.08-.47-1.11-1.35,0-.7,0-1.4,0-2.1a1,1,0,0,0-.41-.85,1.54,1.54,0,0,0-2,.09c-.32.32-.72.54-1,.91a2.28,2.28,0,0,0-.37,2.35,1.21,1.21,0,0,0,1.87.7,1.08,1.08,0,0,1,1.35.29c.2.29.17.55-.2,1a3.46,3.46,0,0,0-.61,1.23c-.25.73,0,1.58-.59,2.24-.09.11,0,.36,0,.55s0,.44.21.47.32-.24.4-.45a8.27,8.27,0,0,0,.43-1.91,1.82,1.82,0,0,1,.18-.51c0-.07.14-.1.22-.13a.28.28,0,0,1,.36.14,12.21,12.21,0,0,1,.57,1.84,2.62,2.62,0,0,0,.44,1.44c.19.2.06.44,0,.65a1.27,1.27,0,0,0,.32,1.53,1.71,1.71,0,0,0,.51.46c.88.49,1,1.41,1.27,2.22a14.32,14.32,0,0,0,.44,1.61,3.1,3.1,0,0,1,.23,1.51c-.09.93-.22,1.86-.33,2.78-.07.56-.17,1.11-.22,1.67s0,1,.7,1.15c.3.05.41.36.55.6s.17.45.39.56a.8.8,0,0,0,.39.09c.17,0,.2-.19.16-.33s-.17-.53-.23-.8.08-.51.43-.57.75.08,1.12-.26a20.47,20.47,0,0,1-.76-2.6c0-.08-.08-.17-.14-.24a2.43,2.43,0,0,1-.47-1.71,9.8,9.8,0,0,0-.16-1.53,9.22,9.22,0,0,1,0-2.1c0-.22.27-.37.51-.35.43,0,.71.43,1.16.45a13.24,13.24,0,0,1,5.26,1.7,4.3,4.3,0,0,0,.87.4c.41.11.33.65.68.84A2.73,2.73,0,0,1,129.46,167.17ZM71,98.23c-.11,0-.33-.1-.56-.13a.23.23,0,0,0-.19.14.27.27,0,0,0,0,.25c.33.26.66.51,1,.74s.47.53.82.41c.15,0,.16-.42.31-.57a4.86,4.86,0,0,1,.81-.52,5.07,5.07,0,0,0,1.59-1.36,2.75,2.75,0,0,0,.58-1.69,1.72,1.72,0,0,0-1.72-1.83,5.77,5.77,0,0,0-1.8.22c-.68.18-1.35.37-2,.53a2.07,2.07,0,0,1-.69.08.9.9,0,0,1-.75-1.33,2.3,2.3,0,0,1,.93-1A2.55,2.55,0,0,1,72,92c.14.07.36.21.43-.08a.43.43,0,0,0-.13-.36c-.44-.42-.88-.83-1.34-1.23-.1-.09-.32-.1-.35.06-.11.67-.68.84-1.17,1.09A4,4,0,0,0,67.68,93a2.06,2.06,0,0,0,0,2.38,1.82,1.82,0,0,0,2.15.54c.72-.19,1.44-.41,2.16-.61a3.44,3.44,0,0,1,1.39-.14,1.14,1.14,0,0,1,.9,1.57,2.16,2.16,0,0,1-.76,1A3.08,3.08,0,0,1,71,98.23ZM149,100.4c.42.34.76.17,1.07.22a2.67,2.67,0,0,1,2.1,2.33,1.47,1.47,0,0,1-.83,1.49,2.2,2.2,0,0,1-.94.26,5.9,5.9,0,0,1-1.39-.13c-1.41-.31-2.82-.6-4.29-.91a1.53,1.53,0,0,0,.14.5A45.1,45.1,0,0,1,147.5,108c.12.19.26.4.54.38a2.44,2.44,0,0,0,1.47-.36c-.5-.15-.92-.23-1.16-.59-.59-.88-1.2-1.75-1.74-2.62.22-.26.4-.15.57-.11,1,.26,2,.51,3,.8a4.64,4.64,0,0,0,1.38.19,1.91,1.91,0,0,0,2-2.42,4.07,4.07,0,0,0-1.82-2.72A2.33,2.33,0,0,0,149,100.4ZM85.23,90.16c.24.13.44,0,.64-.13a37.93,37.93,0,0,1,4.93-1.94,2.31,2.31,0,0,0,.52-.19c.11-.07.24-.2.24-.3a4,4,0,0,0-.15-2,4.79,4.79,0,0,0-.36.73,2.26,2.26,0,0,1-1.48,1.55c-.43.18-.85.39-1.29.54-1,.33-1,.61-1.54-.6s-1.12-2.56-1.64-3.86-.62-1,.53-2.23a19.06,19.06,0,0,0-3.84,1.68c.17.07.25.14.3.12a1,1,0,0,1,1.33.62c.69,1.53,1.41,3.05,2.11,4.57a.85.85,0,0,1-.27,1.22S85.24,90.07,85.23,90.16ZM115,78.61a9.7,9.7,0,0,0-3.9-.53c0,.18,0,.2.12.24.87.3.91.32.84,1.15-.13,1.58-.3,3.15-.46,4.73a5.1,5.1,0,0,1-.13.68.59.59,0,0,1-.48.45c-.18,0-.42,0-.56.28A14.51,14.51,0,0,0,114,86c-1-.67-1-.67-.87-1.73s.28-2.31.43-3.46c.06-.47.15-.92.22-1.38a.75.75,0,0,1,.59-.69C114.54,78.65,114.77,78.64,115,78.61Z"/><path class="cls-5" d="M206.86,119.69c.53,1.11,7.33,23.92,7.93,26.47a.65.65,0,0,1-.06.54,3.23,3.23,0,0,1-1.24.09l-13.59,0a7.75,7.75,0,0,1-.84,0,.34.34,0,0,1-.31-.49c.05-.18.08-.36.13-.54q3.84-12.59,7.7-25.17C206.64,120.3,206.72,120.08,206.86,119.69Z"/><path class="cls-5" d="M474.55,131.94a14,14,0,0,1-1.3,6.52c-3,6.81-5.93,13.63-8.9,20.44a9.75,9.75,0,0,1-.71,1.36,4.26,4.26,0,0,1-6.93.11A11,11,0,0,1,456,159q-4.56-9.18-9.1-18.34c-.6-1.22-1.25-2.41-1.93-3.58a8.16,8.16,0,0,1-.23-7.8c.55-1.24,1.22-2.42,1.83-3.63l9.35-18.84a9.94,9.94,0,0,1,.76-1.35,2.73,2.73,0,0,1,2.8-1.19,4,4,0,0,1,3.17,2.22c3.32,6.23,6.69,12.44,10,18.65.2.37.38.75.61,1.11a8.58,8.58,0,0,1,1.3,4.8C474.55,131.36,474.55,131.64,474.55,131.94Z"/><path class="cls-6" d="M108.44,156.65c-.38-.05-.64.08-.67.5a2.59,2.59,0,0,0,.18,1.38,2.59,2.59,0,0,1,.21,1.22c0,.93.06,1.87,0,2.8a14.4,14.4,0,0,0,.51,3.88,28.59,28.59,0,0,0,1.24,3.54,3.71,3.71,0,0,1,.36,1.34c0,.74.59,1.24.77,1.91,0,.14.12.25,0,.36a.38.38,0,0,1-.51,0c-.32-.27-.61-.58-.91-.87a.93.93,0,0,0-1.22-.25,2.92,2.92,0,0,1-2.32,0l-4.13-1.6a.45.45,0,0,0-.51.09,7.65,7.65,0,0,1-.74.65.9.9,0,0,1-.8.09.25.25,0,0,1-.14-.42,5.75,5.75,0,0,1,.49-.5.32.32,0,0,0,0-.57,4.52,4.52,0,0,0-.58-.39c-.12-.06-.29-.06-.39-.14-.7-.55-1.09-.58-.23-1.46a14.81,14.81,0,0,0,1.32-1.43,25.33,25.33,0,0,0,2.49-3.51c.65-1.27,1.38-2.51,2.12-3.73a7.93,7.93,0,0,1,1-1.17,2.51,2.51,0,0,0,.71-1.34,1.28,1.28,0,0,0-.09-.54.46.46,0,0,0-.58-.22l-.12.07c-1.69,1.21-3.4,2.39-5.06,3.65a1.93,1.93,0,0,1-2.08.22.24.24,0,0,1-.1-.22.33.33,0,0,1,.19-.14c.51.41.84.15,1.34-.16,1.31-.81,2.36-1.94,3.63-2.8a8.52,8.52,0,0,1,2.37-1.37.76.76,0,0,0,.34-.24.65.65,0,0,0,.14-.37c0-.18-.16-.18-.28-.22-.61-.18-1.08.19-1.59.39s-.72.35-1.17.08-.55,0-.54.35a1.21,1.21,0,0,1-.09.67.61.61,0,0,1-1.1.12,3.46,3.46,0,0,1-.34-.44c-.13-.23-.11-.6-.47-.64a2.35,2.35,0,0,0-1.45.4.65.65,0,0,0-.18.37,5.11,5.11,0,0,0,0,.55c0,.21-.13.36-.35.36a.31.31,0,0,1-.35-.34c0-.37,0-.74,0-1.12s0-.65,0-1a.5.5,0,0,0-.39-.51.62.62,0,0,0-.48.23,7.38,7.38,0,0,0-1.43,3.87c0,1.41,0,2.81,0,4.21a12.52,12.52,0,0,1-.17,2.93,9.39,9.39,0,0,0,0,1.68c0,.65-.1.71-.81.9s-.8.43-.75,1c0,.37.14.74.2,1.11a.24.24,0,0,1-.13.2.3.3,0,0,1-.26,0c-.35-.25-.35-.72-.69-1s.06-.48.21-.72c.32-.5.27-.63-.19-1-.07-.06-.16-.1-.23-.16-.3-.29-.33-.52,0-.82a4.56,4.56,0,0,0,1.33-3.25,9.2,9.2,0,0,0-.16-2.51c-.06-.23-.14-.46-.42-.5s-.39.13-.52.35a14.49,14.49,0,0,0-1,2.74,19.31,19.31,0,0,1-.81,2.36,2,2,0,0,0-.11.4c-.06.31.14.71-.23.89a1.68,1.68,0,0,1-.81.09,3.18,3.18,0,0,0-2,.82c-.31.2-.54.54-.93.58a.47.47,0,0,1-.37-.13c-.12-.11,0-.29,0-.38.4-.37.83-.72,1.24-1.07-.22-.54-.73-.69-1.19-.92a1.42,1.42,0,0,1,.61-.9,14.4,14.4,0,0,0,2.75-3.32,19.58,19.58,0,0,0,1.21-2.48,4.33,4.33,0,0,1,.55-1.12c.6-.76,1.06-1.61,1.68-2.37a4.6,4.6,0,0,0,1.28-2.26c.06-.42-.17-.65-.55-.51a25.18,25.18,0,0,0-2.45,1,17.82,17.82,0,0,0-3,1.7.51.51,0,0,1-.78-.3c0-.14,0-.28-.06-.42a7.7,7.7,0,0,0-2-3.74c-.33-.38-.58-.35-.86.09s-.36.55-.73.57a.88.88,0,0,0-.93.69.55.55,0,0,1-.12.24,2.24,2.24,0,0,0-.69,2c.09.5-.36.86-.41,1.27-.13,1.1-.91,1.67-1.6,2.36a2.12,2.12,0,0,1-1.88.67.9.9,0,0,0-1.11.62,3.09,3.09,0,0,1-.52.65,3.5,3.5,0,0,0-.79,2.05,7.53,7.53,0,0,1-.08.83.29.29,0,0,1-.18.18c-.07,0-.22-.05-.22-.1-.09-.68-.2-1.37-.23-2.07,0-.19.21-.4.35-.59a4,4,0,0,0,.76-1.62.88.88,0,0,0-.35-1,9.88,9.88,0,0,1-2.68-3.14,1.5,1.5,0,0,0-1.38-.78,4,4,0,0,0-2.69.53.88.88,0,0,1-.4.1.31.31,0,0,1-.24-.1.3.3,0,0,1,0-.25c.71-.63,1.27-1.5,2.4-1.48.45,0,1.08.19,1.32-.21a1.86,1.86,0,0,0-.06-1.85,1.26,1.26,0,0,1-.18-.8.53.53,0,0,1,.53-.53,13.31,13.31,0,0,0,1.67-.05,3.86,3.86,0,0,0,1.48-.35,2,2,0,0,1,1.37-.13,15,15,0,0,0,3.35-.09.65.65,0,0,0,.57-.35c.19-.37.41-.73.59-1.11a.35.35,0,0,0-.16-.47c-.58-.37-1.15-.78-1.76-1.12-.8-.44-1.68-.74-2.46-1.23a2,2,0,0,0-.82-.11c-.37,0-.74,0-1.11-.08-.08,0-.15-.09-.23-.15s.09-.18.15-.19a4.48,4.48,0,0,1,2.87.19c.5.28,1.15,0,1.58.47,1.07.23,1.84,1.05,2.85,1.4a1.48,1.48,0,0,1,.66.5,2.4,2.4,0,0,0,.91.64c.38.21.79.19.89,0a1.5,1.5,0,0,0,.1-1c0-.2-.23-.26-.38-.36a1.7,1.7,0,0,1-.82-1.89,1,1,0,0,1,1.26-.68c.91.17,1.75.58,2.68.69a1.9,1.9,0,0,1,1.67,1.92,5.87,5.87,0,0,0,0,.84c.16.89-.4,1.4-1,1.91a1.26,1.26,0,0,1-1.07.17,4.35,4.35,0,0,0-1.39-.1.51.51,0,0,0-.43.71,4.67,4.67,0,0,0,1,1.68,6.28,6.28,0,0,1,1.44,2.19c.18.38.35.77.54,1.14a.6.6,0,0,0,.74.18,1.77,1.77,0,0,0,.22-.16,12.52,12.52,0,0,1,5.63-2.79c.32-.07.63-.17.94-.27.53-.17.59-.23.44-.79a1,1,0,0,1,.11-.92.73.73,0,0,0-.12-1,1,1,0,0,1-.27-.77.81.81,0,0,0-.25-.62c-.19-.21-.5-.46-.39-.7.17-.41.13-.92.56-1.23s1-.85,1.53-1.2a1.71,1.71,0,0,1,1.74-.1,4.45,4.45,0,0,1,1.11.56,2.83,2.83,0,0,0,1.8.94c.46,0,.65.56.5,1,0,.17-.19.45-.12.51.65.65-.14,1.29,0,2a.6.6,0,0,1-.55.7,4.1,4.1,0,0,0-1.32.39,1.61,1.61,0,0,1-1,0,1.16,1.16,0,0,0-1.23.47,4.46,4.46,0,0,1-.7.67c-.64.53-.63.52-.33,1.22a5.83,5.83,0,0,1,.73,1.81c0,.27.44.42.67.27a3.48,3.48,0,0,0,1.17-1.18,2.15,2.15,0,0,1,2.15-1.22,2.34,2.34,0,0,0,1.78-.56,7.91,7.91,0,0,1,2.22-1.09c.74-.28,1.34.19,1.93.56a.64.64,0,0,1,.2.36,3.41,3.41,0,0,1-1.12,3.12c-.26.2-.79,0-.8.59s.49.38.64.66l.35.61Z"/><path class="cls-6" d="M129.46,167.17a2.73,2.73,0,0,0-.43-.33c-.35-.19-.27-.73-.68-.84a4.3,4.3,0,0,1-.87-.4,13.24,13.24,0,0,0-5.26-1.7c-.45,0-.73-.41-1.16-.45-.24,0-.5.13-.51.35a9.22,9.22,0,0,0,0,2.1,9.8,9.8,0,0,1,.16,1.53,2.43,2.43,0,0,0,.47,1.71c.06.07.14.16.14.24a20.47,20.47,0,0,0,.76,2.6c-.37.34-.77.19-1.12.26s-.51.25-.43.57.17.53.23.8,0,.31-.16.33a.8.8,0,0,1-.39-.09c-.22-.11-.27-.36-.39-.56s-.25-.55-.55-.6c-.7-.12-.75-.61-.7-1.15s.15-1.11.22-1.67c.11-.92.24-1.85.33-2.78a3.1,3.1,0,0,0-.23-1.51,14.32,14.32,0,0,1-.44-1.61c-.26-.81-.39-1.73-1.27-2.22a1.71,1.71,0,0,1-.51-.46,1.27,1.27,0,0,1-.32-1.53c.11-.21.24-.45,0-.65a2.62,2.62,0,0,1-.44-1.44,12.21,12.21,0,0,0-.57-1.84.28.28,0,0,0-.36-.14c-.08,0-.19.06-.22.13a1.82,1.82,0,0,0-.18.51,8.27,8.27,0,0,1-.43,1.91c-.08.21-.09.51-.4.45s-.2-.29-.21-.47-.08-.44,0-.55c.54-.66.34-1.51.59-2.24a3.46,3.46,0,0,1,.61-1.23c.37-.43.4-.69.2-1a1.08,1.08,0,0,0-1.35-.29,1.21,1.21,0,0,1-1.87-.7,2.28,2.28,0,0,1,.37-2.35c.31-.37.71-.59,1-.91a1.54,1.54,0,0,1,2-.09,1,1,0,0,1,.41.85c0,.7,0,1.4,0,2.1,0,.88.21,1.14,1.11,1.35a4.57,4.57,0,0,1,1.28.54,3,3,0,0,0,1.71.42c.89,0,1.78,0,2.67,0a1.07,1.07,0,0,1,.38.13s0,.09,0,.14,0,.09-.05.11a1.28,1.28,0,0,1-.81.14,9.12,9.12,0,0,0-1.82.08,2.62,2.62,0,0,1-1.89-.08.84.84,0,0,0-.28,0c-.25,0-.49.19-.43.42a32.23,32.23,0,0,0,.94,3.63,6.83,6.83,0,0,0,.57,1,1.34,1.34,0,0,0,1.1.75,4.28,4.28,0,0,1,1.57.56,32.13,32.13,0,0,1,3.5,1.68,2,2,0,0,0,.79.26,5.41,5.41,0,0,1,1.77.39c1.28-.11,2.43.57,3.69.59.57,0,.63.06.67.64a5.05,5.05,0,0,0,.24,1.09c.11.36-.07.55-.41.46-.14,0-.26-.11-.4-.14a.87.87,0,0,0-1,.27A3,3,0,0,1,129.46,167.17Z"/><path class="cls-6" d="M128.85,144l.93,0,.82.49.06,1.37a.53.53,0,0,1-.16.49l-.24-.5c.1-.75.1-.75-.5-1.05,0-.32-.17-.46-.4-.4-.67.18-1.32.42-2,.66-.12,0-.14.25,0,.35a4,4,0,0,0,.7.46,4.86,4.86,0,0,0,1.17.44c.5.1.63.71,1.15.73.42.36.85.7,1.27,1.07a1,1,0,0,0,.64.23l1.26,0a3.81,3.81,0,0,1,2.24.67,1.55,1.55,0,0,0,.62.3,9.93,9.93,0,0,1,3.31,1,2.2,2.2,0,0,0,.82,0,12.88,12.88,0,0,1,2.24,0,.32.32,0,0,1,.19.17.27.27,0,0,1-.1.21,4.3,4.3,0,0,0-.75.36,1.21,1.21,0,0,1-1.66-.09,1,1,0,0,0-.76-.27c-1.5,0-3,0-4.49,0a.92.92,0,0,0-.81.46,3,3,0,0,1-.34.61,1.12,1.12,0,0,0-.06,1.72.6.6,0,0,1,0,.67c-.38-.06-.39-.49-.65-.66-.11-.06-.29-.11-.37-.06a.32.32,0,0,0-.07.48,6.16,6.16,0,0,0,.69.84c.15.16.33,0,.5,0a1.13,1.13,0,0,1,.33,1.27,3.46,3.46,0,0,1-1.73-1.77.92.92,0,0,0-1.21-.61,2.56,2.56,0,0,1-.27.05,1,1,0,0,1-1.08-.49,13.74,13.74,0,0,0-3-3.05,2,2,0,0,1-.78-1.28c-.06-.37-.07-.74-.13-1.11s-.34-.71-.75-.63a.64.64,0,0,1-.81-.31.9.9,0,0,0-.94-.44c-.42,0-.84,0-1.26,0s-.56-.08-.57-.44-.29-.4-.57-.48-.51-.25-.31-.56a1,1,0,0,0,0-1.26.61.61,0,0,1,.22-.86c.26-.19.62-.3.79-.55.57-.83,1.4-.69,2.15-.56a2.4,2.4,0,0,1,1.45,1.21c.26.4-.12.8-.2,1.2,0,.2.07.42.27.4,1-.12,2,.12,2.87-.43l.1.05Zm-4.12,1.54c-.16,0-.28,0-.3.19s0,.23.1.24a.3.3,0,0,0,.31-.22C124.88,145.64,124.84,145.57,124.73,145.52Z"/><path class="cls-3" d="M61.48,114.29a9.09,9.09,0,0,0-.95-.56c-1.31-.6-2.64-1.18-4-1.77-.86-.39-1.19-.48-1.74.41a1,1,0,0,1-.2.15c0-.09-.1-.19-.07-.25a14.19,14.19,0,0,1,1.28-2.77l.55,0c0,.12.08.31.18.36A13.34,13.34,0,0,0,59,111a3.6,3.6,0,0,0,.66-1.29,5.15,5.15,0,0,0,.32-1.21,1.3,1.3,0,0,0-.68-1.41,1.21,1.21,0,0,0-1.43.15c-.22.17-.41.37-.62.55l-.32-.44a3.94,3.94,0,0,1,1.41-1.69,1.6,1.6,0,0,1,1.82-.24,1.56,1.56,0,0,1,.85,1.63c0,.5-.13,1-.21,1.6a11.38,11.38,0,0,0,2.65-.63,9.32,9.32,0,0,0,2.59-1v0c-.33.55-.68,1.09-1,1.65a1.32,1.32,0,0,1-.86.63c-1.15.34-2.3.72-3.44,1.11a4,4,0,0,0-.86.42.37.37,0,0,0,0,.66c.53.27,1.09.51,1.61.8a.82.82,0,0,0,1.21-.22,2.2,2.2,0,0,1,.27-.26.73.73,0,0,1,.13.1.13.13,0,0,1,0,.12c-.37.8-.75,1.59-1.13,2.38Z"/><path class="cls-3" d="M66.06,107.09c0-.23-.06-.49,0-.67.35-.68,0-1-.5-1.38l-4.44-3.12c-.16-.23-.5-.29-.56-.6a37.6,37.6,0,0,1,4.3-5.46,2.37,2.37,0,0,1,1.1.75.47.47,0,0,1,.15.35c0,.29-.3.21-.43.15a1.18,1.18,0,0,0-1.49.43c-.68.78-1.31,1.59-2,2.39a.38.38,0,0,0,0,.6c.6.51,1.23,1,1.94,1.47.65-.77,1.22-1.5,1.77-2.25a1.08,1.08,0,0,0,0-1.3.33.33,0,0,1,0-.27c.1-.17.25-.08.34,0,.47.39.93.79,1.37,1.2.13.12.33.32.3.43-.09.32-.38.19-.58.13a1,1,0,0,0-1.12.38l-1.62,2A17.18,17.18,0,0,0,67,104.08a.36.36,0,0,0,.5-.09,15.41,15.41,0,0,0,1.87-2.45,2.4,2.4,0,0,0,.24-1.49c0-.22-.16-.46,0-.67a.36.36,0,0,1,.2-.1c.21.31.42.62.61.94.4.72.4.74-.12,1.32a38.57,38.57,0,0,0-3.55,4.52c-.23.34-.48.67-.71,1Z"/><path class="cls-3" d="M133.43,84.49a5.79,5.79,0,0,1,2.13,1.32c-1.44-.2-1.45-.2-2.15,1s-1.52,2.69-2.29,4c-.18.31-.28.71-.72.91a2.57,2.57,0,0,1-.41-1.11,36.52,36.52,0,0,0-2.38-7,1.84,1.84,0,0,0-.27.39c-.49,1.16-1,2.32-1.45,3.49-.37.95-.35,1,.35,1.85-.22.26-.43,0-.62,0-.61-.23-1.21-.48-1.81-.73-.06,0-.09-.15-.1-.24s.06-.12.19-.08l.14,0a.83.83,0,0,0,.92-.48c.11-.2.21-.42.3-.63.54-1.34,1.07-2.69,1.63-4a1.2,1.2,0,0,0,0-1.19l.4-.32c.14,0,.28,0,.41.09a1.84,1.84,0,0,1,1.26,1.18,49.18,49.18,0,0,1,1.72,4.86c.12.43.28.85.48,1.42a31.57,31.57,0,0,0,1.92-3.4,1.15,1.15,0,0,0,0-1.08Z"/><path class="cls-3" d="M80,93.25a4.15,4.15,0,0,1-5.48-1.59,3.55,3.55,0,0,1-.4-2.56,5.64,5.64,0,0,1,6-3.95A3.91,3.91,0,0,1,83,90.34a3,3,0,0,1-1,1.5l-.59-.13a3.22,3.22,0,0,0,.4-2.42A6.72,6.72,0,0,0,80.65,87,2.68,2.68,0,0,0,78,86a2.93,2.93,0,0,0-2.42,3.93c.68,1.67,1.77,3,3.79,3A.7.7,0,0,1,80,93.25Z"/><path class="cls-3" d="M71,98.23a3.08,3.08,0,0,0,2.52-.49,2.16,2.16,0,0,0,.76-1,1.14,1.14,0,0,0-.9-1.57,3.44,3.44,0,0,0-1.39.14c-.72.2-1.44.42-2.16.61a1.82,1.82,0,0,1-2.15-.54,2.06,2.06,0,0,1,0-2.38,4,4,0,0,1,1.74-1.57c.49-.25,1.06-.42,1.17-1.09,0-.16.25-.15.35-.06.46.4.9.81,1.34,1.23a.43.43,0,0,1,.13.36c-.07.29-.29.15-.43.08a2.55,2.55,0,0,0-2.66.18,2.3,2.3,0,0,0-.93,1,.9.9,0,0,0,.75,1.33,2.07,2.07,0,0,0,.69-.08c.68-.16,1.35-.35,2-.53a5.77,5.77,0,0,1,1.8-.22,1.72,1.72,0,0,1,1.72,1.83,2.75,2.75,0,0,1-.58,1.69,5.07,5.07,0,0,1-1.59,1.36,4.86,4.86,0,0,0-.81.52c-.15.15-.16.52-.31.57-.35.12-.56-.24-.82-.41s-.69-.48-1-.74a.27.27,0,0,1,0-.25.23.23,0,0,1,.19-.14C70.64,98.13,70.86,98.21,71,98.23Z"/><path class="cls-3" d="M98.28,78.37l1.9-.28c.14.31-.09.38-.22.42a1.06,1.06,0,0,0-.68,1.34c.12.79.23,1.57.32,2.35a15.65,15.65,0,0,1,.13,1.67,2.38,2.38,0,0,1-1.36,2.27,5.38,5.38,0,0,1-3.1.63A2.58,2.58,0,0,1,93,85c-.27-.75-.42-1.53-.66-2.28a8.25,8.25,0,0,0-.81-2.36v-.56a3.37,3.37,0,0,1,1.35-.34c.23,0,.49,0,.65.28a1,1,0,0,0-.13.8c.33,1.31.61,2.64,1,3.94A1.93,1.93,0,0,0,96.94,86a3.28,3.28,0,0,0,.41-.08,2,2,0,0,0,1.7-2.34c-.07-.84-.22-1.67-.34-2.5,0-.37-.12-.74-.17-1.11A1.39,1.39,0,0,0,98,78.89Z"/><path class="cls-3" d="M150,112.6a3.56,3.56,0,0,1,2.43-4.94,3.62,3.62,0,0,1,2.45.31,6.1,6.1,0,0,1,3,2.66l-.24.31a4.7,4.7,0,0,0-3.23-1.72,2.6,2.6,0,0,0-.4,0c-.13.31.11.43.25.58a4.33,4.33,0,0,1,1,2.11,2.3,2.3,0,0,1-3,2.72,2.1,2.1,0,0,1-1.21-.63c.21-.32.53-.3.84-.3s.64,0,.86-.27.62-.4.9-.64a1.56,1.56,0,0,0,.55-1.09,2.52,2.52,0,0,0-.93-2.2.84.84,0,0,0-.91-.16,3.56,3.56,0,0,0-1.72,1.34,2.07,2.07,0,0,0-.29,1.85Z"/><path class="cls-3" d="M148.49,96.32a2,2,0,0,1,.39,1.45,1.2,1.2,0,0,1-1.18,1.16,6.41,6.41,0,0,1-1.75-.36c-.2.23-.11.47-.08.69s0,.28.07.42a2,2,0,0,1-.79,2.11,1.85,1.85,0,0,1-2.22-.14l.34-.3c1.26-.3,1.49-.6,1.37-1.81a5.89,5.89,0,0,0-.19-1.1.76.76,0,0,0-.95-.59,2,2,0,0,0-1.31.74,1.77,1.77,0,0,0-.24,1.6l-.42.06a1.86,1.86,0,0,1-.44-.86,1.69,1.69,0,0,1,1.69-2.27l1.18.1c.24-.36.08-.68.07-1,0-1.74.84-2.38,2.49-1.82a1.77,1.77,0,0,1,.34.24l-.34.29a1.17,1.17,0,0,0-1,.39,1.36,1.36,0,0,0-.26,1,10.34,10.34,0,0,0,.22,1.08.6.6,0,0,0,.47.46,4.39,4.39,0,0,0,.81.11A1.13,1.13,0,0,0,148,96.87a3.38,3.38,0,0,0,0-.55Z"/><path class="cls-3" d="M149,100.4a2.33,2.33,0,0,1,2.68.12,4.07,4.07,0,0,1,1.82,2.72,1.91,1.91,0,0,1-2,2.42,4.64,4.64,0,0,1-1.38-.19c-1-.29-2-.54-3-.8-.17,0-.35-.15-.57.11.54.87,1.15,1.74,1.74,2.62.24.36.66.44,1.16.59a2.44,2.44,0,0,1-1.47.36c-.28,0-.42-.19-.54-.38a45.1,45.1,0,0,0-2.62-3.81,1.53,1.53,0,0,1-.14-.5c1.47.31,2.88.6,4.29.91a5.9,5.9,0,0,0,1.39.13,2.2,2.2,0,0,0,.94-.26,1.47,1.47,0,0,0,.83-1.49,2.67,2.67,0,0,0-2.1-2.33C149.78,100.57,149.44,100.74,149,100.4Z"/><path class="cls-3" d="M85.23,90.16c0-.09,0-.21,0-.24a.85.85,0,0,0,.27-1.22c-.7-1.52-1.42-3-2.11-4.57a1,1,0,0,0-1.33-.62s-.13-.05-.3-.12a19.06,19.06,0,0,1,3.84-1.68c-1.15,1.27-1,1-.53,2.23s1.11,2.57,1.64,3.86.57.93,1.54.6c.44-.15.86-.36,1.29-.54a2.26,2.26,0,0,0,1.48-1.55,4.79,4.79,0,0,1,.36-.73,4,4,0,0,1,.15,2c0,.1-.13.23-.24.3a2.31,2.31,0,0,1-.52.19A37.93,37.93,0,0,0,85.87,90C85.67,90.12,85.47,90.29,85.23,90.16Z"/><path class="cls-3" d="M107,85.63a5.14,5.14,0,0,1-3-.27A3.94,3.94,0,0,1,101.37,82,3.56,3.56,0,0,1,103,78.52a5.35,5.35,0,0,1,3.47-.86,15.43,15.43,0,0,1,1.66.24,5.74,5.74,0,0,0,.82.1c.25,0,.53-.37.74-.08s.09.53.1.81c0,.46,0,.93,0,1.4,0,.11-.07.18-.18.16s-.21,0-.25-.07a1.43,1.43,0,0,1-.19-.37,3.26,3.26,0,0,0-4.34-1.35,2.81,2.81,0,0,0-1.25,1.09,3.76,3.76,0,0,0,1.25,5.14c.24.14.51.23.76.35s.42.28.69.29A.77.77,0,0,1,107,85.63Z"/><path class="cls-3" d="M115,78.61c-.23,0-.46,0-.68.09a.75.75,0,0,0-.59.69c-.07.46-.16.91-.22,1.38-.15,1.15-.28,2.31-.43,3.46s-.15,1.06.87,1.73a14.51,14.51,0,0,1-3.52-.35c.14-.31.38-.23.56-.28a.59.59,0,0,0,.48-.45,5.1,5.1,0,0,0,.13-.68c.16-1.58.33-3.15.46-4.73.07-.83,0-.85-.84-1.15-.11,0-.17-.06-.12-.24A9.7,9.7,0,0,1,115,78.61Z"/><path class="cls-3" d="M138.72,96.06c.13,0,.27-.1.39-.16a2,2,0,0,0,.8-2.88,6.66,6.66,0,0,0-1.07-1.47c-.22-.23-.53-.38-.66-.76a13.73,13.73,0,0,1,2.64-1.21.64.64,0,0,1,.66.11c.26.19.5.41.76.61A18.23,18.23,0,0,0,144.41,92l-.76.33a.67.67,0,0,1-.77-.13L141,90.65a.74.74,0,0,0-.78-.15c-.34.1-.44.33-.22.59a8.93,8.93,0,0,1,.63.75,5.91,5.91,0,0,1,.64,1.08,2.41,2.41,0,0,1-1.21,3.39C139.64,96.26,139.12,96.49,138.72,96.06Z"/><path class="cls-3" d="M117.13,86.48a3.79,3.79,0,0,1-1.82-4.14,3.29,3.29,0,0,1,2.61-2.88h2.85l-.34.33c-.28,0-.56,0-.84,0a2.64,2.64,0,0,0-2.25,1.64c-.67,1.62-.9,3.22.34,4.71A.54.54,0,0,1,117.13,86.48Z"/><path class="cls-3" d="M120.75,87.33a2.28,2.28,0,0,1-1.13,0c.16-.37.69-.21.85-.59a1.82,1.82,0,0,1,.23-.15c1.69-.91,2.08-2.51,2.19-4.23a1.91,1.91,0,0,0-.46-1.29c-.2-.25-.42-.49-.63-.74l.82-.09a3.33,3.33,0,0,1,1.79,3.48A3.66,3.66,0,0,1,121.84,87C121.46,87.09,121,86.93,120.75,87.33Z"/><path class="cls-2" d="M130.26,145.8l.24.5c0,.23-.07.46-.1.69-.52,0-.65-.63-1.15-.73a4.86,4.86,0,0,1-1.17-.44,4,4,0,0,1-.7-.46c-.12-.1-.1-.31,0-.35.64-.24,1.29-.48,2-.66.23-.06.44.08.4.4-.4.14-.79.27-1.18.42a.26.26,0,0,0-.1.22.3.3,0,0,0,.14.22A3.66,3.66,0,0,0,130.26,145.8Z"/><path class="cls-2" d="M108.44,156.65l.36-.21c.86.28,1.18,1.1,1.7,1.72a.43.43,0,0,1,0,.37.4.4,0,0,1-.5.12,1.47,1.47,0,0,1-1-.92A3.79,3.79,0,0,0,108.44,156.65Z"/><path class="cls-3" d="M136.46,95.76a2.59,2.59,0,0,1-1.06-.88,1.45,1.45,0,0,1-.24-.5.46.46,0,0,1,.2-.49.43.43,0,0,1,.52,0,2.47,2.47,0,0,1,.92,1.51Z"/><path class="cls-4" d="M107,85.63a.77.77,0,0,0-.71-.26c-.27,0-.53,0-.69-.29a5.12,5.12,0,0,0,3.58-.85.23.23,0,0,1,.35,0c.08.14,0,.27-.14.35A4.16,4.16,0,0,1,107,85.63Z"/><path class="cls-4" d="M136.46,95.76l.34-.39a2.2,2.2,0,0,0,1.92.69c.4.43.92.2,1.38.25A3.32,3.32,0,0,1,136.46,95.76Z"/><path class="cls-4" d="M120.47,86.75c-.16.38-.69.22-.85.59a3.89,3.89,0,0,1-2.49-.86.54.54,0,0,0,.55-.33A3.55,3.55,0,0,0,120.47,86.75Z"/><path class="cls-4" d="M81.47,91.71l.59.13a3.82,3.82,0,0,1-2,1.41.7.7,0,0,0-.63-.33A4.24,4.24,0,0,0,81.47,91.71Z"/><path class="cls-4" d="M57,107.39l.32.44-.88,1.69-.55,0A6.57,6.57,0,0,1,57,107.39Z"/><path class="cls-4" d="M150,112.6l.37,0a1.78,1.78,0,0,0,2.27.91h.13c-.22.3-.54.26-.86.27s-.63,0-.84.3A2.38,2.38,0,0,1,150,112.6Z"/><path class="cls-4" d="M146.52,94.94l.34-.29a3.44,3.44,0,0,1,1.63,1.67H148A3.58,3.58,0,0,0,146.52,94.94Z"/><path class="cls-3" d="M134.14,154.74c-.17,0-.35.21-.5,0A6.16,6.16,0,0,1,133,154a.32.32,0,0,1,.07-.48c.08-.05.26,0,.37.06.26.17.27.6.65.66Z"/><path class="cls-4" d="M122.62,80.25l-.82.09-1.37-.57.34-.33A3,3,0,0,1,122.62,80.25Z"/><path class="cls-4" d="M143.27,101.35l-.34.3a2.85,2.85,0,0,1-1.4-1.4l.42-.06A3.29,3.29,0,0,0,143.27,101.35Z"/><path class="cls-6" d="M157.6,110.94l.24-.31a4.12,4.12,0,0,1,.86,1.49.83.83,0,0,1-.67-.49Z"/><path class="cls-6" d="M60.6,101.32c.06.31.4.37.56.6-.56-.06-.8.49-1.37.78A2.52,2.52,0,0,1,60.6,101.32Z"/><path class="cls-4" d="M120.77,79.45h-2.85A3.58,3.58,0,0,1,120.77,79.45Z"/><path class="cls-6" d="M93.54,79.71c-.16-.24-.42-.23-.65-.28a2,2,0,0,1,1-.29c.14,0,.3,0,.35.12s-.12.19-.23.23Z"/><path class="cls-6" d="M98.28,78.37l-.33.52c-.28,0-.73.18-.78-.22s.43-.26.7-.3A1.87,1.87,0,0,1,98.28,78.37Z"/><path class="cls-6" d="M133.43,84.49l-.35.25a4.6,4.6,0,0,1-.45-.32.28.28,0,0,1-.09-.24c.06-.18.2-.13.32-.06Z"/><path class="cls-4" d="M91.54,79.77v.56l-1.24-.09C90.81,80,91.12,79.73,91.54,79.77Z"/><path class="cls-6" d="M127.27,81.67l-.4.32c-.22-.2-.59-.24-.67-.68A1.61,1.61,0,0,1,127.27,81.67Z"/><path class="cls-2" d="M130.6,144.44l-.82-.49a.57.57,0,0,1,.62-.1C130.74,144,130.81,144.15,130.6,144.44Z"/><path class="cls-4" d="M61.48,114.29l.54.16a1.58,1.58,0,0,1-.47.89C61.36,115,61.55,114.63,61.48,114.29Z"/><path class="cls-4" d="M120.75,87.33c.28-.4.71-.24,1.09-.29A1.57,1.57,0,0,1,120.75,87.33Z"/><path class="cls-2" d="M128.85,144l-.09.07-.1-.05C128.71,143.83,128.77,143.83,128.85,144Z"/><path class="cls-5" d="M130.26,145.8a3.66,3.66,0,0,1-1.64-.19.3.3,0,0,1-.14-.22.26.26,0,0,1,.1-.22c.39-.15.78-.28,1.18-.42C130.36,145.05,130.36,145.05,130.26,145.8Z"/><path class="cls-2" d="M124.73,145.52c.11,0,.15.12.11.21a.3.3,0,0,1-.31.22s-.11-.16-.1-.24S124.57,145.5,124.73,145.52Z"/><path class="cls-5" d="M56.39,109.52l.88-1.69c.21-.18.4-.38.62-.55a1.21,1.21,0,0,1,1.43-.15,1.3,1.3,0,0,1,.68,1.41,5.15,5.15,0,0,1-.32,1.21A3.6,3.6,0,0,1,59,111a13.34,13.34,0,0,1-2.45-1.16C56.47,109.83,56.44,109.64,56.39,109.52Z"/><path class="cls-5" d="M81.47,91.71a4.24,4.24,0,0,1-2.06,1.21c-2-.06-3.11-1.35-3.79-3A2.93,2.93,0,0,1,78,86a2.68,2.68,0,0,1,2.61,1,6.72,6.72,0,0,1,1.22,2.34A3.22,3.22,0,0,1,81.47,91.71Z"/><path class="cls-5" d="M152.76,113.46h-.13a1.78,1.78,0,0,1-2.27-.91,2.07,2.07,0,0,1,.29-1.85,3.56,3.56,0,0,1,1.72-1.34.84.84,0,0,1,.91.16,2.52,2.52,0,0,1,.93,2.2,1.56,1.56,0,0,1-.55,1.09C153.38,113.06,153.06,113.25,152.76,113.46Z"/><path class="cls-5" d="M143.27,101.35a3.29,3.29,0,0,1-1.32-1.16,1.77,1.77,0,0,1,.24-1.6,2,2,0,0,1,1.31-.74.76.76,0,0,1,.95.59,5.89,5.89,0,0,1,.19,1.1C144.76,100.75,144.53,101.05,143.27,101.35Z"/><path class="cls-5" d="M146.52,94.94A3.58,3.58,0,0,1,148,96.32a3.38,3.38,0,0,1,0,.55A1.13,1.13,0,0,1,146.78,98a4.39,4.39,0,0,1-.81-.11.6.6,0,0,1-.47-.46,10.34,10.34,0,0,1-.22-1.08,1.36,1.36,0,0,1,.26-1A1.17,1.17,0,0,1,146.52,94.94Z"/><path class="cls-5" d="M120.43,79.77l1.37.57c.21.25.43.49.63.74a1.91,1.91,0,0,1,.46,1.29c-.11,1.72-.5,3.32-2.19,4.23a1.82,1.82,0,0,0-.23.15,3.55,3.55,0,0,1-2.79-.6c-1.24-1.49-1-3.09-.34-4.71a2.64,2.64,0,0,1,2.25-1.64C119.87,79.77,120.15,79.78,120.43,79.77Z"/></g></g></svg>