<svg xmlns="http://www.w3.org/2000/svg" viewBox="0 0 654.55 275.57"><defs><style>.cls-1{fill:#fefefe;}.cls-2{fill:#b3539d;}.cls-3{fill:#8f3d83;}.cls-4{fill:#b3549e;}.cls-5{fill:#6fafc0;}.cls-6{fill:#deccdf;}</style></defs><title>Recurso 7</title><g id="Capa_2" data-name="Capa 2"><g id="Capa_1-2" data-name="Capa 1"><path class="cls-1" d="M180.64,206.15c1.28-.25,1.61-1.11,1.46-2.28,2-1,1.87-2.66,1.45-4.43.48-1.7-.17-3.17-.91-4.62q-3.15-6.12-6.31-12.24c-1.59-3.07-1.48-5.92.88-8.6,1.38-1.56,2.69-1.63,4,0a15.55,15.55,0,0,1,2,2.69,99.35,99.35,0,0,1,8.56,20.57c2.92,10.75.08,20.58-5.95,29.65-4.94,5.09-9.84,10.17-16.59,13-24.77,10.54-48.44,6.34-71.49-5.33-8.67-4.38-17.2-8.73-26.88-10.79-10.48-2.23-20.33-6.14-26.34-16-1.16-1.9-2.55-1.67-4-.38-5.32,4.7-5.37,14.41.17,19.08,7.12,6,15,10.63,24.25,12.67.85.19,1.85.16,2.37,1.32-14,2.56-26-1.3-36.8-9.85-7.15-5.67-12.17-13.07-16.85-20.77-2.93-4.83-2.66-9.35.46-14s6.15-9.37,9.21-14.06a9.16,9.16,0,0,0,1.8-5.21c0-3-1.16-5.71-3.73-6.83s-4.11,1.53-5.29,3.27C9.93,182.08,4.32,191.47.85,202A16.17,16.17,0,0,0,0,206.72c-.19,21,8.54,37.93,25.73,49.5,27.15,18.28,57.53,22.13,89.44,17.65,26-3.65,45.78-17.76,63-36.36,2.78-3,5.76-5.87,7.79-9.49a19.3,19.3,0,0,0,1.51-1.63c17-22.5,26.64-48.09,30.31-75.78a550.22,550.22,0,0,0,4.72-82,164.77,164.77,0,0,0-2.87-29.81,99.51,99.51,0,0,1-12.08,19.34c-12.42,15-27.47,25.21-47.77,25.38-2.89,0-2.47,1.72-2.35,3.45a340.87,340.87,0,0,1,0,48.15c-1.26,17.15-3.71,34.12-8.67,50.66a159.09,159.09,0,0,1-10.13,25.29c5.91-.45,13.14-4,17.77-9,2-2.18,3.29-1.67,4.58.52,3.2,5.44,1.64,11.55-3.71,14.92a46.76,46.76,0,0,1-21.69,7.53c11.12,5.84,30.52-.19,39.82-12.18,1.08-.77,2.13-1.56,2.21-3.05a2.65,2.65,0,0,0,2.25-3C180.51,207,180.64,206.67,180.64,206.15Z"/><path class="cls-1" d="M479.89,216.46c-.27-4.34.67-9.62-.51-14.77-4.91-21.43-32.94-30-49.53-15.09-2.59,2.33-3.7,2.47-6.3,0-8.72-8.33-19.32-10.15-30.51-6.49-10.88,3.55-18,11.21-19.68,22.74-1.25,8.37-.28,16.91-.4,25.37-.07,4.71,2.1,7.13,6.15,7.2s6.52-2.6,6.55-7.28c0-6.6-.07-13.2,0-19.81.15-10.24,7.56-17.53,17.52-17.36s16.84,7.4,16.85,17.56c0,7.1-.06,14.2,0,21.3a6.14,6.14,0,0,0,8.84,5.76c3.07-1.4,4.24-4,4.25-7.28,0-7,.07-14,0-20.93a14.41,14.41,0,0,1,3.77-9.88,17.26,17.26,0,0,1,19.3-5.07c6.86,2.55,11,8.5,11.1,16.13.07,7.1-.07,14.21.05,21.31.07,4,2.58,6.24,6.4,6.22s6.08-2.35,6.12-6.4S479.89,221.45,479.89,216.46Z"/><path class="cls-1" d="M368.26,217c0-3.87.08-7.73,0-11.59a29.3,29.3,0,0,0-18.58-26.18c-12-4.4-24.09-1.33-32.57,8.25a29,29,0,0,0,36,44.25c1.2-.67,2.6-2.5,3.64.4,1.14,3.2,3.85,3.74,6.76,3.07a5.64,5.64,0,0,0,4.75-5.87C368.29,225.23,368.26,221.12,368.26,217Z"/><path class="cls-1" d="M561.2,195.61v-13.9c0-6.72.08-13.45,0-20.17-.06-3.71-2.33-6.12-5.55-6.34-3.75-.25-5.93,1.57-6.57,5.54a18.5,18.5,0,0,0-.2,3q0,31.2,0,62.4a21,21,0,0,0,.16,3c.63,4.24,3,6.49,6.48,6.22s5.67-2.74,5.7-6.95c0-4.73.17-9.47,0-14.19-.13-2.88,1.06-2.81,3-1.92,6.8,3.1,10.11,8.53,10.57,15.85.27,4.21,2.83,7.05,6.26,6.86,3.7-.2,5.91-2.89,5.75-7.25-.41-11.14-5.49-19.64-15.33-26,1-.84,2-1.49,2.76-2.25,4.35-4.09,8.75-8.14,13-12.36a6.21,6.21,0,0,0,.05-9c-2.47-2.4-5.39-2.28-8.26.4-2,1.87-3.92,3.83-5.9,5.73C569.35,187.8,565.63,191.36,561.2,195.61Z"/><path class="cls-1" d="M485.77,196.9h.09c0,3.49-.09,7,0,10.46.42,14.49,12.15,27,26.16,27.91,15.72,1.06,29-8.84,31.38-23.74,1.49-9.15.22-18.4.31-27.6,0-2.75-1.73-4.64-4.45-5.33-4.22-1.06-7.69,1.84-7.76,6.66-.1,7,0,14,0,20.93a15.82,15.82,0,0,1-2.23,8.55,16.83,16.83,0,0,1-19.06,7.62c-7.27-2-12.2-8.61-12.34-16.79-.12-6.86,0-13.71,0-20.57,0-4.33-2-6.51-5.88-6.52-3.68,0-6.09,2.45-6.17,6.45S485.77,192.91,485.77,196.9Z"/><path class="cls-1" d="M157.36,21.43c-.06,12.55,9.35,22.18,21.69,22.18A21.81,21.81,0,0,0,179,0,21.46,21.46,0,0,0,157.36,21.43Z"/><path class="cls-1" d="M618.47,189.81h9.34c4.26-.17,6.77-2.53,6.74-6.34s-2.5-6.18-6.75-6.21c-4.85,0-9.71,0-14.56,0-6.4,0-6.4,0-7.2-6.24,0-.24-.07-.49-.12-.73-.85-4.54-2.81-6.36-6.53-6.09s-5.28,2.35-5.28,7.08c0,11.7.4,23.42-.11,35.1-.7,16.42,13.12,32.53,35.61,29.28a6,6,0,0,0,5.41-6.48,6.28,6.28,0,0,0-6.2-5.78c-2.36-.1-4.74.05-7.1,0-8.12-.35-15.18-7.24-15.5-15.36-.21-5.22,0-10.46-.08-15.69,0-2,.74-2.57,2.63-2.5C612,189.89,615.24,189.81,618.47,189.81Z"/><path class="cls-1" d="M278.58,214c-1.12-2.13-1.78-3.32-2.39-4.53-4.6-9.25-9.11-18.54-13.81-27.74-1.91-3.73-5.58-4.86-8.74-3.09s-4.07,5.14-2.27,8.68c7.4,14.52,14.88,29,22.32,43.5,1.05,2,2.13,3.89,4.93,3.87a6.17,6.17,0,0,0,5.84-3.94q10.53-22.05,20.87-44.22a6,6,0,0,0-2.77-8c-2.94-1.54-6.15-.68-8.07,2.4a63.23,63.23,0,0,0-3,6C287.31,195.7,283.16,204.42,278.58,214Z"/><path class="cls-1" d="M145.72,171.82c.38-6-.18-6.61-6.06-6.5a35.25,35.25,0,0,0-34.43,35.12c0,4.94.48,5.4,5.52,5.41a25.16,25.16,0,0,0,2.6-.14C132.21,203.65,144.5,190.78,145.72,171.82Z"/><path class="cls-1" d="M95.31,199.73a35.52,35.52,0,0,0-6.86-20.08c-7.24-9.61-17-14.17-28.92-14.44-3.19-.07-4.55.93-4.78,4.64-1,16.73,12.32,35.32,34.51,36.1C94.56,206.14,95.33,205.39,95.31,199.73Z"/><path class="cls-1" d="M86.37,157.35c-.77,10.53,4.16,19.78,11.57,26.37,1.34,1.2,2.31,1.92,4.1.5,16-12.78,16-40.55,0-53.35-1.55-1.23-2.52-1-3.84.23C90.45,138.15,85.83,146.58,86.37,157.35Z"/><path class="cls-1" d="M641.32,205.55c0,7.58-.05,15.16,0,22.75,0,3.69,3,6.89,6.38,7a6.75,6.75,0,0,0,6.77-6.92q.12-22.37,0-44.75c0-3.76-3.53-7.18-6.81-7.1-3.46.09-6.32,3.37-6.34,7.37C641.3,191.12,641.32,198.33,641.32,205.55Z"/><path class="cls-1" d="M246.56,206.15c0-7.72.07-15.44,0-23.16a7,7,0,0,0-6.58-6.4,6.65,6.65,0,0,0-6.28,6.57q-.07,22.59,0,45.2c0,3.66,3.12,6.93,6.4,6.95,3.53,0,6.49-3.16,6.5-7.12C246.58,220.85,246.56,213.5,246.56,206.15Z"/><path class="cls-1" d="M24.46,220c2-4.69,3.69-8.56,5.35-12.43,1-2.29,1.45-4.88-.17-6.75-2-2.33-1.15-3.63.49-5.48,3-3.42,5.37-7.25,4.55-12.13-.24-1.46-.7-2.95-2.52-3.33s-2.74.38-3.69,1.79c-3.55,5.25-7.25,10.4-10.81,15.64-1.94,2.85-2.61,6.09-1,9.2C18.9,210.84,21.57,215,24.46,220Z"/><path class="cls-1" d="M315.33,264.8l-.79.22c-.55-.66-1.13-1.3-1.64-2q-5.67-7.65-11.32-15.3c-.86-1.17-1.87-2.11-3.44-1.64s-1.19,2-1.2,3.15c-.05,6-.14,11.95.05,17.92.05,1.81-1.41,5.05,1.68,5.14,3.7.1,1.81-3.4,1.93-5.23.29-4.45.09-8.94.09-13.41a5.31,5.31,0,0,1,2.45,1.91c3.78,5.09,7.59,10.17,11.32,15.3.91,1.26,2,2,3.45,1.52s1-1.84,1-2.87q.06-10.26,0-20.54c0-1.26.5-2.94-1.72-3s-1.84,1.55-1.85,2.87C315.32,254.18,315.33,259.49,315.33,264.8Z"/><path class="cls-1" d="M468.56,265.39l-.72.25Q461.39,257,455,248.31c-1-1.34-1.89-2.87-3.84-2.21s-1,2.35-1,3.58q-.12,9.72,0,19.43c0,1.3-.82,3.34,1.68,3.36s1.71-2,1.73-3.32c.07-5.36,0-10.73,0-17.08,5.12,6.91,9.58,12.88,14,18.89.82,1.1,1.74,1.8,3.14,1.46s1.26-1.67,1.27-2.73q0-10.47,0-20.93c0-1.23.15-2.66-1.7-2.73s-1.67,1.43-1.68,2.62C468.55,254.23,468.56,259.81,468.56,265.39Z"/><path class="cls-1" d="M562.8,265.64c0-7.06,0-7.19-5.86-7-1.68.06-4.86-1.52-4.88,1.38s3.18.88,4.84,1.45c1,.32,2.41-.57,2.85,1a3.6,3.6,0,0,1-.82,3.46A11,11,0,0,1,547.05,269a10.11,10.11,0,0,1-6.67-9.8,10,10,0,0,1,6.71-9.75c4.34-1.54,8.08-.45,11.23,2.75,1,1.06,2.2,1.48,3.25.52,1.3-1.19-.22-2-.86-2.7a13,13,0,0,0-11-4.55,13.51,13.51,0,0,0-12.34,9.76A13.93,13.93,0,0,0,541.87,270c4.42,3.59,10.41,3.92,15.67.9.85-.49,2.08-2.27,2.4.46.11,1,.87,1.1,1.67,1,1-.08,1.18-.78,1.18-1.58C562.81,269.12,562.8,267.38,562.8,265.64Z"/><path class="cls-1" d="M384,259.1c0,8,5.69,13.91,13.44,14a13.78,13.78,0,1,0,0-27.56A13.29,13.29,0,0,0,384,259.1Z"/><path class="cls-1" d="M357.33,258.88c0,2.73-.2,5.49.07,8.2.19,1.82-1.47,5.09,1.49,5.2,3.72.15,1.2-3.42,1.88-5.2.52-1.36-1-3.62,1.28-4.12s4.66-.67,6,2.14c1.09,2.22,2.58,4.25,3.89,6.36a2.23,2.23,0,0,0,3.25.77c1.28-.8-.05-1.75-.44-2.5a40.9,40.9,0,0,0-2.91-4.78c-1.24-1.75-1-2.84.71-4.32a8.07,8.07,0,0,0-2.94-14c-3.52-1.15-7.16-.6-10.75-.63-1.63,0-1.57,1.26-1.57,2.4Z"/><path class="cls-1" d="M591.92,272c-1.47-2.41-2.85-4.72-4.28-7-1-1.58-1.68-2.81.54-4.23,3-1.9,3.51-5.09,2.77-8.3a7.67,7.67,0,0,0-6.37-6.05c-3.1-.67-6.2-.33-9.29-.45-1.37-.05-2,.5-2,2,0,7.59,0,15.19,0,22.78,0,1,.28,1.69,1.43,1.74a1.59,1.59,0,0,0,1.91-1.73c0-1.37-.06-2.75.08-4.11s-.8-3.36,1.38-3.69,4.45-.85,5.75,2c.92,2,2.4,3.78,3.45,5.75S589.67,272.92,591.92,272Z"/><path class="cls-1" d="M268.88,259.18c0,3.62.05,7.23,0,10.84,0,1.66.39,2.56,2.27,2.52,4.49-.08,9,0,13.46,0,1.26,0,2.23-.23,2.15-1.82-.06-1.42-1-1.53-2.07-1.53-3,0-6-.13-9,0-2.55.15-3.79-.67-3.44-3.35a6.89,6.89,0,0,0,0-1.87c-.44-3,.59-4.4,3.83-4a51.66,51.66,0,0,0,6,0c1,0,1.67-.33,1.67-1.5s-.67-1.49-1.67-1.49c-2.36,0-4.74-.16-7.1,0-3,.22-2.75-1.73-2.68-3.63s-.67-4.22,2.67-4.09c3.11.13,6.23,0,9.35,0,1.17,0,2.31,0,2.33-1.65s-1.07-1.71-2.28-1.71c-4.36,0-8.72.08-13.08,0-2.12,0-2.46,1-2.42,2.77C268.94,252.21,268.88,255.7,268.88,259.18Z"/><path class="cls-1" d="M510.44,259.18c0,3.61.05,7.23,0,10.84,0,1.65.38,2.56,2.27,2.52,4.48-.08,9,0,13.45,0,1.26,0,2.23-.22,2.16-1.82-.06-1.42-1-1.53-2.07-1.53-3,0-6-.13-9,0-2.53.15-3.8-.66-3.44-3.34a3.82,3.82,0,0,0,0-1.12c-.57-3.61.58-5.42,4.57-4.77a33.66,33.66,0,0,0,5.22,0c1,0,1.67-.33,1.67-1.49s-.66-1.5-1.66-1.5c-2.36,0-4.74-.16-7.1,0-3,.22-2.76-1.73-2.68-3.63s-.68-4.22,2.67-4.08c3.11.12,6.22,0,9.34,0,1.17,0,2.31,0,2.33-1.65s-1.06-1.71-2.27-1.71c-4.36,0-8.72.08-13.08,0-2.12,0-2.46,1-2.42,2.76C510.5,252.2,510.44,255.69,510.44,259.18Z"/><path class="cls-1" d="M237.19,260.11c.07-6.38,3.19-10.31,8.23-11.16a9.88,9.88,0,0,1,9.45,3.25c1.11,1.23,2.54,1.56,3.64.59,1.48-1.3-.32-2.17-1-2.95a13.76,13.76,0,0,0-23.33,13c1.46,5.45,4.92,8.81,10.5,9.88a13.19,13.19,0,0,0,13.59-5c.64-.78,1.77-1.81.35-2.82a2,2,0,0,0-2.94.58,8.73,8.73,0,0,1-1,1.08,10.19,10.19,0,0,1-11.71,2.13C238.93,266.76,237.09,263.43,237.19,260.11Z"/><path class="cls-1" d="M624.29,271.32c-.09-.23-.16-.47-.25-.7-3.32-7.63-6.59-15.29-10-22.88-1.07-2.39-3.31-2.53-4.34-.26-3.49,7.69-6.79,15.47-10.18,23.21-.77,1.75.25,1.86,1.57,1.82,1.82-.06,2-1.6,2.6-2.78s.7-3.48,2.22-3.63a54.69,54.69,0,0,1,11.51-.07c2.2.26,2.07,3.12,2.94,4.83a2.65,2.65,0,0,0,3,1.64C624.05,272.42,624.54,272.16,624.29,271.32Z"/><path class="cls-1" d="M336.27,260.87c0,3,0,6,0,9,0,1.21-.27,2.61,1.68,2.67,2.18.07,1.9-1.47,1.9-2.82,0-4.11-.06-8.22,0-12.32.05-2.47-.93-5.37.46-7.29s4.19-.52,6.36-.71c1.22-.1,1.86-.47,1.83-1.76,0-1.06-.48-1.61-1.57-1.61H329c-1.17,0-1.42.77-1.42,1.75a1.39,1.39,0,0,0,1.6,1.58c1.37,0,2.75.11,4.11,0,2.26-.21,3.12.67,3,3C336.15,255.13,336.27,258,336.27,260.87Z"/><path class="cls-1" d="M489.5,261c0,3.11,0,6.23,0,9.35,0,1.25.16,2.22,1.76,2.21s1.64-1.17,1.64-2.32c0-4.24,0-8.48,0-12.71,0-2.48-.58-5.38.5-7.32s4.14-.59,6.31-.81c1.23-.13,1.81-.57,1.76-1.84s-.69-1.51-1.69-1.51H482.21c-1.07,0-1.57.56-1.58,1.62s.44,1.66,1.53,1.68a18.85,18.85,0,0,0,3.36,0c3.44-.57,4.35,1,4,4.17A71.54,71.54,0,0,0,489.5,261Z"/><path class="cls-1" d="M633.29,259.25c0,3.49.09,7,0,10.45-.07,2,.53,2.93,2.72,2.86,4.1-.13,8.21,0,12.31,0,1.27,0,2.61.11,2.53-1.81-.07-1.68-1.3-1.53-2.42-1.54-2.73,0-5.48-.19-8.2.05-2.91.25-3.58-.94-3.49-3.63.18-5.72,0-11.44,0-17.16,0-1.13.12-2.32-1.55-2.42-1.86-.11-1.93,1.07-1.93,2.42C633.3,252,633.29,255.65,633.29,259.25Z"/><path class="cls-1" d="M647.78,172.92c3,.05,6.76-3.58,6.72-6.46,0-2.7-3.32-5.78-6.3-5.92-3.14-.14-6.81,3.17-6.86,6.18S644.72,172.88,647.78,172.92Z"/><path class="cls-1" d="M240,172.92c3.07,0,6.56-3.44,6.51-6.5,0-2.82-3.15-5.78-6.18-5.88s-6.67,3.15-6.72,6.23C233.61,169.66,237,172.88,240,172.92Z"/><path class="cls-1" d="M438.66,259.32c0-3.72,0-7.44,0-11.16,0-1.28-.25-2.18-1.8-2.17s-1.78,1-1.78,2.21c0,7.32,0,14.64,0,22,0,1.15,0,2.27,1.62,2.35,1.82.08,2-1,1.95-2.4C438.64,266.52,438.67,262.92,438.66,259.32Z"/><path class="cls-2" d="M185.81,226.84c6-9.07,8.87-18.9,5.95-29.65a99.35,99.35,0,0,0-8.56-20.57,15.55,15.55,0,0,0-2-2.69c-1.34-1.58-2.65-1.51-4,0-2.36,2.68-2.47,5.53-.88,8.6q3.16,6.1,6.31,12.24c.74,1.45,1.39,2.92.91,4.62l-.47,0c-1.3-4.19-3.85-7.75-5.9-11.56-.83-1.53-1.19-4.52-3.93-3.38-2.42,1-1.53,3.63-1.46,5.67a5.33,5.33,0,0,0,.77,2.07c1.29,2.46,3.41,4.69.76,7.7-.79.89-.15,2.61.26,4,.68,2.25,1.22,4.53,1.82,6.8v2.23c-9.3,12-28.7,18-39.82,12.18a46.76,46.76,0,0,0,21.69-7.53c5.35-3.37,6.91-9.48,3.71-14.92-1.29-2.19-2.56-2.7-4.58-.52-4.63,5-11.86,8.55-17.77,9a159.09,159.09,0,0,0,10.13-25.29c5-16.54,7.41-33.51,8.67-50.66a340.87,340.87,0,0,0,0-48.15c-.12-1.73-.54-3.42,2.35-3.45,20.3-.17,35.35-10.34,47.77-25.38a99.51,99.51,0,0,0,12.08-19.34,164.77,164.77,0,0,1,2.87,29.81,550.22,550.22,0,0,1-4.72,82c-3.67,27.69-13.31,53.28-30.31,75.78A19.3,19.3,0,0,1,186,228Z"/><path class="cls-3" d="M185.81,226.84,186,228c-2,3.62-5,6.49-7.79,9.49-17.25,18.6-37.06,32.71-63,36.36-31.91,4.48-62.29.63-89.44-17.65C8.54,244.65-.19,227.76,0,206.72A16.17,16.17,0,0,1,.85,202C4.32,191.47,9.93,182.08,16.09,173c1.18-1.74,2.82-4.35,5.29-3.27s3.69,3.86,3.73,6.83a9.16,9.16,0,0,1-1.8,5.21c-3.06,4.69-6.06,9.42-9.21,14.06s-3.39,9.12-.46,14c4.68,7.7,9.7,15.1,16.85,20.77,10.77,8.55,22.82,12.41,36.8,9.85-.52-1.16-1.52-1.13-2.37-1.32-9.22-2-17.13-6.68-24.25-12.67-5.54-4.67-5.49-14.38-.17-19.08,1.46-1.29,2.85-1.52,4,.38,6,9.89,15.86,13.8,26.34,16,9.68,2.06,18.21,6.41,26.88,10.79,23,11.67,46.72,15.87,71.49,5.33C176,237,180.87,231.93,185.81,226.84Z"/><path class="cls-4" d="M479.89,216.46c0,5,0,9.1,0,13.21s-2.32,6.38-6.12,6.4-6.33-2.26-6.4-6.22c-.12-7.1,0-14.21-.05-21.31-.09-7.63-4.24-13.58-11.1-16.13a17.26,17.26,0,0,0-19.3,5.07,14.41,14.41,0,0,0-3.77,9.88c.1,7,0,13.95,0,20.93,0,3.24-1.18,5.88-4.25,7.28a6.14,6.14,0,0,1-8.84-5.76c-.09-7.1,0-14.2,0-21.3,0-10.16-6.95-17.39-16.85-17.56s-17.37,7.12-17.52,17.36c-.09,6.61,0,13.21,0,19.81,0,4.68-2.47,7.36-6.55,7.28s-6.22-2.49-6.15-7.2c.12-8.46-.85-17,.4-25.37,1.7-11.53,8.8-19.19,19.68-22.74,11.19-3.66,21.79-1.84,30.51,6.49,2.6,2.49,3.71,2.35,6.3,0,16.59-14.94,44.62-6.34,49.53,15.09C480.56,206.84,479.62,212.12,479.89,216.46Z"/><path class="cls-4" d="M368.26,217c0,4.11,0,8.22,0,12.33a5.64,5.64,0,0,1-4.75,5.87c-2.91.67-5.62.13-6.76-3.07-1-2.9-2.44-1.07-3.64-.4a29,29,0,0,1-36-44.25c8.48-9.58,20.6-12.65,32.57-8.25a29.3,29.3,0,0,1,18.58,26.18C368.34,209.28,368.26,213.14,368.26,217Zm-12.37-10.47a16.49,16.49,0,0,0-16.72-16.83,16.73,16.73,0,0,0-16.67,16.6,17,17,0,0,0,16.82,16.92A16.71,16.71,0,0,0,355.89,206.54Z"/><path class="cls-4" d="M561.2,195.61c4.43-4.25,8.15-7.81,11.86-11.39,2-1.9,3.89-3.86,5.9-5.73,2.87-2.68,5.79-2.8,8.26-.4a6.21,6.21,0,0,1-.05,9c-4.23,4.22-8.63,8.27-13,12.36-.81.76-1.72,1.41-2.76,2.25,9.84,6.35,14.92,14.85,15.33,26,.16,4.36-2,7-5.75,7.25-3.43.19-6-2.65-6.26-6.86-.46-7.32-3.77-12.75-10.57-15.85-2-.89-3.16-1-3,1.92.21,4.72.09,9.46,0,14.19,0,4.21-2.1,6.68-5.7,6.95s-5.85-2-6.48-6.22a21,21,0,0,1-.16-3q0-31.2,0-62.4a18.5,18.5,0,0,1,.2-3c.64-4,2.82-5.79,6.57-5.54,3.22.22,5.49,2.63,5.55,6.34.11,6.72,0,13.45,0,20.17Z"/><path class="cls-4" d="M485.77,196.9c0-4-.06-8,0-12s2.49-6.45,6.17-6.45c3.85,0,5.86,2.19,5.88,6.52,0,6.86-.08,13.71,0,20.57.14,8.18,5.07,14.78,12.34,16.79a16.83,16.83,0,0,0,19.06-7.62,15.82,15.82,0,0,0,2.23-8.55c0-7-.09-14,0-20.93.07-4.82,3.54-7.72,7.76-6.66,2.72.69,4.48,2.58,4.45,5.33-.09,9.2,1.18,18.45-.31,27.6-2.43,14.9-15.66,24.8-31.38,23.74-14-1-25.74-13.42-26.16-27.91-.1-3.48,0-7,0-10.46Z"/><path class="cls-2" d="M157.36,21.43A21.46,21.46,0,0,1,179,0a21.81,21.81,0,0,1,0,43.61C166.71,43.61,157.3,34,157.36,21.43Z"/><path class="cls-2" d="M618.47,189.81c-3.23,0-6.47.08-9.7,0-1.89-.07-2.68.48-2.63,2.5.11,5.23-.13,10.47.08,15.69.32,8.12,7.38,15,15.5,15.36,2.36.1,4.74-.05,7.1,0a6.28,6.28,0,0,1,6.2,5.78,6,6,0,0,1-5.41,6.48c-22.49,3.25-36.31-12.86-35.61-29.28.51-11.68.09-23.4.11-35.1,0-4.73,1.58-6.82,5.28-7.08s5.68,1.55,6.53,6.09c.05.24.09.49.12.73.8,6.24.8,6.24,7.2,6.24,4.85,0,9.71,0,14.56,0,4.25,0,6.72,2.34,6.75,6.21s-2.48,6.17-6.74,6.34h-9.34Z"/><path class="cls-4" d="M278.58,214c4.58-9.6,8.73-18.32,12.9-27a63.23,63.23,0,0,1,3-6c1.92-3.08,5.13-3.94,8.07-2.4a6,6,0,0,1,2.77,8Q295,208.72,284.46,230.77a6.17,6.17,0,0,1-5.84,3.94c-2.8,0-3.88-1.82-4.93-3.87-7.44-14.5-14.92-29-22.32-43.5-1.8-3.54-.81-7,2.27-8.68s6.83-.64,8.74,3.09c4.7,9.2,9.21,18.49,13.81,27.74C276.8,210.7,277.46,211.89,278.58,214Z"/><path class="cls-3" d="M145.72,171.82c-1.22,19-13.51,31.83-32.37,33.89a25.16,25.16,0,0,1-2.6.14c-5,0-5.5-.47-5.52-5.41a35.25,35.25,0,0,1,34.43-35.12C145.54,165.21,146.1,165.82,145.72,171.82Z"/><path class="cls-5" d="M95.31,199.73c0,5.66-.75,6.41-6,6.22-22.19-.78-35.56-19.37-34.51-36.1.23-3.71,1.59-4.71,4.78-4.64,11.91.27,21.68,4.83,28.92,14.44A35.52,35.52,0,0,1,95.31,199.73Z"/><path class="cls-6" d="M86.37,157.35c-.54-10.77,4.08-19.2,11.83-26.25,1.32-1.19,2.29-1.46,3.84-.23,16,12.8,16,40.57,0,53.35-1.79,1.42-2.76.7-4.1-.5C90.53,177.13,85.6,167.88,86.37,157.35Z"/><path class="cls-2" d="M641.32,205.55c0-7.22,0-14.43,0-21.64,0-4,2.88-7.28,6.34-7.37,3.28-.08,6.79,3.34,6.81,7.1q.13,22.38,0,44.75a6.75,6.75,0,0,1-6.77,6.92c-3.33-.12-6.34-3.32-6.38-7C641.27,220.71,641.32,213.13,641.32,205.55Z"/><path class="cls-2" d="M246.56,206.15c0,7.35,0,14.7,0,22,0,4-3,7.15-6.5,7.12-3.28,0-6.39-3.29-6.4-6.95q-.06-22.61,0-45.2a6.65,6.65,0,0,1,6.28-6.57,7,7,0,0,1,6.58,6.4C246.63,190.71,246.56,198.43,246.56,206.15Z"/><path class="cls-3" d="M24.46,220c-2.89-4.95-5.56-9.11-7.81-13.49-1.6-3.11-.93-6.35,1-9.2,3.56-5.24,7.26-10.39,10.81-15.64,1-1.41,2-2.15,3.69-1.79s2.28,1.87,2.52,3.33c.82,4.88-1.53,8.71-4.55,12.13-1.64,1.85-2.52,3.15-.49,5.48,1.62,1.87,1.15,4.46.17,6.75C28.15,211.39,26.48,215.26,24.46,220Z"/><path class="cls-5" d="M315.33,264.8c0-5.31,0-10.62,0-15.92,0-1.32-.35-2.92,1.85-2.87s1.71,1.72,1.72,3q0,10.27,0,20.54c0,1,.52,2.41-1,2.87s-2.54-.26-3.45-1.52c-3.73-5.13-7.54-10.21-11.32-15.3a5.31,5.31,0,0,0-2.45-1.91c0,4.47.2,9-.09,13.41-.12,1.83,1.77,5.33-1.93,5.23-3.09-.09-1.63-3.33-1.68-5.14-.19-6-.1-12-.05-17.92,0-1.15-.48-2.65,1.2-3.15s2.58.47,3.44,1.64q5.64,7.65,11.32,15.3c.51.68,1.09,1.32,1.64,2Z"/><path class="cls-5" d="M468.56,265.39c0-5.58,0-11.16,0-16.74,0-1.19-.31-2.69,1.68-2.62s1.7,1.5,1.7,2.73q0,10.45,0,20.93c0,1.06.28,2.37-1.27,2.73s-2.32-.36-3.14-1.46c-4.41-6-8.87-12-14-18.89,0,6.35,0,11.72,0,17.08,0,1.31.77,3.34-1.73,3.32s-1.67-2.06-1.68-3.36q-.11-9.71,0-19.43c0-1.23-.8-3,1-3.58s2.86.87,3.84,2.21q6.41,8.69,12.88,17.33Z"/><path class="cls-5" d="M562.8,265.64c0,1.74,0,3.48,0,5.22,0,.8-.2,1.5-1.18,1.58-.8.06-1.56-.08-1.67-1-.32-2.73-1.55-.95-2.4-.46-5.26,3-11.25,2.69-15.67-.9a13.93,13.93,0,0,1-4.47-14.81,13.51,13.51,0,0,1,12.34-9.76,13,13,0,0,1,11,4.55c.64.74,2.16,1.51.86,2.7-1.05,1-2.2.54-3.25-.52-3.15-3.2-6.89-4.29-11.23-2.75a10,10,0,0,0-6.71,9.75,10.11,10.11,0,0,0,6.67,9.8,11,11,0,0,0,11.88-3.09,3.6,3.6,0,0,0,.82-3.46c-.44-1.53-1.89-.64-2.85-1-1.66-.57-4.85,1.49-4.84-1.45s3.2-1.32,4.88-1.38C562.81,258.45,562.81,258.58,562.8,265.64Z"/><path class="cls-5" d="M384,259.1a13.29,13.29,0,0,1,13.46-13.56,13.78,13.78,0,1,1,0,27.56C389.69,273,384,267.11,384,259.1Zm3.62.24c-.08,6,4,10.22,9.88,10.37a10.46,10.46,0,0,0,.6-20.91C391.89,248.65,387.7,252.86,387.62,259.34Z"/><path class="cls-5" d="M357.33,258.88V248.43c0-1.14-.06-2.42,1.57-2.4,3.59,0,7.23-.52,10.75.63a8.07,8.07,0,0,1,2.94,14c-1.72,1.48-1.95,2.57-.71,4.32a40.9,40.9,0,0,1,2.91,4.78c.39.75,1.72,1.7.44,2.5a2.23,2.23,0,0,1-3.25-.77c-1.31-2.11-2.8-4.14-3.89-6.36-1.38-2.81-3.8-2.64-6-2.14s-.76,2.76-1.28,4.12c-.68,1.78,1.84,5.35-1.88,5.2-3-.11-1.3-3.38-1.49-5.2C357.13,264.37,357.33,261.61,357.33,258.88Zm3.53-4c.53,1.69-1.83,5.39,3.3,5.09s7.86-2,7.8-5.58c-.07-3.26-2.67-4.71-7.33-5.13S360.75,251.71,360.86,254.87Z"/><path class="cls-5" d="M591.92,272c-2.25.89-3.64.55-4.66-1.36s-2.53-3.73-3.45-5.75c-1.3-2.83-3.64-2.29-5.75-2s-1.24,2.35-1.38,3.69,0,2.74-.08,4.11a1.59,1.59,0,0,1-1.91,1.73c-1.15-.05-1.43-.75-1.43-1.74,0-7.59,0-15.19,0-22.78,0-1.46.67-2,2-2,3.09.12,6.19-.22,9.29.45a7.67,7.67,0,0,1,6.37,6.05c.74,3.21.21,6.4-2.77,8.3-2.22,1.42-1.52,2.65-.54,4.23C589.07,267.31,590.45,269.62,591.92,272Zm-15.57-17.66c.18,2.74-1.24,6.08,3.83,5.62s7.35-1.79,7.44-5.34c.1-3.76-2.55-5.45-7.88-5.69C574.78,248.73,576.83,252.3,576.35,254.37Z"/><path class="cls-5" d="M268.88,259.18c0-3.48.06-7,0-10.46,0-1.77.3-2.82,2.42-2.77,4.36.11,8.72,0,13.08,0,1.21,0,2.29.08,2.28,1.71s-1.16,1.65-2.33,1.65c-3.12,0-6.24.1-9.35,0-3.34-.13-2.59,2.22-2.67,4.09S272,257.25,275,257c2.36-.18,4.74,0,7.1,0,1,0,1.66.33,1.67,1.49s-.67,1.49-1.67,1.5a51.66,51.66,0,0,1-6,0c-3.24-.39-4.27,1-3.83,4a6.89,6.89,0,0,1,0,1.87c-.35,2.68.89,3.5,3.44,3.35,3-.16,6,0,9,0,1.06,0,2,.11,2.07,1.53.08,1.59-.89,1.82-2.15,1.82-4.48,0-9-.06-13.46,0-1.88,0-2.3-.86-2.27-2.52C268.93,266.41,268.88,262.8,268.88,259.18Z"/><path class="cls-5" d="M510.44,259.18c0-3.49.06-7,0-10.47,0-1.77.3-2.81,2.42-2.76,4.36.11,8.72,0,13.08,0,1.21,0,2.29.09,2.27,1.71s-1.16,1.65-2.33,1.65c-3.12,0-6.23.1-9.34,0-3.35-.14-2.59,2.21-2.67,4.08s-.32,3.85,2.68,3.63c2.36-.18,4.74,0,7.1,0,1,0,1.66.33,1.66,1.5s-.67,1.48-1.67,1.49a33.66,33.66,0,0,1-5.22,0c-4-.65-5.14,1.16-4.57,4.77a3.82,3.82,0,0,1,0,1.12c-.36,2.68.91,3.49,3.44,3.34,3-.16,6,0,9,0,1.06,0,2,.11,2.07,1.53.07,1.6-.9,1.82-2.16,1.82-4.48,0-9-.06-13.45,0-1.89,0-2.31-.87-2.27-2.52C510.49,266.41,510.44,262.79,510.44,259.18Z"/><path class="cls-5" d="M237.19,260.11c-.1,3.32,1.74,6.65,5.73,8.58a10.19,10.19,0,0,0,11.71-2.13,8.73,8.73,0,0,0,1-1.08,2,2,0,0,1,2.94-.58c1.42,1,.29,2-.35,2.82a13.19,13.19,0,0,1-13.59,5c-5.58-1.07-9-4.43-10.5-9.88a13.76,13.76,0,0,1,23.33-13c.7.78,2.5,1.65,1,2.95-1.1,1-2.53.64-3.64-.59a9.88,9.88,0,0,0-9.45-3.25C240.38,249.8,237.26,253.73,237.19,260.11Z"/><path class="cls-5" d="M624.29,271.32c.25.84-.24,1.1-.94,1.18a2.65,2.65,0,0,1-3-1.64c-.87-1.71-.74-4.57-2.94-4.83a54.69,54.69,0,0,0-11.51.07c-1.52.15-1.58,2.33-2.22,3.63s-.78,2.72-2.6,2.78c-1.32,0-2.34-.07-1.57-1.82,3.39-7.74,6.69-15.52,10.18-23.21,1-2.27,3.27-2.13,4.34.26,3.41,7.59,6.68,15.25,10,22.88C624.13,270.85,624.2,271.09,624.29,271.32Zm-12.47-20.88c-1.55,3.63-2.91,6.82-4.26,10-.28.66-.91,1.77-.13,2a22.19,22.19,0,0,0,8.48.12c1-.14.54-1.16.25-1.84Z"/><path class="cls-5" d="M336.27,260.87c0-2.87-.12-5.74,0-8.59.13-2.3-.73-3.18-3-3-1.36.13-2.74,0-4.11,0a1.39,1.39,0,0,1-1.6-1.58c0-1,.25-1.75,1.42-1.75H347c1.09,0,1.55.55,1.57,1.61,0,1.29-.61,1.66-1.83,1.76-2.17.19-5-1.1-6.36.71s-.41,4.82-.46,7.29c-.08,4.1,0,8.21,0,12.32,0,1.35.28,2.89-1.9,2.82-1.95-.06-1.67-1.46-1.68-2.67C336.26,266.84,336.27,263.85,336.27,260.87Z"/><path class="cls-5" d="M489.5,261a71.54,71.54,0,0,1,.05-7.47c.32-3.19-.59-4.74-4-4.17a18.85,18.85,0,0,1-3.36,0c-1.09,0-1.54-.63-1.53-1.68s.51-1.62,1.58-1.62h17.57c1,0,1.64.36,1.69,1.51s-.53,1.71-1.76,1.84c-2.17.22-5.24-1.13-6.31.81s-.47,4.84-.5,7.32c0,4.23,0,8.47,0,12.71,0,1.15.05,2.3-1.64,2.32s-1.77-1-1.76-2.21C489.52,267.18,489.5,264.06,489.5,261Z"/><path class="cls-5" d="M633.29,259.25c0-3.6,0-7.21,0-10.82,0-1.35.07-2.53,1.93-2.42,1.67.1,1.55,1.29,1.55,2.42,0,5.72.13,11.44,0,17.16-.09,2.69.58,3.88,3.49,3.63,2.72-.24,5.47-.06,8.2-.05,1.12,0,2.35-.14,2.42,1.54.08,1.92-1.26,1.81-2.53,1.81-4.1,0-8.21-.09-12.31,0-2.19.07-2.79-.82-2.72-2.86C633.38,266.22,633.29,262.74,633.29,259.25Z"/><path class="cls-4" d="M647.78,172.92c-3.06,0-6.49-3.34-6.44-6.2s3.72-6.32,6.86-6.18c3,.14,6.26,3.22,6.3,5.92C654.54,169.34,650.77,173,647.78,172.92Z"/><path class="cls-4" d="M240,172.92c-3.09,0-6.43-3.26-6.39-6.15,0-3.08,3.56-6.34,6.72-6.23s6.14,3.06,6.18,5.88C246.6,169.48,243.11,173,240,172.92Z"/><path class="cls-5" d="M438.66,259.32c0,3.6,0,7.2,0,10.79,0,1.38-.13,2.48-1.95,2.4-1.64-.08-1.62-1.2-1.62-2.35,0-7.32,0-14.64,0-22,0-1.25.2-2.2,1.78-2.21s1.81.89,1.8,2.17C438.64,251.88,438.66,255.6,438.66,259.32Z"/><path class="cls-4" d="M183.08,199.42l.47,0c.42,1.77.59,3.46-1.45,4.43l.06.06C182.47,202.43,182.77,200.92,183.08,199.42Z"/><path class="cls-4" d="M179.87,206.87a2.65,2.65,0,0,1-2.25,3l.06.06a5.26,5.26,0,0,1,2.24-3Z"/><path class="cls-4" d="M175.41,212.9c0-.74,0-1.49,0-2.23,1,.5,1.54-.44,2.28-.76l-.06-.06C177.54,211.34,176.49,212.13,175.41,212.9Z"/><path class="cls-4" d="M182.1,203.87c.15,1.17-.18,2-1.46,2.28h0a2.69,2.69,0,0,1,1.51-2.23Z"/><path class="cls-4" d="M180.64,206.15c0,.52-.13.89-.77.72l0,0c0-.45.24-.75.73-.76Z"/><path class="cls-1" d="M180.65,206.16c-.49,0-.69.31-.73.76a5.26,5.26,0,0,0-2.24,3c-.74.32-1.27,1.26-2.28.76-.6-2.27-1.14-4.55-1.82-6.8-.41-1.34-1.05-3.06-.26-4,2.65-3,.53-5.24-.76-7.7a5.33,5.33,0,0,1-.77-2.07c-.07-2-1-4.67,1.46-5.67,2.74-1.14,3.1,1.85,3.93,3.38,2,3.81,4.6,7.37,5.9,11.56-.31,1.5-.61,3-.92,4.51A2.69,2.69,0,0,0,180.65,206.16Z"/><path class="cls-1" d="M355.89,206.54a16.71,16.71,0,0,1-16.57,16.69,17,17,0,0,1-16.82-16.92,16.73,16.73,0,0,1,16.67-16.6A16.49,16.49,0,0,1,355.89,206.54Z"/><path class="cls-1" d="M387.62,259.34c.08-6.48,4.27-10.69,10.48-10.54a10.46,10.46,0,0,1-.6,20.91C391.6,269.56,387.54,265.3,387.62,259.34Z"/><path class="cls-1" d="M360.86,254.87c-.11-3.16-.89-6.05,3.77-5.62s7.26,1.87,7.33,5.13c.06,3.55-2.73,5.28-7.8,5.58S361.39,256.56,360.86,254.87Z"/><path class="cls-1" d="M576.35,254.37c.48-2.07-1.57-5.64,3.39-5.41,5.33.24,8,1.93,7.88,5.69-.09,3.55-2.51,4.89-7.44,5.34S576.53,257.11,576.35,254.37Z"/><path class="cls-1" d="M611.82,250.44l4.34,10.25c.29.68.75,1.7-.25,1.84a22.19,22.19,0,0,1-8.48-.12c-.78-.19-.15-1.3.13-2C608.91,257.26,610.27,254.07,611.82,250.44Z"/></g></g></svg>