<svg xmlns="http://www.w3.org/2000/svg" viewBox="0 0 808.12 295.72"><defs><style>.cls-1{fill:#fefefe;}.cls-2{fill:#cb282c;}.cls-3{fill:#4a4744;}.cls-4{fill:#4a4743;}.cls-5{fill:#5b5955;}.cls-6{fill:#5f5d59;}</style></defs><title>Recurso 9</title><g id="Capa_2" data-name="Capa 2"><g id="Capa_1-2" data-name="Capa 1"><path class="cls-1" d="M404.06,295.7q-201.48,0-403,0c-.9,0-1.1-.2-1.1-1.1Q0,147.86,0,1.1C0,.2.2,0,1.1,0Q404.06,0,807,0c.9,0,1.1.2,1.1,1.1q0,146.76,0,293.52c0,.9-.2,1.1-1.1,1.1Q605.54,295.69,404.06,295.7Zm123-58.85.18-.09-.17-.13-7-17.73c-.84-2.15-.9-2.19-3.11-1.94a.69.69,0,0,0-.7.49Q512.68,227,509,236.6c-.51.25-.71-.18-1-.47-2.13-2.59-4.24-5.19-6.39-7.77-.54-.65-.74-.93.38-1.13,2-.37,3.86-1.15,4.56-3.35.92-2.95-.81-5.82-4-6.61-2.6-.64-5.26-.16-7.89-.32-.86-.06-1,.22-1,1.05,0,5.52,0,11,0,16.55,0,2.38,0,2.32,2.32,2.4,1,0,1.34-.22,1.3-1.29-.09-2.57,0-5.15,0-8l4.62,5.9c.88,1.12,1.54,2.69,2.69,3.26s2.81.15,4.25.17a.65.65,0,0,0,.22-.08c1,.24,1.63,0,1.94-1.13.39-1.45,1.1-2.81,1.58-4.24a1,1,0,0,1,1.19-.84c1.27,0,2.55,0,3.82,0s2.57-.46,3.37.18.94,2,1.36,3.1.53,2.38,1.25,2.82,2.15.13,3.27.14A1,1,0,0,0,527.06,236.85Zm-391.2-89.71s0,0-.07-.06,0,0,0,0h.14c-.23.3-.06.63,0,.9,1.69,6,5.06,10.75,10.74,13.65,5.14,2.61,10.68,3.24,16.32,3.37a73.32,73.32,0,0,0,14-.86c4.93-.84,9.68-2.2,13.89-5,5.5-3.71,8.46-8.77,8.43-15.55q-.09-23.64,0-47.28a16.47,16.47,0,0,0-2.66-9,29.26,29.26,0,0,0-12-10.4c-10-5.06-20.77-6.63-31.78-7A95.86,95.86,0,0,0,134.48,71a55.76,55.76,0,0,0-18.7,6.09c-6.24,3.5-11.27,8.19-14.12,14.91a3.87,3.87,0,0,0-.55,2.08c1-.56,1.94-1.09,2.86-1.63a58.44,58.44,0,0,1,25.59-7.94,77.92,77.92,0,0,1,12.69-.07,33.81,33.81,0,0,1,13.22,3.68c7.15,3.86,11.2,10.09,13.26,17.75a70.71,70.71,0,0,1,1.87,21.25,32.8,32.8,0,0,1-.9,7.1c-1.44,5.36-4.19,9.67-9.52,12-3.08,1.32-6.34,1.4-9.6,1.49C145.66,147.85,140.77,147.44,135.86,147.14Zm28.52-40.59c-1.38-5.65-4.07-10.29-9-13.5-4.69-3.06-10-4.17-15.41-4.42a74.51,74.51,0,0,0-17.89.9,34.32,34.32,0,0,0-13,5c-5.4,3.69-8.31,8.69-8.28,15.38.07,15.83,0,31.67,0,47.51a16.24,16.24,0,0,0,2.19,8.06c2.77,5,7.06,8.37,12,11,8.35,4.4,17.4,6.14,26.68,6.91a104.27,104.27,0,0,0,18.53-.17,69.35,69.35,0,0,0,16.52-3.42c7.55-2.66,14.19-6.66,18.92-13.33a21.33,21.33,0,0,0,3.42-7.09c-2.8,1.58-5.41,3.08-8.13,4.37A57.34,57.34,0,0,1,169.7,169c-5.79.34-11.56.53-17.27-.74-8.37-1.86-14.75-6.37-18.67-14.1-2.59-5.09-3.6-10.59-4.1-16.18a72.38,72.38,0,0,1,.22-16.25,19.57,19.57,0,0,1,4.34-10.28c3.5-4.15,8.19-5.46,13.34-5.57A113,113,0,0,1,164.38,106.55Zm392.08,55.81c-1.18-.2-2.28-.37-3.37-.57a17,17,0,0,1-11.21-6.69c-6.34-8.81-12.64-17.65-19-26.46-.57-.79-.42-1,.45-1.2a27.71,27.71,0,0,0,8.16-3.25A17.89,17.89,0,0,0,540.06,105c-1.45-7-5.77-11.61-12.26-14.2-4.39-1.75-9.09-2.07-13.75-2.16-8-.16-16-.11-24-.14-1.56,0-3.12,0-4.68,0-.24,0-.74-.15-.66.23a17.31,17.31,0,0,0,.83,2.49c.2.54.74.37,1.13.45a6,6,0,0,1,5,5,16.62,16.62,0,0,1,.29,3q0,22.2,0,44.4c0,6.7,0,13.41-1.46,20-.21.92.1,1.15,1,1.13,3.51,0,7,0,10.55,0,.93,0,1.19-.22,1.19-1.17,0-11,0-22.08,0-33.12,0-.32,0-.64,0-1s.22-.55.6-.47a19.58,19.58,0,0,0,5.72-.05,1.64,1.64,0,0,1,1.68.8q6.66,9.45,13.38,18.83c3.25,4.55,6.37,9.19,9.8,13.6a5.37,5.37,0,0,0,3.53,2.26,24.89,24.89,0,0,0,3.34.24c3.84,0,7.68,0,11.52,0C555.63,165.12,555.63,165.12,556.46,162.36Zm37.79,4.2c1.32,0,2.64,0,4,0a15.26,15.26,0,0,0,2.13-.24c12.52-2.08,21.41-9.11,27-20.29,4-8.11,4.82-16.83,3.71-25.76A37.34,37.34,0,0,0,618,95.64c-8.85-7.6-19.2-10.4-30.55-8.12C574.12,90.2,565,98.36,560,110.91c-3.44,8.66-3.43,17.66-1.53,26.71C561.76,153.25,575.73,167.06,594.25,166.56ZM320.64,143c-.57.05-.7-.31-.88-.53q-4.72-5.82-9.41-11.66Q296,113.13,281.71,95.43a17.07,17.07,0,0,0-8-6c-3.61-1.14-7.34-.89-11.05-.92-.17,0-.49,0-.41.25.24.84.52,1.66.84,2.47.2.52.75.35,1.15.44a6,6,0,0,1,5,5.21,19.35,19.35,0,0,1,.27,3.22q0,22.74,0,45.48c0,3.59-.21,7.18-.43,10.77a46.3,46.3,0,0,1-1,7.33c-.31,1.34-.2,1.44,1.13,1.44,1.6,0,3.21-.08,4.8,0,1.14.08,1.36-.32,1.36-1.38q0-28.2,0-56.4c0-.41-.18-.87.18-1.26a2.84,2.84,0,0,1,1,1l8.6,10.62q11.7,14.43,23.41,28.85,6.39,7.86,12.8,15.7a7.47,7.47,0,0,0,3.39,2.56c1.67.54,1.73.48,1.74-1.24.08-19.88-.18-39.75.14-59.63.08-4.86.17-9.73,1.4-14.49.17-.64.07-1-.79-1-1.76.06-3.52.09-5.28,0-1.09-.06-1.37.27-1.36,1.37q0,25.92,0,51.84Zm98-54.38a12.3,12.3,0,0,1,.43,1.34,2,2,0,0,0,1.83,1.77,5.57,5.57,0,0,1,4.46,3.73,14,14,0,0,1,.64,4.72c-.1,17.35.26,34.71-.19,52.06A51.47,51.47,0,0,1,424.49,164c-.25,1,0,1.13.91,1.13q23.58,0,47.16,0a1.09,1.09,0,0,0,1.24-.91c.9-2.87,1.88-5.72,2.78-8.6.13-.45.77-1.16,0-1.45s-1.55-1.3-2.68-.35a23.22,23.22,0,0,1-15.54,5.47c-5.28,0-10.56,0-15.84,0a13.44,13.44,0,0,1-3-.34,2.34,2.34,0,0,1-1.94-2.14,24.91,24.91,0,0,1-.25-3.1c0-8.4,0-16.8,0-25.2,0-1,.33-1.24,1.29-1.24,8.36,0,16.72,0,25.08,0,1.23,0,2.9.43,3.59-.2s.11-2.42.28-3.67-.35-1.27-1.33-1.27c-9.24,0-18.48,0-27.72,0-.95,0-1.19-.24-1.19-1.19q.06-13.07,0-26.15c0-1,.32-1.24,1.28-1.24,10.2,0,20.4,0,30.6,0a5.68,5.68,0,0,1,1.55.1c.86.26.92-.15.9-.83a29.33,29.33,0,0,1,0-3.11c.09-1-.16-1.35-1.27-1.34q-25.26.06-50.52,0A2.19,2.19,0,0,0,418.63,88.65Zm223.78,38.2c.12,1.53.1,3.4.29,5.28,1.07,10.39,5.12,19.32,13.22,26.07,10.48,8.72,22.35,10.89,35.12,6.14,7.7-2.86,13-8.79,17-15.82,1.13-2,1.09-2-.92-3-.65-.34-.93-.2-1.31.39-.78,1.25-1.64,2.45-2.53,3.63-7.23,9.54-17,12.56-28.49,11-6.92-1-11.72-5.06-15.06-11a41.24,41.24,0,0,1-4.79-16.61,60.82,60.82,0,0,1,1.71-22.15c2.22-8.08,7-13.83,15-16.75,4.54-1.67,9.22-1.61,13.92-.84,6.82,1.12,12.35,4.26,16,10.36,1.71,2.87,2.09,5.73.28,8.66-.63,1,.34,1.24.74,1.7s.77-.12,1-.38a28.49,28.49,0,0,0,4.92-7.46,2.57,2.57,0,0,0,.07-2.07,20.76,20.76,0,0,0-5.78-8.39c-8.2-7.47-18-9.8-28.76-8.32-9.77,1.36-17.56,6.39-23.58,14.16C644.7,108.78,642.4,117.28,642.41,126.85ZM373.1,88.5h-5.64q-13.32,0-26.63,0c-.53,0-1.08-.16-1.32.63-.89,2.88-1.85,5.74-2.78,8.61-.07.21-.25.39,0,.65a2.64,2.64,0,0,0,2.84.28A21,21,0,0,1,353,93.83c4.4,0,8.8,0,13.2,0,1.08,0,1.29.3,1.29,1.32,0,14.2,0,28.4,0,42.59,0,8.82.33,17.66-1.45,26.37-.15.76,0,1.06.89,1,4.2,0,8.4,0,12.6,0,1,0,1.06-.41.92-1.14-.23-1.17-.53-2.33-.7-3.51a110,110,0,0,1-.83-15.28c-.09-16.76,0-33.52-.06-50.27,0-.9.22-1.14,1.13-1.13,4.48.05,9,0,13.44,0a20,20,0,0,1,3,.18A21,21,0,0,1,407,98.88c.95.83,1.59-.14,2.34-.36s.25-.81.13-1.19c-.81-2.57-1.7-5.12-2.47-7.71a1.36,1.36,0,0,0-1.58-1.15C394.62,88.51,383.86,88.5,373.1,88.5ZM152.85,110.65a47.31,47.31,0,0,0-8,.48c-5.59.73-9.08,4-10.18,9.49a57.34,57.34,0,0,0-.62,13.47,41.33,41.33,0,0,0,.81,7.34c.15.69.38.93,1.07.95,1.43,0,2.86.13,4.29.24a64.87,64.87,0,0,0,15.38-.26c5.4-.85,8.79-4.08,9.83-9.44a56.17,56.17,0,0,0,.65-12.88,41.43,41.43,0,0,0-.88-8.06c-.13-.53-.26-.83-.89-.85C160.49,111,156.72,110.54,152.85,110.65Zm73.72-22.13c.29.92.54,1.71.82,2.49a.83.83,0,0,0,.64.63c1.57.32,2.28,1.53,2.84,2.83a14.86,14.86,0,0,1,1,6c-.1,17.23.26,34.46-.19,51.69a51.88,51.88,0,0,1-1.34,12c-.25,1,.12,1,.91,1,3.48,0,7-.06,10.44,0,1.16,0,1.51-.2,1.51-1.46q-.07-31.06,0-62.13a28.54,28.54,0,0,0-.26-4.54c-.6-3.76-2.33-6.72-6.23-7.83C233.38,88.25,230,88.51,226.57,88.52ZM405.74,199.46H101.06c-.35,0-.74-.05-.77.5s.36.52.72.52H710.35c.36,0,.76,0,.78-.5s-.35-.53-.72-.53H405.74Zm-201.17,22a1.21,1.21,0,0,1,.42,1c.62,4,1.21,8,1.86,12,.42,2.57.46,2.55,3.15,2.39.57,0,.7-.11.59-.76-.93-5.7-1.8-11.41-2.69-17.11-.35-2.21-.35-2.19-2.6-2.11a.86.86,0,0,0-.94.67c-.8,2.25-1.63,4.48-2.46,6.72l-3.26,8.73c-.45-.26-.48-.66-.6-1q-2.44-6.6-4.86-13.21c-.79-2.14-.84-2.17-3.13-1.94-.44.05-.58.17-.65.63-1.05,6.42-2.14,12.84-3.27,19.58.6-.64,1.56.43,1.77-.85.45-2.71.87-5.42,1.32-8.13.35-2.11.73-4.21,1.11-6.39a1.78,1.78,0,0,1,.6,1c1.58,4.25,3.21,8.48,4.73,12.75.37,1,.82,1.49,2,1.41.89-.06,1.52-.12,1.62-1.17a4.72,4.72,0,0,1,.41-1.12C201.3,230.32,202.91,226,204.57,221.5Zm101.69,5.42c0,3,0,6.08,0,9.12,0,.34-.25.9.44.87,3.27-.11,6.57.4,9.8-.33a9.59,9.59,0,0,0,7.27-9.52c.08-4.81-2.48-8.35-6.9-9.57-3.34-.93-6.75-.38-10.13-.52-.69,0-.49.48-.49.84Zm172.65,10.24c4.18,0,6.84-1,8.73-3.25s2.37-5.26,2.18-8.23a9,9,0,0,0-6.8-8.56,15.43,15.43,0,0,0-5.82-.34,8.86,8.86,0,0,0-8.32,7.19,14,14,0,0,0-.15,5,8.84,8.84,0,0,0,6.71,7.83A10.69,10.69,0,0,0,478.91,237.16Zm87.11,0a11.25,11.25,0,0,0,4.3-.68c5.95-2.09,8.15-11,4-16.24a8.87,8.87,0,0,0-5.88-3.34c-3.47-.53-6.86-.37-9.85,1.78-4.56,3.25-4.31,11.38-1.6,14.91C559.22,236.44,562.24,237.2,566,237.17Zm-145.14,0c5,0,8.28-1.76,9.84-5.38a12.92,12.92,0,0,0,.59-7.75c-.76-3.85-3.2-6.12-7-7a15,15,0,0,0-6.88,0,8.59,8.59,0,0,0-5.24,3.32c-2.57,3.53-2.5,9.82.16,13.3C414.53,236.49,417.56,237.19,420.88,237.17Zm278.75-9c.34-.12.45,0,.54.13q3.12,4,6.22,8.05c.21.26.29.64.77.63,1.26,0,2.52,0,3.94,0l-3.53-4.3c-1.14-1.39-2.23-2.82-3.43-4.16-.7-.8-.68-1,.44-1.25,1.88-.37,3.62-1.13,4.35-3.13,1.09-3-.65-6-4-6.81-2.6-.63-5.25-.16-7.88-.32-.86-.06-1,.23-1,1.05,0,5.59,0,11.19,0,16.78,0,2.14,0,2.07,2.18,2.17,1.14.05,1.47-.22,1.42-1.41C699.55,233.05,699.63,230.56,699.63,228.12Zm-453.69,8.74-6.39-7.77c-1.25-1.52-1.25-1.52.65-2.06,3.23-.92,4.72-3.58,3.58-6.5a5.25,5.25,0,0,0-4-3.27c-2.75-.63-5.57-.17-8.35-.3-.7,0-.49.49-.49.83,0,6.11,0,12.23,0,18.34,0,.62.16.79.78.81,2.81.08,2.81.1,2.81-2.74v-6.15c.56,0,.66.36.85.59l4.18,5.39C241.93,237.14,241.92,237.14,245.94,236.86Zm204.53.06c-2.42-3-4.66-5.77-7-8.51-.69-.82-.58-1,.43-1.2,1.88-.39,3.61-1.09,4.38-3.09,1.12-2.93-.63-6-3.95-6.84-2.63-.65-5.33-.17-8-.33-.81,0-1,.23-1,1,0,5.44,0,10.87,0,16.31,0,2.83,0,2.8,2.85,2.69.67,0,.75-.27.74-.85,0-2.4,0-4.79,0-7.19,0-.28-.18-.65.22-.86.1.06.23.09.29.18q3.12,4,6.23,8.05c.23.3.33.68.87.66C447.84,236.89,449.07,236.92,450.47,236.92ZM124.36,220.61c.49.54.77.82,1,1.12,3.51,4.55,7.06,9.08,10.48,13.69A3.2,3.2,0,0,0,139,237c.78-.07,1-.26,1-1,0-6,0-12,0-18,0-.61,0-1-.84-1s-.82.42-.82,1q0,6.83,0,13.66c0,.35.17.77-.21,1.12-3.63-4.7-7.27-9.29-10.76-14a3.58,3.58,0,0,0-3.72-1.79c-.68.09-.81.22-.81.89q0,9,0,18.1c0,.59-.14,1,.77,1s.8-.43.8-1C124.36,231,124.36,226,124.36,220.61Zm471.25,11.9-.27.1c-.23-.26-.47-.51-.68-.78l-11-14.32c-.36-.46-3.07-.83-3.41-.43a.88.88,0,0,0-.1.55c0,6.2,0,12.4,0,18.59,0,.79.4.7.89.71s.74,0,.73-.71c-.07-4.88-.05-9.76-.05-14.64,0-.24-.14-.58.33-.69l11.76,15.24a3.91,3.91,0,0,0,3.25.77c.31-.16.18-.4.18-.62,0-6.2,0-12.4,0-18.6,0-.75-.34-.73-.86-.72s-.75,0-.74.69c0,4,0,8.08,0,12.12Zm-142.67-5.62v7.32c0,2.83,0,2.82,2.81,2.73.62,0,.79-.17.78-.81,0-2.24,0-4.48,0-6.72,0-.88.17-1.21,1.11-1.15a14.28,14.28,0,0,0,4.17-.27c3.06-.71,4.88-2.76,4.89-5.52s-1.56-4.64-4.84-5.28c-2.64-.53-5.34-.1-8-.24-.78,0-.9.24-.89.94C453,220.89,452.94,223.89,452.94,226.89Zm-238.72,0h0v7.31c0,3,0,3,3,2.69.44,0,.53-.1.51-.61-.07-2.31,0-4.63-.08-6.95,0-.94.3-1.15,1.17-1.11a14.94,14.94,0,0,0,4-.26c3.13-.69,5.11-2.86,5.06-5.62s-1.79-4.69-5.08-5.24c-2.73-.45-5.5-.1-8.25-.17-.45,0-.45.22-.44.62C214.24,220.7,214.22,223.82,214.22,226.93Zm168.07,10-7.13-18.08c-.79-2-.79-2-2.92-1.89-.59,0-.78.22-1,.76-.79,2.21-1.67,4.38-2.51,6.57-1.6,4.18-3.19,8.37-4.78,12.54,1.15.31,1.78.11,2.09-1.17.36-1.45,1.09-2.81,1.59-4.23a1,1,0,0,1,1.13-.77q3.22.06,6.47,0a1.06,1.06,0,0,1,1.2.85c.56,1.65,1.24,3.27,1.8,4.92.14.4.28.51.64.5Zm-239.62-.1c1.16.3,1.8.13,2.1-1.16a45.21,45.21,0,0,1,1.58-4.24,1,1,0,0,1,1.13-.77c2.15,0,4.31,0,6.47,0a1.05,1.05,0,0,1,1.19.85c.56,1.61,1.22,3.19,1.8,4.8.13.36.18.64.67.63,1.1,0,2.21,0,3.38,0-2.41-6.11-4.78-12.09-7.14-18.07-.82-2.09-.81-2.08-3-1.9a.75.75,0,0,0-.77.56C147.61,223.93,145.15,230.35,142.67,236.82Zm152.06.1c-2.43-6.14-4.78-12.12-7.15-18.1-.82-2.08-.83-2.06-3.06-1.87a.76.76,0,0,0-.76.59q-3.66,9.63-7.33,19.27c1.54.22,1.53.21,2-1.12s1.1-2.82,1.62-4.24a1,1,0,0,1,1.1-.8c2.2,0,4.39,0,6.59,0a1,1,0,0,1,1.11.81c.56,1.61,1.22,3.19,1.79,4.81.13.38.2.66.67.65ZM646,224.29c0-2.12,0-4.24,0-6.36,0-.53.21-1-.67-1s-.9.25-.9,1c0,4,0,8,0,12,0,3.39-1.4,5.15-4.73,5.67-3.61.57-7.42-.65-7.27-6,.1-3.36.05-6.72,0-10.08,0-.84.51-2-.21-2.46s-1.79-.09-2.71-.1h-.12c-.34,0-.47.12-.47.5.05,4.52,0,9,.13,13.55a6.16,6.16,0,0,0,5.1,5.86,15.36,15.36,0,0,0,5.36.19c4.43-.54,6.45-2.93,6.45-7.38Zm-383.2,9.17c-.16.43-.24.7-.36.95-.45.93-.22,1.42.8,1.86a12.63,12.63,0,0,0,6.56.81,6.3,6.3,0,0,0,5.52-4.76c.51-2.67-.61-4.77-3.46-6.29-1.48-.78-3-1.4-4.51-2.18s-2.07-1.95-1.73-3.31a3.31,3.31,0,0,1,3.12-2.35,7.74,7.74,0,0,1,4.22,1.11c.37.19.83.61.92-.22.06-.54,1-1.17-.19-1.61a12.36,12.36,0,0,0-6.34-.66,5.77,5.77,0,0,0-5.12,4.65c-.37,2,.78,4,3.27,5.34,1.42.78,2.94,1.4,4.4,2.13,1.82.92,2.49,2.24,2.07,4a3.83,3.83,0,0,1-3.63,2.59A7.72,7.72,0,0,1,262.75,233.46Zm387.11,0a8.21,8.21,0,0,1-.38,1.22c-.43.88,0,1.2.77,1.56a12.14,12.14,0,0,0,6.56.87,6.07,6.07,0,0,0,5.64-5.29,5.27,5.27,0,0,0-3.1-5.56c-1.61-.87-3.32-1.56-4.93-2.43s-2-1.89-1.7-3.19a3.25,3.25,0,0,1,3.16-2.44,7.7,7.7,0,0,1,4.21,1.13c.25.14.71.61.81,0s1.07-1.34.08-1.71c-3.08-1.17-6.22-1.48-9.22.27a4.89,4.89,0,0,0,.27,8.61c1.64.89,3.36,1.63,5,2.51,1.83,1,2.47,2.29,2,4a3.85,3.85,0,0,1-3.66,2.57A7.85,7.85,0,0,1,649.86,233.44Zm-531.74-8.9h.07c0-2.35,0-4.71,0-7.06,0-.36,0-.5-.4-.52-.74-.05-1.21,0-1.19,1,.08,4,0,7.91,0,11.87,0,3.45-1.5,5.29-4.92,5.76-3.6.49-7.29-.87-7.07-5.94.15-3.39,0-6.79,0-10.19,0-2.58,0-2.55-2.64-2.53-.71,0-1,.17-1,.93,0,4.12,0,8.24,0,12.35A6.49,6.49,0,0,0,106,236.8a16.19,16.19,0,0,0,6,.2c3.7-.43,6.37-3,6.09-7.3C118,228,118.12,226.26,118.12,224.54Zm507.62,9.13-.83.59a6.84,6.84,0,0,1-9.94-1.84,10.65,10.65,0,0,1-1.07-8.64c1.08-4.28,4.41-6.33,8.68-5.38a14.48,14.48,0,0,1,3.33,1.59,5.52,5.52,0,0,1,0-1.09c.26-1.18-.36-1.62-1.4-1.82a17.73,17.73,0,0,0-3.32-.41,12.71,12.71,0,0,0-7.34,1.68c-3.6,2.34-4.35,5.88-4,9.85.31,3.68,1.8,6.63,5.37,8.11a13.7,13.7,0,0,0,8.58.48c2.2-.52,2.26-.72,2.11-3C625.89,233.78,625.84,233.75,625.74,233.67ZM544,233.6l-1,.7a6.87,6.87,0,0,1-10.23-2.44,11.08,11.08,0,0,1-.35-9.27c1.31-3.41,4.22-4.87,7.88-4.25a11.62,11.62,0,0,1,3.74,1.69,6.58,6.58,0,0,1,0-1.19c.22-1.12-.35-1.52-1.34-1.75a18.49,18.49,0,0,0-6.07-.31c-4.12.42-7.38,2.92-8.32,6.48a14.05,14.05,0,0,0-.07,6.76,8.41,8.41,0,0,0,6.48,6.77,14.79,14.79,0,0,0,7,.06C544.15,236.31,544.14,236.27,544,233.6ZM408.64,220c.33-2.54.32-2.51-1.88-3a12.89,12.89,0,0,0-2.62-.28c-2.79-.07-5.51.27-7.83,2-3.38,2.53-4,6.1-3.53,10a8.83,8.83,0,0,0,3,6.2c3.37,2.76,7.25,2.76,11.23,1.81,2-.48,2.14-.86,1.55-2.9l-1.08.74a6.83,6.83,0,0,1-9.55-2c-2-3.27-1.94-6.76-.58-10.22a6.25,6.25,0,0,1,6.07-4.06A8.15,8.15,0,0,1,408.64,220Zm-81,6.85c0,3,0,6.08,0,9.12,0,.79.18,1,1,1,3,0,6.08,0,9.12,0H338c.92,0,.52-.71.58-1.14.08-.62-.34-.42-.7-.41-2,0-4,0-6,.09-.71,0-.75-.34-.75-.88,0-2.08,0-4.16,0-6.24,0-.72.2-1,.94-1,2,.05,3.92,0,5.88.05.62,0,.64-.19.64-.65s0-.76-.67-.73c-2,.08-3.92,0-5.88,0-.64,0-.92-.12-.91-.84.05-2,0-4,0-6,0-.69.2-.89.88-.88,1.92,0,3.84,0,5.76,0,.47,0,.84,0,.84-.65s-.27-.79-.85-.79c-3.12,0-6.24,0-9.36,0-.69,0-.85.2-.84.88C327.64,220.82,327.61,223.82,327.62,226.82Zm353.32.13c0,3,0,6,0,9,0,.8.24,1,1,1,2.08-.05,4.16,0,6.24,0h3.24c.85,0,.48-.64.54-1s-.09-.56-.6-.53c-2,.08-4,.05-6,.1-.61,0-.86-.17-.85-.81q0-3.18,0-6.36c0-.67.21-.91.89-.9,1.88,0,3.76,0,5.64,0,.43,0,.93.25,1-.59s-.49-.72-1-.72c-1.84,0-3.68,0-5.52,0-.72,0-1-.2-1-.95,0-2,0-3.92,0-5.87,0-.8.3-.92,1-.91,1.84,0,3.68,0,5.52,0,.55,0,1,.05,1-.77s-.5-.65-1-.66c-3,0-6.08,0-9.12,0-.8,0-1,.24-1,1C681,221,680.94,224,680.94,227Zm-432.48,0c0,3,0,6,0,9,0,.91.29,1,1.06,1,3,0,5.92,0,8.88,0h.48c.81,0,.57-.57.62-1s-.22-.56-.71-.54c-2,.07-4,0-6,.08-.71,0-.76-.33-.75-.88,0-2.08,0-4.16,0-6.23,0-.74.2-1,.94-1,1.92,0,3.84,0,5.76,0,.55,0,.78,0,.78-.66s-.26-.69-.79-.68c-1.92,0-3.84,0-5.76,0-.76,0-.95-.24-.93-1,0-1.92.05-3.84,0-5.76,0-.75.16-1,1-1,1.87.06,3.75,0,5.63,0,.46,0,.86.05.86-.64s-.27-.8-.86-.8c-3.12,0-6.23,0-9.35,0-.69,0-.84.19-.83.87C248.48,220.86,248.46,223.9,248.46,226.93Zm-65,8.39c-2.28.25-4.52.06-6.75.13-.59,0-.76-.24-.76-.78q0-3.24,0-6.47c0-.62.21-.85.83-.84,2,0,3.92,0,5.88,0,.44,0,.91.29.9-.57s-.42-.74-1-.73c-1.92,0-3.84,0-5.76,0-.69,0-.9-.23-.89-.9,0-1.91.05-3.83,0-5.75,0-.82.2-1.11,1.06-1.09,1.91.07,3.83,0,5.75,0,.51,0,.82,0,.8-.69s-.2-.75-.76-.74c-3.2,0-6.4,0-9.6,0-.52,0-.71.07-.7.71q.06,9.17,0,18.34c0,.76.17.93.9.92,2.91,0,5.83,0,8.75,0C183.64,236.92,183.64,236.92,183.51,235.32ZM673.08,228h0c0-2.84,0-5.67,0-8.51,0-.71.17-1,.93-1,1.36.07,2.72,0,4.07.09.57,0,1,.19,1-.66s-.16-1-.93-1c-2.39.05-4.79,0-7.19,0-2.24,0-4.48,0-6.72,0-.9,0-.79.48-.82,1.05s.39.67.85.6c1.43-.24,2.87,0,4.3-.12.87-.07,1.07.28,1.06,1.09,0,4.92,0,9.84,0,14.75,0,.85-.3,2.2.09,2.44.67.41,1.76.14,2.68.16h.24c.4,0,.48-.11.48-.55C673.06,233.57,673.08,230.77,673.08,228Zm-321.55-1.06h0c0,3.11,0,6.22,0,9.34,0,.53.07.68.59.68,3.15,0,6.31,0,9.46,0,.66,0,.67-.34.69-.82s-.2-.72-.77-.7c-1.76.05-3.52,0-5.27.06-1,.05-1.2-.3-1.19-1.22,0-4.87,0-9.74,0-14.61,0-2.95,0-2.95-3-2.68-.43,0-.56.08-.55.6C351.56,220.68,351.53,223.79,351.53,226.91Zm199.54.15v-7.55c0-2.59,0-2.56-2.63-2.57-.82,0-1,.26-1,1,0,5.44,0,10.87,0,16.31,0,2.76,0,2.73,2.74,2.68.69,0,.85-.21.84-.88C551,233.06,551.07,230.06,551.07,227.06Zm17.56-15.7c-.93,0-2.07-.72-2.62.08a29.93,29.93,0,0,0-2.07,4.25c.83.06,1.42.21,1.89-.48C566.72,213.9,567.69,212.64,568.63,211.36Z"/><path class="cls-2" d="M135.86,147.14c4.91.3,9.8.71,14.72.57,3.26-.09,6.52-.17,9.6-1.49,5.33-2.29,8.08-6.6,9.52-12a32.8,32.8,0,0,0,.9-7.1,70.71,70.71,0,0,0-1.87-21.25c-2.06-7.66-6.11-13.89-13.26-17.75a33.81,33.81,0,0,0-13.22-3.68,77.92,77.92,0,0,0-12.69.07A58.44,58.44,0,0,0,104,92.49c-.92.54-1.86,1.07-2.86,1.63a3.87,3.87,0,0,1,.55-2.08c2.85-6.72,7.88-11.41,14.12-14.91A55.76,55.76,0,0,1,134.48,71a95.86,95.86,0,0,1,18.37-1.15c11,.38,21.8,2,31.78,7a29.26,29.26,0,0,1,12,10.4,16.47,16.47,0,0,1,2.66,9q-.06,23.64,0,47.28c0,6.78-2.93,11.84-8.43,15.55-4.21,2.83-9,4.19-13.89,5a73.32,73.32,0,0,1-14,.86c-5.64-.13-11.18-.76-16.32-3.37-5.68-2.9-9-7.61-10.74-13.65-.08-.27-.25-.6,0-.9Z"/><path class="cls-2" d="M164.38,106.55a113,113,0,0,0-16.82-.67c-5.15.11-9.84,1.42-13.34,5.57a19.57,19.57,0,0,0-4.34,10.28,72.38,72.38,0,0,0-.22,16.25c.5,5.59,1.51,11.09,4.1,16.18,3.92,7.73,10.3,12.24,18.67,14.1,5.71,1.27,11.48,1.08,17.27.74A57.34,57.34,0,0,0,191,163.71c2.72-1.29,5.33-2.79,8.13-4.37a21.33,21.33,0,0,1-3.42,7.09c-4.73,6.67-11.37,10.67-18.92,13.33a69.35,69.35,0,0,1-16.52,3.42,104.27,104.27,0,0,1-18.53.17c-9.28-.77-18.33-2.51-26.68-6.91-5-2.62-9.24-6-12-11a16.24,16.24,0,0,1-2.19-8.06c0-15.84.06-31.68,0-47.51,0-6.69,2.88-11.69,8.28-15.38a34.32,34.32,0,0,1,13-5,74.51,74.51,0,0,1,17.89-.9c5.44.25,10.72,1.36,15.41,4.42C160.31,96.26,163,100.9,164.38,106.55Z"/><path class="cls-3" d="M556.46,162.36c-.83,2.76-.83,2.76-3.61,2.76-3.84,0-7.68,0-11.52,0a24.89,24.89,0,0,1-3.34-.24,5.37,5.37,0,0,1-3.53-2.26c-3.43-4.41-6.55-9.05-9.8-13.6q-6.72-9.39-13.38-18.83a1.64,1.64,0,0,0-1.68-.8,19.58,19.58,0,0,1-5.72.05c-.38-.08-.62,0-.6.47s0,.64,0,1c0,11,0,22.08,0,33.12,0,1-.26,1.18-1.19,1.17-3.51-.06-7-.06-10.55,0-.92,0-1.23-.21-1-1.13,1.48-6.6,1.45-13.31,1.46-20q0-22.2,0-44.4a16.62,16.62,0,0,0-.29-3,6,6,0,0,0-5-5c-.39-.08-.93.09-1.13-.45a17.31,17.31,0,0,1-.83-2.49c-.08-.38.42-.23.66-.23,1.56,0,3.12,0,4.68,0,8,0,16,0,24,.14,4.66.09,9.36.41,13.75,2.16,6.49,2.59,10.81,7.2,12.26,14.2a17.89,17.89,0,0,1-8.55,19.21,27.71,27.71,0,0,1-8.16,3.25c-.87.2-1,.41-.45,1.2,6.34,8.81,12.64,17.65,19,26.46a17,17,0,0,0,11.21,6.69C554.18,162,555.28,162.16,556.46,162.36Zm-53.22-52.58c0,4.67,0,9.35,0,14,0,.9.11,1.28,1.18,1.37A26.48,26.48,0,0,0,517.92,123c5.71-2.62,10-8.48,9.5-15.08a15.18,15.18,0,0,0-14.9-14.27,68,68,0,0,0-8.45.77c-.74.08-.85.48-.84,1.13C503.25,100.26,503.24,105,503.24,109.78Z"/><path class="cls-3" d="M594.25,166.56c-18.52.5-32.49-13.31-35.77-28.94-1.9-9.05-1.91-18.05,1.53-26.71,5-12.55,14.11-20.71,27.4-23.39,11.35-2.28,21.7.52,30.55,8.12A37.34,37.34,0,0,1,631,120.26c1.11,8.93.32,17.65-3.71,25.76-5.56,11.18-14.45,18.21-27,20.29a15.26,15.26,0,0,1-2.13.24C596.89,166.59,595.57,166.56,594.25,166.56Zm25-40.14a54.08,54.08,0,0,0-2.14-16A27.39,27.39,0,0,0,609.69,98c-4.65-4.32-10.33-5.44-16.4-5.3-9.18.21-15.71,4.53-19.71,12.76a42.14,42.14,0,0,0-3.94,16.14c-.46,7.37-.1,14.68,2.26,21.77,1.89,5.68,4.72,10.78,9.88,14.13,6.12,4,12.86,4.18,19.69,2.46s10.85-6.46,13.69-12.46C618.32,140.82,619.23,133.7,619.24,126.42Z"/><path class="cls-4" d="M320.64,143v-1.35q0-25.92,0-51.84c0-1.1.27-1.43,1.36-1.37,1.76.1,3.52.07,5.28,0,.86,0,1,.37.79,1-1.23,4.76-1.32,9.63-1.4,14.49-.32,19.88-.06,39.75-.14,59.63,0,1.72-.07,1.78-1.74,1.24a7.47,7.47,0,0,1-3.39-2.56q-6.4-7.84-12.8-15.7-11.71-14.42-23.41-28.85l-8.6-10.62a2.84,2.84,0,0,0-1-1c-.36.39-.18.85-.18,1.26q0,28.2,0,56.4c0,1.06-.22,1.46-1.36,1.38-1.59-.11-3.2,0-4.8,0-1.33,0-1.44-.1-1.13-1.44a46.3,46.3,0,0,0,1-7.33c.22-3.59.43-7.18.43-10.77q0-22.74,0-45.48a19.35,19.35,0,0,0-.27-3.22,6,6,0,0,0-5-5.21c-.4-.09-.95.08-1.15-.44-.32-.81-.6-1.63-.84-2.47-.08-.28.24-.26.41-.25,3.71,0,7.44-.22,11.05.92a17.07,17.07,0,0,1,8,6q14.35,17.68,28.64,35.41,4.69,5.83,9.41,11.66C319.94,142.72,320.07,143.08,320.64,143Z"/><path class="cls-4" d="M418.63,88.65a2.19,2.19,0,0,1,1.22-.15q25.26,0,50.52,0c1.11,0,1.36.33,1.27,1.34a29.33,29.33,0,0,0,0,3.11c0,.68,0,1.09-.9.83a5.68,5.68,0,0,0-1.55-.1c-10.2,0-20.4,0-30.6,0-1,0-1.29.2-1.28,1.24q.06,13.08,0,26.15c0,.95.24,1.2,1.19,1.19,9.24,0,18.48,0,27.72,0,1,0,1.48.13,1.33,1.27s.52,3-.28,3.67-2.36.2-3.59.2c-8.36,0-16.72,0-25.08,0-1,0-1.3.2-1.29,1.24,0,8.4,0,16.8,0,25.2a24.91,24.91,0,0,0,.25,3.1,2.34,2.34,0,0,0,1.94,2.14,13.44,13.44,0,0,0,3,.34c5.28,0,10.56,0,15.84,0a23.22,23.22,0,0,0,15.54-5.47c1.13-1,1.85,0,2.68.35s.17,1,0,1.45c-.9,2.88-1.88,5.73-2.78,8.6a1.09,1.09,0,0,1-1.24.91q-23.58,0-47.16,0c-.93,0-1.16-.17-.91-1.13a51.47,51.47,0,0,0,1.31-11.74c.45-17.35.09-34.71.19-52.06a14,14,0,0,0-.64-4.72,5.57,5.57,0,0,0-4.46-3.73A2,2,0,0,1,419.06,90,12.3,12.3,0,0,0,418.63,88.65Z"/><path class="cls-3" d="M642.41,126.85c0-9.57,2.29-18.07,8-25.45,6-7.77,13.81-12.8,23.58-14.16,10.72-1.48,20.56.85,28.76,8.32a20.76,20.76,0,0,1,5.78,8.39,2.57,2.57,0,0,1-.07,2.07,28.49,28.49,0,0,1-4.92,7.46c-.24.26-.51.93-1,.38s-1.37-.68-.74-1.7c1.81-2.93,1.43-5.79-.28-8.66-3.64-6.1-9.17-9.24-16-10.36-4.7-.77-9.38-.83-13.92.84-8,2.92-12.75,8.67-15,16.75a60.82,60.82,0,0,0-1.71,22.15,41.24,41.24,0,0,0,4.79,16.61c3.34,5.94,8.14,10,15.06,11,11.47,1.58,21.26-1.44,28.49-11,.89-1.18,1.75-2.38,2.53-3.63.38-.59.66-.73,1.31-.39,2,1.06,2,1,.92,3-4,7-9.3,13-17,15.82-12.77,4.75-24.64,2.58-35.12-6.14-8.1-6.75-12.15-15.68-13.22-26.07C642.51,130.25,642.53,128.38,642.41,126.85Z"/><path class="cls-4" d="M373.1,88.5c10.76,0,21.52,0,32.27,0A1.36,1.36,0,0,1,407,89.62c.77,2.59,1.66,5.14,2.47,7.71.12.38.64,1-.13,1.19s-1.39,1.19-2.34.36A21,21,0,0,0,396.35,94a20,20,0,0,0-3-.18c-4.48,0-9,0-13.44,0-.91,0-1.13.23-1.13,1.13,0,16.75,0,33.51.06,50.27a110,110,0,0,0,.83,15.28c.17,1.18.47,2.34.7,3.51.14.73.06,1.15-.92,1.14-4.2-.06-8.4-.05-12.6,0-.86,0-1-.29-.89-1,1.78-8.71,1.43-17.55,1.45-26.37,0-14.19,0-28.39,0-42.59,0-1-.21-1.34-1.29-1.32-4.4.07-8.8.06-13.2,0a21,21,0,0,0-13.44,4.84,2.64,2.64,0,0,1-2.84-.28c-.22-.26,0-.44,0-.65.93-2.87,1.89-5.73,2.78-8.61.24-.79.79-.63,1.32-.63q13.32,0,26.63,0Z"/><path class="cls-2" d="M152.85,110.65c3.87-.11,7.64.35,11.43.48.63,0,.76.32.89.85a41.43,41.43,0,0,1,.88,8.06,56.17,56.17,0,0,1-.65,12.88c-1,5.36-4.43,8.59-9.83,9.44a64.87,64.87,0,0,1-15.38.26c-1.43-.11-2.86-.21-4.29-.24-.69,0-.92-.26-1.07-.95a41.33,41.33,0,0,1-.81-7.34,57.34,57.34,0,0,1,.62-13.47c1.1-5.52,4.59-8.76,10.18-9.49A47.31,47.31,0,0,1,152.85,110.65Z"/><path class="cls-4" d="M226.57,88.52c3.45,0,6.81-.27,10.07.67,3.9,1.11,5.63,4.07,6.23,7.83a28.54,28.54,0,0,1,.26,4.54q0,31.07,0,62.13c0,1.26-.35,1.49-1.51,1.46-3.48-.08-7-.05-10.44,0-.79,0-1.16-.07-.91-1a51.88,51.88,0,0,0,1.34-12c.45-17.23.09-34.46.19-51.69a14.86,14.86,0,0,0-1-6c-.56-1.3-1.27-2.51-2.84-2.83a.83.83,0,0,1-.64-.63C227.11,90.23,226.86,89.44,226.57,88.52Z"/><path class="cls-5" d="M405.74,199.46H710.41c.37,0,.75,0,.72.53s-.42.49-.78.5H101c-.36,0-.75.05-.72-.52s.42-.49.77-.5H405.74Z"/><path class="cls-6" d="M204.57,221.5c-1.66,4.46-3.27,8.82-4.89,13.17a4.72,4.72,0,0,0-.41,1.12c-.1,1.05-.73,1.11-1.62,1.17-1.17.08-1.62-.37-2-1.41-1.52-4.27-3.15-8.5-4.73-12.75a1.78,1.78,0,0,0-.6-1c-.38,2.18-.76,4.28-1.11,6.39-.45,2.71-.87,5.42-1.32,8.13-.21,1.28-1.17.21-1.77.85,1.13-6.74,2.22-13.16,3.27-19.58.07-.46.21-.58.65-.63,2.29-.23,2.34-.2,3.13,1.94q2.41,6.62,4.86,13.21c.12.31.15.71.6,1l3.26-8.73c.83-2.24,1.66-4.47,2.46-6.72a.86.86,0,0,1,.94-.67c2.25-.08,2.25-.1,2.6,2.11.89,5.7,1.76,11.41,2.69,17.11.11.65,0,.73-.59.76-2.69.16-2.73.18-3.15-2.39-.65-4-1.24-8-1.86-12A1.21,1.21,0,0,0,204.57,221.5Z"/><path class="cls-6" d="M306.26,226.92v-9.11c0-.36-.2-.87.49-.84,3.38.14,6.79-.41,10.13.52,4.42,1.22,7,4.76,6.9,9.57a9.59,9.59,0,0,1-7.27,9.52c-3.23.73-6.53.22-9.8.33-.69,0-.44-.53-.44-.87C306.25,233,306.26,230,306.26,226.92Zm3.53-.06v5.87c0,2.56,0,2.46,2.54,2.58,4.26.21,6.85-2.29,7.48-6.31.49-3.12.35-6.15-2.19-8.53-2-1.84-4.4-2-6.92-2-.77,0-.93.28-.92,1C309.81,221.91,309.79,224.39,309.79,226.86Z"/><path class="cls-6" d="M478.91,237.16a10.69,10.69,0,0,1-3.47-.36,8.84,8.84,0,0,1-6.71-7.83,14,14,0,0,1,.15-5,8.86,8.86,0,0,1,8.32-7.19,15.43,15.43,0,0,1,5.82.34,9,9,0,0,1,6.8,8.56c.19,3-.18,5.84-2.18,8.23S483.09,237.16,478.91,237.16Zm7.15-10.34a13.12,13.12,0,0,0-.51-4.08,6,6,0,0,0-6-4.59c-3.38-.1-5.55,1.25-6.54,4.26a14,14,0,0,0,.22,9.6,5.53,5.53,0,0,0,5,3.68c2.58.25,4.83-.35,6.37-2.64A10.61,10.61,0,0,0,486.06,226.82Z"/><path class="cls-6" d="M566,237.17c-3.78,0-6.8-.73-9-3.57-2.71-3.53-3-11.66,1.6-14.91,3-2.15,6.38-2.31,9.85-1.78a8.87,8.87,0,0,1,5.88,3.34c4.11,5.27,1.91,14.15-4,16.24A11.25,11.25,0,0,1,566,237.17Zm6.59-10.27a15.58,15.58,0,0,0-.63-4.39,6,6,0,0,0-6-4.37c-3.24-.09-5.29,1.16-6.33,4.05a13.9,13.9,0,0,0,0,9.6c.91,2.59,2.85,3.78,5.56,3.94a6.15,6.15,0,0,0,6.27-3.29A11.62,11.62,0,0,0,572.61,226.9Z"/><path class="cls-6" d="M420.88,237.17c-3.32,0-6.35-.68-8.49-3.5-2.66-3.48-2.73-9.77-.16-13.3a8.59,8.59,0,0,1,5.24-3.32,15,15,0,0,1,6.88,0c3.76.9,6.2,3.17,7,7a12.92,12.92,0,0,1-.59,7.75C429.16,235.41,425.89,237.16,420.88,237.17Zm.08-19c-3.22,0-5.25,1.38-6.21,4.41a14.53,14.53,0,0,0,.18,9.28,5.47,5.47,0,0,0,2.11,2.82,6.72,6.72,0,0,0,10.4-3.9,15.22,15.22,0,0,0,0-7.7C426.56,219.74,424.38,218.12,421,218.14Z"/><path class="cls-6" d="M699.63,228.12c0,2.44-.08,4.93,0,7.42.05,1.19-.28,1.46-1.42,1.41-2.18-.1-2.18,0-2.18-2.17,0-5.59,0-11.19,0-16.78,0-.82.16-1.11,1-1.05,2.63.16,5.28-.31,7.88.32,3.34.82,5.08,3.81,4,6.81-.73,2-2.47,2.76-4.35,3.13-1.12.22-1.14.45-.44,1.25,1.2,1.34,2.29,2.77,3.43,4.16l3.53,4.3c-1.42,0-2.68,0-3.94,0-.48,0-.56-.37-.77-.63q-3.1-4-6.22-8.05C700.08,228.12,700,228,699.63,228.12Zm0-5.65c0,1.12,0,2.23,0,3.35,0,.31,0,.6.4.73a4.69,4.69,0,0,0,5.34-2.62,4.17,4.17,0,0,0-.77-4.25c-1.2-1.43-2.88-1.33-4.51-1.34-.55,0-.46.44-.46.78C699.62,220.24,699.63,221.35,699.63,222.47Z"/><path class="cls-6" d="M245.94,236.86c-4,.28-4,.28-6.4-2.83l-4.18-5.39c-.19-.23-.29-.58-.85-.59v6.15c0,2.84,0,2.82-2.81,2.74-.62,0-.78-.19-.78-.81,0-6.11,0-12.23,0-18.34,0-.34-.21-.86.49-.83,2.78.13,5.6-.33,8.35.3a5.25,5.25,0,0,1,4,3.27c1.14,2.92-.35,5.58-3.58,6.5-1.9.54-1.9.54-.65,2.06Zm-11.43-14.47c0,1.12,0,2.23,0,3.35,0,.29-.11.62.32.8,1.76.7,4.72-.66,5.39-2.54a4.15,4.15,0,0,0-.76-4.35c-1.22-1.42-2.9-1.3-4.53-1.31-.46,0-.42.38-.42.7Z"/><path class="cls-6" d="M450.47,236.92c-1.4,0-2.63,0-3.85,0-.54,0-.64-.36-.87-.66q-3.11-4-6.23-8.05c-.06-.09-.19-.12-.29-.18-.4.21-.22.58-.22.86,0,2.4,0,4.79,0,7.19,0,.58-.07.83-.74.85-2.85.11-2.85.14-2.85-2.69,0-5.44,0-10.87,0-16.31,0-.76.15-1,1-1,2.67.16,5.37-.32,8,.33,3.32.82,5.07,3.91,3.95,6.84-.77,2-2.5,2.7-4.38,3.09-1,.21-1.12.38-.43,1.2C445.81,231.15,448.05,234,450.47,236.92Zm-10.31-10.37c3.94,0,6-3.2,4.27-6.26-1-1.77-2.76-1.94-4.57-2-.66,0-.9.18-.89.88,0,2,.06,4,0,6C438.93,226.21,439.09,226.85,440.16,226.55Z"/><path class="cls-6" d="M509.05,236.86a.65.65,0,0,1-.22.08c-1.44,0-3.09.4-4.25-.17s-1.81-2.14-2.69-3.26l-4.62-5.9c0,2.9-.06,5.48,0,8,0,1.07-.26,1.33-1.3,1.29-2.32-.08-2.32,0-2.32-2.4,0-5.51,0-11,0-16.55,0-.83.17-1.11,1-1.05,2.63.16,5.29-.32,7.89.32,3.23.79,5,3.66,4,6.61-.7,2.2-2.55,3-4.56,3.35-1.12.2-.92.48-.38,1.13,2.15,2.58,4.26,5.18,6.39,7.77.25.29.45.72,1,.47Zm-11.81-14.53V225c0,1.62,0,1.62,1.68,1.61,2.49,0,4.13-1.42,4.35-3.7a4.48,4.48,0,0,0-5.63-4.63c-.45.13-.39.43-.39.73C497.24,220.09,497.24,221.21,497.24,222.33Z"/><path class="cls-6" d="M124.36,220.61c0,5.35,0,10.34,0,15.32,0,.6.09,1-.8,1s-.77-.45-.77-1q0-9,0-18.1c0-.67.13-.8.81-.89a3.58,3.58,0,0,1,3.72,1.79c3.49,4.72,7.13,9.31,10.76,14,.38-.35.21-.77.21-1.12q0-6.83,0-13.66c0-.6,0-1,.82-1s.84.42.84,1c0,6,0,12,0,18,0,.76-.19.95-1,1a3.2,3.2,0,0,1-3.14-1.54c-3.42-4.61-7-9.14-10.48-13.69C125.13,221.43,124.85,221.15,124.36,220.61Z"/><path class="cls-6" d="M595.61,232.51v-2.74c0-4,0-8.08,0-12.12,0-.69.26-.69.74-.69s.87,0,.86.72c0,6.2,0,12.4,0,18.6,0,.22.13.46-.18.62a3.91,3.91,0,0,1-3.25-.77L582,220.89c-.47.11-.33.45-.33.69,0,4.88,0,9.76.05,14.64,0,.7-.24.71-.73.71s-.89.08-.89-.71c0-6.19,0-12.39,0-18.59a.88.88,0,0,1,.1-.55c.34-.4,3,0,3.41.43l11,14.32c.21.27.45.52.68.78Z"/><path class="cls-6" d="M452.94,226.89c0-3,0-6,0-9,0-.7.11-1,.89-.94,2.67.14,5.37-.29,8,.24,3.28.64,4.86,2.45,4.84,5.28s-1.83,4.81-4.89,5.52a14.28,14.28,0,0,1-4.17.27c-.94-.06-1.14.27-1.11,1.15.06,2.24,0,4.48,0,6.72,0,.64-.16.79-.78.81-2.81.09-2.81.1-2.81-2.73Zm5.48-8.47a4,4,0,0,1-.6,0c-1.13-.21-1.39.3-1.34,1.36.09,1.63,0,3.27,0,4.9,0,2.18,0,2.18,2.21,2.14,3.52-.07,4.84-2.79,4.1-5.77C462.36,219.19,460.93,218.42,458.42,218.42Z"/><path class="cls-6" d="M214.22,226.93c0-3.11,0-6.23,0-9.34,0-.4,0-.63.44-.62,2.75.07,5.52-.28,8.25.17,3.29.55,5,2.45,5.08,5.24s-1.93,4.93-5.06,5.62a14.94,14.94,0,0,1-4,.26c-.87,0-1.2.17-1.17,1.11.08,2.32,0,4.64.08,6.95,0,.51-.07.57-.51.61-3,.27-3,.27-3-2.69v-7.31Zm3.5-4.28v1.92c0,2.28,0,2.28,2.25,2.25a4.09,4.09,0,0,0,4.37-4.32c0-2.6-1.57-4.1-4.35-4.1a7.79,7.79,0,0,1-1.08,0c-.89-.11-1.3.15-1.21,1.15S217.72,221.61,217.72,222.65Z"/><path class="cls-6" d="M382.29,236.92H378.9c-.36,0-.5-.1-.64-.5-.56-1.65-1.24-3.27-1.8-4.92a1.06,1.06,0,0,0-1.2-.85q-3.24.06-6.47,0a1,1,0,0,0-1.13.77c-.5,1.42-1.23,2.78-1.59,4.23-.31,1.28-.94,1.48-2.09,1.17,1.59-4.17,3.18-8.36,4.78-12.54.84-2.19,1.72-4.36,2.51-6.57.19-.54.38-.75,1-.76,2.13-.06,2.13-.08,2.92,1.89ZM372,220.09c-1.15,3-2.17,5.76-3.21,8.49-.25.64.13.64.58.64,1.76,0,3.52,0,5.27,0,.85,0,.81-.28.56-.9-.65-1.58-1.25-3.18-1.87-4.78C372.89,222.49,372.49,221.43,372,220.09Z"/><path class="cls-6" d="M142.67,236.82c2.48-6.47,4.94-12.89,7.37-19.31a.75.75,0,0,1,.77-.56c2.23-.18,2.22-.19,3,1.9,2.36,6,4.73,12,7.14,18.07-1.17,0-2.28,0-3.38,0-.49,0-.54-.27-.67-.63-.58-1.61-1.24-3.19-1.8-4.8a1.05,1.05,0,0,0-1.19-.85c-2.16,0-4.32,0-6.47,0a1,1,0,0,0-1.13.77,45.21,45.21,0,0,0-1.58,4.24C144.47,237,143.83,237.12,142.67,236.82Zm8-16.74c-1.16,3-2.21,5.81-3.25,8.56-.14.39,0,.59.43.58h5.74c.43,0,.58-.13.4-.57C152.92,225.9,151.85,223.14,150.67,220.08Z"/><path class="cls-6" d="M294.73,236.92h-3.39c-.47,0-.54-.27-.67-.65-.57-1.62-1.23-3.2-1.79-4.81a1,1,0,0,0-1.11-.81c-2.2,0-4.39,0-6.59,0a1,1,0,0,0-1.1.8c-.52,1.42-1.09,2.82-1.62,4.24s-.49,1.34-2,1.12q3.68-9.63,7.33-19.27a.76.76,0,0,1,.76-.59c2.23-.19,2.24-.21,3.06,1.87C290,224.8,292.3,230.78,294.73,236.92ZM284.4,220.09c-1.17,3.11-2.21,5.87-3.24,8.63-.2.53.17.5.5.5,1.83,0,3.66,0,5.49,0,.65,0,.75-.19.51-.78-.54-1.31-1-2.65-1.55-4S285.06,221.78,284.4,220.09Z"/><path class="cls-6" d="M646,224.29v5.4c0,4.45-2,6.84-6.45,7.38a15.36,15.36,0,0,1-5.36-.19A6.16,6.16,0,0,1,629,231c-.14-4.51-.08-9-.13-13.55,0-.38.13-.51.47-.5h.12c.92,0,2-.3,2.71.1s.2,1.62.21,2.46c.05,3.36.1,6.72,0,10.08-.15,5.31,3.66,6.53,7.27,6,3.33-.52,4.73-2.28,4.73-5.67,0-4,0-8,0-12,0-.71.13-1,.9-1s.67.47.67,1C645.94,220.05,646,222.17,646,224.29Z"/><path class="cls-5" d="M509.05,236.86l0-.26q3.64-9.57,7.27-19.15a.69.69,0,0,1,.7-.49c2.21-.25,2.27-.21,3.11,1.94l7,17.73c0,.07,0,.15,0,.22a1,1,0,0,1-.23.06c-1.12,0-2.46.36-3.27-.14s-.85-1.84-1.25-2.82-.58-2.47-1.36-3.1-2.22-.15-3.37-.18-2.55,0-3.82,0a1,1,0,0,0-1.19.84c-.48,1.43-1.19,2.79-1.58,4.24C510.68,236.9,510.06,237.1,509.05,236.86Zm7.86-16.78c-1.15,3-2.18,5.75-3.22,8.47-.22.57,0,.69.54.68,1.32,0,2.63,0,3.95,0,2.26,0,2.27,0,1.45-2.14S517.89,222.6,516.91,220.08Z"/><path class="cls-6" d="M262.75,233.46a7.72,7.72,0,0,0,5.54,2,3.83,3.83,0,0,0,3.63-2.59c.42-1.75-.25-3.07-2.07-4-1.46-.73-3-1.35-4.4-2.13-2.49-1.38-3.64-3.34-3.27-5.34a5.77,5.77,0,0,1,5.12-4.65,12.36,12.36,0,0,1,6.34.66c1.17.44.25,1.07.19,1.61-.09.83-.55.41-.92.22a7.74,7.74,0,0,0-4.22-1.11,3.31,3.31,0,0,0-3.12,2.35c-.34,1.36.2,2.49,1.73,3.31s3,1.4,4.51,2.18c2.85,1.52,4,3.62,3.46,6.29a6.3,6.3,0,0,1-5.52,4.76,12.63,12.63,0,0,1-6.56-.81c-1-.44-1.25-.93-.8-1.86C262.51,234.16,262.59,233.89,262.75,233.46Z"/><path class="cls-6" d="M649.86,233.44a7.85,7.85,0,0,0,5.55,2.07,3.85,3.85,0,0,0,3.66-2.57c.44-1.69-.2-3-2-4-1.65-.88-3.37-1.62-5-2.51a4.89,4.89,0,0,1-.27-8.61c3-1.75,6.14-1.44,9.22-.27,1,.37,0,1.15-.08,1.71s-.56.17-.81,0a7.7,7.7,0,0,0-4.21-1.13,3.25,3.25,0,0,0-3.16,2.44c-.33,1.3.17,2.37,1.7,3.19s3.32,1.56,4.93,2.43a5.27,5.27,0,0,1,3.1,5.56,6.07,6.07,0,0,1-5.64,5.29,12.14,12.14,0,0,1-6.56-.87c-.79-.36-1.2-.68-.77-1.56A8.21,8.21,0,0,0,649.86,233.44Z"/><path class="cls-6" d="M118.12,224.54c0,1.72-.09,3.45,0,5.16.28,4.32-2.39,6.87-6.09,7.3a16.19,16.19,0,0,1-6-.2,6.49,6.49,0,0,1-4.89-6.58c-.06-4.11,0-8.23,0-12.35,0-.76.25-.92,1-.93,2.64,0,2.64-.05,2.64,2.53,0,3.4.12,6.8,0,10.19-.22,5.07,3.47,6.43,7.07,5.94,3.42-.47,4.92-2.31,4.92-5.76,0-4,0-7.91,0-11.87,0-1.05.45-1.06,1.19-1,.38,0,.41.16.4.52,0,2.35,0,4.71,0,7.06Z"/><path class="cls-6" d="M625.74,233.67c.1.08.15.11.15.13.15,2.27.09,2.47-2.11,3a13.7,13.7,0,0,1-8.58-.48c-3.57-1.48-5.06-4.43-5.37-8.11-.32-4,.43-7.51,4-9.85a12.71,12.71,0,0,1,7.34-1.68,17.73,17.73,0,0,1,3.32.41c1,.2,1.66.64,1.4,1.82a5.52,5.52,0,0,0,0,1.09,14.48,14.48,0,0,0-3.33-1.59c-4.27-1-7.6,1.1-8.68,5.38a10.65,10.65,0,0,0,1.07,8.64,6.84,6.84,0,0,0,9.94,1.84Z"/><path class="cls-6" d="M544,233.6c.11,2.67.12,2.71-2.27,3.25a14.79,14.79,0,0,1-7-.06,8.41,8.41,0,0,1-6.48-6.77,14.05,14.05,0,0,1,.07-6.76c.94-3.56,4.2-6.06,8.32-6.48a18.49,18.49,0,0,1,6.07.31c1,.23,1.56.63,1.34,1.75a6.58,6.58,0,0,0,0,1.19,11.62,11.62,0,0,0-3.74-1.69c-3.66-.62-6.57.84-7.88,4.25a11.08,11.08,0,0,0,.35,9.27A6.87,6.87,0,0,0,543,234.3Z"/><path class="cls-6" d="M408.64,220a8.15,8.15,0,0,0-5.22-1.77,6.25,6.25,0,0,0-6.07,4.06c-1.36,3.46-1.44,7,.58,10.22a6.83,6.83,0,0,0,9.55,2l1.08-.74c.59,2,.46,2.42-1.55,2.9-4,1-7.86,1-11.23-1.81a8.83,8.83,0,0,1-3-6.2c-.43-3.87.15-7.44,3.53-10,2.32-1.73,5-2.07,7.83-2a12.89,12.89,0,0,1,2.62.28C409,217.46,409,217.43,408.64,220Z"/><path class="cls-6" d="M327.61,226.82c0-3,0-6,0-9,0-.68.15-.89.84-.88,3.12,0,6.24,0,9.36,0,.58,0,.85.12.85.79s-.37.66-.84.65c-1.92,0-3.84,0-5.76,0-.68,0-.89.19-.88.88,0,2,.05,4,0,6,0,.72.27.86.91.84,2,0,3.92,0,5.88,0,.7,0,.67.26.67.73s0,.68-.64.65c-2-.08-3.92,0-5.88-.05-.74,0-.95.24-.94,1,0,2.08,0,4.16,0,6.24,0,.54,0,.9.75.88,2-.06,4-.05,6-.09.36,0,.78-.21.7.41-.06.43.34,1.14-.58,1.14h-.36c-3,0-6.08,0-9.12,0-.79,0-1-.21-1-1C327.65,232.9,327.62,229.86,327.61,226.82Z"/><path class="cls-6" d="M680.94,227c0-3,0-6,0-9,0-.78.19-1,1-1,3,.05,6.08,0,9.12,0,.46,0,.94-.14,1,.66s-.44.78-1,.77c-1.84,0-3.68,0-5.52,0-.68,0-1,.11-1,.91.06,1.95,0,3.91,0,5.87,0,.75.24,1,1,.95,1.84,0,3.68,0,5.52,0,.51,0,1-.15,1,.72s-.52.59-1,.59c-1.88,0-3.76,0-5.64,0-.68,0-.9.23-.89.9q0,3.18,0,6.36c0,.64.24.83.85.81,2,0,4,0,6-.1.51,0,.67.09.6.53s.31,1.05-.54,1h-3.24c-2.08,0-4.16,0-6.24,0-.77,0-1-.19-1-1C681,233,680.94,230,680.94,227Z"/><path class="cls-6" d="M248.46,226.93c0-3,0-6.07,0-9.11,0-.68.14-.88.83-.87,3.12,0,6.23,0,9.35,0,.59,0,.87.13.86.8s-.4.64-.86.64c-1.88,0-3.76,0-5.63,0-.82,0-1,.26-1,1,.05,1.92,0,3.84,0,5.76,0,.72.17,1,.93,1,1.92,0,3.84,0,5.76,0,.53,0,.78.05.79.68s-.23.68-.78.66c-1.92,0-3.84,0-5.76,0-.74,0-1,.22-.94,1,0,2.07,0,4.15,0,6.23,0,.55,0,.9.75.88,2,0,4,0,6-.08.49,0,.77,0,.71.54s.19,1-.62,1h-.48c-3,0-5.92,0-8.88,0-.77,0-1.09-.1-1.06-1C248.5,232.93,248.46,229.93,248.46,226.93Z"/><path class="cls-5" d="M183.51,235.32c.13,1.6.13,1.6-1.32,1.6-2.92,0-5.84,0-8.75,0-.73,0-.9-.16-.9-.92q.06-9.16,0-18.34c0-.64.18-.71.7-.71,3.2,0,6.4,0,9.6,0,.56,0,.75.17.76.74s-.29.7-.8.69c-1.92,0-3.84,0-5.75,0-.86,0-1.08.27-1.06,1.09.06,1.92,0,3.84,0,5.75,0,.67.2.91.89.9,1.92,0,3.84,0,5.76,0,.54,0,1-.1,1,.73s-.46.57-.9.57c-2,0-3.92,0-5.88,0-.62,0-.84.22-.83.84q0,3.23,0,6.47c0,.54.17.8.76.78C179,235.38,181.23,235.57,183.51,235.32Z"/><path class="cls-5" d="M673.08,228c0,2.8,0,5.6,0,8.4,0,.44-.08.57-.48.55h-.24c-.92,0-2,.25-2.68-.16-.39-.24-.09-1.59-.09-2.44,0-4.91,0-9.83,0-14.75,0-.81-.19-1.16-1.06-1.09-1.43.1-2.87-.12-4.3.12-.46.07-.89.11-.85-.6s-.08-1.08.82-1.05c2.24.06,4.48,0,6.72,0,2.4,0,4.8,0,7.19,0,.77,0,.94.24.93,1s-.46.69-1,.66c-1.35-.08-2.71,0-4.07-.09-.76,0-.94.28-.93,1,0,2.84,0,5.67,0,8.51Z"/><path class="cls-5" d="M351.53,226.91c0-3.12,0-6.23,0-9.35,0-.52.12-.57.55-.6,3-.27,3-.27,3,2.68,0,4.87,0,9.74,0,14.61,0,.92.2,1.27,1.19,1.22,1.75-.09,3.51,0,5.27-.06.57,0,.79.11.77.7s0,.82-.69.82c-3.15,0-6.31,0-9.46,0-.52,0-.6-.15-.59-.68.05-3.12,0-6.23,0-9.34Z"/><path class="cls-6" d="M551.07,227.06c0,3,0,6,0,9,0,.67-.15.87-.84.88-2.75.05-2.74.08-2.74-2.68,0-5.44,0-10.87,0-16.31,0-.75.14-1,1-1,2.62,0,2.62,0,2.63,2.57Z"/><path class="cls-6" d="M568.63,211.36c-.94,1.28-1.91,2.54-2.8,3.85-.47.69-1.06.54-1.89.48a29.93,29.93,0,0,1,2.07-4.25C566.56,210.64,567.7,211.33,568.63,211.36Z"/><path class="cls-2" d="M135.88,147.12h-.14s0,0,0,0,.05,0,.07.06Z"/><path class="cls-6" d="M527.06,236.85c0-.07,0-.15,0-.22l.17.13Z"/><path class="cls-1" d="M503.24,109.78c0-4.76,0-9.52,0-14.27,0-.65.1-1.05.84-1.13a68,68,0,0,1,8.45-.77,15.18,15.18,0,0,1,14.9,14.27c.52,6.6-3.79,12.46-9.5,15.08a26.48,26.48,0,0,1-13.52,2.22c-1.07-.09-1.19-.47-1.18-1.37C503.26,119.13,503.24,114.45,503.24,109.78Z"/><path class="cls-1" d="M619.24,126.42c0,7.28-.92,14.4-4.08,21.06-2.84,6-7,10.76-13.69,12.46s-13.57,1.52-19.69-2.46c-5.16-3.35-8-8.45-9.88-14.13-2.36-7.09-2.72-14.4-2.26-21.77a42.14,42.14,0,0,1,3.94-16.14c4-8.23,10.53-12.55,19.71-12.76,6.07-.14,11.75,1,16.4,5.3a27.39,27.39,0,0,1,7.41,12.49A54.08,54.08,0,0,1,619.24,126.42Z"/><path class="cls-1" d="M309.79,226.86c0-2.47,0-5,0-7.43,0-.7.15-1,.92-1,2.52,0,5,.18,6.92,2,2.54,2.38,2.68,5.41,2.19,8.53-.63,4-3.22,6.52-7.48,6.31-2.53-.12-2.54,0-2.54-2.58Z"/><path class="cls-1" d="M486.06,226.82a10.61,10.61,0,0,1-1.44,6.23c-1.54,2.29-3.79,2.89-6.37,2.64a5.53,5.53,0,0,1-5-3.68,14,14,0,0,1-.22-9.6c1-3,3.16-4.36,6.54-4.26a6,6,0,0,1,6,4.59A13.12,13.12,0,0,1,486.06,226.82Z"/><path class="cls-1" d="M572.61,226.9a11.62,11.62,0,0,1-1.12,5.54,6.15,6.15,0,0,1-6.27,3.29c-2.71-.16-4.65-1.35-5.56-3.94a13.9,13.9,0,0,1,0-9.6c1-2.89,3.09-4.14,6.33-4.05a6,6,0,0,1,6,4.37A15.58,15.58,0,0,1,572.61,226.9Z"/><path class="cls-1" d="M421,218.14c3.42,0,5.6,1.6,6.44,4.91a15.22,15.22,0,0,1,0,7.7,6.72,6.72,0,0,1-10.4,3.9,5.47,5.47,0,0,1-2.11-2.82,14.53,14.53,0,0,1-.18-9.28C415.71,219.52,417.74,218.15,421,218.14Z"/><path class="cls-1" d="M699.63,222.47c0-1.12,0-2.23,0-3.35,0-.34-.09-.79.46-.78,1.63,0,3.31-.09,4.51,1.34a4.17,4.17,0,0,1,.77,4.25,4.69,4.69,0,0,1-5.34,2.62c-.45-.13-.4-.42-.4-.73C699.62,224.7,699.63,223.59,699.63,222.47Z"/><path class="cls-1" d="M234.51,222.39V219c0-.32,0-.7.42-.7,1.63,0,3.31-.11,4.53,1.31a4.15,4.15,0,0,1,.76,4.35c-.67,1.88-3.63,3.24-5.39,2.54-.43-.18-.31-.51-.32-.8C234.5,224.62,234.51,223.51,234.51,222.39Z"/><path class="cls-1" d="M440.16,226.55c-1.07.3-1.23-.34-1.19-1.37.06-2,0-4,0-6,0-.7.23-.89.89-.88,1.81,0,3.54.21,4.57,2C446.21,223.35,444.1,226.56,440.16,226.55Z"/><path class="cls-1" d="M497.24,222.33c0-1.12,0-2.24,0-3.36,0-.3-.06-.6.39-.73a4.48,4.48,0,0,1,5.63,4.63c-.22,2.28-1.86,3.67-4.35,3.7-1.68,0-1.68,0-1.68-1.61Z"/><path class="cls-1" d="M458.42,218.42c2.51,0,3.94.77,4.4,2.63.74,3-.58,5.7-4.1,5.77-2.21,0-2.21,0-2.21-2.14,0-1.63.06-3.27,0-4.9-.05-1.06.21-1.57,1.34-1.36A4,4,0,0,0,458.42,218.42Z"/><path class="cls-1" d="M217.72,222.65c0-1,.08-2.08,0-3.11s.32-1.26,1.21-1.15a7.79,7.79,0,0,0,1.08,0c2.78,0,4.36,1.5,4.35,4.1a4.09,4.09,0,0,1-4.37,4.32c-2.25,0-2.25,0-2.25-2.25Z"/><path class="cls-1" d="M372,220.09c.52,1.34.92,2.4,1.33,3.46.62,1.6,1.22,3.2,1.87,4.78.25.62.29.93-.56.9-1.75,0-3.51,0-5.27,0-.45,0-.83,0-.58-.64C369.8,225.85,370.82,223.12,372,220.09Z"/><path class="cls-1" d="M150.67,220.08c1.18,3.06,2.25,5.82,3.32,8.57.18.44,0,.57-.4.57h-5.74c-.45,0-.57-.19-.43-.58C148.46,225.89,149.51,223.13,150.67,220.08Z"/><path class="cls-1" d="M284.4,220.09c.66,1.69,1.19,3,1.71,4.38s1,2.67,1.55,4c.24.59.14.79-.51.78-1.83,0-3.66,0-5.49,0-.33,0-.7,0-.5-.5C282.19,226,283.23,223.2,284.4,220.09Z"/><path class="cls-1" d="M516.91,220.08c1,2.52,1.86,4.76,2.72,7s.81,2.14-1.45,2.14c-1.32,0-2.63,0-3.95,0-.52,0-.76-.11-.54-.68C514.73,225.83,515.76,223.1,516.91,220.08Z"/></g></g></svg>