<svg xmlns="http://www.w3.org/2000/svg" viewBox="0 0 448.53 448.52"><defs><style>.cls-1{fill:#4a4a4a;}.cls-2{fill:#505050;}.cls-3{fill:#fefefe;}.cls-4{fill:#616161;}.cls-5{fill:#b0b0b0;}.cls-6{fill:#747474;}</style></defs><title>Recurso 13</title><g id="Capa_2" data-name="Capa 2"><g id="Capa_1-2" data-name="Capa 1"><path class="cls-1" d="M234.4,61.18c-2.41-1.34-4.78-2.77-7.25-4a133.07,133.07,0,0,0-62.82-14,187.48,187.48,0,0,0-21.29,2c.31-1.17-.55-2-.8-3a93.45,93.45,0,0,1,17.06-2.22,135.08,135.08,0,0,1,73.62,16.52c1.07.58,2,1.35,3.06,2C236,59.67,234.4,60,234.4,61.18Z"/><path class="cls-2" d="M142.24,42.13c.25,1,1.11,1.88.8,3-3.92.89-7.87,1.68-11.73,2.83a1.68,1.68,0,0,0-1.45,1.89,8.55,8.55,0,1,1-13.28-7.24,8.44,8.44,0,0,1,11,1.37,2.31,2.31,0,0,0,2.72.77A65,65,0,0,1,142.24,42.13Z"/><path class="cls-2" d="M248.29,66.37c-.18,1.49-1.68,1.39-2.51,2.09-3.8-2.41-7.41-5.13-11.38-7.28,0-1.22,1.58-1.51,1.58-2.72,4,1.79,7.45,4.4,11,6.89C247.39,65.65,248,65.86,248.29,66.37Z"/><path class="cls-3" d="M224.27,448.48q-111.21,0-222.41,0c-1.44,0-1.85-.25-1.85-1.79Q.07,224.3,0,1.9C0,.24.4,0,2,0q222.3.06,444.61,0c1.56,0,2,.24,2,1.9q-.07,222.32,0,444.61c0,1.75-.44,2-2.06,2Q335.36,448.45,224.27,448.48ZM297,143.07l-.2-.81a2.68,2.68,0,0,0-.1-1.56,108.44,108.44,0,0,0-4.77-16.28A126.15,126.15,0,0,0,255,71.58a52.94,52.94,0,0,0-6.7-5.21c-.3-.51-.9-.72-1.33-1-3.53-2.49-7-5.1-11-6.89-1-.68-2-1.45-3.06-2A135.08,135.08,0,0,0,159.3,39.91a93.45,93.45,0,0,0-17.06,2.22,65,65,0,0,0-12,2.67,2.31,2.31,0,0,1-2.72-.77,8.44,8.44,0,0,0-11-1.37,8.57,8.57,0,1,0,13.28,7.24A1.68,1.68,0,0,1,131.31,48c3.86-1.15,7.81-1.94,11.73-2.83a187.48,187.48,0,0,1,21.29-2,133.07,133.07,0,0,1,62.82,14c2.47,1.22,4.84,2.65,7.25,4,4,2.15,7.58,4.87,11.38,7.28,3.54,3.08,7.29,5.9,10.73,9.1a121.12,121.12,0,0,1,30.65,44.15,131.1,131.1,0,0,1,6.93,22.87,154.71,154.71,0,0,1,2,20.72,159.06,159.06,0,0,0-23.25-2.18,77.54,77.54,0,0,0-14.19.88,72.2,72.2,0,0,0-12.25,1.77l-1.66.31a.9.9,0,0,0-1,.28c-1.26.24-2.51.46-3.76.74a126.24,126.24,0,0,0-16.56,5.33,115.54,115.54,0,0,0-19,9.3,121,121,0,0,0-23.75,18.44c-.39.39-1.34.62-.82,1.53a2.12,2.12,0,0,0,3.6.42,119.44,119.44,0,0,1,34.8-23.91A140.53,140.53,0,0,1,246,169l14.21-2.05a3.59,3.59,0,0,0,1.95,0,132.21,132.21,0,0,1,32.22,1.49c1,.16,1.8.46,1.62,1.72-1.65,1.84-3.77,3.09-5.68,4.6q-22,17.42-44,34.85c-.56.45-1.84.69-.88,1.89.75.95,1.45.72,2.33,0q17.79-14.11,35.62-28.17c4.09-3.24,8.05-6.64,12.33-9.64-.13,3.7-.65,7.35-1.13,11a112.53,112.53,0,0,1-6.12,23.46c-2.7,6.8-5.55,13.54-9.58,19.7a1.28,1.28,0,0,0-.19.34c-.39,1.5,1.14,1.67,1.75,2.47.44.58.78.09,1-.32a104.42,104.42,0,0,0,9.79-20.45c.26-.59.57-1.16.79-1.77a125.24,125.24,0,0,0,7.3-37.33l1.42-1.21c.31.12.61.26.92.35a131.52,131.52,0,0,1,34,13.46c24.16,14.13,41.88,33.86,52.35,59.95a131.23,131.23,0,0,1,6.48,22l1.38,10a121.81,121.81,0,0,1-2.51,36.18c-1.51,7-4.11,13.6-6.63,20.25-2.6,4.89-5,9.87-7.86,14.62-.73,1.21-1.27,1.74-2.88,1.31a8.18,8.18,0,0,0-9.92,5.72A8.41,8.41,0,0,0,370,363,8.75,8.75,0,0,0,380,361.71c2.66-2.48,2.88-7.3,1.21-10.11-.59-1-.78-1.79-.12-2.67a62.15,62.15,0,0,0,8.14-15.25c.5-1.06,1.06-2.09,1.51-3.18A116.12,116.12,0,0,0,399.15,296a93.36,93.36,0,0,0-.41-22.72c-.05-.78-.09-1.57-.15-2.36-.2-2.56-1.34-5-1.31-7.56-.22-2.7-1.15-5.22-1.77-7.82a99.28,99.28,0,0,0-8.94-23.65c-17.92-33.8-45.76-55.09-82.62-64.8,3.72-3,7.43-6,11.16-8.9q21.67-17.15,43.37-34.26c5.7-4.48,11.33-9,17-13.56,1.29-1,2.49-3,4.86-2.08A6.2,6.2,0,0,0,388,106a6.51,6.51,0,0,0-.48-7.75,6.25,6.25,0,0,0-7.77-1.37c-2.75,1.5-4.26,4.44-3.08,7.36.75,1.85-.05,2.42-1.15,3.29l-27.68,21.86q-14.94,11.79-29.9,23.56c-5.71,4.5-11.25,9.22-17.18,13.44l-1.27-.31a123.88,123.88,0,0,0-2-19.87c.26-.3.16-.54-.12-.75l-.3-1.63A.46.46,0,0,0,297,143.07ZM122.35,282.2c-3.58-1.71-7.52-2.53-11-4.38-3.35-1.85-6.72-3.66-10-5.55a123.66,123.66,0,0,1-45.65-44.76c-2.81-4.71-5.17-9.63-7.51-14.56L46,207.4c-.2-.54-.41-1.07-.6-1.62a120.12,120.12,0,0,1-5.85-25.95,117.57,117.57,0,0,1,3.11-43.45A122.3,122.3,0,0,1,54.55,107.1,16.89,16.89,0,0,0,55.94,105c.81-1.79,1.65-2.65,4-1.94,3.51,1.07,7.49-1.25,9.15-4.68A8.48,8.48,0,0,0,67,88.25a8.61,8.61,0,0,0-10.47-.63c-3,2-4.86,6.34-3.18,9.56,1.45,2.78.91,4.71-.8,6.82-.07.09-.06.25-.09.38-.26.37-.56.72-.79,1.11a117.82,117.82,0,0,0-10.5,23.91,121.76,121.76,0,0,0-3.27,61.73A87.44,87.44,0,0,0,43,208.57a27.19,27.19,0,0,0,2.36,6c.14.44.26.88.43,1.31a111.69,111.69,0,0,0,14.56,24.9,127.26,127.26,0,0,0,39,34.42c3.88,2.23,7.7,4.63,12,6a67.81,67.81,0,0,0,11.11,4.41c.72.3,1.43.65,2.17.89a139.25,139.25,0,0,0,18.31,4.69c-2.8,2.82-6.13,5-9.22,7.49-11.55,9.24-23.27,18.28-34.9,27.44q-14.47,11.42-28.89,22.92a1.55,1.55,0,0,1-2.22.11,5.9,5.9,0,0,0-6.55-.44A6.34,6.34,0,0,0,58,356.33a6.22,6.22,0,0,0,6.75,4.32c3.62-.63,5.76-3,5.55-6.55a3.71,3.71,0,0,1,1.53-3.66c12.35-9.65,24.64-19.4,36.94-29.11l22.72-17.94c4.26-3.35,8.34-6.92,12.81-10a161.51,161.51,0,0,0,2.25,16.27,121,121,0,0,0,19.74,45.24,91,91,0,0,0,12.8,15,94.91,94.91,0,0,0,12.8,11.4,12.78,12.78,0,0,0,1.15,1.06,138.35,138.35,0,0,0,25.76,15,131.91,131.91,0,0,0,61.29,10.79,113.59,113.59,0,0,0,21.53-3.17c1.75-.64,3.54-.12,5.29-.2,1.35-.07,2.19-.13,3.21.94a8.26,8.26,0,0,0,11,.71,8.53,8.53,0,0,0,2.06-10.73,8.4,8.4,0,0,0-8.37-4.14,8,8,0,0,0-6.88,6.24,3.26,3.26,0,0,1-3.06,3.07,41.2,41.2,0,0,0-4.18,1.17,6.65,6.65,0,0,0-.78.07c-26.34,5.47-52,3.49-77-6.61a56.34,56.34,0,0,1-5.47-2.13,228.82,228.82,0,0,1-20-11.7c-5-3.92-9.88-7.89-14.44-12.29-3.14-3.48-6.53-6.71-9.45-10.4-12.1-15.26-20.34-32.31-24-51.51A150.75,150.75,0,0,1,147.67,292a138.51,138.51,0,0,0,45.6-1.08A136.65,136.65,0,0,0,217.22,284c.85-.33,1.25-.51.72-1.61-.75-1.54-1.45-1.88-3.14-1.24a123.71,123.71,0,0,1-22.74,6.55,135.51,135.51,0,0,1-41.87,1.08q13.5-10.74,27-21.46,9.26-7.32,18.58-14.55c.94-.73.77-1.3.21-2.12s-1.06-.36-1.58.05q-11.15,8.78-22.28,17.55l-24.63,19.37c-.25-6.94.65-13.79,1.45-20.65,1-4.77,2-9.53,3.36-14.21.47-1.61-1.3-1.25-2-1.82-.85-.7-.91.28-1.06.77a69.37,69.37,0,0,0-3,13.27,38.78,38.78,0,0,0-1.08,6.42c-.79,5.51-.82,11.07-1.11,16.61A159,159,0,0,1,122.35,282.2ZM271,221c-6.74-6.84-16.29-4.78-20.29-.74-4.85,4.91-5.22,14.1-.68,19.49a12.63,12.63,0,0,0,8.36,4.5A13.57,13.57,0,0,0,271,239.6c0,2,0,3.48,0,5-.14,4.09-2.15,6.92-5.63,8-4,1.22-9.08,0-10.94-3.08-1.05-1.75-2.25-2-4-1.94-2.29.09-2.42.19-1.47,2.37,1.89,4.32,5.52,6.3,9.93,6.94,9.91,1.44,17.68-3.29,17.27-14.3-.29-7.59-.06-15.21-.06-22.82,0-2.82,0-2.67-2.8-2.86-2-.14-2.62.54-2.3,2.41A13.12,13.12,0,0,1,271,221Zm-133.88,18.8c0,1.8,0,3.24,0,4.69-.13,4.15-2.07,6.94-5.53,8-3.88,1.24-9.08.25-10.81-2.82-1.37-2.42-3.11-2.1-5.09-2.15-1,0-1.24.37-1,1.32a10.32,10.32,0,0,0,4.47,5.85c3.33,2.15,7,2.52,10.86,2.31,7.1-.4,12-5.26,12.13-12.38.14-8.8,0-17.6,0-26.4,0-.44.18-1.19-.31-1.23a13.72,13.72,0,0,0-4.34,0c-.92.23-.27,1.51-.44,2.3-.11.47.28,1.05-.32,1.41-5.27-5.95-15.09-5.27-19.88-.6-5.08,5-5.25,14.5-.46,19.94C120.33,244.47,130,247,137.13,239.77Zm18-19.51v-9.71c0-3.12,0-3.07-3.2-3.09-1.19,0-1.76.17-1.75,1.59q.09,16.68,0,33.35c0,1.21.29,1.72,1.53,1.54a5,5,0,0,1,1.59,0c1.5.24,1.87-.36,1.86-1.84,0-4.82-.29-9.66.14-14.48.39-4.49,3.44-7.13,8-7.09s7.44,2.73,7.63,7.37c.17,4.16.09,8.34.1,12.5,0,3.74,0,3.71,3.72,3.54.9,0,1.3-.22,1.29-1.21-.05-5.36.14-10.73-.12-16.08-.3-6.09-4.49-9.91-10.56-10.17A12.86,12.86,0,0,0,155.1,220.26Zm156.44,52.93c-5.06-6-13.48-5.09-17.28-1-3.34,3.58-4,7.95-3.43,12.56.9,7.69,7.75,12.4,14.94,10.43,2.22-.61,3.82-2.14,5.77-3.81a15.13,15.13,0,0,1,0,2.06c-.35,2.12,1.12,1.73,2.33,1.77s2.22.22,2.19-1.72c-.14-7.2-.05-14.41-.06-21.61,0-2.93.29-2.45-2.5-2.6-1.56-.09-2.21.38-2,2A15.54,15.54,0,0,1,311.54,273.19Zm-84.84,4.48c.19,13.44,10.91,21,22.2,16.61a13.81,13.81,0,0,0,7.8-7.48c.18-.4.58-.81.18-1.27-.63-.7-4.82,0-5.38.93a10.73,10.73,0,0,1-16.45,2.1c-5.15-4.74-5.19-15-.08-19.73,4.59-4.29,12.35-4.05,15.6.86,1.46,2.21,3.06,2.4,5.21,2.34,1.18,0,1.56-.19,1-1.44a14,14,0,0,0-5.15-6.14c-5.37-3.32-11-3.68-16.57-.69C229.13,266.91,226.89,272.27,226.7,277.67Zm-6.08-57.79c-.88-3.15-.88-3.11-4.07-3-.93,0-1.25.27-1.24,1.23q0,12.3,0,24.59c0,1,.27,1.33,1.23,1.23a7.07,7.07,0,0,1,1.78,0c1.56.24,2-.38,2-1.93-.06-4.76-.11-9.53.16-14.27s3.45-7.29,8-7.21,7.37,2.76,7.56,7.43c.16,4.16.08,8.33.09,12.5,0,3.72,0,3.69,3.78,3.49,1,0,1.24-.35,1.23-1.28,0-5.28.1-10.58-.11-15.86-.22-5.63-3.75-9.48-9.24-10.2C227.68,216.07,223.75,216.66,220.62,219.88Zm133.5,52.57c0-3.71-.07-6.82,0-9.92.05-1.64-.16-2.46-2.17-2.39-1.79.06-2.35.46-2.3,2.31.13,4.9,0,9.8,0,14.7,0,5.42,0,10.85,0,16.28,0,.62-.42,1.47.74,1.74,2.77.63,3.64,0,3.64-2.82,0-.86,0-1.72,0-2.58.07-3.57-.21-7.15.18-10.71.42-3.82,2.85-6.14,6.46-6.27s6.13,1.8,6.89,5.7a15,15,0,0,1,.2,2.77c0,3.7,0,7.41,0,11.12,0,2.95,0,2.92,3.05,2.8.88,0,1.32-.19,1.31-1.2-.06-5.16.12-10.34-.13-15.49-.28-5.92-3.81-9.37-9.48-9.67A10.06,10.06,0,0,0,354.12,272.45ZM261.65,282c0,4.91,1.45,9.22,5.87,11.84a12.47,12.47,0,0,0,13.21,0c4.73-2.75,6.26-7.22,6.1-12.47-.24-8.24-6.7-14.13-15.9-12C265.07,270.64,261.83,275.32,261.65,282Zm59.2.08c-.09,8.73,5.34,14.11,13.61,13.48a11,11,0,0,0,9.73-7.54c.12-.41.51-.85,0-1.23-.86-.6-4.37.11-4.77,1a6.32,6.32,0,0,1-6.12,3.9,6.74,6.74,0,0,1-6.66-3.8,12.12,12.12,0,0,1,0-11.26c2.39-4.75,9.51-5.44,12.13-1,1.17,2,2.39,2.1,4.21,2.15s1.62-.62,1.15-1.85c-2.34-6-7.82-8-14.18-6.64C324.08,270.49,320.92,275.27,320.85,282ZM184.48,229.42h.17c0,2.91-.17,5.83,0,8.72.23,3.2,1.87,4.79,5,5.52,1.76.41,3.56.12,5.33.29,1.54.14,2-.34,2-1.94s-.3-2.36-2-2.1a10,10,0,0,1-2.38,0c-2.1-.21-3.1-1.22-3.12-3.34,0-4.83,0-9.65,0-14.48,0-1,.3-1.27,1.24-1.23,1.65.06,3.31,0,5,0,.44,0,1.11.12,1.18-.43a7.72,7.72,0,0,0,0-3.14c-.23-.75-1.29-.32-2-.35-1.71-.08-3.92.54-5-.3s-.35-3.22-.35-4.9c0-1.15-.2-1.78-1.51-1.58a5.58,5.58,0,0,1-1.58,0c-1.48-.2-2.21.25-2,1.9.14,1.11,0,2.26.05,3.37.12,1.27-.4,1.68-1.58,1.5-1.51-.24-2.23.14-2.2,1.94s.52,2.27,2.13,2c1.3-.22,1.71.33,1.66,1.63C184.41,224.79,184.48,227.11,184.48,229.42Zm-105-2.59c0,5.23,0,10.45,0,15.67,0,1.11.28,1.46,1.43,1.45,4.89-.06,9.78-.11,14.67,0,1.67,0,1.58-.81,1.59-1.94s0-2.14-1.7-2.05c-3,.15-6.08,0-9.12.08-1.54.05-2-.38-2-2,.08-8.86,0-17.71.06-26.57,0-1.33-.26-2-1.71-1.77a4.63,4.63,0,0,1-1.39,0c-1.48-.25-1.87.33-1.85,1.82C79.54,216.66,79.48,221.75,79.48,226.83Zm128,3.67c0-4-.07-7.92,0-11.88,0-1.41-.39-1.93-1.77-1.72a4.56,4.56,0,0,1-1.38,0c-1.51-.25-1.86.39-1.85,1.85.08,7.33,0,14.66,0,22,0,3.23,0,3.16,3.21,3.23,1.4,0,1.78-.39,1.75-1.77C207.44,238.3,207.5,234.4,207.5,230.5ZM107,230.42c0-4,0-8.06,0-12.09,0-1.11-.32-1.57-1.45-1.43a6,6,0,0,1-1.58,0c-1.57-.24-2,.39-2,1.94.08,7.26,0,14.53,0,21.79,0,3.36,0,3.3,3.3,3.33,1.29,0,1.68-.34,1.65-1.65C107,238.34,107,234.38,107,230.42Zm-2.39-23.84a3,3,0,0,0-3.29,3.09,3.27,3.27,0,0,0,6.53-.13A3.06,3.06,0,0,0,104.62,206.58Zm100.53,0a3,3,0,0,0-3.33,3,3.12,3.12,0,0,0,3.27,3.16,3.15,3.15,0,0,0,3.26-3.21A3.05,3.05,0,0,0,205.15,206.58Z"/><path class="cls-4" d="M271,221a13.12,13.12,0,0,0,0-1.7c-.32-1.87.31-2.55,2.3-2.41,2.79.19,2.8,0,2.8,2.86,0,7.61-.23,15.23.06,22.82.41,11-7.36,15.74-17.27,14.3-4.41-.64-8-2.62-9.93-6.94-1-2.18-.82-2.28,1.47-2.37,1.72-.08,2.92.19,4,1.94,1.86,3.09,6.92,4.3,10.94,3.08,3.48-1.06,5.49-3.89,5.63-8,0-1.49,0-3,0-5a13.57,13.57,0,0,1-12.58,4.62,12.63,12.63,0,0,1-8.36-4.5c-4.54-5.39-4.17-14.58.68-19.49C254.72,216.19,264.27,214.13,271,221Zm-.05,9.4a9.51,9.51,0,1,0-19,0c.07,5.62,4.2,9.85,9.56,9.8S271,236,271,230.37Z"/><path class="cls-4" d="M137.13,239.77c-7.17,7.23-16.8,4.7-20.64.33-4.79-5.44-4.62-15,.46-19.94,4.79-4.67,14.61-5.35,19.88.6.6-.36.21-.94.32-1.41.17-.79-.48-2.07.44-2.3a13.72,13.72,0,0,1,4.34,0c.49,0,.31.79.31,1.23,0,8.8.1,17.6,0,26.4-.11,7.12-5,12-12.13,12.38-3.84.21-7.53-.16-10.86-2.31a10.32,10.32,0,0,1-4.47-5.85c-.29-1-.1-1.35,1-1.32,2,.05,3.72-.27,5.09,2.15,1.73,3.07,6.93,4.06,10.81,2.82,3.46-1.11,5.4-3.9,5.53-8C137.17,243,137.13,241.57,137.13,239.77Zm0-9.4c0-5.62-4-9.78-9.51-9.8a9.44,9.44,0,0,0-9.52,9.81c.07,5.62,4.19,9.85,9.56,9.81S137.11,236,137.11,230.37Z"/><path class="cls-5" d="M295.73,173.72c-4.28,3-8.24,6.4-12.33,9.64q-17.81,14.08-35.62,28.17c-.88.69-1.58.92-2.33,0-1-1.2.32-1.44.88-1.89q22-17.45,44-34.85c1.91-1.51,4-2.76,5.68-4.61a21.89,21.89,0,0,0,4.8-3.77c5.93-4.22,11.47-8.94,17.18-13.44q15-11.77,29.9-23.56l27.68-21.86c1.1-.87,1.9-1.44,1.15-3.29-1.18-2.92.33-5.86,3.08-7.36a6.25,6.25,0,0,1,7.77,1.37A6.51,6.51,0,0,1,388,106a6.2,6.2,0,0,1-7.69,2.33c-2.37-1-3.57,1.05-4.86,2.08-5.67,4.52-11.3,9.08-17,13.56Q336.76,141,315.11,158.22c-3.73,2.95-7.44,5.93-11.16,8.9a15.53,15.53,0,0,0-3.16,2.5l-1.42,1.21A16.67,16.67,0,0,0,295.73,173.72Z"/><path class="cls-5" d="M147.49,287.61l24.63-19.37q11.15-8.76,22.28-17.55c.52-.41,1-1,1.58-.05s.73,1.39-.21,2.12q-9.32,7.23-18.58,14.55-13.51,10.69-27,21.46a10.46,10.46,0,0,0-3.15,2.45,11.75,11.75,0,0,0-2.73,2.18c-4.47,3.07-8.55,6.64-12.81,10l-22.72,17.94c-12.3,9.71-24.59,19.46-36.94,29.11a3.71,3.71,0,0,0-1.53,3.66c.21,3.53-1.93,5.92-5.55,6.55A6.22,6.22,0,0,1,58,356.33a6.34,6.34,0,0,1,3.07-7.61,5.9,5.9,0,0,1,6.55.44,1.55,1.55,0,0,0,2.22-.11q14.43-11.49,28.89-22.92c11.63-9.16,23.35-18.2,34.9-27.44,3.09-2.47,6.42-4.67,9.22-7.49A4.44,4.44,0,0,0,144.6,290,13.68,13.68,0,0,0,147.49,287.61Z"/><path class="cls-6" d="M300.79,169.62a15.53,15.53,0,0,1,3.16-2.5c36.86,9.71,64.7,31,82.62,64.8a99.28,99.28,0,0,1,8.94,23.65c.62,2.6,1.55,5.12,1.77,7.82-1.34.06-1.72,1.46-2.75,2a131.23,131.23,0,0,0-6.48-22c-10.47-26.09-28.19-45.82-52.35-59.95a131.52,131.52,0,0,0-34-13.46C301.4,169.88,301.1,169.74,300.79,169.62Z"/><path class="cls-1" d="M197.48,381.74a228.82,228.82,0,0,0,20,11.7,56.34,56.34,0,0,0,5.47,2.13c25,10.1,50.69,12.08,77,6.61a6.65,6.65,0,0,1,.78-.07,8.67,8.67,0,0,0,.91,2.94,113.59,113.59,0,0,1-21.53,3.17,131.91,131.91,0,0,1-61.29-10.79,138.35,138.35,0,0,1-25.76-15,12.78,12.78,0,0,1-1.15-1.06,1.88,1.88,0,0,1,2-.16A6.28,6.28,0,0,0,197.48,381.74Z"/><path class="cls-1" d="M54.55,107.1a122.3,122.3,0,0,0-11.89,29.28,117.57,117.57,0,0,0-3.11,43.45,120.12,120.12,0,0,0,5.85,25.95c.19.55.4,1.08.6,1.62-1.15,0-1.8,1.37-3,1.17a87.44,87.44,0,0,1-5.11-17.44,121.76,121.76,0,0,1,3.27-61.73,117.82,117.82,0,0,1,10.5-23.91c.23-.39.53-.74.79-1.11Z"/><path class="cls-4" d="M155.1,220.26a12.86,12.86,0,0,1,10.22-3.78c6.07.26,10.26,4.08,10.56,10.17.26,5.35.07,10.72.12,16.08,0,1-.39,1.18-1.29,1.21-3.72.17-3.71.2-3.72-3.54,0-4.16.07-8.34-.1-12.5-.19-4.64-3.1-7.34-7.63-7.37s-7.59,2.6-8,7.09c-.43,4.82-.16,9.66-.14,14.48,0,1.48-.36,2.08-1.86,1.84a5,5,0,0,0-1.59,0c-1.24.18-1.54-.33-1.53-1.54q.06-16.67,0-33.35c0-1.42.56-1.59,1.75-1.59,3.2,0,3.2,0,3.2,3.09Z"/><path class="cls-4" d="M311.54,273.19a15.54,15.54,0,0,0,0-2c-.25-1.58.4-2.05,2-2,2.79.15,2.49-.33,2.5,2.6,0,7.2-.08,14.41.06,21.61,0,1.94-1,1.76-2.19,1.72s-2.68.35-2.33-1.77a15.13,15.13,0,0,0,0-2.06c-2,1.67-3.55,3.2-5.77,3.81-7.19,2-14-2.74-14.94-10.43-.54-4.61.09-9,3.43-12.56C298.06,268.1,306.48,267.18,311.54,273.19Zm0,9c0-.53,0-1.06-.07-1.59-.42-3.92-3.36-7.19-6.91-7.66a7.82,7.82,0,0,0-8.66,5.1,10.9,10.9,0,0,0,.55,9.39,7.82,7.82,0,0,0,13.36.75A9.67,9.67,0,0,0,311.51,282.16Z"/><path class="cls-6" d="M111.27,281.21c-4.3-1.41-8.12-3.81-12-6a127.26,127.26,0,0,1-39-34.42,111.69,111.69,0,0,1-14.56-24.9c-.17-.43-.29-.87-.43-1.31,1.36.23,1.82-1.11,2.78-1.59,2.34,4.93,4.7,9.85,7.51,14.56a123.66,123.66,0,0,0,45.65,44.76c3.32,1.89,6.69,3.7,10,5.55C111.29,279,111.28,280.08,111.27,281.21Z"/><path class="cls-4" d="M226.7,277.67c.19-5.4,2.43-10.76,8.33-13.91,5.59-3,11.2-2.63,16.57.69a14,14,0,0,1,5.15,6.14c.59,1.25.21,1.41-1,1.44-2.15.06-3.75-.13-5.21-2.34-3.25-4.91-11-5.15-15.6-.86-5.11,4.77-5.07,15,.08,19.73a10.73,10.73,0,0,0,16.45-2.1c.56-.89,4.75-1.63,5.38-.93.4.46,0,.87-.18,1.27a13.81,13.81,0,0,1-7.8,7.48C237.61,298.66,226.89,291.11,226.7,277.67Z"/><path class="cls-4" d="M220.62,219.88c3.13-3.22,7.06-3.81,11.17-3.27,5.49.72,9,4.57,9.24,10.2.21,5.28.06,10.58.11,15.86,0,.93-.28,1.23-1.23,1.28-3.78.2-3.77.23-3.78-3.49,0-4.17.07-8.34-.09-12.5-.19-4.67-3-7.35-7.56-7.43s-7.78,2.6-8,7.21-.22,9.51-.16,14.27c0,1.55-.4,2.17-2,1.93a7.07,7.07,0,0,0-1.78,0c-1,.1-1.24-.28-1.23-1.23q0-12.28,0-24.59c0-1,.31-1.2,1.24-1.23C219.74,216.77,219.74,216.73,220.62,219.88Z"/><path class="cls-6" d="M294.09,144.58a131.1,131.1,0,0,0-6.93-22.87,121.12,121.12,0,0,0-30.65-44.15c-3.44-3.2-7.19-6-10.73-9.1.83-.7,2.33-.6,2.51-2.09a52.94,52.94,0,0,1,6.7,5.21,126.15,126.15,0,0,1,36.94,52.84,108.44,108.44,0,0,1,4.77,16.28,2.68,2.68,0,0,1,.1,1.56c-.52-.54-.78-1.4-1.9-.84s-.92,1.08-.62,1.9A1.07,1.07,0,0,1,294.09,144.58Z"/><path class="cls-4" d="M354.12,272.45a10.06,10.06,0,0,1,8.49-3.63c5.67.3,9.2,3.75,9.48,9.67.25,5.15.07,10.33.13,15.49,0,1-.43,1.17-1.31,1.2-3.05.12-3.05.15-3.05-2.8,0-3.71,0-7.42,0-11.12a15,15,0,0,0-.2-2.77c-.76-3.9-3.14-5.83-6.89-5.7s-6,2.45-6.46,6.27c-.39,3.56-.11,7.14-.18,10.71,0,.86,0,1.72,0,2.58,0,2.81-.87,3.45-3.64,2.82-1.16-.27-.73-1.12-.74-1.74,0-5.43,0-10.86,0-16.28,0-4.9.09-9.8,0-14.7-.05-1.85.51-2.25,2.3-2.31,2-.07,2.22.75,2.17,2.39C354.05,265.63,354.12,268.74,354.12,272.45Z"/><path class="cls-6" d="M144.31,293.4a11.75,11.75,0,0,1,2.73-2.18l.63.77a150.75,150.75,0,0,0,1.93,15.55c3.65,19.2,11.89,36.25,24,51.51,2.92,3.69,6.31,6.92,9.45,10.4-.7-.13-1.4-.32-2.11-.38s-1.64-.27-1.83.88a91,91,0,0,1-12.8-15,121,121,0,0,1-19.74-45.24A161.51,161.51,0,0,1,144.31,293.4Z"/><path class="cls-4" d="M261.65,282c.18-6.64,3.42-11.32,9.28-12.66,9.2-2.11,15.66,3.78,15.9,12,.16,5.25-1.37,9.72-6.1,12.47a12.47,12.47,0,0,1-13.21,0C263.1,291.18,261.68,286.87,261.65,282Zm20.79.26c0-5.09-3-9-7.32-9.34-4.56-.4-7.88,2.23-8.83,7-1,5.13,1.29,10,5.38,11.31C277.28,293,282.4,288.7,282.44,282.22Z"/><path class="cls-2" d="M389.27,333.68a62.15,62.15,0,0,1-8.14,15.25c-.66.88-.47,1.68.12,2.67,1.67,2.81,1.45,7.63-1.21,10.11A8.75,8.75,0,0,1,370,363a8.41,8.41,0,0,1-3.84-9.56A8.18,8.18,0,0,1,376,347.7c1.61.43,2.15-.1,2.88-1.31,2.85-4.75,5.26-9.73,7.86-14.62C387.62,332.38,388.05,333.55,389.27,333.68Z"/><path class="cls-1" d="M244.7,166.08l1.66-.31c1.49.92,1.4,1.73-.37,3.2a140.53,140.53,0,0,0-27.86,9.24,119.44,119.44,0,0,0-34.8,23.91,2.12,2.12,0,0,1-3.6-.42c-.52-.91.43-1.14.82-1.53a121,121,0,0,1,23.75-18.44,115.54,115.54,0,0,1,19-9.3,126.24,126.24,0,0,1,16.56-5.33c1.25-.28,2.5-.5,3.76-.74A.9.9,0,0,0,244.7,166.08Z"/><path class="cls-1" d="M147.67,292l-.63-.77a10.46,10.46,0,0,1,3.15-2.45,135.51,135.51,0,0,0,41.87-1.08,123.71,123.71,0,0,0,22.74-6.55c1.69-.64,2.39-.3,3.14,1.24.53,1.1.13,1.28-.72,1.61a136.65,136.65,0,0,1-23.95,6.92A138.51,138.51,0,0,1,147.67,292Z"/><path class="cls-4" d="M320.85,282c.07-6.77,3.23-11.55,9-12.78,6.36-1.36,11.84.59,14.18,6.64.47,1.23.59,1.9-1.15,1.85s-3-.17-4.21-2.15c-2.62-4.44-9.74-3.75-12.13,1a12.12,12.12,0,0,0,0,11.26,6.74,6.74,0,0,0,6.66,3.8,6.32,6.32,0,0,0,6.12-3.9c.4-.9,3.91-1.61,4.77-1,.54.38.15.82,0,1.23a11,11,0,0,1-9.73,7.54C326.19,296.15,320.76,290.77,320.85,282Z"/><path class="cls-2" d="M301.63,405.05a8.67,8.67,0,0,1-.91-2.94,41.2,41.2,0,0,1,4.18-1.17,3.26,3.26,0,0,0,3.06-3.07,8,8,0,0,1,6.88-6.24,8.4,8.4,0,0,1,8.37,4.14,8.53,8.53,0,0,1-2.06,10.73,8.26,8.26,0,0,1-11-.71c-1-1.07-1.86-1-3.21-.94C305.17,404.93,303.38,404.41,301.63,405.05Z"/><path class="cls-2" d="M54.55,107.1l-2.14-2.72c0-.13,0-.29.09-.38,1.71-2.11,2.25-4,.8-6.82-1.68-3.22.13-7.51,3.18-9.56A8.61,8.61,0,0,1,67,88.25a8.48,8.48,0,0,1,2.13,10.1c-1.66,3.43-5.64,5.75-9.15,4.68-2.34-.71-3.18.15-4,1.94A16.89,16.89,0,0,1,54.55,107.1Z"/><path class="cls-4" d="M184.48,229.42c0-2.31-.07-4.63,0-6.94.05-1.3-.36-1.85-1.66-1.63-1.61.27-2.11-.32-2.13-2s.69-2.18,2.2-1.94c1.18.18,1.7-.23,1.58-1.5-.1-1.11.09-2.26-.05-3.37-.2-1.65.53-2.1,2-1.9a5.58,5.58,0,0,0,1.58,0c1.31-.2,1.5.43,1.51,1.58,0,1.68-.79,4,.35,4.9s3.28.22,5,.3c.69,0,1.75-.4,2,.35a7.72,7.72,0,0,1,0,3.14c-.07.55-.74.43-1.18.43-1.65,0-3.31,0-5,0-.94,0-1.25.27-1.24,1.23,0,4.83,0,9.65,0,14.48,0,2.12,1,3.13,3.12,3.34a10,10,0,0,0,2.38,0c1.74-.26,2,.52,2,2.1s-.48,2.08-2,1.94c-1.77-.17-3.57.12-5.33-.29-3.16-.73-4.8-2.32-5-5.52-.21-2.89,0-5.81,0-8.72Z"/><path class="cls-4" d="M79.48,226.83c0-5.08.06-10.17,0-15.26,0-1.49.37-2.07,1.85-1.82a4.63,4.63,0,0,0,1.39,0c1.45-.23,1.72.44,1.71,1.77,0,8.86,0,17.71-.06,26.57,0,1.59.46,2,2,2,3-.12,6.08.07,9.12-.08,1.75-.09,1.72.82,1.7,2.05s.08,2-1.59,1.94c-4.89-.13-9.78-.08-14.67,0-1.15,0-1.44-.34-1.43-1.45C79.51,237.28,79.48,232.06,79.48,226.83Z"/><path class="cls-1" d="M389.27,333.68c-1.22-.13-1.65-1.3-2.5-1.91,2.52-6.65,5.12-13.27,6.63-20.25a121.81,121.81,0,0,0,2.51-36.18c1.48.07,1.42-2,2.83-2a93.36,93.36,0,0,1,.41,22.72,116.12,116.12,0,0,1-8.37,34.47C390.33,331.59,389.77,332.62,389.27,333.68Z"/><path class="cls-6" d="M300.79,166.38a21.89,21.89,0,0,1-4.8,3.77c.18-1.25-.62-1.55-1.62-1.71A132.21,132.21,0,0,0,262.15,167a3.59,3.59,0,0,1-1.95,0,2.35,2.35,0,0,0-1.59-2.92,77.54,77.54,0,0,1,14.19-.88,159.06,159.06,0,0,1,23.25,2.18,10.11,10.11,0,0,0,3.47.77Z"/><path class="cls-2" d="M295.73,173.72a16.67,16.67,0,0,1,3.64-2.89,125.24,125.24,0,0,1-7.3,37.33c-.22.61-.53,1.18-.79,1.77a2.46,2.46,0,0,0-2.8-1.74,112.53,112.53,0,0,0,6.12-23.46C295.08,181.07,295.6,177.42,295.73,173.72Z"/><path class="cls-4" d="M207.5,230.5c0,3.9-.06,7.8,0,11.69,0,1.38-.35,1.8-1.75,1.77-3.21-.07-3.21,0-3.21-3.23,0-7.33,0-14.66,0-22,0-1.46.34-2.1,1.85-1.85a4.56,4.56,0,0,0,1.38,0c1.38-.21,1.8.31,1.77,1.72C207.43,222.58,207.5,226.54,207.5,230.5Z"/><path class="cls-4" d="M107,230.42c0,4-.06,7.92,0,11.88,0,1.31-.36,1.67-1.65,1.65-3.3,0-3.3,0-3.3-3.33,0-7.26,0-14.53,0-21.79,0-1.55.39-2.18,2-1.94a6,6,0,0,0,1.58,0c1.13-.14,1.46.32,1.45,1.43C107,222.36,107,226.39,107,230.42Z"/><path class="cls-1" d="M288.48,208.19a2.46,2.46,0,0,1,2.8,1.74,104.42,104.42,0,0,1-9.79,20.45c-.25.41-.59.9-1,.32-.61-.8-2.14-1-1.75-2.47a1.28,1.28,0,0,1,.19-.34C282.93,221.73,285.78,215,288.48,208.19Z"/><path class="cls-2" d="M147.49,287.61A13.68,13.68,0,0,1,144.6,290c-.69-.51-.09-1.41-.59-2,.29-5.54.32-11.1,1.11-16.61A38.78,38.78,0,0,1,146.2,265c1.16.33,1.15,2.25,2.74,2C148.14,273.82,147.24,280.67,147.49,287.61Z"/><path class="cls-1" d="M144,288c.5.57-.1,1.47.59,2a4.44,4.44,0,0,1-1.74,1.22,139.25,139.25,0,0,1-18.31-4.69c-.74-.24-1.45-.59-2.17-.89l0-3.42A159,159,0,0,0,144,288Z"/><path class="cls-2" d="M299.52,166.07a10.11,10.11,0,0,1-3.47-.77,154.71,154.71,0,0,0-2-20.72,1.07,1.07,0,0,0,.19-1.26c-.3-.82-.38-1.4.62-1.9s1.38.3,1.9.84l.2.81c-.37.32-.26.56.12.75l.3,1.63c-.37.32-.26.56.12.75A123.88,123.88,0,0,1,299.52,166.07Z"/><path class="cls-2" d="M179.1,370c.19-1.15,1.08-.95,1.83-.88s1.41.25,2.11.38c4.56,4.4,9.47,8.37,14.44,12.29a6.28,6.28,0,0,1-3.57-.55,1.88,1.88,0,0,0-2,.16A94.91,94.91,0,0,1,179.1,370Z"/><path class="cls-1" d="M148.94,267c-1.59.26-1.58-1.66-2.74-2a69.37,69.37,0,0,1,3-13.27c.15-.49.21-1.47,1.06-.77.7.57,2.47.21,2,1.82C150.91,257.43,149.92,262.19,148.94,267Z"/><path class="cls-2" d="M258.61,164a2.35,2.35,0,0,1,1.59,2.92L246,169c1.77-1.47,1.86-2.28.37-3.2A72.2,72.2,0,0,1,258.61,164Z"/><path class="cls-2" d="M122.35,282.2l0,3.42a67.81,67.81,0,0,1-11.11-4.41c0-1.13,0-2.26,0-3.39C114.83,279.67,118.77,280.49,122.35,282.2Z"/><path class="cls-4" d="M104.62,206.58a3.06,3.06,0,0,1,3.24,3,3.27,3.27,0,0,1-6.53.13A3,3,0,0,1,104.62,206.58Z"/><path class="cls-4" d="M205.15,206.58a3.05,3.05,0,0,1,3.2,3,3.15,3.15,0,0,1-3.26,3.21,3.12,3.12,0,0,1-3.27-3.16A3,3,0,0,1,205.15,206.58Z"/><path class="cls-2" d="M398.74,273.31c-1.41,0-1.35,2.1-2.83,2l-1.38-10c1-.5,1.41-1.9,2.75-2,0,2.6,1.11,5,1.31,7.56C398.65,271.74,398.69,272.53,398.74,273.31Z"/><path class="cls-2" d="M48.1,213c-1,.48-1.42,1.82-2.78,1.59a27.19,27.19,0,0,1-2.36-6c1.24.2,1.89-1.15,3-1.17Z"/><path class="cls-2" d="M244.7,166.08a.9.9,0,0,1-1,.28A.9.9,0,0,1,244.7,166.08Z"/><path class="cls-6" d="M297.54,146.2c-.38-.19-.49-.43-.12-.75C297.7,145.66,297.8,145.9,297.54,146.2Z"/><path class="cls-6" d="M297.12,143.82c-.38-.19-.49-.43-.12-.75A.46.46,0,0,1,297.12,143.82Z"/><path class="cls-3" d="M271,230.37c0,5.65-4,9.77-9.46,9.82s-9.49-4.18-9.56-9.8a9.51,9.51,0,1,1,19,0Z"/><path class="cls-3" d="M137.11,230.37c0,5.66-4,9.78-9.47,9.82s-9.49-4.19-9.56-9.81a9.44,9.44,0,0,1,9.52-9.81C133.07,220.59,137.1,224.75,137.11,230.37Z"/><path class="cls-3" d="M311.51,282.16a9.67,9.67,0,0,1-1.73,6,7.82,7.82,0,0,1-13.36-.75,10.9,10.9,0,0,1-.55-9.39,7.82,7.82,0,0,1,8.66-5.1c3.55.47,6.49,3.74,6.91,7.66C311.49,281.1,311.49,281.63,311.51,282.16Z"/><path class="cls-3" d="M282.44,282.22c0,6.48-5.16,10.73-10.77,8.95-4.09-1.31-6.41-6.18-5.38-11.31.95-4.75,4.27-7.38,8.83-7C279.44,273.26,282.47,277.13,282.44,282.22Z"/></g></g></svg>